<?xml version="1.0" encoding="utf-8"?>
<!-- Generator: Adobe Illustrator 28.0.0, SVG Export Plug-In . SVG Version: 6.00 Build 0)  -->
<svg version="1.1" id="Layer_1" xmlns="http://www.w3.org/2000/svg" xmlns:xlink="http://www.w3.org/1999/xlink" x="0px" y="0px"
	 viewBox="0 0 36.69 41.71" style="enable-background:new 0 0 36.69 41.71;" xml:space="preserve">
<style type="text/css">
	.st0{fill:#FFFF00;}
	.st1{fill:#FFFFFF;}
	.st2{fill:#FF7800;}
	.st3{fill:#000080;}
	.st4{fill:#00FF00;}
	.st5{fill:#FF0000;}
</style>
<g>
	<g id="Color_Item_00000027585813893788299720000001065929331789707707_">
		<path class="st0" d="M36.33,13.35c0,0.49-0.1,4.25-2.08,10.49c-2.07,6.54-4.6,10.02-4.91,10.43c-2.61,0.89-7.6,1.36-10.99,1.36
			s-8.38-0.48-10.99-1.36c-0.31-0.41-2.84-3.89-4.91-10.43c-1.98-6.24-2.08-10-2.08-10.49c0.28-0.39,2.48-3.34,8.02-7.47
			c4.88-3.63,9.24-5.25,9.96-5.51c0.71,0.25,5.08,1.88,9.96,5.51C33.85,10.01,36.05,12.96,36.33,13.35z"/>
		<path class="st1" d="M21.26,25.87c-0.26,0-1.55,0.05-2.83,0.76v-3.25c0.94-0.48,2.2-0.44,2.52-0.42L21.26,25.87z"/>
		<path class="st1" d="M18.25,23.39v3.25c-1.28-0.71-2.57-0.76-2.83-0.76l0.31-2.91C16.05,22.94,17.31,22.91,18.25,23.39z"/>
		<g>
			<path class="st2" d="M17.28,22.39c-0.03,0.03-0.08,0.03-0.12,0c-0.29-0.26-0.67-0.38-1.06-0.32c-0.45,0.07-0.85,0.37-1.13,0.84
				c-0.67,1.15-1.27,1.32-1.36,1.34c-0.15,0.05-0.34,0.08-0.56,0.08c-0.63,0-1.41-0.22-1.64-0.65c-0.1-0.2-0.09-0.4,0.05-0.56
				c0.15-0.18,0.43-0.3,0.62-0.25c0.1,0.03,0.16,0.09,0.18,0.18c0.02,0.14,0.06,0.22,0.11,0.25c0.05,0.02,0.13,0,0.24-0.06
				c0.18-0.1,0.28-0.22,0.32-0.34c0.03-0.1,0-0.21-0.06-0.32c-0.08-0.14-0.32-0.08-0.72,0.04c-0.24,0.07-0.5,0.15-0.79,0.19
				c-0.56,0.07-1.24-0.13-1.38-0.65c-0.12-0.43-0.33-0.69-0.33-0.69c-0.02-0.03-0.03-0.07-0.01-0.1c0.02-0.03,0.05-0.05,0.09-0.05
				c0.35,0.04,0.51,0.19,0.66,0.32c0.16,0.14,0.28,0.24,0.62,0.21c0.09-0.01,0.12-0.11,0.13-0.15c0.03-0.14-0.03-0.33-0.18-0.41
				c-0.43-0.23-0.76-0.29-1.04-0.34c-0.28-0.05-0.51-0.09-0.76-0.28c-0.53-0.41-0.56-0.75-0.63-1.55c-0.02-0.22-0.04-0.46-0.07-0.76
				c-0.05-0.43-0.58-0.64-0.59-0.64c-0.03-0.01-0.06-0.05-0.06-0.08c0-0.04,0.02-0.07,0.06-0.08c0.26-0.11,0.97-0.39,1.47,0.61
				c0.31,0.62,0.66,0.84,1.29,0.8c0.02,0,0.05,0,0.07-0.01c-0.1-0.29-0.28-0.61-0.84-1.04c-0.91-0.71-0.86-1.22-0.76-2.25l0.02-0.15
				c0.04-0.38-0.02-0.66-0.18-0.84c-0.18-0.2-0.42-0.2-0.42-0.2c-0.05,0-0.08-0.04-0.09-0.08c0-0.05,0.03-0.09,0.07-0.1
				c0.86-0.17,1.05,0.08,1.34,0.46c0.07,0.1,0.16,0.21,0.26,0.32c0.38,0.41,0.74,0.6,1.05,0.7c-0.05-0.19-0.08-0.4-0.09-0.62
				c-0.02-0.82,0.1-1.3,0.23-1.81c0.08-0.31,0.16-0.64,0.22-1.06c0.04-0.36-0.02-0.65-0.2-0.85c-0.3-0.32-0.81-0.31-0.82-0.31
				c-0.05,0-0.09-0.03-0.09-0.08c-0.01-0.05,0.02-0.09,0.06-0.1c0.03-0.01,0.77-0.23,1.49-0.01c0.75,0.23,1.28,1.06,1.28,2.02
				c0.01,1.66,0.2,2.17,0.94,2.56c0.19,0.1,0.4,0.2,0.6,0.29c0.88,0.4,1.79,0.81,1.46,1.93c-0.17,0.58-0.8,0.85-1.28,0.78
				c-0.3-0.05-0.48-0.22-0.47-0.46c0.01-0.44,0.33-0.63,0.58-0.69c-0.08-0.12-0.18-0.2-0.31-0.23c-0.23-0.06-0.5,0.03-0.66,0.14
				c-0.19,0.14-0.3,0.46-0.28,0.78c0.02,0.3,0.15,0.53,0.35,0.64c0.65,0.35,1.08,0.22,1.49,0.1c0.26-0.08,0.51-0.15,0.8-0.1
				c0.22,0.04,0.42,0.18,0.56,0.41c0.26,0.41,0.31,1.04,0.13,1.73c-0.21,0.83,0.12,1.43,0.12,1.44
				C17.33,22.31,17.32,22.36,17.28,22.39z"/>
			<path class="st2" d="M28.84,17.63c0,0.04-0.02,0.07-0.06,0.08c-0.01,0-0.54,0.21-0.59,0.64c-0.03,0.29-0.05,0.54-0.07,0.76
				c-0.07,0.8-0.09,1.14-0.63,1.55c-0.24,0.19-0.48,0.23-0.76,0.28c-0.28,0.05-0.61,0.11-1.04,0.34c-0.15,0.08-0.2,0.27-0.18,0.41
				c0.01,0.04,0.04,0.14,0.13,0.15c0.34,0.04,0.47-0.07,0.62-0.21c0.14-0.13,0.31-0.27,0.66-0.32c0.04,0,0.07,0.01,0.09,0.05
				c0.02,0.03,0.01,0.07-0.01,0.1c0,0-0.21,0.26-0.33,0.69c-0.14,0.51-0.81,0.72-1.38,0.65c-0.29-0.04-0.55-0.12-0.79-0.19
				c-0.4-0.12-0.63-0.18-0.72-0.04c-0.07,0.12-0.09,0.22-0.06,0.32c0.03,0.12,0.14,0.24,0.32,0.34c0.11,0.06,0.19,0.09,0.24,0.06
				c0.05-0.02,0.09-0.11,0.11-0.25c0.02-0.09,0.08-0.16,0.18-0.18c0.19-0.05,0.48,0.06,0.62,0.25c0.13,0.17,0.15,0.36,0.05,0.56
				c-0.22,0.43-1.01,0.65-1.64,0.65c-0.21,0-0.41-0.03-0.56-0.08c-0.09-0.02-0.68-0.19-1.36-1.34c-0.28-0.48-0.68-0.78-1.13-0.84
				c-0.39-0.06-0.77,0.06-1.06,0.32c-0.03,0.03-0.08,0.03-0.12,0c-0.03-0.03-0.04-0.08-0.02-0.11c0-0.01,0.33-0.6,0.12-1.44
				c-0.17-0.69-0.13-1.32,0.13-1.73c0.14-0.22,0.33-0.36,0.56-0.41c0.28-0.06,0.53,0.02,0.8,0.1c0.41,0.12,0.84,0.25,1.49-0.1
				c0.2-0.11,0.33-0.35,0.35-0.64c0.02-0.32-0.09-0.63-0.28-0.78c-0.16-0.12-0.43-0.2-0.66-0.14c-0.13,0.03-0.23,0.11-0.31,0.23
				c0.25,0.06,0.57,0.26,0.58,0.69c0.01,0.24-0.17,0.41-0.47,0.46c-0.48,0.08-1.11-0.2-1.28-0.78c-0.33-1.11,0.58-1.53,1.46-1.93
				c0.2-0.09,0.41-0.19,0.6-0.29c0.74-0.39,0.92-0.9,0.94-2.56c0.01-0.96,0.53-1.79,1.28-2.02c0.72-0.22,1.46,0,1.49,0.01
				c0.04,0.01,0.07,0.06,0.06,0.1c-0.01,0.04-0.04,0.08-0.09,0.08c0,0-0.52-0.02-0.82,0.31c-0.18,0.2-0.25,0.48-0.2,0.85
				c0.05,0.43,0.14,0.75,0.22,1.06c0.13,0.51,0.25,0.99,0.23,1.81c-0.01,0.22-0.04,0.42-0.09,0.62c0.31-0.1,0.67-0.3,1.05-0.7
				c0.1-0.11,0.19-0.22,0.26-0.32c0.29-0.38,0.49-0.63,1.34-0.46c0.05,0.01,0.08,0.05,0.07,0.1c0,0.05-0.04,0.08-0.09,0.08
				c0,0-0.24,0.01-0.42,0.2c-0.16,0.18-0.22,0.46-0.18,0.84l0.02,0.15c0.1,1.02,0.16,1.54-0.76,2.25c-0.56,0.43-0.73,0.75-0.84,1.04
				c0.03,0,0.05,0,0.07,0.01c0.62,0.04,0.97-0.18,1.29-0.8c0.5-1,1.21-0.72,1.47-0.61C28.82,17.56,28.84,17.6,28.84,17.63z"/>
		</g>
		<polygon class="st3" points="27.32,30.83 27.15,30.31 27.15,30.31 26.98,30.83 26.43,30.84 26.87,31.15 26.7,31.69 27.15,31.37 
			27.15,31.37 27.59,31.69 27.43,31.15 27.86,30.84 		"/>
		<polygon class="st3" points="9.71,30.83 9.54,30.31 9.54,30.31 9.37,30.83 8.83,30.84 9.26,31.15 9.1,31.69 9.54,31.37 
			9.54,31.37 9.98,31.69 9.82,31.15 10.25,30.84 		"/>
		<path class="st2" d="M19.01,9.26l0.35,1.15L18.35,9.7l0,0l0,0l-1.02,0.71l0.35-1.15c0.01-0.04,0-0.09-0.04-0.11l-0.93-0.67
			l1.16-0.01c0.04,0,0.08-0.03,0.1-0.07l0.37-1.12l0,0l0,0l0,0l0,0l0.37,1.12c0.01,0.04,0.05,0.07,0.1,0.07l1.16,0.01l-0.93,0.67
			C19.02,9.17,19,9.22,19.01,9.26z"/>
		<path class="st2" d="M15.13,10.87l0.22,0.71l-0.63-0.44v0l-0.63,0.44l0.22-0.71c0.01-0.02,0-0.05-0.02-0.06l-0.57-0.42l0.72-0.01
			c0.03,0,0.05-0.02,0.06-0.04l0.23-0.69l0.23,0.69c0.01,0.02,0.03,0.04,0.06,0.04l0.72,0.01l-0.57,0.42
			C15.14,10.82,15.13,10.85,15.13,10.87z"/>
		<path class="st2" d="M22.38,10.87l0.22,0.71l-0.63-0.44v0l-0.63,0.44l0.22-0.71c0.01-0.02,0-0.05-0.02-0.06l-0.57-0.42l0.72-0.01
			c0.03,0,0.05-0.02,0.06-0.04l0.23-0.69l0.23,0.69c0.01,0.02,0.03,0.04,0.06,0.04l0.72,0.01l-0.57,0.42
			C22.38,10.82,22.37,10.85,22.38,10.87z"/>
		<path class="st4" d="M19.19,15.44c-0.01,0.27-0.03,1.32-0.14,3.04l0,0.02c-0.05,0.74-0.14,2.29-0.23,3.05
			c-0.13,1.11-0.38,1.52-0.48,1.65c-0.1-0.13-0.35-0.55-0.48-1.65c-0.09-0.76-0.18-2.3-0.23-3.05l0-0.02
			c-0.1-1.71-0.13-2.76-0.14-3.04c0.33-0.07,0.63-0.09,0.85-0.09C18.56,15.35,18.87,15.37,19.19,15.44z"/>
		<path class="st5" d="M20.09,13.02c-0.05,0.25-0.16,0.74-0.39,1.06c-0.15-0.04-0.57-0.14-1.06-0.16c-0.02,0-0.04,0-0.05,0
			c-0.02,0-0.04,0-0.06,0c-0.02,0-0.04,0-0.06,0c-0.02,0-0.04,0-0.06,0c-0.02,0-0.05,0-0.07,0h0c-0.02,0-0.05,0-0.07,0
			c-0.02,0-0.04,0-0.06,0c-0.02,0-0.04,0-0.06,0c-0.02,0-0.04,0-0.06,0c-0.02,0-0.04,0-0.05,0c-0.49,0.03-0.91,0.13-1.06,0.16
			c-0.24-0.32-0.35-0.81-0.39-1.06c0.3,0.17,0.52,0.39,0.53,0.39c0.03,0.03,0.08,0.04,0.12,0.01c0.04-0.02,0.05-0.07,0.03-0.11
			c-0.14-0.31-0.21-0.76-0.24-0.98c0.4,0.16,0.66,0.55,0.66,0.55c0.02,0.03,0.06,0.05,0.1,0.04c0.04-0.01,0.06-0.04,0.07-0.08
			c0.07-0.6,0.31-1.17,0.46-1.47l0.04-0.07l0.04,0.07c0.15,0.3,0.39,0.86,0.46,1.47c0,0.04,0.03,0.07,0.07,0.08
			c0.04,0.01,0.08-0.01,0.1-0.04c0,0,0.26-0.39,0.66-0.55c-0.03,0.22-0.1,0.67-0.24,0.98c-0.02,0.04,0,0.09,0.03,0.11
			c0.04,0.03,0.08,0.02,0.12-0.01C19.57,13.41,19.79,13.19,20.09,13.02z"/>
		<path class="st1" d="M19.82,14.83c-0.21,0.29-0.46,0.41-0.54,0.45h0c-0.36-0.09-0.7-0.11-0.93-0.11c-0.23,0-0.57,0.02-0.93,0.11h0
			c-0.08-0.03-0.33-0.16-0.54-0.45c0.58-0.22,1.4-0.23,1.47-0.23l0.01,0l0.01,0C18.42,14.61,19.24,14.61,19.82,14.83z"/>
		<path class="st1" d="M19.94,14.36c0,0.14-0.02,0.24-0.04,0.31c-0.63-0.25-1.51-0.25-1.56-0.24c-0.05,0-0.92,0-1.56,0.24
			c-0.02-0.06-0.04-0.16-0.04-0.31c0,0,0,0,0.01,0l0.01-0.01c0.01,0,0.02-0.01,0.03-0.01c0.08-0.03,0.22-0.08,0.34-0.11
			c0.02,0,0.03-0.01,0.05-0.01c0.22-0.05,0.57-0.11,0.93-0.13c0.02,0,0.04,0,0.05,0c0.02,0,0.04,0,0.06,0c0.04,0,0.08,0,0.12,0h0
			c0.04,0,0.08,0,0.12,0c0.02,0,0.04,0,0.06,0c0.02,0,0.04,0,0.05,0c0.36,0.02,0.71,0.09,0.93,0.13c0.01,0,0.02,0,0.03,0.01
			c0.01,0,0.02,0.01,0.04,0.01c0.13,0.03,0.28,0.09,0.34,0.11C19.92,14.36,19.93,14.36,19.94,14.36
			C19.94,14.36,19.94,14.36,19.94,14.36z"/>
	</g>
	<g id="Outline_00000123431753207730888890000005928488240895497143_">
		<path d="M36.69,13.29l0-0.05l-0.03-0.04c-0.02-0.03-2.15-3.14-8.14-7.6C23.15,1.61,18.4,0.02,18.35,0l-0.01,0l-0.01,0
			c-0.05,0.02-4.8,1.61-10.16,5.6c-5.99,4.45-8.12,7.57-8.14,7.6L0,13.24l0,0.05c0,0.04-0.04,3.93,2.1,10.66
			c2.22,7.02,4.97,10.55,5,10.59l0.03,0.04l0.05,0.02C9.82,35.51,14.9,36,18.34,36s8.53-0.49,11.16-1.4l0.05-0.02l0.03-0.04
			c0.03-0.03,2.78-3.57,5-10.59C36.72,17.22,36.69,13.33,36.69,13.29z M34.25,23.84c-2.07,6.54-4.6,10.02-4.91,10.43
			c-2.61,0.89-7.6,1.36-10.99,1.36s-8.38-0.48-10.99-1.36c-0.31-0.41-2.84-3.89-4.91-10.43c-1.98-6.24-2.08-10-2.08-10.49
			c0.28-0.39,2.48-3.34,8.02-7.47c4.88-3.63,9.24-5.25,9.96-5.51c0.71,0.25,5.08,1.88,9.96,5.51c5.55,4.12,7.75,7.07,8.02,7.47
			C36.32,13.84,36.22,17.6,34.25,23.84z"/>
		<path d="M18.34,6.33c-7.06,0-12.8,5.74-12.8,12.8s5.74,12.8,12.8,12.8s12.8-5.74,12.8-12.8S25.4,6.33,18.34,6.33z M18.34,31.58
			C11.48,31.58,5.9,26,5.9,19.14S11.48,6.69,18.34,6.69s12.44,5.58,12.44,12.44S25.2,31.58,18.34,31.58z"/>
		<path d="M20.21,8.3l-0.23,0l-1.03-0.01c-0.04,0-0.08-0.03-0.1-0.07l-0.33-1l-0.07-0.22c-0.03-0.09-0.16-0.09-0.19,0l-0.07,0.22
			l-0.33,1c-0.01,0.04-0.05,0.07-0.1,0.07l-1.03,0.01l-0.23,0c-0.1,0-0.14,0.13-0.06,0.19l0.19,0.14l0.82,0.6
			c0.04,0.03,0.05,0.07,0.04,0.11l-0.31,1.03l-0.07,0.22c-0.03,0.09,0.08,0.17,0.16,0.11l0.18-0.13l0.91-0.64l0,0l0,0l0.91,0.64
			l0.18,0.13c0.08,0.06,0.19-0.02,0.16-0.11l-0.07-0.22l-0.31-1.03c-0.01-0.04,0-0.09,0.04-0.11l0.82-0.6l0.19-0.14
			C20.35,8.42,20.31,8.3,20.21,8.3z M19.05,9.15C19.02,9.17,19,9.22,19.01,9.26l0.35,1.15L18.35,9.7l0,0l0,0l-1.02,0.71l0.35-1.15
			c0.01-0.04,0-0.09-0.04-0.11l-0.93-0.67l1.16-0.01c0.04,0,0.08-0.03,0.1-0.07l0.37-1.12l0,0l0,0l0,0l0,0l0.37,1.12
			c0.01,0.04,0.05,0.07,0.1,0.07l1.16,0.01L19.05,9.15z"/>
		<path d="M15.89,23.2l-0.02,0.18c0.29-0.01,1.25-0.01,2.21,0.51l0-0.2C17.14,23.2,16.22,23.19,15.89,23.2z"/>
		<path d="M15.86,23.5l-0.02,0.18c0.23-0.01,1.24-0.01,2.23,0.56l0-0.21C17.11,23.5,16.15,23.49,15.86,23.5z"/>
		<path d="M15.83,23.82L15.81,24c0.12,0,1.22-0.02,2.26,0.62l0-0.21C17.06,23.82,16.05,23.81,15.83,23.82z"/>
		<path d="M15.79,24.29c0.07,0,1.23,0,2.29,0.73l0-0.22c-1.03-0.66-2.09-0.7-2.27-0.7L15.79,24.29z"/>
		<path d="M15.75,24.64c0.09,0,1.27,0.02,2.32,0.79l0-0.22c-1.04-0.7-2.12-0.74-2.3-0.75L15.75,24.64z"/>
		<path d="M15.73,24.82L15.72,25c0.09,0,1.29,0.04,2.35,0.84l0-0.22c-0.53-0.37-1.07-0.57-1.5-0.68
			C16.14,24.84,15.82,24.82,15.73,24.82z"/>
		<path d="M15.68,25.42c0.24,0.01,1.39,0.09,2.38,0.87l0.01,0.01l0-0.22c-1.01-0.74-2.1-0.82-2.38-0.83L15.68,25.42z"/>
		<path d="M10.98,21.28c0.15,0.08,0.2,0.27,0.18,0.41c-0.01,0.04-0.04,0.14-0.13,0.15c-0.34,0.04-0.47-0.07-0.62-0.21
			c-0.14-0.13-0.31-0.27-0.66-0.32c-0.04,0-0.07,0.01-0.09,0.05c-0.02,0.03-0.01,0.07,0.01,0.1c0,0,0.21,0.26,0.33,0.69
			c0.14,0.51,0.81,0.72,1.38,0.65c0.29-0.04,0.55-0.12,0.79-0.19c0.4-0.12,0.63-0.18,0.72-0.04c0.07,0.12,0.09,0.22,0.06,0.32
			c-0.03,0.12-0.14,0.24-0.32,0.34c-0.11,0.06-0.19,0.09-0.24,0.06c-0.05-0.02-0.09-0.11-0.11-0.25c-0.02-0.09-0.08-0.16-0.18-0.18
			c-0.19-0.05-0.48,0.06-0.62,0.25c-0.13,0.17-0.15,0.36-0.05,0.56c0.22,0.43,1.01,0.65,1.64,0.65c0.21,0,0.41-0.03,0.56-0.08
			c0.09-0.02,0.68-0.19,1.36-1.34c0.28-0.48,0.68-0.78,1.13-0.84c0.39-0.06,0.77,0.06,1.06,0.32c0.03,0.03,0.08,0.03,0.12,0
			c0.03-0.03,0.04-0.08,0.02-0.11c0-0.01-0.33-0.6-0.12-1.44c0.17-0.69,0.13-1.32-0.13-1.73c-0.14-0.22-0.33-0.36-0.56-0.41
			c-0.28-0.06-0.53,0.02-0.8,0.1c-0.41,0.12-0.84,0.25-1.49-0.1c-0.2-0.11-0.33-0.35-0.35-0.64c-0.02-0.32,0.09-0.63,0.28-0.78
			c0.16-0.12,0.43-0.2,0.66-0.14c0.13,0.03,0.23,0.11,0.31,0.23c-0.25,0.06-0.57,0.26-0.58,0.69c-0.01,0.24,0.17,0.41,0.47,0.46
			c0.48,0.08,1.11-0.2,1.28-0.78c0.33-1.11-0.58-1.53-1.46-1.93c-0.2-0.09-0.41-0.19-0.6-0.29c-0.74-0.39-0.92-0.9-0.94-2.56
			c-0.01-0.96-0.53-1.79-1.28-2.02c-0.72-0.22-1.46,0-1.49,0.01c-0.04,0.01-0.07,0.06-0.06,0.1c0.01,0.04,0.04,0.08,0.09,0.08
			c0,0,0.52-0.02,0.82,0.31c0.18,0.2,0.25,0.48,0.2,0.85c-0.05,0.43-0.14,0.75-0.22,1.06c-0.13,0.51-0.25,0.99-0.23,1.81
			c0.01,0.22,0.04,0.42,0.09,0.62c-0.31-0.1-0.67-0.3-1.05-0.7c-0.1-0.11-0.19-0.22-0.26-0.32c-0.29-0.38-0.49-0.63-1.34-0.46
			c-0.05,0.01-0.08,0.05-0.07,0.1c0,0.05,0.04,0.08,0.09,0.08c0,0,0.24,0.01,0.42,0.2c0.16,0.18,0.22,0.46,0.18,0.84l-0.02,0.15
			c-0.1,1.02-0.16,1.54,0.76,2.25c0.56,0.43,0.73,0.75,0.84,1.04c-0.03,0-0.05,0-0.07,0.01c-0.62,0.04-0.97-0.18-1.29-0.8
			c-0.5-1-1.21-0.72-1.47-0.61c-0.03,0.01-0.06,0.05-0.06,0.08c0,0.04,0.02,0.07,0.06,0.08c0.01,0,0.54,0.21,0.59,0.64
			c0.03,0.29,0.05,0.54,0.07,0.76c0.07,0.8,0.09,1.14,0.63,1.55c0.24,0.19,0.48,0.23,0.76,0.28C10.22,20.99,10.55,21.05,10.98,21.28
			z M8.74,19.1c-0.02-0.22-0.04-0.46-0.07-0.76c-0.04-0.35-0.31-0.57-0.5-0.69c0.36-0.1,0.73-0.04,1.05,0.59
			c0.35,0.69,0.76,0.94,1.46,0.9c0.04,0,0.08-0.01,0.12-0.01c0,0,0,0.01,0,0.01c0.1,0.33,0.21,0.67,0.78,1.12
			c0.43,0.34,1.01,0.39,1.26,0.22c0.11-0.08,0.22-0.24,0.22-0.45c0-0.18-0.07-0.44-0.45-0.71c-0.61-0.44-1.24-0.41-1.68-0.37
			c-0.11-0.33-0.28-0.68-0.91-1.17c-0.83-0.65-0.79-1.07-0.69-2.09l0.02-0.15c0.04-0.43-0.03-0.76-0.23-0.98
			c-0.05-0.06-0.1-0.1-0.16-0.13c0.43-0.02,0.56,0.15,0.79,0.45c0.08,0.1,0.16,0.21,0.27,0.33c0.45,0.49,0.89,0.69,1.25,0.79
			c0.18,0.51,0.49,0.88,0.78,1.03c0.17,0.08,0.32,0.09,0.44,0c0.13-0.09,0.18-0.24,0.14-0.41c-0.06-0.28-0.37-0.61-0.91-0.71
			c-0.09-0.02-0.19-0.04-0.3-0.06c-0.06-0.2-0.1-0.43-0.11-0.68c-0.02-0.8,0.1-1.27,0.23-1.76c0.08-0.32,0.17-0.65,0.22-1.09
			c0.05-0.42-0.03-0.75-0.25-0.99c-0.13-0.14-0.28-0.22-0.42-0.27c0.25-0.02,0.58-0.02,0.89,0.08c0.67,0.21,1.15,0.97,1.16,1.85
			c0.01,1.73,0.22,2.29,1.03,2.72c0.19,0.1,0.4,0.2,0.61,0.29c0.88,0.4,1.65,0.75,1.36,1.71c-0.16,0.53-0.74,0.71-1.08,0.65
			c-0.1-0.02-0.32-0.07-0.32-0.28c0.01-0.49,0.52-0.54,0.54-0.54c0.03,0,0.06-0.02,0.07-0.04c0.02-0.02,0.02-0.06,0.01-0.08
			c-0.1-0.23-0.26-0.38-0.48-0.44c-0.29-0.08-0.63,0.04-0.81,0.17c-0.24,0.18-0.38,0.55-0.35,0.93c0.03,0.36,0.19,0.65,0.45,0.79
			c0.71,0.39,1.2,0.24,1.63,0.11c0.25-0.08,0.47-0.14,0.71-0.09c0.17,0.03,0.33,0.15,0.44,0.32c0.23,0.36,0.27,0.96,0.11,1.59
			c-0.14,0.55-0.07,0.99,0.02,1.27c-0.28-0.16-0.61-0.23-0.95-0.17c-0.5,0.08-0.95,0.41-1.26,0.93c-0.66,1.14-1.23,1.26-1.24,1.26
			c-0.01,0-0.01,0-0.02,0c-0.5,0.19-1.73,0-1.98-0.49c-0.07-0.13-0.06-0.26,0.03-0.36c0.1-0.12,0.27-0.19,0.38-0.19
			c0.02,0,0.04,0,0.05,0.01c0.04,0.01,0.04,0.03,0.04,0.04c0.02,0.13,0.07,0.31,0.21,0.38c0.11,0.05,0.24,0.03,0.41-0.07
			c0.22-0.13,0.36-0.28,0.4-0.45c0.04-0.15,0.01-0.3-0.08-0.46c-0.16-0.27-0.51-0.17-0.92-0.04c-0.23,0.07-0.49,0.15-0.76,0.18
			c-0.49,0.06-1.07-0.11-1.18-0.51c-0.07-0.24-0.16-0.43-0.23-0.56c0.16,0.05,0.25,0.14,0.35,0.23c0.17,0.15,0.34,0.3,0.76,0.25
			c0.14-0.02,0.25-0.13,0.28-0.3c0.04-0.21-0.04-0.48-0.27-0.61c-0.46-0.25-0.81-0.31-1.09-0.36c-0.26-0.05-0.47-0.08-0.68-0.24
			C8.82,20.16,8.8,19.89,8.74,19.1z M10.97,19.11c0.42-0.04,0.97-0.05,1.52,0.34c0.25,0.18,0.37,0.37,0.37,0.57
			c0,0.15-0.09,0.27-0.14,0.31c-0.17,0.12-0.66,0.1-1.04-0.21C11.17,19.72,11.07,19.42,10.97,19.11z M11.46,16.04
			c0.07,0.02,0.14,0.03,0.2,0.04c0.46,0.08,0.72,0.35,0.77,0.57c0.02,0.07,0.02,0.16-0.07,0.23c-0.08,0.06-0.19,0.01-0.25-0.02
			C11.9,16.75,11.64,16.46,11.46,16.04z"/>
		<path d="M16.1,10.21l-0.36,0l-0.59-0.01c-0.03,0-0.05-0.02-0.06-0.04l-0.19-0.57l-0.11-0.34c-0.02-0.05-0.09-0.05-0.11,0
			l-0.11,0.34l-0.19,0.57c-0.01,0.02-0.03,0.04-0.06,0.04l-0.59,0.01l-0.36,0c-0.06,0-0.08,0.07-0.03,0.11l0.3,0.21l0.47,0.34
			c0.02,0.01,0.03,0.04,0.02,0.06l-0.18,0.59l-0.1,0.34c-0.02,0.05,0.04,0.1,0.09,0.07l0.29-0.2l0.52-0.37v0l0.52,0.37l0.29,0.2
			c0.05,0.03,0.11-0.01,0.09-0.07l-0.1-0.34l-0.18-0.59c-0.01-0.02,0-0.05,0.02-0.06l0.47-0.34l0.3-0.21
			C16.18,10.29,16.15,10.22,16.1,10.21z M15.16,10.81c-0.02,0.01-0.03,0.04-0.02,0.06l0.22,0.71l-0.63-0.44v0l-0.63,0.44l0.22-0.71
			c0.01-0.02,0-0.05-0.02-0.06l-0.57-0.42l0.72-0.01c0.03,0,0.05-0.02,0.06-0.04l0.23-0.69l0.23,0.69c0.01,0.02,0.03,0.04,0.06,0.04
			l0.72,0.01L15.16,10.81z"/>
		<path d="M20.81,23.38L20.8,23.2c-0.32-0.01-1.24,0-2.19,0.48l0,0.2C19.56,23.37,20.53,23.37,20.81,23.38z"/>
		<path d="M20.84,23.68l-0.02-0.18c-0.28-0.01-1.24,0-2.22,0.54l0,0.21C19.6,23.67,20.61,23.67,20.84,23.68z"/>
		<path d="M20.87,24l-0.02-0.18c-0.21-0.01-1.23,0-2.25,0.59l0,0.21C19.66,23.98,20.75,23.99,20.87,24z"/>
		<path d="M20.88,24.11c-0.18,0-1.24,0.03-2.27,0.7l0,0.22c1.06-0.73,2.22-0.73,2.29-0.73L20.88,24.11z"/>
		<path d="M20.92,24.46c-0.18,0-1.27,0.05-2.3,0.75l0,0.22c1.05-0.76,2.23-0.79,2.32-0.79L20.92,24.46z"/>
		<path d="M20.12,24.94c-0.43,0.11-0.98,0.3-1.5,0.68l0,0.22c1.06-0.8,2.27-0.84,2.35-0.84l-0.02-0.18
			C20.87,24.82,20.55,24.84,20.12,24.94z"/>
		<path d="M18.62,26.29L18.62,26.29c1-0.78,2.15-0.87,2.39-0.88l-0.02-0.18c-0.28,0.01-1.37,0.1-2.38,0.83L18.62,26.29z"/>
		<path d="M26.81,14.76c-0.07,0.1-0.16,0.21-0.26,0.32c-0.38,0.41-0.74,0.6-1.05,0.7c0.05-0.19,0.08-0.4,0.09-0.62
			c0.02-0.82-0.1-1.3-0.23-1.81c-0.08-0.31-0.16-0.64-0.22-1.06c-0.04-0.36,0.02-0.65,0.2-0.85c0.3-0.32,0.81-0.31,0.82-0.31
			c0.05,0,0.09-0.03,0.09-0.08c0.01-0.05-0.02-0.09-0.06-0.1c-0.03-0.01-0.77-0.23-1.49-0.01c-0.75,0.23-1.28,1.06-1.28,2.02
			c-0.01,1.66-0.2,2.17-0.94,2.56c-0.19,0.1-0.4,0.2-0.6,0.29c-0.88,0.4-1.79,0.81-1.46,1.93c0.17,0.58,0.8,0.85,1.28,0.78
			c0.3-0.05,0.48-0.22,0.47-0.46c-0.01-0.44-0.33-0.63-0.58-0.69c0.08-0.12,0.18-0.2,0.31-0.23c0.23-0.06,0.5,0.03,0.66,0.14
			c0.19,0.14,0.3,0.46,0.28,0.78c-0.02,0.3-0.15,0.53-0.35,0.64c-0.65,0.35-1.08,0.22-1.49,0.1c-0.26-0.08-0.51-0.15-0.8-0.1
			c-0.22,0.04-0.42,0.18-0.56,0.41c-0.26,0.41-0.31,1.04-0.13,1.73c0.21,0.83-0.12,1.43-0.12,1.44c-0.02,0.04-0.01,0.09,0.02,0.11
			c0.03,0.03,0.08,0.03,0.12,0c0.29-0.26,0.67-0.38,1.06-0.32c0.45,0.07,0.85,0.37,1.13,0.84c0.67,1.15,1.27,1.32,1.36,1.34
			c0.15,0.05,0.34,0.08,0.56,0.08c0.63,0,1.41-0.22,1.64-0.65c0.1-0.2,0.09-0.4-0.05-0.56c-0.15-0.18-0.43-0.3-0.62-0.25
			c-0.1,0.03-0.16,0.09-0.18,0.18c-0.02,0.14-0.06,0.22-0.11,0.25c-0.05,0.02-0.13,0-0.24-0.06c-0.18-0.1-0.28-0.22-0.32-0.34
			c-0.03-0.1,0-0.21,0.06-0.32c0.08-0.14,0.32-0.08,0.72,0.04c0.24,0.07,0.5,0.15,0.79,0.19c0.56,0.07,1.24-0.13,1.38-0.65
			c0.12-0.43,0.33-0.69,0.33-0.69c0.02-0.03,0.03-0.07,0.01-0.1c-0.02-0.03-0.05-0.05-0.09-0.05c-0.35,0.04-0.51,0.19-0.66,0.32
			c-0.16,0.14-0.28,0.24-0.62,0.21c-0.09-0.01-0.12-0.11-0.13-0.15c-0.03-0.14,0.03-0.33,0.18-0.41c0.43-0.23,0.76-0.29,1.04-0.34
			c0.28-0.05,0.51-0.09,0.76-0.28c0.53-0.41,0.56-0.75,0.63-1.55c0.02-0.22,0.04-0.46,0.07-0.76c0.05-0.43,0.58-0.64,0.59-0.64
			c0.03-0.01,0.06-0.05,0.06-0.08c0-0.04-0.02-0.07-0.06-0.08c-0.26-0.11-0.97-0.39-1.47,0.61c-0.31,0.62-0.66,0.84-1.29,0.8
			c-0.02,0-0.05,0-0.07-0.01c0.1-0.29,0.28-0.61,0.84-1.04c0.91-0.71,0.86-1.22,0.76-2.25l-0.02-0.15
			c-0.04-0.38,0.02-0.66,0.18-0.84c0.18-0.2,0.42-0.2,0.42-0.2c0.05,0,0.08-0.04,0.09-0.08c0-0.05-0.03-0.09-0.07-0.1
			C27.3,14.12,27.11,14.38,26.81,14.76z M27.74,14.42c-0.05,0.03-0.11,0.08-0.16,0.13c-0.2,0.22-0.28,0.55-0.23,0.98l0.02,0.15
			c0.1,1.02,0.15,1.44-0.69,2.09c-0.63,0.49-0.8,0.84-0.91,1.17c-0.44-0.04-1.07-0.07-1.68,0.37c-0.37,0.27-0.45,0.54-0.45,0.71
			c0,0.21,0.11,0.38,0.22,0.45c0.25,0.17,0.83,0.13,1.26-0.22c0.57-0.45,0.67-0.79,0.78-1.12c0,0,0-0.01,0-0.01
			c0.04,0,0.08,0.01,0.12,0.01c0.7,0.04,1.11-0.21,1.46-0.9c0.32-0.63,0.69-0.69,1.05-0.59c-0.19,0.12-0.46,0.34-0.5,0.69
			c-0.03,0.3-0.05,0.54-0.07,0.76c-0.06,0.79-0.09,1.06-0.56,1.43c-0.21,0.16-0.41,0.2-0.68,0.24c-0.28,0.05-0.64,0.11-1.09,0.36
			c-0.23,0.12-0.31,0.4-0.27,0.61c0.03,0.17,0.14,0.28,0.28,0.3c0.42,0.05,0.59-0.11,0.76-0.25c0.1-0.09,0.19-0.17,0.35-0.23
			c-0.08,0.13-0.17,0.32-0.23,0.56c-0.11,0.4-0.69,0.58-1.18,0.51c-0.27-0.03-0.53-0.11-0.76-0.18c-0.41-0.12-0.76-0.23-0.92,0.04
			c-0.09,0.16-0.12,0.31-0.08,0.46c0.05,0.17,0.18,0.32,0.4,0.45c0.17,0.1,0.3,0.12,0.41,0.07c0.14-0.07,0.19-0.25,0.21-0.38
			c0-0.01,0-0.03,0.04-0.04c0.02,0,0.03-0.01,0.05-0.01c0.12,0,0.29,0.07,0.38,0.19c0.09,0.11,0.1,0.23,0.03,0.36
			c-0.25,0.48-1.48,0.67-1.98,0.49c-0.01,0-0.01,0-0.02,0c0,0-0.58-0.12-1.24-1.26c-0.31-0.52-0.75-0.85-1.26-0.93
			c-0.33-0.05-0.66,0.01-0.95,0.17c0.08-0.28,0.16-0.72,0.02-1.27c-0.16-0.63-0.12-1.23,0.11-1.59c0.11-0.18,0.26-0.29,0.44-0.32
			c0.24-0.05,0.46,0.02,0.71,0.09c0.43,0.13,0.91,0.27,1.63-0.11c0.26-0.14,0.42-0.43,0.45-0.79c0.03-0.38-0.11-0.75-0.35-0.93
			c-0.18-0.14-0.52-0.25-0.81-0.17c-0.22,0.06-0.38,0.21-0.48,0.44c-0.01,0.03-0.01,0.06,0.01,0.08c0.02,0.03,0.04,0.04,0.07,0.04
			c0.02,0,0.53,0.05,0.54,0.54c0.01,0.2-0.22,0.26-0.32,0.28c-0.34,0.05-0.92-0.12-1.08-0.65c-0.29-0.96,0.48-1.31,1.36-1.71
			c0.2-0.09,0.41-0.19,0.61-0.29c0.81-0.43,1.02-0.99,1.03-2.72c0.01-0.88,0.48-1.64,1.16-1.85c0.31-0.09,0.63-0.1,0.89-0.08
			c-0.15,0.05-0.3,0.14-0.42,0.27c-0.22,0.24-0.3,0.57-0.25,0.99c0.05,0.44,0.14,0.77,0.22,1.09c0.13,0.5,0.25,0.96,0.23,1.76
			c-0.01,0.25-0.05,0.47-0.11,0.68c-0.11,0.03-0.21,0.04-0.3,0.06c-0.55,0.1-0.85,0.43-0.91,0.71c-0.04,0.17,0.01,0.32,0.14,0.41
			c0.11,0.08,0.27,0.08,0.44,0c0.29-0.15,0.6-0.52,0.78-1.03c0.36-0.1,0.8-0.3,1.25-0.79c0.11-0.12,0.2-0.23,0.27-0.33
			C27.18,14.58,27.31,14.4,27.74,14.42z M25.72,19.11c-0.1,0.31-0.2,0.6-0.71,1.01c-0.38,0.3-0.87,0.33-1.04,0.21
			c-0.06-0.04-0.14-0.15-0.14-0.31c0-0.19,0.13-0.39,0.37-0.57C24.74,19.06,25.29,19.08,25.72,19.11z M25.22,16.04
			c-0.17,0.42-0.44,0.71-0.65,0.81c-0.06,0.03-0.17,0.07-0.25,0.02c-0.09-0.06-0.09-0.16-0.07-0.23c0.05-0.21,0.31-0.48,0.77-0.57
			C25.09,16.07,25.15,16.05,25.22,16.04z"/>
		<path d="M27.22,26.52l-1.06,0.08l0.14-1.5c0-0.04-0.02-0.08-0.06-0.09c-0.04-0.01-0.08,0-0.11,0.04
			c-0.38,0.63-1.12,1.25-1.34,1.43l-0.74-0.73c-0.03-0.03-0.09-0.03-0.12,0c-2.03,1.72-4.43,1.98-5.6,1.99
			c-1.16-0.01-3.57-0.27-5.6-1.99c-0.04-0.03-0.09-0.03-0.12,0l-0.74,0.73c-0.22-0.18-0.96-0.8-1.34-1.43
			c-0.02-0.04-0.07-0.05-0.11-0.04c-0.04,0.01-0.07,0.05-0.06,0.09l0.14,1.5l-1.06-0.08c-0.04,0-0.07,0.02-0.09,0.05
			c-0.02,0.03-0.01,0.07,0.01,0.1c0.01,0.01,1.11,1.48,3.02,2.55c0.01,0.01,0.03,0.01,0.04,0.01c0.03,0,0.06-0.01,0.07-0.04
			l0.43-0.6c0.13,0.07,0.26,0.14,0.39,0.21c1.14,0.57,2.88,1.22,4.98,1.22h0.03h0.03c2.09,0,3.84-0.64,4.98-1.22
			c0.14-0.07,0.27-0.14,0.39-0.21l0.43,0.6c0.02,0.02,0.05,0.04,0.07,0.04c0.02,0,0.03,0,0.04-0.01c1.91-1.07,3.01-2.54,3.02-2.55
			c0.02-0.03,0.02-0.07,0.01-0.1C27.29,26.54,27.26,26.52,27.22,26.52z M9.66,26.72l0.96,0.07c0.03,0,0.05-0.01,0.07-0.03
			c0.02-0.02,0.03-0.05,0.03-0.07l-0.12-1.26c0.4,0.53,0.96,1.01,1.17,1.17l-0.63,0.62c-0.03,0.03-0.04,0.09-0.01,0.13
			c0.12,0.18,0.44,0.69,0.54,0.85c0.09,0.14,0.29,0.41,0.45,0.63C10.82,28.03,9.96,27.09,9.66,26.72z M12.48,28.93
			c-0.02,0.03-0.06,0.03-0.08,0c-0.17-0.23-0.48-0.65-0.6-0.83c-0.06-0.09-0.16-0.26-0.26-0.42c0.28,0.22,0.71,0.51,1.25,0.83
			L12.48,28.93z M18.34,29.84c-3.71,0.01-6.39-2.04-6.97-2.52c-0.02-0.02-0.03-0.06,0-0.08l1.28-1.26c0.02-0.02,0.06-0.02,0.09,0
			c2.05,1.67,4.43,1.93,5.61,1.94c1.17-0.01,3.56-0.26,5.61-1.94c0.03-0.02,0.06-0.02,0.09,0l1.28,1.26c0.02,0.02,0.02,0.06,0,0.08
			C24.73,27.8,22.05,29.85,18.34,29.84z M24.28,28.94c-0.02,0.03-0.06,0.03-0.08,0l-0.31-0.43c0.54-0.31,0.97-0.61,1.25-0.83
			c-0.1,0.17-0.2,0.34-0.26,0.42C24.76,28.28,24.45,28.71,24.28,28.94z M24.58,28.84c0.16-0.22,0.36-0.49,0.45-0.63
			c0.11-0.16,0.43-0.67,0.54-0.85c0.03-0.04,0.02-0.09-0.01-0.13l-0.63-0.62c0.21-0.17,0.76-0.64,1.17-1.17l-0.12,1.26
			c0,0.03,0.01,0.05,0.03,0.07c0.02,0.02,0.04,0.03,0.07,0.03l0.96-0.07C26.72,27.09,25.87,28.03,24.58,28.84z"/>
		<path d="M23.34,10.21l-0.36,0l-0.59-0.01c-0.03,0-0.05-0.02-0.06-0.04l-0.19-0.57l-0.11-0.34c-0.02-0.05-0.09-0.05-0.11,0
			l-0.11,0.34l-0.19,0.57c-0.01,0.02-0.03,0.04-0.06,0.04l-0.59,0.01l-0.36,0c-0.06,0-0.08,0.07-0.03,0.11l0.3,0.21l0.47,0.34
			c0.02,0.01,0.03,0.04,0.02,0.06l-0.18,0.59l-0.1,0.34c-0.02,0.05,0.04,0.1,0.09,0.07l0.29-0.2l0.52-0.37v0l0.52,0.37l0.29,0.2
			c0.05,0.03,0.11-0.01,0.09-0.07l-0.1-0.34l-0.18-0.59c-0.01-0.02,0-0.05,0.02-0.06l0.47-0.34l0.3-0.21
			C23.42,10.29,23.4,10.22,23.34,10.21z M22.4,10.81c-0.02,0.01-0.03,0.04-0.02,0.06l0.22,0.71l-0.63-0.44v0l-0.63,0.44l0.22-0.71
			c0.01-0.02,0-0.05-0.02-0.06l-0.57-0.42l0.72-0.01c0.03,0,0.05-0.02,0.06-0.04l0.23-0.69l0.23,0.69c0.01,0.02,0.03,0.04,0.06,0.04
			l0.72,0.01L22.4,10.81z"/>
		<path d="M21.48,26.25l-0.36-3.39c0-0.04-0.04-0.08-0.08-0.08c-0.06,0-1.35-0.11-2.42,0.32c0.13-0.26,0.29-0.72,0.39-1.53
			c0.09-0.76,0.19-2.31,0.23-3.06l0-0.02c0.11-1.75,0.13-2.8,0.14-3.06c0.12-0.06,0.4-0.21,0.62-0.54c0.01-0.01,0.02-0.03,0.04-0.06
			c0,0,0,0,0,0c0.04-0.08,0.09-0.24,0.09-0.53c0-0.04-0.02-0.07-0.06-0.08l-0.18-0.07c0.33-0.5,0.42-1.24,0.42-1.27
			c0-0.03-0.01-0.06-0.04-0.08c-0.03-0.02-0.06-0.02-0.09-0.01c-0.18,0.08-0.34,0.19-0.47,0.28c0.12-0.4,0.16-0.83,0.16-0.85
			c0-0.03-0.01-0.06-0.03-0.08c-0.02-0.02-0.05-0.03-0.08-0.02c-0.35,0.09-0.61,0.33-0.76,0.5c-0.14-0.83-0.55-1.51-0.57-1.54
			c-0.02-0.03-0.05-0.04-0.08-0.04s-0.06,0.02-0.08,0.04c-0.02,0.03-0.42,0.72-0.57,1.54c-0.15-0.17-0.41-0.41-0.76-0.5
			c-0.03-0.01-0.06,0-0.08,0.02c-0.02,0.02-0.03,0.05-0.03,0.08c0,0.02,0.04,0.45,0.16,0.85c-0.13-0.09-0.29-0.2-0.47-0.28
			c-0.03-0.01-0.06-0.01-0.09,0.01c-0.03,0.02-0.04,0.05-0.04,0.08c0,0.03,0.09,0.78,0.42,1.27l-0.18,0.07
			c-0.03,0.01-0.06,0.05-0.06,0.08c0,0.29,0.05,0.45,0.09,0.53c0,0,0,0,0,0c0.02,0.03,0.03,0.05,0.04,0.06
			c0.22,0.33,0.5,0.49,0.62,0.54c0,0.25,0.03,1.31,0.14,3.06l0,0.02c0.05,0.75,0.14,2.3,0.23,3.06c0.1,0.82,0.25,1.28,0.39,1.53
			c-1.08-0.43-2.37-0.32-2.42-0.32c-0.04,0-0.08,0.04-0.08,0.08l-0.36,3.39c0,0.05,0.03,0.09,0.08,0.1
			c1.38,0.19,3.05,1.37,3.06,1.38c0.02-0.01,1.68-1.2,3.06-1.38C21.45,26.35,21.49,26.3,21.48,26.25z M16.59,13.02
			c0.3,0.17,0.52,0.39,0.53,0.39c0.03,0.03,0.08,0.04,0.12,0.01c0.04-0.02,0.05-0.07,0.03-0.11c-0.14-0.31-0.21-0.76-0.24-0.98
			c0.4,0.16,0.66,0.55,0.66,0.55c0.02,0.03,0.06,0.05,0.1,0.04c0.04-0.01,0.06-0.04,0.07-0.08c0.07-0.6,0.31-1.17,0.46-1.47
			l0.04-0.07l0.04,0.07c0.15,0.3,0.39,0.86,0.46,1.47c0,0.04,0.03,0.07,0.07,0.08c0.04,0.01,0.08-0.01,0.1-0.04
			c0,0,0.26-0.39,0.66-0.55c-0.03,0.22-0.1,0.67-0.24,0.98c-0.02,0.04,0,0.09,0.03,0.11c0.04,0.03,0.08,0.02,0.12-0.01
			c0,0,0.23-0.23,0.53-0.39c-0.05,0.25-0.16,0.74-0.39,1.06c-0.15-0.04-0.57-0.14-1.06-0.16c-0.02,0-0.04,0-0.05,0
			c-0.02,0-0.04,0-0.06,0c-0.02,0-0.04,0-0.06,0c-0.02,0-0.04,0-0.06,0c-0.02,0-0.05,0-0.07,0h0c-0.02,0-0.05,0-0.07,0
			c-0.02,0-0.04,0-0.06,0c-0.02,0-0.04,0-0.06,0c-0.02,0-0.04,0-0.06,0c-0.02,0-0.04,0-0.05,0c-0.49,0.03-0.91,0.13-1.06,0.16
			C16.75,13.76,16.64,13.28,16.59,13.02z M16.75,14.36c0,0,0,0,0.01,0l0.01-0.01c0.01,0,0.02-0.01,0.03-0.01
			c0.08-0.03,0.22-0.08,0.34-0.11c0.02,0,0.03-0.01,0.05-0.01c0.22-0.05,0.57-0.11,0.93-0.13c0.02,0,0.04,0,0.05,0
			c0.02,0,0.04,0,0.06,0c0.04,0,0.08,0,0.12,0h0c0.04,0,0.08,0,0.12,0c0.02,0,0.04,0,0.06,0c0.02,0,0.04,0,0.05,0
			c0.36,0.02,0.71,0.09,0.93,0.13c0.01,0,0.02,0,0.03,0.01c0.01,0,0.02,0.01,0.04,0.01c0.13,0.03,0.28,0.09,0.34,0.11
			c0.01,0,0.02,0.01,0.02,0.01c0,0,0,0,0,0c0,0.14-0.02,0.24-0.04,0.31c-0.63-0.25-1.51-0.25-1.56-0.24c-0.05,0-0.92,0-1.56,0.24
			C16.77,14.61,16.75,14.51,16.75,14.36z M17.41,15.28L17.41,15.28c-0.08-0.03-0.33-0.16-0.54-0.45c0.58-0.22,1.4-0.23,1.47-0.23
			l0.01,0l0.01,0c0.07,0,0.89,0,1.47,0.23c-0.21,0.29-0.46,0.41-0.54,0.45h0c-0.36-0.09-0.7-0.11-0.93-0.11
			C18.11,15.17,17.77,15.19,17.41,15.28z M18.25,26.64c-1.28-0.71-2.57-0.76-2.83-0.76l0.31-2.91c0.32-0.02,1.58-0.05,2.52,0.42
			V26.64z M17.86,21.55c-0.09-0.76-0.18-2.3-0.23-3.05l0-0.02c-0.1-1.71-0.13-2.76-0.14-3.04c0.33-0.07,0.63-0.09,0.85-0.09
			c0.21,0,0.52,0.02,0.85,0.09c-0.01,0.27-0.03,1.32-0.14,3.04l0,0.02c-0.05,0.74-0.14,2.29-0.23,3.05
			c-0.13,1.11-0.38,1.52-0.48,1.65C18.24,23.07,18,22.66,17.86,21.55z M18.43,26.64v-3.25c0.94-0.48,2.2-0.44,2.52-0.42l0.31,2.91
			C21,25.88,19.71,25.92,18.43,26.64z"/>
	</g>
	<g id="Text_00000169556516562794673200000017509664034048689800_">
		<g>
			<path class="st3" d="M8.13,29.2l-0.2-0.16c0.08-0.1,0.13-0.18,0.14-0.25c0.01-0.07-0.01-0.14-0.06-0.2
				c-0.06-0.06-0.12-0.09-0.19-0.09c-0.07,0-0.13,0.03-0.18,0.08c-0.03,0.03-0.05,0.06-0.07,0.1c-0.01,0.03-0.01,0.08,0,0.12
				c0.01,0.03,0.04,0.1,0.08,0.21c0.06,0.14,0.08,0.25,0.06,0.34c-0.02,0.13-0.09,0.24-0.2,0.34c-0.07,0.07-0.15,0.11-0.24,0.14
				c-0.09,0.03-0.17,0.03-0.25,0.01c-0.08-0.02-0.15-0.07-0.22-0.14c-0.11-0.12-0.16-0.24-0.14-0.38c0.02-0.13,0.09-0.26,0.22-0.38
				l0.19,0.18c-0.06,0.07-0.1,0.14-0.1,0.19C6.98,29.38,7,29.43,7.05,29.49c0.05,0.06,0.11,0.08,0.17,0.08
				c0.04,0,0.08-0.02,0.11-0.05c0.03-0.03,0.05-0.07,0.06-0.11c0.01-0.05-0.02-0.14-0.07-0.26c-0.05-0.12-0.09-0.22-0.09-0.3
				c-0.01-0.08,0.01-0.15,0.04-0.24c0.04-0.08,0.1-0.16,0.18-0.24c0.08-0.07,0.17-0.13,0.26-0.16c0.1-0.03,0.19-0.04,0.27-0.01
				c0.08,0.02,0.17,0.08,0.24,0.16c0.11,0.12,0.16,0.25,0.14,0.39C8.35,28.89,8.27,29.04,8.13,29.2z"/>
			<path class="st3" d="M7.7,27.81l-1.49,1.15L5.62,28.2L5.87,28l0.43,0.55l0.33-0.25l-0.4-0.52l0.25-0.19l0.4,0.52l0.41-0.31
				l-0.44-0.57l0.25-0.19L7.7,27.81z"/>
			<path class="st3" d="M6.95,26.81l-1.59,1L5.21,27.6l0.71-0.45l-0.99,0l-0.19-0.3l0.88,0.02l0.7-1.05l0.18,0.29l-0.56,0.77
				l0.38,0.01l0.48-0.3L6.95,26.81z"/>
			<path class="st3" d="M5.43,26.14c-0.17,0.09-0.32,0.14-0.46,0.16c-0.1,0.02-0.19,0.02-0.28,0.01c-0.09-0.01-0.17-0.04-0.23-0.07
				c-0.08-0.05-0.14-0.12-0.19-0.22c-0.08-0.17-0.08-0.35,0.03-0.53c0.1-0.18,0.29-0.34,0.57-0.47c0.27-0.14,0.51-0.19,0.71-0.16
				c0.2,0.03,0.35,0.12,0.43,0.29c0.09,0.17,0.08,0.35-0.03,0.53C5.89,25.85,5.7,26,5.43,26.14z M5.3,25.9
				c0.19-0.09,0.32-0.2,0.39-0.31c0.07-0.11,0.08-0.21,0.03-0.3c-0.05-0.09-0.13-0.15-0.26-0.16c-0.13-0.01-0.29,0.03-0.48,0.13
				c-0.19,0.1-0.32,0.2-0.39,0.3c-0.07,0.11-0.08,0.21-0.03,0.3c0.05,0.1,0.13,0.15,0.26,0.16C4.95,26.04,5.11,26,5.3,25.9z"/>
			<path class="st3" d="M5.62,24.37l-1.74,0.67l-0.09-0.24l1.45-0.55L5,23.63l0.3-0.11L5.62,24.37z"/>
			<path class="st3" d="M4.91,22.18l0.08,0.27L4.6,22.68l0.14,0.5l0.44-0.01l0.07,0.27l-1.95,0.02l-0.07-0.27L4.91,22.18z
				 M4.32,22.85L3.7,23.21l0.72-0.02L4.32,22.85z"/>
			<path class="st3" d="M4.88,22.01l-1.85,0.33l-0.05-0.26l0.73-0.13l-0.09-0.51l-0.73,0.13l-0.05-0.26l1.85-0.33l0.05,0.26
				l-0.81,0.14l0.09,0.5l0.81-0.14L4.88,22.01z"/>
			<path class="st3" d="M4.6,19.83L3.03,19.9l0.02,0.38l-0.32,0.01l-0.04-1.03l0.32-0.01l0.02,0.38l1.56-0.07L4.6,19.83z"/>
			<path class="st3" d="M4.58,18.98L2.7,18.94l0.01-0.26l1.88,0.04L4.58,18.98z"/>
			<path class="st3" d="M4.59,18.42l-1.87-0.17l0.02-0.25l1.3-0.42l-1.25-0.11l0.02-0.24l1.87,0.17l-0.02,0.26l-1.27,0.41l1.22,0.11
				L4.59,18.42z"/>
			<path class="st3" d="M4.15,16.36L3.84,16.3l0.11-0.55l0.74,0.14c0.07,0.07,0.12,0.16,0.15,0.27c0.04,0.11,0.05,0.22,0.03,0.33
				c-0.03,0.13-0.09,0.24-0.19,0.32c-0.1,0.08-0.23,0.14-0.39,0.16c-0.16,0.02-0.33,0.01-0.51-0.02c-0.19-0.04-0.36-0.1-0.5-0.18
				c-0.14-0.08-0.24-0.19-0.3-0.31c-0.05-0.09-0.06-0.2-0.03-0.32c0.03-0.16,0.1-0.27,0.22-0.34c0.11-0.07,0.26-0.1,0.43-0.09
				l0.02,0.27c-0.09,0-0.17,0.02-0.23,0.06c-0.06,0.04-0.1,0.1-0.11,0.17c-0.02,0.11,0.01,0.21,0.1,0.3
				c0.09,0.09,0.24,0.15,0.44,0.19c0.22,0.04,0.39,0.04,0.51,0c0.12-0.05,0.19-0.12,0.22-0.23c0.01-0.05,0.01-0.11-0.01-0.17
				c-0.02-0.06-0.05-0.11-0.08-0.16l-0.23-0.05L4.15,16.36z"/>
			<path class="st3" d="M4.52,14.9l-0.3-0.09l0.17-0.54l0.72,0.22c0.06,0.08,0.1,0.17,0.12,0.29C5.25,14.89,5.25,15,5.22,15.1
				C5.18,15.23,5.1,15.33,5,15.4c-0.11,0.07-0.24,0.11-0.41,0.11c-0.16,0-0.33-0.02-0.5-0.07c-0.19-0.06-0.35-0.14-0.47-0.23
				C3.49,15.11,3.4,15,3.35,14.87c-0.04-0.1-0.03-0.21,0-0.32c0.05-0.15,0.13-0.26,0.25-0.32c0.12-0.06,0.27-0.07,0.44-0.05
				l-0.01,0.27c-0.09-0.01-0.17,0-0.24,0.03c-0.07,0.03-0.11,0.08-0.13,0.16c-0.03,0.11-0.01,0.21,0.07,0.31
				c0.08,0.1,0.22,0.17,0.42,0.23c0.21,0.07,0.38,0.08,0.51,0.05s0.21-0.1,0.24-0.21c0.02-0.05,0.02-0.11,0-0.17
				c-0.01-0.06-0.04-0.12-0.07-0.17l-0.23-0.07L4.52,14.9z"/>
			<path class="st3" d="M5.46,14.31L3.7,13.62l0.1-0.24l1.75,0.68L5.46,14.31z"/>
			<path class="st3" d="M5.9,13.27l-1.69-0.83l0.11-0.24l1.69,0.83L5.9,13.27z"/>
			<path class="st3" d="M6.15,12.76l-1.62-0.92l0.13-0.23L6,12.38l0.32-0.57l0.28,0.16L6.15,12.76z"/>
			<path class="st3" d="M6.71,11.78L5.18,10.7l0.23-0.32l1.18,0.55L5.67,10L5.9,9.67l1.54,1.09l-0.14,0.2L6.09,10.1l1.06,1.07
				L7,11.38l-1.36-0.65l1.21,0.86L6.71,11.78z"/>
			<path class="st3" d="M6.2,9.3l0.17-0.2l0.77,0.67c0.12,0.11,0.2,0.17,0.24,0.2c0.07,0.04,0.13,0.06,0.19,0.06
				c0.06,0,0.12-0.03,0.17-0.08C7.79,9.9,7.81,9.84,7.81,9.78C7.8,9.72,7.77,9.67,7.73,9.62C7.68,9.57,7.61,9.5,7.5,9.4L6.71,8.72
				l0.17-0.2l0.74,0.65C7.8,9.32,7.91,9.43,7.97,9.5c0.06,0.07,0.1,0.14,0.13,0.21s0.03,0.14,0.01,0.22s-0.05,0.15-0.12,0.23
				c-0.08,0.09-0.16,0.15-0.23,0.17c-0.07,0.02-0.15,0.02-0.22,0.01c-0.07-0.02-0.14-0.04-0.21-0.08c-0.09-0.06-0.22-0.16-0.38-0.3
				L6.2,9.3z"/>
			<path class="st3" d="M8.47,8.73l0.17-0.19c0.09,0.08,0.18,0.13,0.25,0.14c0.07,0.01,0.14-0.01,0.2-0.06
				C9.15,8.56,9.18,8.5,9.18,8.44c0-0.07-0.03-0.13-0.07-0.18C9.08,8.22,9.05,8.2,9.01,8.19c-0.03-0.01-0.08-0.01-0.12,0
				C8.86,8.2,8.79,8.22,8.68,8.27C8.54,8.32,8.42,8.34,8.33,8.32C8.2,8.29,8.09,8.22,7.99,8.11C7.93,8.04,7.89,7.96,7.86,7.87
				c-0.03-0.09-0.03-0.17,0-0.25C7.88,7.54,7.93,7.47,8.01,7.4C8.13,7.3,8.25,7.26,8.38,7.28c0.13,0.02,0.25,0.1,0.37,0.23
				L8.57,7.69C8.5,7.63,8.43,7.59,8.38,7.58C8.32,7.58,8.27,7.6,8.21,7.64C8.15,7.69,8.12,7.75,8.12,7.81
				c0,0.04,0.01,0.08,0.05,0.12c0.03,0.03,0.06,0.05,0.1,0.06C8.32,8,8.41,7.98,8.53,7.93c0.12-0.05,0.23-0.08,0.3-0.08
				c0.08,0,0.15,0.01,0.23,0.05c0.08,0.04,0.16,0.1,0.24,0.19c0.07,0.08,0.12,0.17,0.15,0.27c0.03,0.1,0.03,0.19,0.01,0.27
				C9.44,8.71,9.38,8.79,9.3,8.86C9.17,8.97,9.04,9.01,8.9,8.99C8.76,8.96,8.62,8.88,8.47,8.73z"/>
			<path class="st3" d="M9.28,7.61c-0.11-0.16-0.19-0.3-0.23-0.43C9.02,7.09,9,7,9,6.9c0-0.09,0.01-0.17,0.04-0.24
				c0.04-0.09,0.1-0.16,0.18-0.22c0.16-0.11,0.33-0.13,0.52-0.06c0.19,0.07,0.38,0.24,0.56,0.48c0.18,0.25,0.27,0.47,0.28,0.68
				c0.01,0.21-0.07,0.36-0.22,0.47c-0.16,0.11-0.33,0.13-0.52,0.06C9.64,8.01,9.45,7.86,9.28,7.61z M9.49,7.45
				c0.12,0.17,0.25,0.29,0.36,0.34c0.12,0.05,0.22,0.05,0.31-0.02c0.08-0.06,0.12-0.15,0.11-0.28s-0.08-0.28-0.2-0.46
				C9.95,6.85,9.83,6.74,9.71,6.69C9.6,6.64,9.5,6.65,9.41,6.71C9.32,6.77,9.28,6.87,9.29,6.99C9.3,7.12,9.37,7.27,9.49,7.45z"/>
			<path class="st3" d="M10.69,7.02l0.2-0.16c0.08,0.1,0.15,0.16,0.22,0.19c0.07,0.03,0.14,0.02,0.21-0.02
				c0.07-0.04,0.12-0.1,0.13-0.16c0.01-0.07,0-0.13-0.03-0.19c-0.02-0.04-0.05-0.07-0.08-0.09c-0.03-0.02-0.07-0.03-0.12-0.02
				c-0.03,0-0.11,0.01-0.22,0.03c-0.15,0.03-0.26,0.02-0.35-0.01c-0.12-0.05-0.22-0.14-0.29-0.27c-0.05-0.08-0.08-0.17-0.09-0.26
				c-0.01-0.09,0.01-0.17,0.05-0.25c0.04-0.07,0.1-0.13,0.19-0.18c0.14-0.08,0.27-0.1,0.4-0.05c0.12,0.05,0.23,0.15,0.32,0.29
				l-0.22,0.14c-0.06-0.08-0.11-0.13-0.17-0.14c-0.05-0.02-0.11-0.01-0.18,0.03c-0.07,0.04-0.11,0.09-0.12,0.15
				c-0.01,0.04,0,0.08,0.02,0.12c0.02,0.04,0.05,0.07,0.09,0.08c0.05,0.02,0.14,0.01,0.27-0.01c0.13-0.03,0.24-0.03,0.31-0.02
				c0.08,0.01,0.15,0.04,0.22,0.09c0.07,0.05,0.14,0.13,0.19,0.23c0.05,0.09,0.09,0.19,0.1,0.29c0.01,0.1,0,0.19-0.05,0.27
				c-0.04,0.08-0.11,0.14-0.21,0.2c-0.14,0.08-0.28,0.1-0.41,0.05C10.93,7.31,10.81,7.19,10.69,7.02z"/>
			<path class="st3" d="M12.14,6.91l-0.83-1.69l0.23-0.12l0.83,1.69L12.14,6.91z"/>
			<path class="st3" d="M13.72,6.22l-0.26,0.11l-0.27-0.35l-0.48,0.2l0.06,0.44l-0.26,0.1l-0.24-1.93l0.26-0.1L13.72,6.22z
				 M12.99,5.72l-0.43-0.58l0.1,0.71L12.99,5.72z"/>
			<path class="st3" d="M13.9,6.17l-0.55-1.79l0.25-0.08l0.45,1.48l0.62-0.19l0.09,0.3L13.9,6.17z"/>
			<path class="st3" d="M15.19,3.88l0.47-0.08c0.11-0.02,0.19-0.02,0.25-0.01c0.08,0.02,0.15,0.07,0.22,0.14
				C16.2,4,16.26,4.09,16.3,4.21c0.05,0.11,0.09,0.26,0.12,0.43c0.03,0.15,0.03,0.29,0.03,0.4c-0.01,0.14-0.04,0.26-0.08,0.35
				c-0.03,0.07-0.09,0.13-0.16,0.18c-0.05,0.04-0.13,0.06-0.22,0.08L15.5,5.73L15.19,3.88z M15.5,4.15l0.21,1.23l0.19-0.03
				c0.07-0.01,0.12-0.03,0.15-0.04c0.04-0.02,0.07-0.05,0.09-0.09c0.02-0.04,0.03-0.1,0.04-0.19c0-0.09-0.01-0.2-0.03-0.34
				c-0.02-0.14-0.05-0.25-0.08-0.33S16,4.21,15.97,4.17c-0.04-0.04-0.08-0.06-0.13-0.07c-0.04-0.01-0.11,0-0.21,0.02L15.5,4.15z"/>
			<path class="st3" d="M18,5.44l-0.28,0.02l-0.14-0.42l-0.52,0.04l-0.08,0.43L16.7,5.53l0.37-1.91l0.28-0.02L18,5.44z M17.46,4.73
				l-0.23-0.68l-0.13,0.71L17.46,4.73z"/>
			<path class="st3" d="M18.17,5.44l0.05-1.88l0.25,0.01l0.5,1.27L19,3.58l0.24,0.01L19.2,5.47l-0.26-0.01l-0.49-1.24l-0.03,1.23
				L18.17,5.44z"/>
			<path class="st3" d="M20.07,5.56l0.25-1.87l0.26,0.03l-0.25,1.87L20.07,5.56z"/>
			<path class="st3" d="M20.64,5.63L21,3.8l0.26,0.05l-0.3,1.52l0.64,0.13l-0.06,0.31L20.64,5.63z"/>
			<path class="st3" d="M21.74,5.86l0.54-1.8l0.37,0.11l-0.15,1.3l0.59-1.16l0.38,0.11l-0.54,1.8l-0.23-0.07l0.43-1.42l-0.67,1.34
				L22.22,6l0.18-1.49l-0.43,1.42L21.74,5.86z"/>
			<path class="st3" d="M23.94,4.58l0.24,0.1l-0.39,0.94c-0.06,0.15-0.1,0.25-0.11,0.29c-0.02,0.08-0.02,0.14,0,0.2
				c0.02,0.06,0.06,0.1,0.13,0.13c0.07,0.03,0.13,0.03,0.18,0c0.05-0.03,0.09-0.07,0.13-0.12c0.03-0.06,0.08-0.15,0.13-0.29
				l0.4-0.96l0.24,0.1L24.51,5.9c-0.09,0.21-0.16,0.35-0.2,0.43c-0.05,0.08-0.1,0.14-0.16,0.19c-0.06,0.04-0.13,0.07-0.2,0.08
				c-0.07,0.01-0.16,0-0.25-0.04c-0.11-0.05-0.19-0.1-0.24-0.17c-0.04-0.06-0.07-0.13-0.08-0.21c-0.01-0.08,0-0.15,0.01-0.22
				c0.03-0.11,0.08-0.26,0.16-0.45L23.94,4.58z"/>
			<path class="st3" d="M24.95,7.11l0.96-1.62l0.36,0.21c0.14,0.08,0.22,0.14,0.25,0.18c0.05,0.06,0.07,0.15,0.07,0.25
				c0,0.11-0.05,0.22-0.12,0.35c-0.06,0.1-0.12,0.18-0.19,0.23c-0.06,0.05-0.13,0.09-0.19,0.1c-0.06,0.02-0.12,0.02-0.16,0.01
				c-0.06-0.02-0.15-0.05-0.25-0.11l-0.15-0.09l-0.36,0.61L24.95,7.11z M25.96,5.9l-0.27,0.46l0.12,0.07
				c0.09,0.05,0.15,0.08,0.19,0.08c0.04,0,0.08-0.01,0.12-0.04c0.04-0.03,0.07-0.06,0.1-0.11c0.03-0.06,0.05-0.11,0.05-0.17
				c0-0.05-0.02-0.09-0.05-0.13c-0.02-0.02-0.07-0.06-0.16-0.11L25.96,5.9z"/>
			<path class="st3" d="M26.52,6.97c0.11-0.15,0.22-0.27,0.33-0.36c0.08-0.06,0.16-0.11,0.25-0.14c0.09-0.03,0.16-0.04,0.24-0.04
				c0.09,0.01,0.18,0.04,0.27,0.1c0.15,0.11,0.23,0.27,0.22,0.48c-0.01,0.21-0.1,0.43-0.28,0.68c-0.18,0.25-0.36,0.4-0.56,0.48
				c-0.19,0.07-0.37,0.05-0.52-0.06C26.3,8,26.23,7.84,26.24,7.64C26.25,7.43,26.34,7.21,26.52,6.97z M26.74,7.12
				c-0.13,0.17-0.19,0.32-0.2,0.45c-0.01,0.13,0.03,0.22,0.11,0.29c0.08,0.06,0.19,0.07,0.3,0.02c0.12-0.05,0.24-0.16,0.37-0.34
				c0.13-0.17,0.2-0.32,0.21-0.45c0.01-0.12-0.03-0.22-0.12-0.28c-0.09-0.06-0.19-0.07-0.31-0.02C26.99,6.83,26.87,6.94,26.74,7.12z
				"/>
			<path class="st3" d="M27.17,8.62l1.24-1.4l0.2,0.17l-1.03,1.16l0.49,0.43l-0.21,0.24L27.17,8.62z"/>
			<path class="st3" d="M28.01,9.39l1.33-1.33l0.19,0.18L28.2,9.58L28.01,9.39z"/>
			<path class="st3" d="M28.6,10.01l1.17-1.04l-0.25-0.29l0.24-0.21l0.68,0.77L30.2,9.45l-0.25-0.29l-1.17,1.04L28.6,10.01z"/>
			<path class="st3" d="M29.15,10.66l1.48-1.16l0.16,0.21l-1.48,1.16L29.15,10.66z"/>
			<path class="st3" d="M29.5,11.1l1.56-1.05l0.15,0.22l-0.69,0.47l0.99-0.03L31.7,11l-0.88,0l-0.67,1.07l-0.19-0.28L30.5,11
				l-0.38,0l-0.47,0.32L29.5,11.1z"/>
			<path class="st3" d="M31.4,12.95l0.29-0.14l0.25,0.51l-0.68,0.33c-0.09-0.02-0.19-0.06-0.29-0.13c-0.1-0.07-0.17-0.15-0.22-0.25
				c-0.06-0.12-0.07-0.25-0.04-0.37c0.03-0.13,0.1-0.25,0.22-0.36s0.26-0.21,0.42-0.29c0.18-0.09,0.35-0.14,0.51-0.15
				c0.16-0.02,0.3,0.01,0.42,0.07c0.09,0.05,0.17,0.13,0.22,0.24c0.07,0.14,0.08,0.28,0.03,0.4c-0.05,0.12-0.15,0.24-0.29,0.33
				l-0.18-0.2c0.08-0.06,0.13-0.12,0.15-0.19c0.03-0.07,0.02-0.14-0.01-0.2c-0.05-0.1-0.14-0.16-0.26-0.18
				c-0.12-0.02-0.28,0.02-0.47,0.11c-0.2,0.1-0.34,0.2-0.41,0.31c-0.07,0.11-0.08,0.22-0.03,0.31c0.02,0.05,0.06,0.09,0.11,0.13
				c0.05,0.04,0.11,0.06,0.16,0.08l0.22-0.1L31.4,12.95z"/>
			<path class="st3" d="M32.89,13.37l0.09,0.25l-0.96,0.35c-0.15,0.06-0.25,0.09-0.29,0.12c-0.07,0.04-0.12,0.08-0.15,0.14
				s-0.03,0.12-0.01,0.19c0.03,0.07,0.07,0.11,0.12,0.14c0.05,0.02,0.11,0.02,0.18,0.01c0.06-0.01,0.16-0.05,0.3-0.1l0.98-0.35
				l0.09,0.25l-0.93,0.34c-0.21,0.08-0.37,0.12-0.46,0.14c-0.09,0.02-0.18,0.02-0.25,0.01c-0.07-0.01-0.14-0.04-0.2-0.09
				c-0.06-0.05-0.1-0.12-0.14-0.22c-0.04-0.12-0.05-0.21-0.04-0.29c0.02-0.07,0.05-0.14,0.1-0.2c0.05-0.06,0.11-0.1,0.17-0.14
				c0.1-0.05,0.24-0.11,0.44-0.19L32.89,13.37z"/>
			<path class="st3" d="M31.57,15.28l1.82-0.46l0.06,0.25l-1.09,0.82l1.22-0.31l0.06,0.24l-1.82,0.46l-0.06-0.25l1.06-0.81
				l-1.19,0.3L31.57,15.28z"/>
			<path class="st3" d="M32.05,17.73l-0.04-0.28l0.41-0.18l-0.08-0.51l-0.44-0.04l-0.04-0.27l1.94,0.22l0.04,0.27L32.05,17.73z
				 M32.72,17.15l0.66-0.28l-0.72-0.07L32.72,17.15z"/>
			<path class="st3" d="M32.1,18.41l1.88-0.03l0,0.25l-1.25,0.55l1.26-0.02l0,0.24l-1.88,0.03l0-0.26l1.22-0.54l-1.23,0.02
				L32.1,18.41z"/>
			<path class="st3" d="M33.98,19.9l-0.02,0.26l-1.02-0.08c-0.16-0.01-0.27-0.02-0.31-0.02c-0.08,0-0.14,0.03-0.19,0.06
				c-0.05,0.04-0.08,0.09-0.08,0.17c-0.01,0.07,0.01,0.13,0.05,0.17c0.04,0.04,0.09,0.07,0.16,0.08c0.06,0.01,0.17,0.03,0.32,0.04
				l1.04,0.09l-0.02,0.26l-0.99-0.08c-0.23-0.02-0.38-0.04-0.48-0.06c-0.09-0.02-0.17-0.05-0.23-0.1c-0.06-0.04-0.11-0.1-0.14-0.16
				c-0.03-0.07-0.04-0.15-0.04-0.25c0.01-0.12,0.04-0.22,0.09-0.28c0.05-0.06,0.1-0.11,0.17-0.14c0.07-0.03,0.14-0.05,0.21-0.06
				c0.11-0.01,0.27,0,0.48,0.01L33.98,19.9z"/>
			<path class="st3" d="M32.59,21.12l-0.01,0.26c-0.12-0.01-0.22,0.01-0.29,0.04c-0.07,0.04-0.11,0.09-0.12,0.17
				c-0.01,0.08,0,0.15,0.04,0.2c0.04,0.05,0.1,0.08,0.17,0.1c0.04,0.01,0.08,0.01,0.12-0.01c0.03-0.01,0.07-0.04,0.1-0.08
				c0.02-0.03,0.06-0.09,0.12-0.19c0.07-0.13,0.15-0.22,0.24-0.26c0.12-0.06,0.25-0.08,0.39-0.05c0.09,0.02,0.18,0.05,0.25,0.1
				c0.08,0.05,0.13,0.12,0.16,0.19c0.03,0.08,0.04,0.16,0.02,0.26c-0.03,0.16-0.1,0.27-0.22,0.33c-0.12,0.06-0.26,0.08-0.43,0.05
				l0.03-0.26c0.1,0.01,0.17-0.01,0.22-0.03c0.05-0.03,0.08-0.08,0.09-0.15c0.01-0.07,0-0.14-0.04-0.19
				c-0.02-0.03-0.06-0.05-0.11-0.06c-0.04-0.01-0.08,0-0.12,0.02c-0.05,0.03-0.1,0.1-0.17,0.21c-0.07,0.12-0.13,0.2-0.18,0.25
				c-0.06,0.05-0.13,0.09-0.21,0.11c-0.09,0.02-0.19,0.02-0.3,0c-0.11-0.02-0.2-0.06-0.29-0.11c-0.09-0.06-0.14-0.13-0.18-0.21
				c-0.03-0.08-0.04-0.18-0.02-0.29c0.03-0.16,0.11-0.28,0.23-0.34C32.21,21.13,32.38,21.1,32.59,21.12z"/>
			<path class="st3" d="M31.43,23.43l0.08-0.27l0.44,0.01l0.14-0.5l-0.38-0.22l0.07-0.27l1.68,0.99l-0.07,0.27L31.43,23.43z
				 M32.28,23.16L33,23.18l-0.63-0.36L32.28,23.16z"/>
			<path class="st3" d="M31.37,23.59l1.75,0.68l-0.09,0.24l-1.36,0.04l1.17,0.46l-0.09,0.23L31,24.55l0.1-0.24l1.33-0.04l-1.14-0.45
				L31.37,23.59z"/>
			<path class="st3" d="M30.73,25.09l1.4,0.7l0.17-0.34l0.28,0.14l-0.46,0.92l-0.28-0.14l0.17-0.34l-1.4-0.7L30.73,25.09z"/>
			<path class="st3" d="M29.8,26.74l0.15-0.24l0.42,0.13l0.27-0.44l-0.31-0.31l0.14-0.24l1.35,1.41l-0.14,0.24L29.8,26.74z
				 M30.69,26.71l0.69,0.21l-0.51-0.51L30.69,26.71z"/>
			<path class="st3" d="M29.7,26.88l1.51,1.13l-0.33,0.44c-0.08,0.11-0.16,0.18-0.22,0.21c-0.06,0.03-0.14,0.03-0.23,0.01
				c-0.09-0.02-0.18-0.07-0.27-0.13c-0.11-0.08-0.19-0.18-0.23-0.28c-0.04-0.1-0.03-0.2,0.01-0.31c-0.07,0.02-0.14,0.02-0.21,0.02
				c-0.07,0-0.18-0.03-0.33-0.06L29,27.81l0.19-0.25l0.44,0.09c0.16,0.03,0.26,0.05,0.3,0.06c0.05,0,0.08,0,0.11-0.02
				c0.03-0.01,0.06-0.04,0.1-0.09l0.03-0.04l-0.63-0.47L29.7,26.88z M30.41,27.74l-0.12,0.15c-0.08,0.1-0.12,0.17-0.12,0.2
				c-0.01,0.03,0,0.07,0.02,0.11c0.02,0.04,0.05,0.07,0.1,0.11c0.05,0.04,0.1,0.06,0.14,0.06c0.05,0,0.08-0.01,0.12-0.03
				c0.02-0.01,0.06-0.06,0.12-0.15l0.12-0.16L30.41,27.74z"/>
			<path class="st3" d="M28.09,28.8l0.19-0.21l0.39,0.21l0.35-0.38l-0.24-0.37l0.19-0.2l1.05,1.64l-0.19,0.2L28.09,28.8z
				 M28.97,28.95l0.64,0.34l-0.4-0.6L28.97,28.95z"/>
		</g>
		<g>
			<path class="st3" d="M12.97,32.95l0.27,0.23c-0.12,0.16-0.26,0.25-0.4,0.29c-0.15,0.04-0.31,0.02-0.48-0.05
				c-0.21-0.09-0.36-0.23-0.44-0.44c-0.08-0.2-0.06-0.43,0.04-0.68c0.11-0.27,0.27-0.45,0.47-0.54c0.2-0.09,0.41-0.09,0.64,0
				c0.2,0.08,0.33,0.21,0.41,0.37c0.04,0.1,0.06,0.22,0.04,0.36l-0.35-0.06c0.02-0.09,0-0.17-0.04-0.25
				c-0.04-0.07-0.1-0.13-0.19-0.16c-0.12-0.05-0.23-0.05-0.34,0.01c-0.11,0.05-0.2,0.18-0.28,0.37c-0.08,0.2-0.11,0.36-0.07,0.48
				c0.04,0.12,0.11,0.2,0.23,0.25c0.09,0.04,0.17,0.04,0.26,0.01C12.82,33.13,12.9,33.06,12.97,32.95z"/>
			<path class="st3" d="M13.8,33.93l0.48-1.67l0.34,0.1l-0.48,1.67L13.8,33.93z"/>
			<path class="st3" d="M16.53,34.54l-0.38-0.07l-0.07-0.42l-0.68-0.13l-0.22,0.36l-0.37-0.07l1-1.58l0.36,0.07L16.53,34.54z
				 M16.02,33.74l-0.11-0.68l-0.35,0.59L16.02,33.74z"/>
			<path class="st3" d="M17.28,34.56l0.06-1.74l0.34,0.01l0.67,1.18l0.04-1.16l0.33,0.01l-0.06,1.74l-0.35-0.01l-0.66-1.16
				l-0.04,1.13L17.28,34.56z"/>
			<path class="st3" d="M20.02,32.77l0.35-0.04l0.11,1.1c0.01,0.14,0.01,0.25,0,0.33c-0.02,0.1-0.08,0.19-0.16,0.26
				c-0.08,0.07-0.2,0.11-0.34,0.13c-0.17,0.02-0.31-0.02-0.41-0.1c-0.1-0.09-0.16-0.22-0.18-0.41l0.33-0.07
				c0.01,0.1,0.04,0.17,0.07,0.21c0.04,0.06,0.1,0.08,0.18,0.08c0.08-0.01,0.13-0.04,0.16-0.08c0.03-0.05,0.03-0.14,0.02-0.28
				L20.02,32.77z"/>
			<path class="st3" d="M21.1,32.58l0.34-0.08l0.2,0.92c0.03,0.15,0.06,0.24,0.07,0.28c0.03,0.07,0.08,0.11,0.14,0.14
				c0.06,0.03,0.14,0.03,0.24,0.01c0.1-0.02,0.17-0.06,0.21-0.11c0.04-0.05,0.06-0.11,0.06-0.17c0-0.06-0.02-0.16-0.05-0.29
				l-0.21-0.94l0.34-0.08l0.2,0.89c0.04,0.2,0.07,0.35,0.07,0.44c0,0.09-0.02,0.17-0.06,0.24c-0.04,0.07-0.09,0.13-0.17,0.18
				c-0.08,0.05-0.18,0.09-0.32,0.12c-0.16,0.04-0.29,0.04-0.38,0.02c-0.09-0.02-0.17-0.05-0.23-0.1c-0.06-0.05-0.11-0.11-0.14-0.17
				c-0.04-0.09-0.09-0.23-0.13-0.42L21.1,32.58z"/>
			<path class="st3" d="M23.69,33.64l-0.67-1.61l0.68-0.28c0.17-0.07,0.3-0.11,0.39-0.11c0.09,0,0.17,0.02,0.25,0.08
				c0.08,0.05,0.14,0.13,0.18,0.22c0.05,0.12,0.06,0.23,0.02,0.34c-0.04,0.11-0.12,0.2-0.26,0.28c0.09,0.01,0.16,0.03,0.23,0.06
				c0.07,0.03,0.16,0.09,0.29,0.18l0.33,0.23l-0.39,0.16l-0.38-0.25c-0.14-0.09-0.22-0.15-0.27-0.17c-0.04-0.02-0.09-0.03-0.13-0.03
				c-0.04,0-0.1,0.02-0.17,0.05l-0.07,0.03l0.28,0.67L23.69,33.64z M23.63,32.58l0.24-0.1c0.16-0.06,0.25-0.11,0.28-0.14
				c0.03-0.03,0.05-0.06,0.06-0.11c0.01-0.04,0-0.09-0.02-0.13c-0.02-0.05-0.06-0.09-0.1-0.11s-0.09-0.03-0.15-0.01
				c-0.03,0.01-0.11,0.04-0.24,0.09l-0.25,0.11L23.63,32.58z"/>
		</g>
		<g>
			<path class="st3" d="M12.74,27.44l0.22,0.1c-0.03,0.08-0.03,0.15-0.01,0.2c0.02,0.06,0.06,0.1,0.13,0.14
				c0.07,0.04,0.13,0.06,0.18,0.05s0.09-0.03,0.11-0.07c0.01-0.03,0.02-0.05,0.02-0.08c0-0.03-0.02-0.06-0.05-0.09
				c-0.02-0.02-0.07-0.07-0.15-0.15c-0.1-0.1-0.16-0.18-0.18-0.25c-0.03-0.1-0.02-0.19,0.03-0.27c0.03-0.05,0.08-0.1,0.14-0.13
				c0.06-0.03,0.13-0.04,0.2-0.03c0.07,0.01,0.15,0.04,0.23,0.09c0.14,0.08,0.22,0.17,0.25,0.27c0.03,0.1,0.02,0.2-0.03,0.3
				l-0.22-0.12c0.02-0.06,0.03-0.11,0.01-0.15c-0.02-0.04-0.06-0.08-0.12-0.12c-0.06-0.04-0.12-0.05-0.17-0.05
				c-0.03,0-0.06,0.02-0.07,0.05c-0.01,0.03-0.02,0.05-0.01,0.08c0.01,0.04,0.07,0.1,0.16,0.19c0.09,0.09,0.15,0.16,0.19,0.21
				c0.04,0.06,0.05,0.12,0.05,0.18c0,0.06-0.02,0.13-0.06,0.2c-0.04,0.06-0.09,0.11-0.15,0.14c-0.07,0.03-0.14,0.05-0.22,0.03
				c-0.08-0.01-0.16-0.04-0.26-0.1c-0.14-0.08-0.22-0.17-0.26-0.28C12.67,27.68,12.68,27.57,12.74,27.44z"/>
			<path class="st3" d="M15.21,29.06l0.29-1l-0.36-0.1l0.06-0.2l0.95,0.28l-0.06,0.2l-0.35-0.1l-0.29,1L15.21,29.06z"/>
			<path class="st3" d="M17.38,29.5l0.08-1.25l0.25,0.02l-0.08,1.25L17.38,29.5z"/>
			<path class="st3" d="M19.18,29.13l0.24-0.06c0.03,0.08,0.06,0.14,0.11,0.17c0.05,0.03,0.11,0.04,0.19,0.03
				c0.08-0.01,0.14-0.04,0.17-0.08c0.04-0.04,0.05-0.08,0.04-0.13c0-0.03-0.02-0.05-0.04-0.07c-0.02-0.02-0.05-0.03-0.1-0.04
				c-0.03-0.01-0.1-0.01-0.21-0.03c-0.14-0.01-0.24-0.04-0.3-0.08c-0.09-0.06-0.14-0.13-0.15-0.23c-0.01-0.06,0-0.12,0.03-0.18
				c0.03-0.06,0.07-0.11,0.14-0.15c0.06-0.04,0.14-0.06,0.24-0.08c0.16-0.02,0.28,0,0.36,0.05c0.09,0.06,0.14,0.14,0.16,0.25
				l-0.25,0.05c-0.02-0.06-0.05-0.1-0.09-0.13c-0.04-0.02-0.09-0.03-0.16-0.02c-0.07,0.01-0.13,0.03-0.16,0.07
				c-0.02,0.02-0.03,0.05-0.03,0.08c0,0.03,0.02,0.05,0.05,0.07c0.04,0.02,0.12,0.04,0.24,0.05c0.13,0.01,0.22,0.03,0.28,0.05
				c0.06,0.02,0.11,0.06,0.15,0.11c0.04,0.05,0.07,0.11,0.08,0.19c0.01,0.07,0,0.14-0.03,0.21c-0.03,0.07-0.08,0.12-0.15,0.16
				c-0.07,0.04-0.16,0.07-0.26,0.08c-0.16,0.02-0.28,0-0.38-0.06C19.28,29.36,19.21,29.27,19.18,29.13z"/>
			<path class="st3" d="M21.78,28.98l-0.38-1.19l0.24-0.08l0.38,1.19L21.78,28.98z"/>
			<path class="st3" d="M23.55,28.24l-0.66-1.06l0.34-0.21c0.13-0.08,0.22-0.13,0.26-0.14c0.07-0.02,0.14-0.02,0.22,0.01
				c0.07,0.03,0.14,0.08,0.19,0.17c0.04,0.06,0.06,0.13,0.07,0.19c0,0.06,0,0.11-0.02,0.16c-0.02,0.05-0.05,0.09-0.08,0.12
				c-0.04,0.04-0.12,0.09-0.21,0.15l-0.14,0.09l0.25,0.4L23.55,28.24z M23.22,27.23l0.19,0.3l0.12-0.07
				c0.08-0.05,0.14-0.09,0.16-0.12c0.02-0.03,0.03-0.06,0.03-0.09c0-0.03-0.01-0.07-0.03-0.1c-0.02-0.04-0.06-0.06-0.09-0.07
				c-0.04-0.01-0.08-0.01-0.12,0.01c-0.03,0.01-0.08,0.04-0.16,0.09L23.22,27.23z"/>
		</g>
	</g>
</g>
</svg>
