<?xml version="1.0" encoding="utf-8"?>
<!-- Generator: Adobe Illustrator 28.0.0, SVG Export Plug-In . SVG Version: 6.00 Build 0)  -->
<svg version="1.1" xmlns="http://www.w3.org/2000/svg" xmlns:xlink="http://www.w3.org/1999/xlink" x="0px" y="0px"
	 viewBox="0 0 653 500" style="enable-background:new 0 0 653 500;" xml:space="preserve">
<g id="Background_Complete">
	<rect x="305.08" y="457.74" style="fill:#EBEBEB;" width="42.81" height="0.32"/>
	<rect x="320.87" y="461.25" style="fill:#EBEBEB;" width="11.23" height="0.32"/>
	<rect x="314.08" y="445.74" style="fill:#EBEBEB;" width="24.8" height="0.32"/>
	<rect x="128.96" y="390.89" style="fill:#EBEBEB;" width="43.19" height="0.25"/>
	<rect x="181.06" y="390.89" style="fill:#EBEBEB;" width="6.33" height="0.25"/>
	<rect x="265.96" y="453.37" style="fill:#EBEBEB;" width="121.06" height="0.32"/>
	<g>
		<path style="fill:#EBEBEB;" d="M311.5,379.3H61.94c-4.07,0-7.38-3.31-7.38-7.38V21.14c0-4.07,3.31-7.38,7.38-7.38H311.5
			c4.07,0,7.38,3.31,7.38,7.38v350.79C318.87,375.99,315.56,379.3,311.5,379.3z M61.94,14.09c-3.89,0-7.05,3.16-7.05,7.05v350.79
			c0,3.89,3.16,7.05,7.05,7.05H311.5c3.89,0,7.05-3.16,7.05-7.05V21.14c0-3.89-3.16-7.05-7.05-7.05H61.94z"/>
		<g>
			<path style="fill:#EBEBEB;" d="M591.03,379.3H341.48c-4.07,0-7.38-3.31-7.38-7.38V21.14c0-4.07,3.31-7.38,7.38-7.38h249.55
				c4.07,0,7.38,3.31,7.38,7.38v350.79C598.41,375.99,595.1,379.3,591.03,379.3z M341.48,14.09c-3.89,0-7.05,3.16-7.05,7.05v350.79
				c0,3.89,3.16,7.05,7.05,7.05h249.55c3.89,0,7.05-3.16,7.05-7.05V21.14c0-3.89-3.16-7.05-7.05-7.05H341.48z"/>
		</g>
	</g>
	<rect x="3.4" y="436.94" style="fill:#EBEBEB;" width="646.18" height="0.32"/>
	<g>
		<g>
			<polygon style="fill:#F0F0F0;" points="546.64,234.74 546.64,436.95 505.18,436.95 505.18,261.24 			"/>
			<g>
				<g>
					<polygon style="fill:#E6E6E6;" points="511.46,296.92 511.79,436.7 521.93,436.7 580.89,436.7 591.03,436.7 591.48,296.92 
											"/>
					<polygon style="fill:#E6E6E6;" points="526.93,279.14 526.97,310.3 533.25,310.3 569.74,310.3 576.01,310.3 576.08,279.14 
											"/>
					<polygon style="fill:#FAFAFA;" points="526.87,310.3 516.51,310.3 516.49,300.96 526.86,300.96 					"/>
					<rect x="536.39" y="300.96" style="fill:#FAFAFA;" width="10.37" height="9.34"/>
					<rect x="556.27" y="300.96" style="fill:#FAFAFA;" width="10.37" height="9.34"/>
					<polygon style="fill:#F0F0F0;" points="586.51,310.3 576.15,310.3 576.17,300.96 586.54,300.96 					"/>
					<polygon style="fill:#F0F0F0;" points="526.74,327.32 516.61,327.32 516.59,318.21 526.72,318.21 					"/>
					<rect x="536.46" y="318.21" style="fill:#F0F0F0;" width="10.13" height="9.11"/>
					<rect x="556.32" y="318.21" style="fill:#FAFAFA;" width="10.13" height="9.11"/>
					<polygon style="fill:#FAFAFA;" points="586.29,327.32 576.17,327.32 576.19,318.21 586.32,318.21 					"/>
					<polygon style="fill:#F0F0F0;" points="526.65,343.92 516.76,343.92 516.74,335.03 526.64,335.03 					"/>
					<rect x="536.59" y="335.03" style="fill:#FAFAFA;" width="9.89" height="8.89"/>
					<rect x="556.42" y="335.03" style="fill:#FAFAFA;" width="9.89" height="8.89"/>
					<polygon style="fill:#FAFAFA;" points="546.7,296.92 536.13,296.92 536.13,287.4 546.7,287.4 					"/>
					<polygon style="fill:#F0F0F0;" points="566.58,296.92 556.02,296.92 556.02,287.4 566.6,287.4 					"/>
					<polygon style="fill:#F0F0F0;" points="586.14,343.92 576.25,343.92 576.27,335.03 586.16,335.03 					"/>
					<polygon style="fill:#FAFAFA;" points="526.62,360.12 516.96,360.12 516.94,351.44 526.61,351.44 					"/>
					<rect x="536.77" y="351.44" style="fill:#F0F0F0;" width="9.66" height="8.67"/>
					<rect x="556.58" y="351.44" style="fill:#F0F0F0;" width="9.66" height="8.67"/>
					<polygon style="fill:#FAFAFA;" points="586.05,360.12 576.39,360.12 576.41,351.44 586.07,351.44 					"/>
					<polygon style="fill:#F0F0F0;" points="527.05,378.33 516.29,378.33 516.26,368.68 527.04,368.68 					"/>
					<polygon style="fill:#FAFAFA;" points="546.83,378.33 536.06,378.33 536.05,368.68 546.83,368.68 					"/>
					<polygon style="fill:#FAFAFA;" points="566.6,378.33 555.83,378.33 555.83,368.68 566.61,368.68 					"/>
					<polygon style="fill:#F0F0F0;" points="586.37,378.33 575.6,378.33 575.62,368.68 586.39,368.68 					"/>
					<polygon style="fill:#F0F0F0;" points="527.11,393.72 516.59,393.72 516.57,384.29 527.1,384.29 					"/>
					<polygon style="fill:#FAFAFA;" points="546.88,393.72 536.36,393.72 536.35,384.29 546.88,384.29 					"/>
					<polygon style="fill:#F0F0F0;" points="566.64,393.72 556.12,393.72 556.13,384.29 566.66,384.29 					"/>
					<polygon style="fill:#FAFAFA;" points="586.4,393.72 575.88,393.72 575.9,384.29 586.43,384.29 					"/>
					<polygon style="fill:#FAFAFA;" points="526.89,411.03 516.63,411.03 516.61,401.86 526.88,401.86 					"/>
					<rect x="536.36" y="401.86" style="fill:#FAFAFA;" width="10.26" height="9.18"/>
					<rect x="556.09" y="401.86" style="fill:#F0F0F0;" width="10.26" height="9.18"/>
					<polygon style="fill:#F0F0F0;" points="586.07,411.03 575.81,411.03 575.83,401.86 586.1,401.86 					"/>
					<polygon style="fill:#F0F0F0;" points="526.89,426.78 516.88,426.78 516.86,417.83 526.88,417.83 					"/>
					<polygon style="fill:#FAFAFA;" points="586.04,426.78 576.02,426.78 576.04,417.83 586.06,417.83 					"/>
					<polygon style="fill:#F5F5F5;" points="566.4,417.83 536.49,417.83 536.55,420.08 537.38,420.08 537.39,436.7 540.38,436.7 
						540.37,420.08 562.57,420.08 562.55,436.7 565.54,436.7 565.56,420.08 566.46,420.08 					"/>
					<polygon style="fill:#E6E6E6;" points="551.6,436.7 540.52,436.7 540.51,420.08 551.61,420.08 					"/>
					<polygon style="fill:#EBEBEB;" points="562.41,436.7 551.33,436.7 551.34,420.08 562.43,420.08 					"/>
				</g>
				<g>
					<g>
						<polygon style="fill:#F5F5F5;" points="355.52,296.92 357.82,436.7 367.96,436.7 426.92,436.7 437.06,436.7 435.55,296.92 
													"/>
						<polygon style="fill:#E6E6E6;" points="360.52,300.96 360.8,317.97 360.87,322.65 360.95,327.32 371.33,327.32 371.26,322.65 
							371.19,317.97 370.92,300.96 						"/>
						<polygon style="fill:#E6E6E6;" points="380.41,300.96 380.67,317.97 380.73,322.65 380.8,327.32 391.18,327.32 391.12,322.65 
							391.05,317.97 390.82,300.96 						"/>
						<polygon style="fill:#E6E6E6;" points="400.31,300.96 400.53,317.97 400.59,322.65 400.66,327.32 411.04,327.32 
							410.98,322.65 410.92,317.97 410.71,300.96 						"/>
						<polygon style="fill:#E6E6E6;" points="420.2,300.96 420.4,317.97 420.49,325.19 420.51,327.32 430.89,327.32 430.87,325.19 
							430.79,317.97 430.6,300.96 						"/>
						<polygon style="fill:#E6E6E6;" points="361.15,335.03 361.43,352.02 361.5,356.68 361.58,361.35 371.97,361.35 371.9,356.68 
							371.83,352.02 371.57,335.03 						"/>
						<polygon style="fill:#E6E6E6;" points="380.99,335.03 381.24,352.02 381.33,358.6 381.37,361.35 391.77,361.35 391.73,358.6 
							391.64,352.02 391.41,335.03 						"/>
						<polygon style="fill:#E6E6E6;" points="400.82,335.03 401.05,352.02 401.11,356.68 401.17,361.35 411.57,361.35 
							411.51,356.68 411.45,352.02 411.24,335.03 						"/>
						<polygon style="fill:#E6E6E6;" points="420.66,335.03 420.86,352.02 420.92,356.68 420.97,361.35 431.37,361.35 
							431.32,356.68 431.27,352.02 431.08,335.03 						"/>
						<polygon style="fill:#E6E6E6;" points="361.74,368.68 362.02,385.6 362.09,390.25 362.16,394.89 372.54,394.89 372.47,390.25 
							372.4,385.6 372.15,368.68 						"/>
						<polygon style="fill:#E6E6E6;" points="381.53,368.68 381.78,385.6 381.84,390.25 381.91,394.89 392.29,394.89 392.23,390.25 
							392.16,385.6 391.93,368.68 						"/>
						<polygon style="fill:#E6E6E6;" points="401.31,368.68 401.54,385.6 401.6,390.25 401.66,394.89 412.04,394.89 411.98,390.25 
							411.92,385.6 411.71,368.68 						"/>
						<polygon style="fill:#E6E6E6;" points="421.1,368.68 421.3,385.6 421.37,392.02 421.41,394.89 431.79,394.89 431.75,392.02 
							431.68,385.6 431.5,368.68 						"/>
						<polygon style="fill:#E6E6E6;" points="426.87,401.86 421.73,401.86 412.11,401.86 401.85,401.86 392.22,401.86 
							381.96,401.86 362.07,401.86 362.22,411.03 382.09,411.03 392.35,411.03 401.97,411.03 412.23,411.03 421.84,411.03 
							426.97,411.03 432.1,411.03 432,401.86 						"/>
						<polygon style="fill:#FAFAFA;" points="412.11,417.83 382.2,417.83 382.17,420.08 383.07,420.08 383.32,436.7 386.3,436.7 
							386.06,420.08 408.26,420.08 408.47,436.7 411.46,436.7 411.25,420.08 412.08,420.08 						"/>
						<polygon style="fill:#E6E6E6;" points="397.52,436.7 386.44,436.7 386.2,420.08 397.3,420.08 						"/>
						<polygon style="fill:#E6E6E6;" points="408.33,436.7 397.25,436.7 397.02,420.08 408.12,420.08 						"/>
					</g>
				</g>
				<g>
					<polygon style="fill:#E6E6E6;" points="511.02,304.98 511.92,436.7 502.36,436.7 446.81,436.7 437.25,436.7 435.61,304.98 
											"/>
					<polygon style="fill:#F0F0F0;" points="484.38,404.16 488.46,404.16 506.73,404.16 506.76,408.38 506.79,412.6 506.91,427.89 
						497.45,427.89 497.32,412.17 488.09,412.17 484.46,412.17 479.13,412.17 479.06,404.16 					"/>
					<polygon style="fill:#F0F0F0;" points="448.33,404.16 451.97,404.16 469.32,404.16 469.41,412.17 451.45,412.17 451.63,427.89 
						442.18,427.89 441.99,412.6 441.92,406.5 441.89,404.16 					"/>
					<polygon style="fill:#F5F5F5;" points="461.54,418.96 487.28,418.96 487.3,421.2 487.58,421.2 487.71,436.7 484.93,436.7 
						484.79,421.2 464.09,421.2 464.26,436.7 461.47,436.7 461.3,421.2 461.56,421.2 					"/>
					<polygon style="fill:#EBEBEB;" points="474.48,436.7 484.82,436.7 484.68,421.2 474.33,421.2 					"/>
					<polygon style="fill:#E0E0E0;" points="464.36,436.7 474.7,436.7 474.55,421.2 464.2,421.2 					"/>
					<polygon style="fill:#F0F0F0;" points="477.7,310.3 506.4,310.3 506.57,335.03 477.93,335.03 					"/>
					<polygon style="fill:#F0F0F0;" points="440.5,310.3 469.2,310.3 469.44,335.03 440.8,335.03 					"/>
					<polygon style="fill:#F0F0F0;" points="478.5,341.39 505.96,341.39 506.14,365.02 478.72,365.02 					"/>
					<polygon style="fill:#F0F0F0;" points="441.37,341.39 468.83,341.39 469.07,365.02 441.64,365.02 					"/>
					<polygon style="fill:#F0F0F0;" points="478.78,373.52 506.4,373.52 506.58,397.22 479,397.22 					"/>
					<polygon style="fill:#F0F0F0;" points="441.76,373.52 469.38,373.52 469.62,397.22 442.04,397.22 					"/>
				</g>
			</g>
		</g>
		<polygon style="fill:#E6E6E6;" points="319.78,246.01 319.78,233.68 332.83,233.68 332.83,199.52 337.1,199.52 337.1,233.68 
			350.15,233.68 350.15,246.01 356.31,246.01 356.31,437.27 313.62,437.27 313.62,246.01 		"/>
		<g>
			<path style="fill:#F0F0F0;" d="M61.49,287.74v149.67h51.23V299.13l-9.25-11.39H61.49z M99.78,395.08h8.72v8.72h-8.72V395.08z
				 M99.78,377.63h8.72v8.72h-8.72V377.63z M99.78,342.74h8.72v8.72h-8.72V342.74z M99.78,325.29h8.72v8.72h-8.72V325.29z
				 M99.78,307.84h8.72v8.72h-8.72V307.84z M82.33,377.63h8.72v8.72h-8.72V377.63z M82.33,360.18h8.72v8.72h-8.72V360.18z
				 M82.33,342.74h8.72v8.72h-8.72V342.74z M64.89,395.08h8.72v8.72h-8.72V395.08z M64.89,360.18h8.72v8.72h-8.72V360.18z
				 M64.89,342.74h8.72v8.72h-8.72V342.74z M64.89,307.84h8.72v8.72h-8.72V307.84z"/>
		</g>
		<g>
			<rect x="163.97" y="337.66" style="fill:#E6E6E6;" width="5.52" height="33.03"/>
			<polygon style="fill:#F0F0F0;" points="209.92,370.69 188.44,370.69 169.49,370.69 169.49,337.66 170.28,337.66 173.83,337.66 
				178.49,337.66 207.46,337.66 215.69,337.66 215.69,370.69 			"/>
			<rect x="248.57" y="337.66" style="fill:#F0F0F0;" width="8.72" height="1.57"/>
			<rect x="229.55" y="337.66" style="fill:#F0F0F0;" width="8.48" height="1.57"/>
			<path style="fill:#F0F0F0;" d="M279.37,350.02c-0.73,0-1.46,0-2.19,0c-0.89,0-0.89,1.39,0,1.39c0.72,0,1.43,0,2.15,0v6.5
				c-0.72,0-1.43,0-2.15,0c-0.89,0-0.89,1.39,0,1.39c0.72,0,1.43,0,2.15,0v11.4h-8.18v-33.03h12.49v2.8
				C281.14,342.92,279.54,346.28,279.37,350.02z"/>
			<rect x="112.61" y="371.08" style="fill:#E6E6E6;" width="14.88" height="67.2"/>
			<rect x="167.66" y="437.32" style="fill:#F0F0F0;" width="7.72" height="0.57"/>
			<rect x="241" y="437.32" style="fill:#F0F0F0;" width="7.72" height="0.57"/>
			<rect x="196.99" y="437.32" style="fill:#F0F0F0;" width="7.73" height="0.57"/>
			<rect x="226.33" y="437.32" style="fill:#F0F0F0;" width="7.72" height="0.57"/>
			<rect x="211.66" y="437.32" style="fill:#F0F0F0;" width="7.72" height="0.57"/>
			<rect x="182.32" y="437.32" style="fill:#F0F0F0;" width="7.72" height="0.57"/>
			<rect x="285" y="437.32" style="fill:#F0F0F0;" width="7.72" height="0.57"/>
			<rect x="270.33" y="437.32" style="fill:#F0F0F0;" width="7.72" height="0.57"/>
			<rect x="255.66" y="437.32" style="fill:#F0F0F0;" width="7.72" height="0.57"/>
			<rect x="299.66" y="437.32" style="fill:#F0F0F0;" width="7.73" height="0.57"/>
			<path style="fill:#EBEBEB;" d="M127.49,370.7v67.19h33.22v-0.57h-15.67v-50.66h-5.49c-1.78,0-1.78-2.77,0-2.77h5.49v-8.44h165.67
				v-4.76h-2.69v0.27h-28.68v-0.27h-8.18v1.5h-55.47v-1.5H127.49z"/>
			<path style="fill:#E6E6E6;" d="M145.04,383.89v-8.43h8.15v8.43C150.48,383.89,147.76,383.89,145.04,383.89z"/>
			<path style="fill:#E6E6E6;" d="M153.19,437.32h-8.15v-50.66c2.72,0,5.43,0,8.15,0V437.32z"/>
			<path style="fill:#F0F0F0;" d="M153.19,386.66v50.66h7.52v-10.87c0-1.92,1.56-3.47,3.48-3.47c1.91,0,3.47,1.55,3.47,3.47v10.87
				h7.72v-10.87c0-1.92,1.56-3.47,3.48-3.47c1.91,0,3.47,1.55,3.47,3.47v10.87h7.72v-10.87c0-1.92,1.56-3.47,3.48-3.47
				c1.91,0,3.47,1.55,3.47,3.47v10.87h7.73v-10.87c0-1.92,1.55-3.47,3.47-3.47c1.92,0,3.48,1.55,3.48,3.47v10.87h7.72v-10.87
				c0-1.92,1.56-3.47,3.47-3.47c1.92,0,3.48,1.55,3.48,3.47v10.87h7.72v-10.87c0-1.92,1.56-3.47,3.47-3.47
				c1.92,0,3.48,1.55,3.48,3.47v10.87h7.72v-10.87c0-1.92,1.56-3.47,3.47-3.47c1.92,0,3.48,1.55,3.48,3.47v10.87h7.72v-10.87
				c0-1.92,1.56-3.47,3.48-3.47c1.91,0,3.47,1.55,3.47,3.47v10.87h7.72v-10.87c0-1.92,1.56-3.47,3.48-3.47
				c1.91,0,3.47,1.55,3.47,3.47v10.87h7.72v-10.87c0-1.92,1.56-3.47,3.48-3.47c1.92,0,3.47,1.55,3.47,3.47v10.87h7.73v-10.87
				c0-1.92,1.56-3.47,3.47-3.47c1.92,0,3.48,1.55,3.48,3.47v10.87h7.51v-50.66H153.19z M307.39,411.71c0-1.92,1.56-3.48,3.47-3.48
				c1.92,0,3.48,1.56,3.48,3.48v4.9h-6.94V411.71z M292.72,411.71c0-1.92,1.56-3.48,3.48-3.48c1.92,0,3.47,1.56,3.47,3.48v4.9h-6.94
				V411.71z M278.05,411.71c0-1.92,1.56-3.48,3.48-3.48c1.91,0,3.47,1.56,3.47,3.48v4.9h-6.94V411.71z M263.39,411.71
				c0-1.92,1.56-3.48,3.48-3.48c1.91,0,3.47,1.56,3.47,3.48v4.9h-6.94V411.71z M248.72,411.71c0-1.92,1.56-3.48,3.47-3.48
				c1.92,0,3.48,1.56,3.48,3.48v4.9h-6.94V411.71z M234.05,411.71c0-1.92,1.56-3.48,3.47-3.48c1.92,0,3.48,1.56,3.48,3.48v4.9h-6.94
				V411.71z M219.39,411.71c0-1.92,1.56-3.48,3.47-3.48c1.92,0,3.48,1.56,3.48,3.48v4.9h-6.94V411.71z M204.72,411.71
				c0-1.92,1.55-3.48,3.47-3.48c1.92,0,3.48,1.56,3.48,3.48v4.9h-6.94V411.71z M190.04,411.71c0-1.92,1.56-3.48,3.48-3.48
				c1.91,0,3.47,1.56,3.47,3.48v4.9h-6.94V411.71z M175.38,411.71c0-1.92,1.56-3.48,3.48-3.48c1.91,0,3.47,1.56,3.47,3.48v4.9h-6.94
				V411.71z M160.71,411.71c0-1.92,1.56-3.48,3.48-3.48c1.91,0,3.47,1.56,3.47,3.48v4.9h-6.94V411.71z"/>
			<path style="fill:#F0F0F0;" d="M302.86,383.89c-49.89,0-99.77,0-149.66,0v-8.43h1.18h5.24h6.88h42.81h19.77h81.63h11.15v8.43
				C315.52,383.89,309.19,383.89,302.86,383.89z"/>
			<path style="fill:#E0E0E0;" d="M162.74,386.66c-3.18,0-6.36,0-9.54,0c-2.72,0-5.43,0-8.15,0c-1.83,0-3.66,0-5.49,0
				c-1.78,0-1.79-2.77,0-2.77c1.83,0,3.66,0,5.49,0c2.72,0,5.43,0,8.15,0c49.89,0,99.77,0,149.66,0c6.33,0,12.67,0,19,0
				c1.4,0,2.79,0,4.19,0c1.78,0,1.79,2.77,0,2.77c-1.4,0-2.79,0-4.19,0C268.81,386.66,215.78,386.66,162.74,386.66z"/>
			<path style="fill:#F0F0F0;" d="M200.69,260.23c0-1.64,0-3.28,0-4.92c0-1.44,2.24-1.44,2.24,0c0,1.64,0,3.28,0,4.92
				c-0.37-0.04-0.74-0.07-1.12-0.07C201.43,260.16,201.06,260.18,200.69,260.23z"/>
			<path style="fill:#F0F0F0;" d="M192.25,271.07v12.54c2.91-1.33,6.15-2.07,9.56-2.07c3.41,0,6.64,0.74,9.56,2.07v-12.54H192.25z
				 M198.81,275.13c0-1.67,1.35-3.01,3-3.01c1.66,0,3,1.34,3,3.01v4.24h-6V275.13z"/>
			<path style="fill:#F0F0F0;" d="M200.69,260.23c0.37-0.04,0.74-0.07,1.12-0.07c0.38,0,0.75,0.03,1.12,0.07
				c4.46,0.52,7.98,4.11,8.4,8.61c-6.35,0-12.69,0-19.04,0C192.71,264.34,196.23,260.75,200.69,260.23z"/>
			<path style="fill:#F0F0F0;" d="M178.65,303.61c0.42-8.91,5.88-16.5,13.59-20c2.92-1.32,6.15-2.07,9.56-2.07
				c3.41,0,6.65,0.74,9.56,2.07c3.22,1.46,6.04,3.63,8.27,6.31l-3.95,13.69C203.35,303.61,191,303.61,178.65,303.61z"/>
			<path style="fill:#E0E0E0;" d="M189.06,271.07c-1.44,0-1.44-2.24,0-2.24c1.08,0,2.16,0,3.23,0c6.35,0,12.69,0,19.04,0
				c1.08,0,2.16,0,3.23,0c1.44,0,1.44,2.24,0,2.24c-1.06,0-2.13,0-3.19,0c-6.38,0-12.75,0-19.13,0
				C191.18,271.07,190.12,271.07,189.06,271.07z"/>
			<path style="fill:#F0F0F0;" d="M178.63,305.85v10.51h37.05v-1.64h-1.66v-4.24c0-1.18,0.69-2.19,1.66-2.68v-1.96H178.63z
				 M203.88,310.49c0-1.66,1.34-3,3-3c1.66,0,3,1.34,3,3v4.24h-6V310.49z M193.74,310.49c0-1.66,1.35-3,3-3c1.66,0,3,1.34,3,3v4.24
				h-6V310.49z M183.59,310.49c0-1.66,1.34-3,3.01-3c1.66,0,3,1.34,3,3v4.24h-6.01V310.49z"/>
			<path style="fill:#F0F0F0;" d="M178.63,318.6v18.87h4.97v-13.37c0-1.67,1.34-3.01,3.01-3.01c1.66,0,3,1.34,3,3.01v13.37h4.14
				v-13.37c0-1.67,1.35-3.01,3-3.01c1.66,0,3,1.34,3,3.01v13.37h4.14v-13.37c0-1.67,1.34-3.01,3-3.01c1.66,0,3,1.34,3,3.01v13.37
				h4.14v-11.4h-0.18c-1.78,0-1.78-2.77,0-2.77h0.3c0.23-0.82,0.8-1.5,1.55-1.88v-2.83H178.63z"/>
			<path style="fill:#F0F0F0;" d="M229.55,304.79v-0.13C229.55,304.71,229.55,304.75,229.55,304.79z"/>
			<path style="fill:#E0E0E0;" d="M215.69,303.65v2.2c-12.35,0-24.71,0-37.06,0c-1.16,0-2.32,0-3.48,0c-1.44,0-1.44-2.24,0-2.24
				c1.17,0,2.34,0,3.51,0c12.35,0,24.7,0,37.04,0L215.69,303.65z"/>
			<path style="fill:#F0F0F0;" d="M229.55,317.54v-0.13C229.55,317.46,229.55,317.5,229.55,317.54z"/>
			<path style="fill:#E0E0E0;" d="M215.69,318.6c-12.35,0-24.71,0-37.06,0c-1.16,0-2.32,0-3.48,0c-1.44,0-1.44-2.24,0-2.24
				c1.16,0,2.32,0,3.48,0c12.35,0,24.71,0,37.06,0V318.6z"/>
			<path style="fill:#F0F0F0;" d="M229.55,339.23v32.96h27.73v-32.96h-8.72v-3.98c0-2.91-2.35-5.27-5.26-5.27
				c-2.91,0-5.27,2.36-5.27,5.27v3.98H229.55z M240.53,336.27c0-1.54,1.24-2.77,2.77-2.77c1.53,0,2.77,1.24,2.77,2.77v9.13h-5.54
				V336.27z"/>
			<path style="fill:#F0F0F0;" d="M257.28,303.65v19.65h13.87v-19.65l-6.94-24.04L257.28,303.65z M261.27,313.52
				c0-1.63,1.32-2.95,2.95-2.95c1.63,0,2.95,1.32,2.95,2.95v9.71h-5.89V313.52z"/>
			<path style="fill:#F0F0F0;" d="M257.28,326.08v46.12h13.87v-46.12H257.28z M261.27,358.68c0-1.63,1.32-2.95,2.95-2.95
				c1.63,0,2.95,1.32,2.95,2.95v9.72h-5.89V358.68z M261.27,339.2c0-1.62,1.32-2.95,2.95-2.95c1.63,0,2.95,1.33,2.95,2.95v9.72
				h-5.89V339.2z"/>
			<path style="fill:#E0E0E0;" d="M255.44,326.08c-1.78,0-1.79-2.77,0-2.77c0.62,0,1.23,0,1.85,0c4.62,0,9.24,0,13.86,0
				c0.62,0,1.23,0,1.85,0c1.78,0,1.79,2.77,0,2.77c-0.62,0-1.23,0-1.85,0c-4.62,0-9.24,0-13.86,0
				C256.67,326.08,256.05,326.08,255.44,326.08z"/>
			<path style="fill:#F0F0F0;" d="M215.68,303.65v19.65h13.87v-19.65l-6.94-24.04l-2.97,10.3l-3.94,13.69L215.68,303.65z
				 M219.67,313.52c0-1.63,1.32-2.95,2.95-2.95c1.63,0,2.95,1.32,2.95,2.95v9.71h-5.89V313.52z"/>
			<path style="fill:#F0F0F0;" d="M215.68,326.08v46.12h13.87v-46.12H215.68z M219.67,358.68c0-1.63,1.32-2.95,2.95-2.95
				c1.63,0,2.95,1.32,2.95,2.95v9.72h-5.89V358.68z M219.67,339.2c0-1.62,1.32-2.95,2.95-2.95c1.63,0,2.95,1.33,2.95,2.95v9.72
				h-5.89V339.2z"/>
			<path style="fill:#E0E0E0;" d="M213.83,326.08h17.57c1.78,0,1.78-2.77,0-2.77h-17.57C212.05,323.3,212.05,326.08,213.83,326.08z"
				/>
			<path style="fill:#F0F0F0;" d="M292.98,323.18c0,0.09,0,0.19,0,0.28c0,0.89,1.39,0.89,1.39,0c0-0.09,0-0.19,0-0.28
				c2.76,0.32,4.94,2.54,5.2,5.32c-3.93,0-7.85,0-11.78,0C288.04,325.72,290.22,323.5,292.98,323.18z"/>
			<path style="fill:#F0F0F0;" d="M287.76,329.89v7.76c1.8-0.81,3.8-1.28,5.91-1.28c2.11,0,4.12,0.47,5.92,1.28v-7.76H287.76z
				 M291.81,332.4c0-1.02,0.83-1.86,1.86-1.86c1.02,0,1.86,0.83,1.86,1.86v2.63h-3.71V332.4z"/>
			<path style="fill:#F0F0F0;" d="M279.37,350.02c0.18-3.74,1.77-7.1,4.28-9.55c1.19-1.16,2.58-2.11,4.11-2.81
				c1.81-0.82,3.8-1.29,5.92-1.29c2.11,0,4.11,0.47,5.92,1.29c4.77,2.16,8.13,6.85,8.39,12.36
				C298.44,350.02,288.9,350.02,279.37,350.02z"/>
			<path style="fill:#E0E0E0;" d="M285.78,329.89c-0.89,0-0.89-1.39,0-1.39c0.67,0,1.33,0,2,0c3.93,0,7.85,0,11.78,0
				c0.67,0,1.33,0,2,0c0.89,0,0.89,1.39,0,1.39c-0.66,0-1.31,0-1.97,0c-3.94,0-7.89,0-11.83,0
				C287.1,329.89,286.44,329.89,285.78,329.89z"/>
			<path style="fill:#F0F0F0;" d="M279.33,351.4v6.51h28.68v-6.51H279.33z M301.23,354.27c0-1.03,0.83-1.87,1.86-1.87
				c1.02,0,1.86,0.83,1.86,1.87v2.62h-3.71V354.27z M294.95,354.27c0-1.03,0.83-1.87,1.86-1.87c1.02,0,1.86,0.83,1.86,1.87v2.62
				h-3.71V354.27z M288.68,354.27c0-1.03,0.82-1.87,1.86-1.87c1.02,0,1.86,0.83,1.86,1.87v2.62h-3.71V354.27z M282.41,354.27
				c0-1.03,0.83-1.87,1.86-1.87c1.02,0,1.86,0.83,1.86,1.87v2.62h-3.71V354.27z"/>
			<path style="fill:#F0F0F0;" d="M279.33,370.97v-0.27v-11.4c9.56,0,19.12,0,28.68,0v11.4v0.27H279.33z"/>
			<path style="fill:#F0F0F0;" d="M292.98,323.46c0-0.09,0-0.19,0-0.28c0-1.58,0-3.16,0-4.74c0-0.89,1.39-0.89,1.39,0
				c0,1.58,0,3.16,0,4.74c0,0.09,0,0.19,0,0.28C294.37,324.35,292.98,324.35,292.98,323.46z"/>
			<path style="fill:#E0E0E0;" d="M279.33,351.4c-0.72,0-1.43,0-2.15,0c-0.89,0-0.89-1.39,0-1.39c0.73,0,1.46,0,2.19,0
				c9.54,0,19.08,0,28.61,0c0.73,0,1.46,0,2.19,0c0.89,0,0.89,1.39,0,1.39c-0.72,0-1.43,0-2.15,0
				C298.45,351.4,288.89,351.4,279.33,351.4z"/>
			<path style="fill:#E0E0E0;" d="M279.33,359.29c-0.72,0-1.43,0-2.15,0c-0.89,0-0.89-1.39,0-1.39c0.72,0,1.43,0,2.15,0
				c9.56,0,19.12,0,28.68,0c0.72,0,1.43,0,2.15,0c0.89,0,0.89,1.39,0,1.39c-0.72,0-1.43,0-2.15,0
				C298.45,359.29,288.89,359.29,279.33,359.29z"/>
		</g>
		<g>
			<path style="fill:#EBEBEB;" d="M124.37,436.89l15.71-0.19l-1.13-56.38l-0.22-13.06l-0.01-0.79l-0.21-11.64l-0.02-0.76
				l-0.19-11.05l-0.01-0.72l-0.19-10.55l-0.01-0.68l-0.17-10.05l0-0.65l-0.18-9.59l-0.01-0.63l-0.16-9.19l0-0.59l-0.14-7.97
				c-0.35,0.29-0.78,0.53-1.27,0.74l0.09,5.8l-5.42-4.94c-0.72-0.03-1.42-0.12-2.05-0.25l6.56,6.01l-8.15-0.04l0.05-6.42
				c-0.47-0.15-0.9-0.35-1.27-0.59l-0.07,7.61l-0.01,0.59l-0.09,9.19l0,0.61l-0.1,9.62l-0.01,0.64l-0.1,10.07l-0.01,0.68l-0.1,10.55
				l-0.01,0.72l-0.11,11.08l0,0.75l-0.11,11.65l0,0.79l-0.13,13.07L124.37,436.89z M126.85,367.65h9.4l-9.46,10.22L126.85,367.65z
				 M127.01,356.68l9.3,9.77l-9.37-0.01L127.01,356.68z M126.89,342.82l8.95,0.03l-9.01,9.23L126.89,342.82z M126.99,332.72
				l8.87,8.88l-8.92-0.03L126.99,332.72z M127.06,320.95l8.53,0.03l-8.58,8.38L127.06,320.95z M127.14,311.61l8.45,8.1l-8.52-0.04
				L127.14,311.61z M135.38,301.06l-8.21,7.63l0.05-7.67L135.38,301.06z M136.59,310.45l-8.32-0.03l8.2-7.66L136.59,310.45z
				 M136.72,319.77l-8.44-8.06l8.33,0.04L136.72,319.77z M136.89,331.38l-8.69-0.03l8.59-8.4L136.89,331.38z M137.02,341.45
				l-8.85-8.83l8.73,0.03L137.02,341.45z M137.19,354.14l-9.15-0.01l9.01-9.26L137.19,354.14z M137.29,365.08l-9.31-9.73l9.18,0.01
				L137.29,365.08z M137.36,378.51h-9.61l9.47-10.27L137.36,378.51z"/>
			<g>
				<g>
					<path style="fill:#EBEBEB;" d="M126.07,293.14c0.38,0.23,0.8,0.44,1.27,0.59l0.01-0.95l1.53,1.4c0.63,0.12,1.32,0.22,2.04,0.25
						l-3.76-3.44l-0.44,0.41l-0.64-0.01L126.07,293.14z M136.21,291.44l0.03,2.12c0.49-0.2,0.92-0.45,1.27-0.74l-0.02-1.38H136.21z"
						/>
				</g>
				<path style="fill:#EBEBEB;" d="M124.24,290.35c-0.1,0.66,0.13,1.3,0.66,1.87l0.44,0.41c0.21,0.18,0.47,0.35,0.73,0.5
					c0.38,0.23,0.8,0.44,1.27,0.59c0.48,0.19,0.99,0.34,1.53,0.45c0.63,0.12,1.32,0.22,2.04,0.25c0.09,0.01,0.18,0.01,0.26,0.01
					l0.66,0.01c1.7-0.03,3.22-0.35,4.39-0.89c0.49-0.2,0.92-0.45,1.27-0.74c0.04-0.03,0.07-0.05,0.11-0.08l0.41-0.4
					c0.5-0.55,0.72-1.18,0.6-1.82l-0.94-5.24l2.47,0.04l-8.61-4.37l-8.97,4.08l2.52,0.04L124.24,290.35z"/>
			</g>
		</g>
	</g>
	<g>
		<g>
			<path style="fill:#E0E0E0;" d="M439.6,110.11c0.16-1.84-1.45-2.95-3.8-2.95c-2.49,0-4.67,1.24-6.05,3.32l-6.54-3.69
				c2.8-4.1,7.51-6.82,14.28-6.82c7.09,0,11.9,3.04,11.4,8.66c-0.63,7.19-8.28,8.25-8.65,12.48h-8.2
				C432.58,115.09,439.3,113.57,439.6,110.11z M430.31,128.45c0.24-2.72,2.53-4.74,5.62-4.74s5.07,2.03,4.84,4.74
				c-0.23,2.67-2.59,4.84-5.68,4.84C432,133.28,430.07,131.12,430.31,128.45z"/>
		</g>
		<g>
			<path style="fill:#E0E0E0;" d="M232.19,86.51c0.11-1.31-1.03-2.1-2.7-2.1c-1.77,0-3.32,0.88-4.3,2.36l-4.65-2.62
				c1.99-2.91,5.34-4.85,10.15-4.85c5.04,0,8.46,2.16,8.11,6.16c-0.45,5.11-5.88,5.86-6.15,8.88h-5.83
				C227.19,90.05,231.97,88.97,232.19,86.51z M225.58,99.54c0.17-1.93,1.8-3.37,4-3.37s3.61,1.44,3.44,3.37
				c-0.17,1.9-1.84,3.44-4.03,3.44S225.41,101.44,225.58,99.54z"/>
		</g>
		<g>
			<g>
				<g id="freepik--speech-bubbles--inject-120_2_">
					<path style="fill:#E6E6E6;" d="M307.59,92.58l41.18-0.25c1.2-0.05,2.2,0.89,2.25,2.08c0,0.12,0,0.24-0.02,0.36l-2.02,18.94
						c-0.19,1.39-1.36,2.44-2.76,2.47l-23.54,0.19c-4.42,5.45-10.85,6.34-10.85,6.34s3.94-3.62,4.87-6.3l-11.65,0.02
						c-1.2,0.05-2.2-0.89-2.25-2.08c0-0.12,0-0.24,0.02-0.36l2.01-18.93C305.02,93.67,306.19,92.62,307.59,92.58z"/>
				</g>
			</g>
			<path style="fill:#FAFAFA;" d="M319.67,104.92c0,1.12-0.91,2.02-2.02,2.02c-1.12,0-2.02-0.91-2.02-2.02
				c0-1.12,0.91-2.02,2.02-2.02C318.77,102.89,319.67,103.8,319.67,104.92z"/>
			<path style="fill:#FAFAFA;" d="M328.94,104.92c0,1.12-0.91,2.02-2.02,2.02s-2.02-0.91-2.02-2.02c0-1.12,0.91-2.02,2.02-2.02
				S328.94,103.8,328.94,104.92z"/>
			<path style="fill:#FAFAFA;" d="M338.2,104.92c0,1.12-0.91,2.02-2.02,2.02c-1.12,0-2.02-0.91-2.02-2.02
				c0-1.12,0.91-2.02,2.02-2.02C337.3,102.89,338.2,103.8,338.2,104.92z"/>
		</g>
	</g>
</g>
<g id="Background_Simple" style="display:none;">
	<g style="display:inline;">
		<g>
			<path style="fill:#407BFF;" d="M225.44,98.92c-26.95,19.92-50.06,45.49-63.24,76.3c-7.49,17.51-12.19,37.22-7.18,55.6
				c5,18.38,22.08,34.41,41.08,33.06c18.78-1.34,32.32-17.61,46.36-30.15c19.58-17.48,44.05-29.42,69.87-34.11
				c8.9-1.62,20.12-1.33,24.47,6.6c4.49,8.19-1.84,18.04-8.46,24.63c-13.8,13.75-30.24,24.6-44.18,38.21
				c-13.94,13.61-25.67,31.16-26.1,50.63c-0.44,19.48,14.04,40,33.51,40.64c13.63,0.45,25.63-8.19,37.02-15.69
				c24.64-16.23,51.53-28.71,77.21-43.24c25.69-14.52,50.63-31.5,68.9-54.67s29.26-53.42,24.06-82.47
				c-6.25-34.98-37.49-58.04-68.25-75.84C388.31,64.02,276.79,60.97,225.44,98.92z"/>
		</g>
		<g style="opacity:0.9;">
			<path style="fill:#FFFFFF;" d="M225.44,98.92c-26.95,19.92-50.06,45.49-63.24,76.3c-7.49,17.51-12.19,37.22-7.18,55.6
				c5,18.38,22.08,34.41,41.08,33.06c18.78-1.34,32.32-17.61,46.36-30.15c19.58-17.48,44.05-29.42,69.87-34.11
				c8.9-1.62,20.12-1.33,24.47,6.6c4.49,8.19-1.84,18.04-8.46,24.63c-13.8,13.75-30.24,24.6-44.18,38.21
				c-13.94,13.61-25.67,31.16-26.1,50.63c-0.44,19.48,14.04,40,33.51,40.64c13.63,0.45,25.63-8.19,37.02-15.69
				c24.64-16.23,51.53-28.71,77.21-43.24c25.69-14.52,50.63-31.5,68.9-54.67s29.26-53.42,24.06-82.47
				c-6.25-34.98-37.49-58.04-68.25-75.84C388.31,64.02,276.79,60.97,225.44,98.92z"/>
		</g>
	</g>
</g>
<g id="Shadow">
	
		<ellipse id="_x3C_Path_x3E__00000003097965142255295480000017733287772981921442_" style="fill:#F5F5F5;" cx="326.49" cy="479.97" rx="250.57" ry="14.63"/>
</g>
<g id="Letters">
	<g>
		<g>
			<path style="fill:#407BFF;" d="M126.95,218.47v44.25h77.43v43.96h-77.43v68.96H77.33V174.5H214.9v43.96H126.95z"/>
			<path style="fill:#407BFF;" d="M326.95,337.42h-74.17l-13.78,39.08h-50.62l77.43-201.14h48.86l77.68,201.14h-51.62L326.95,337.42
				z M312.41,295.47l-22.55-64.37l-22.55,64.37H312.41z"/>
			<path style="fill:#407BFF;" d="M575.64,397.16c-11.78,16.38-29.07,25.29-49.11,25.29c-28.57,0-47.36-11.21-76.68-46.26
				c-46.11-8.91-78.18-49.71-78.18-102.87c0-60.34,41.34-104.6,97.47-104.6s97.47,44.25,97.47,104.6c0,45.69-23.8,82.18-59.64,97.12
				c7.02,8.62,13.03,11.49,20.55,11.49c9.52,0,18.79-4.89,26.56-14.08L575.64,397.16z M469.15,330.78
				c26.56,0,47.36-22.7,47.36-57.47c0-34.77-20.8-57.47-47.36-57.47c-26.56,0-47.36,22.7-47.36,57.47
				C421.79,308.08,442.58,330.78,469.15,330.78z"/>
		</g>
		<path style="fill:#FFFFFF;" d="M458.7,175.61c-0.32,0-0.6-0.24-0.64-0.56c-0.05-0.35,0.2-0.68,0.55-0.73
			c5.51-0.74,10.98-0.93,16.26-0.57c0.36,0.02,0.62,0.33,0.6,0.69c-0.02,0.36-0.34,0.61-0.69,0.6c-5.19-0.36-10.57-0.17-15.99,0.56
			C458.76,175.61,458.73,175.61,458.7,175.61z"/>
		<path style="fill:#FFFFFF;" d="M397.12,212.81c-0.14,0-0.27-0.04-0.39-0.13c-0.28-0.22-0.34-0.62-0.12-0.9
			c12.31-16.25,28.37-27.96,46.45-33.88c0.34-0.11,0.7,0.07,0.81,0.41c0.11,0.34-0.07,0.7-0.41,0.81
			c-17.83,5.83-33.68,17.39-45.83,33.43C397.51,212.72,397.32,212.81,397.12,212.81z"/>
		<g>
			<path style="fill:#FFFFFF;" d="M124.8,181.51h-9.74c-0.36,0-0.65-0.29-0.65-0.65s0.29-0.65,0.65-0.65h9.74
				c0.36,0,0.65,0.29,0.65,0.65S125.16,181.51,124.8,181.51z"/>
			<path style="fill:#FFFFFF;" d="M83.93,212.81c-0.36,0-0.65-0.29-0.65-0.65v-31.29c0-0.36,0.29-0.65,0.65-0.65h22.68
				c0.36,0,0.65,0.29,0.65,0.65s-0.29,0.65-0.65,0.65H84.57v30.65C84.57,212.52,84.28,212.81,83.93,212.81z"/>
		</g>
		<g>
			<path style="fill:#FFFFFF;" d="M310.3,181.51h-11.32c-0.36,0-0.65-0.29-0.65-0.65s0.29-0.65,0.65-0.65h11.32
				c0.36,0,0.65,0.29,0.65,0.65S310.65,181.51,310.3,181.51z"/>
			<path style="fill:#FFFFFF;" d="M256.34,216.49c-0.08,0-0.15-0.01-0.23-0.04c-0.33-0.12-0.5-0.5-0.38-0.83l13.08-34.97
				c0.09-0.25,0.34-0.42,0.61-0.42h18.23c0.36,0,0.65,0.29,0.65,0.65s-0.29,0.65-0.65,0.65h-17.78l-12.93,34.55
				C256.85,216.33,256.6,216.49,256.34,216.49z"/>
		</g>
	</g>
</g>
<g id="Plant">
	<g>
		<g>
			<g>
				<g>
					<defs>
						<path id="XMLID_00000124881460310664679750000005338508381043335863_" d="M328.02,453.23c0,0,1.51-7.62,7.43-9.27
							c5.92-1.65,8.21-3.44,8.21-3.44S341.83,452.29,328.02,453.23z"/>
					</defs>
					<use xlink:href="#XMLID_00000124881460310664679750000005338508381043335863_"  style="overflow:visible;fill:#407BFF;"/>
					<clipPath id="XMLID_00000145737408757483069630000011458771229193661353_">
						<use xlink:href="#XMLID_00000124881460310664679750000005338508381043335863_"  style="overflow:visible;"/>
					</clipPath>
					<path style="opacity:0.2;clip-path:url(#XMLID_00000145737408757483069630000011458771229193661353_);fill:#FFFFFF;" d="
						M328.02,453.23c0,0,1.51-7.62,7.43-9.27c5.92-1.65,8.21-3.44,8.21-3.44S341.83,452.29,328.02,453.23z"/>
				</g>
				<g>
					<path style="fill:#407BFF;" d="M328.19,453.17c-0.1,0-0.2-0.03-0.28-0.11c-0.17-0.15-0.19-0.42-0.04-0.6
						c2.85-3.22,6.43-5.71,10.94-7.61c0.21-0.09,0.46,0.01,0.55,0.23c0.09,0.22-0.01,0.46-0.23,0.55
						c-4.39,1.85-7.87,4.27-10.64,7.39C328.42,453.13,328.31,453.17,328.19,453.17z"/>
				</g>
			</g>
			<g>
				<g>
					<g>
						<g>
							<defs>
								<path id="XMLID_00000138574538108883832740000003984248579463794327_" d="M328.54,458.77c0,0,0.46-12.15-7.95-16.8
									c-8.41-4.65-11.25-8.2-11.25-8.2S307.86,452.34,328.54,458.77z"/>
							</defs>
							<use xlink:href="#XMLID_00000138574538108883832740000003984248579463794327_"  style="overflow:visible;fill:#407BFF;"/>
							<clipPath id="XMLID_00000129188834034430915970000007670295546549367688_">
								<use xlink:href="#XMLID_00000138574538108883832740000003984248579463794327_"  style="overflow:visible;"/>
							</clipPath>
						</g>
						<g style="opacity:0.2;">
							<defs>
								<path id="XMLID_00000156577567797597093620000010713567138734269829_" style="opacity:0.2;" d="M328.54,458.77
									c0,0,0.46-12.15-7.95-16.8c-8.41-4.65-11.25-8.2-11.25-8.2S307.86,452.34,328.54,458.77z"/>
							</defs>
							<use xlink:href="#XMLID_00000156577567797597093620000010713567138734269829_"  style="overflow:visible;fill:#FFFFFF;"/>
							<clipPath id="XMLID_00000068673675084524480940000008551292995469780111_">
								<use xlink:href="#XMLID_00000156577567797597093620000010713567138734269829_"  style="overflow:visible;"/>
							</clipPath>
						</g>
					</g>
					<path style="fill:#407BFF;" d="M327.82,458.43c-0.15,0-0.29-0.08-0.37-0.22c-1.61-2.93-6.35-10.45-15.62-16.98
						c-0.19-0.13-0.24-0.4-0.1-0.59c0.13-0.19,0.4-0.24,0.59-0.1c9.41,6.63,14.23,14.29,15.87,17.27c0.11,0.2,0.04,0.46-0.17,0.57
						C327.96,458.41,327.89,458.43,327.82,458.43z"/>
				</g>
			</g>
			<g>
				<path style="fill:#407BFF;" d="M327.89,463.26l-1.27-0.24c1.9-9.94,1.86-20.44-0.1-30.36l1.27-0.25
					C329.78,442.49,329.82,453.16,327.89,463.26z"/>
			</g>
			<g>
				<path style="fill:#407BFF;" d="M323.69,422.98c0.26,1.48,2.39,6.55,3.87,6.29c1.48-0.26,1.76-5.75,1.5-7.23
					c-0.26-1.48-1.67-2.48-3.16-2.22C324.42,420.09,323.43,421.5,323.69,422.98z"/>
				<path style="fill:#407BFF;" d="M332,438.86c-0.26-1.48-2.39-6.55-3.87-6.29c-1.48,0.26-1.76,5.75-1.5,7.23
					c0.26,1.48,1.67,2.48,3.16,2.22C331.27,441.75,332.26,440.34,332,438.86z"/>
				<path style="fill:#407BFF;" d="M319.91,435.08c1.48-0.26,6.55-2.39,6.29-3.87c-0.26-1.48-5.74-1.76-7.23-1.5
					c-1.48,0.26-2.48,1.67-2.22,3.16C317.01,434.35,318.43,435.34,319.91,435.08z"/>
				<path style="fill:#407BFF;" d="M335.78,426.76c-1.48,0.26-6.55,2.39-6.29,3.87c0.26,1.48,5.75,1.76,7.23,1.5
					c1.48-0.26,2.48-1.67,2.22-3.16C338.68,427.49,337.26,426.5,335.78,426.76z"/>
				<path style="fill:#407BFF;" d="M319.29,428.25c1.23,0.87,6.32,2.94,7.18,1.71c0.87-1.23-2.82-5.31-4.05-6.17
					c-1.23-0.87-2.93-0.57-3.8,0.66C317.76,425.68,318.06,427.38,319.29,428.25z"/>
				<path style="fill:#407BFF;" d="M336.4,433.59c-1.23-0.87-6.32-2.94-7.18-1.71c-0.87,1.23,2.82,5.31,4.05,6.17
					c1.23,0.87,2.93,0.57,3.8-0.67C337.93,436.16,337.63,434.46,336.4,433.59z"/>
				<path style="fill:#407BFF;" d="M325.17,439.47c0.87-1.23,2.94-6.32,1.71-7.18c-1.23-0.87-5.31,2.82-6.17,4.05
					c-0.87,1.23-0.57,2.93,0.67,3.8C322.61,441,324.31,440.7,325.17,439.47z"/>
				<path style="fill:#407BFF;" d="M330.52,422.37c-0.87,1.23-2.94,6.32-1.71,7.18c1.23,0.87,5.31-2.82,6.17-4.05
					c0.87-1.23,0.57-2.93-0.67-3.8C333.08,420.84,331.38,421.14,330.52,422.37z"/>
				<path style="fill:#407BFF;" d="M324.66,431.48c0.31,1.76,1.98,2.93,3.74,2.62c1.76-0.31,2.93-1.98,2.63-3.74
					c-0.31-1.76-1.98-2.93-3.74-2.63C325.53,428.05,324.36,429.72,324.66,431.48z"/>
				<path style="opacity:0.8;fill:#FFFFFF;" d="M324.66,431.48c0.31,1.76,1.98,2.93,3.74,2.62c1.76-0.31,2.93-1.98,2.63-3.74
					c-0.31-1.76-1.98-2.93-3.74-2.63C325.53,428.05,324.36,429.72,324.66,431.48z"/>
			</g>
		</g>
		<g>
			<polygon style="fill:#263238;" points="335.26,479.03 317.39,479.03 313.17,461.99 339.48,461.99 			"/>
			<polygon style="fill:#263238;" points="335.84,476.26 335.84,480.99 332.34,480.99 332.34,480.09 329.05,480.09 329.05,480.99 
				323.11,480.99 323.11,480.09 319.81,480.09 319.81,480.99 316.71,480.99 316.71,476.26 			"/>
		</g>
	</g>
</g>
<g id="Character_4">
	<g>
		<g>
			<g>
				<path style="fill:#263238;" d="M312.15,318.75h6.55c1.02-10.29,1.55-17.56,0.91-27.89c-0.9-14.6,1.56-15.53-3.76-24.39
					c-0.65-1.09-1.4-2.17-2.47-2.86c-1.07-0.69-2.54-0.89-3.6-0.2C308.71,264.11,312.25,299.08,312.15,318.75z"/>
			</g>
			<g style="opacity:0.1;">
				<path d="M312.15,318.75h6.55c1.02-10.29,1.55-17.56,0.91-27.89c-0.9-14.6,1.56-15.53-3.76-24.39c-0.65-1.09-1.4-2.17-2.47-2.86
					c-1.07-0.69-2.54-0.89-3.6-0.2C308.71,264.11,312.25,299.08,312.15,318.75z"/>
			</g>
		</g>
		<g>
			<g>
				<g>
					<polygon style="fill:#EBB376;" points="357.12,388.52 360.1,403.86 367.52,403.67 366.11,387.44 					"/>
					<g>
						<path style="fill:#407BFF;" d="M368.17,403.64c-0.07-0.02-0.12-0.08-0.13-0.15c-0.01-0.07,0.03-0.14,0.1-0.17
							c0.12-0.05,2.78-1.28,3.96-0.84c0.22,0.08,0.4,0.24,0.51,0.45c0.14,0.24,0.12,0.54-0.05,0.75c-0.33,0.36-1.28,0.44-2.18,0.36
							C369.62,403.97,368.89,403.84,368.17,403.64z M368.74,403.46c1.34,0.29,3.17,0.44,3.54-0.01c0.05-0.05,0.11-0.15,0-0.38
							c-0.06-0.13-0.17-0.23-0.32-0.27c-0.1-0.04-0.21-0.06-0.33-0.07C370.64,402.79,369.66,403.03,368.74,403.46z"/>
						<path style="fill:#407BFF;" d="M368.08,403.62c-0.05-0.04-0.07-0.1-0.06-0.16c0.02-0.09,0.38-2.03,1.38-2.71
							c0.29-0.2,0.64-0.28,0.98-0.21c0.47,0.09,0.6,0.34,0.6,0.54c0.08,0.83-1.8,2.25-2.7,2.56c-0.02,0.01-0.05,0.01-0.07,0
							C368.15,403.65,368.11,403.64,368.08,403.62z M370.23,400.86c-0.22-0.02-0.44,0.04-0.61,0.16c-0.6,0.58-1,1.32-1.16,2.14
							c0.95-0.45,2.2-1.58,2.2-2.08c-0.01-0.04-0.02-0.17-0.33-0.23L370.23,400.86L370.23,400.86z"/>
						<path style="fill:#263238;" d="M367.52,402.56l-7.92-0.7c-0.3-0.03-0.58,0.16-0.67,0.44l-2,6.32
							c-0.18,0.56,0.12,1.16,0.68,1.34c0.07,0.02,0.15,0.04,0.22,0.05c2.86,0.2,5.41,0.27,8.97,0.59c4.19,0.37,3.09,0.78,8.01,1.29
							c2.97,0.3,3.81-3.03,2.57-3.3c-5.7-1.24-6.15-3.03-8.19-5.29C368.74,402.85,368.14,402.59,367.52,402.56z"/>
					</g>
					<polygon style="opacity:0.1;" points="359.02,398.31 366.96,397.21 366.11,387.44 357.12,388.52 					"/>
					<path style="fill:#407BFF;" d="M313.86,309.78c0,0,46.8,0.11,49.03,12.91c2.24,12.81,5.46,71.11,5.46,71.11l-10.85,1.61
						c0,0-7.64-32.24-12.46-65.17c0,0-49.62,4.39-52.22-2.51c-2.6-6.89-0.55-17.29-0.55-17.29L313.86,309.78z"/>
					<path style="opacity:0.3;enable-background:new    ;" d="M313.86,309.78c0,0,46.8,0.11,49.03,12.91
						c2.24,12.81,5.46,71.11,5.46,71.11l-10.85,1.61c0,0-7.64-32.24-12.46-65.17c0,0-49.62,4.39-52.22-2.51
						c-2.6-6.89-0.55-17.29-0.55-17.29L313.86,309.78z"/>
					<g>
						<polygon style="fill:#407BFF;" points="356.46,396.84 369.75,394.94 369.55,390.16 355.36,391.86 						"/>
					</g>
					<path style="opacity:0.4;" d="M334.47,326.99c0.02,0.12,0.03,0.23,0.05,0.35c-0.04-1.93-0.15-3.54-0.35-4.71
						c-1.5-8.59-23.92-11.77-33.12-12.71l-11.17,0.34c0,0-1.73,8.79,0.46,14.62C292.54,330.7,334.47,326.99,334.47,326.99z"/>
				</g>
				<path style="fill:#263238;" d="M315.53,281.84l-2.56,21.04c0.97,2.02,3.21,6.96,1.76,6.92c-1.82-0.06-13.17,7.69-13.17,7.69
					l-20.49-8.19l1.42-5.77c-0.42-1.82-2.27-12.58-3.84-22.06l-0.14-0.86l-1.6-10.14l-0.57-3.63c-0.01-0.01-0.01-0.02-0.01-0.04
					v-0.02c-0.17-1.56-0.58-2.84-0.71-3.69c-0.04-0.21-0.04-0.41,0.01-0.6c0.06-0.44,0.3-0.85,0.65-1.16
					c0.02-0.02,0.05-0.04,0.07-0.06c0.14-0.11,0.27-0.21,0.41-0.32c7.46-5.38,26.78-0.42,32.44,1.05c0.79,0.2,2.33,1.17,2.31,1.98
					l1,2.92l2.11,6.21c0.21,0.62,0.38,1.23,0.53,1.86C315.67,277.19,315.81,279.52,315.53,281.84z"/>
				<g>
					<g>
						<g>
							<g>
								<polygon style="fill:#EBB376;" points="331.05,389.63 331.56,404.95 338.98,404.76 340.04,388.56 								"/>
								<g>
									<path style="fill:#407BFF;" d="M339.43,404.96c-0.06-0.04-0.1-0.11-0.09-0.18c0.01-0.07,0.06-0.13,0.13-0.15
										c0.13-0.03,2.99-0.63,4.05,0.06c0.2,0.13,0.34,0.32,0.39,0.55c0.09,0.26,0,0.55-0.22,0.72c-0.4,0.28-1.35,0.15-2.21-0.13
										C340.78,405.61,340.09,405.31,339.43,404.96z M340.04,404.91c1.24,0.57,2.99,1.12,3.46,0.78c0.06-0.04,0.14-0.13,0.08-0.37
										c-0.03-0.14-0.12-0.27-0.25-0.33c-0.09-0.06-0.19-0.11-0.3-0.14C342.04,404.68,341.02,404.7,340.04,404.91z"/>
									<path style="fill:#407BFF;" d="M339.35,404.92c-0.04-0.05-0.05-0.11-0.03-0.17c0.04-0.08,0.82-1.9,1.94-2.34
										c0.32-0.13,0.69-0.13,1,0.01c0.44,0.19,0.51,0.46,0.46,0.66c-0.1,0.83-2.25,1.8-3.2,1.9c-0.02,0-0.05,0-0.07-0.02
										C339.42,404.97,339.38,404.95,339.35,404.92z M342.06,402.7c-0.21-0.07-0.43-0.06-0.63,0.02c-0.71,0.43-1.27,1.07-1.6,1.83
										c1.02-0.23,2.49-1.06,2.6-1.54c0-0.05,0.02-0.17-0.27-0.29L342.06,402.7L342.06,402.7z"/>
									<path style="fill:#263238;" d="M339.04,403.76l-7.57-2.43c-0.29-0.09-0.6,0.03-0.75,0.29l-3.34,5.72
										c-0.3,0.51-0.13,1.16,0.37,1.46c0.07,0.04,0.13,0.07,0.21,0.09c2.74,0.83,5.22,1.46,8.62,2.55
										c4.01,1.29,2.84,1.44,7.53,3.02c2.83,0.95,4.38-2.11,3.23-2.66c-5.29-2.46-5.33-4.31-6.82-6.96
										C340.16,404.31,339.64,403.93,339.04,403.76z"/>
								</g>
								<path style="fill:#263238;" d="M301.72,311.03c0,0,41.57,2.64,43.8,15.45s-4.91,69.26-4.91,69.26l-10.84,0.74
									c0,0-2.34-38.15-2.1-62.45c0,0-44.4,2.71-47-4.18c-2.6-6.89-0.54-18.16-0.54-18.16L301.72,311.03z"/>
								<path style="fill:#407BFF;" d="M301.72,311.03c0,0,41.57,2.64,43.8,15.45s-4.91,69.26-4.91,69.26l-10.84,0.74
									c0,0-2.34-38.15-2.1-62.45c0,0-38.26,4.09-47.36-2.2c-9.98-6.9,0.46-22.52,0.46-22.52L301.72,311.03z"/>
								<path style="opacity:0.2;enable-background:new    ;" d="M301.72,311.03c0,0,41.57,2.64,43.8,15.45s-4.91,69.26-4.91,69.26
									l-10.84,0.74c0,0-2.34-38.15-2.1-62.45c0,0-38.26,4.09-47.36-2.2c-9.98-6.9,0.46-22.52,0.46-22.52L301.72,311.03z"/>
								<g>
									<polygon style="fill:#407BFF;" points="328.55,397.91 341.87,397.06 342.31,391.86 327.68,392.89 									"/>
								</g>
							</g>
							<g>
								<path style="fill:#EBB376;" d="M291.75,245.69c0.53,4.22,0.91,10.36-2.2,12.94c3.79,2.53,2.85,6.11,5.56,9.77
									c0.4,0.53,5.42,0.22,5.95-0.19c0.11-0.08,0.93,0.13,1,0.02c3.63-5.58,0.45-8.69,0.45-8.69c-2.43,1.2-2.35-3.05-1.33-6.24
									L291.75,245.69z"/>
								<path style="opacity:0.2;enable-background:new    ;" d="M300.53,257.73c-0.08-1.28,0.18-2.96,0.65-4.42l-1.7-1.37
									l-5.13-2.96C293.1,251.86,297,256.56,300.53,257.73z"/>
								<path style="fill:#263238;" d="M305.79,227.82c7.54,6.28,7.91,11.65,7.96,15.35c0.06,3.71-0.89,7.34-1.84,10.93
									c-4.21-2.94-7.66-7.08-8.61-12.13C302.35,236.93,302.95,232.09,305.79,227.82z"/>
								<path style="fill:#EBB376;" d="M292.01,235.81c-1.19,6.9-1.84,9.82,0.77,14.07c3.92,6.47,12.65,6.42,15.88,0.02
									c2.88-5.77,4.4-16.07-1.65-20.35c-4.28-3.07-10.24-2.09-13.32,2.19C292.81,232.95,292.24,234.34,292.01,235.81z"/>
								<path style="fill:#BA4D3C;" d="M306.52,242.2c0.2,1.38,0.58,2.72,1.13,4c-0.67,0.27-1.42,0.24-2.06-0.09L306.52,242.2z"/>
								<path style="fill:#263238;" d="M304.82,248.6c0.28,0.06,0.55,0.09,0.83,0.11c0.09-0.02,0.15-0.11,0.13-0.2
									c-0.01-0.07-0.06-0.12-0.13-0.13c-1.44-0.06-2.76-0.79-3.57-1.97c-0.04-0.08-0.14-0.11-0.22-0.07
									c-0.08,0.05-0.1,0.15-0.07,0.23C302.5,247.63,303.58,248.36,304.82,248.6z"/>
								<path style="fill:#263238;" d="M301.69,236.34c0.12,0.09,0.27,0.09,0.39,0c1.28-0.86,3.15-0.17,3.16-0.17
									c0.17,0.07,0.36-0.02,0.43-0.19c0.07-0.17-0.02-0.36-0.19-0.43c-0.09,0-2.21-0.82-3.78,0.23c-0.15,0.1-0.19,0.31-0.09,0.46
									C301.64,236.28,301.66,236.31,301.69,236.34z"/>
								<path style="fill:#263238;" d="M311.07,238.91c0.09,0.08,0.21,0.1,0.33,0.07c0.17-0.06,0.26-0.25,0.21-0.42
									c-0.3-1.03-1.09-1.86-2.11-2.2c-0.18-0.05-0.36,0.06-0.41,0.23c-0.05,0.18,0.06,0.36,0.23,0.41
									c0.8,0.29,1.42,0.94,1.65,1.76C310.99,238.82,311.03,238.87,311.07,238.91z"/>
								<path style="fill:#263238;" d="M291.91,262.27c0,0,7.85,5.49,11,0.13l-0.06,5.14l-0.07,6.24l-1.03,1.45l-1.97-0.65
									l-2.31-4.31l-0.95-1.52L291.91,262.27z"/>
								<g>
									<path style="fill:#407BFF;" d="M289.96,258.11c0,0,8.68,12.03,10.88,15.78c2.21,3.76,0.73-14.19,0.73-14.19
										s1.27-1.38,3.55,0.68c0,0,2.47,7.99,2.21,8.63c-0.26,0.64-3.23,0.93-3.23,0.93s1.71,1.98,1.38,3.12
										c-0.33,1.14-2.48,3.06-3.51,3.2c-1.03,0.14-7.94-3.29-8.31-4.26c-0.37-0.97,1.76-2.36,1.76-2.36s-4.96,0.2-5.64-1.61
										c-0.69-1.81-3.29-9.97-3.29-9.97S288.14,256.18,289.96,258.11z"/>
									<path style="opacity:0.5;fill:#FFFFFF;" d="M289.96,258.11c0,0,8.68,12.03,10.88,15.78c2.21,3.76,0.73-14.19,0.73-14.19
										s1.27-1.38,3.55,0.68c0,0,2.47,7.99,2.21,8.63c-0.26,0.64-3.23,0.93-3.23,0.93s1.71,1.98,1.38,3.12
										c-0.33,1.14-2.48,3.06-3.51,3.2c-1.03,0.14-7.94-3.29-8.31-4.26c-0.37-0.97,1.76-2.36,1.76-2.36s-4.96,0.2-5.64-1.61
										c-0.69-1.81-3.29-9.97-3.29-9.97S288.14,256.18,289.96,258.11z"/>
								</g>
								<path style="fill:#EBB376;" d="M288.96,240.8c0.2,1.34,0.92,2.55,2.01,3.35c1.44,1.06,2.81-0.08,2.92-1.77
									c0.11-1.52-0.5-3.91-2.21-4.31c-1.24-0.26-2.46,0.53-2.72,1.77C288.9,240.17,288.9,240.49,288.96,240.8z"/>
							</g>
						</g>
					</g>
					<path style="fill:#263238;" d="M334.5,265.29l-5.77-0.87c-0.94-0.14-1.59-1.02-1.45-1.97l2.76-18.2
						c0.14-0.94,1.02-1.59,1.97-1.45l5.77,0.87c0.94,0.14,1.59,1.02,1.45,1.97l-2.76,18.2C336.32,264.79,335.44,265.44,334.5,265.29
						z"/>
					<g>
						<g>
							<g>
								<g>
									<path style="fill:#EBB376;" d="M322.42,263.82l3.41-2.03c0,0,1.36-4.37,2.78-4.81c0,0,2.38-1.66,3.38-2.14
										c1.78-0.85,2.7,0.39,2.68,3.11c-0.01,2.72,0.99,4.32-1.69,5.6c-2.68,1.27-3.93,1.77-3.93,1.77l-4.49,3.39L322.42,263.82z"
										/>
								</g>
							</g>
						</g>
						<path style="opacity:0.2;" d="M293.04,272.5c0,0-2.79,2.27-6.27,4.42c-2.67,1.65-5.75,3.24-8.27,3.68l-1.6-10.14
							c-0.21-0.26-0.39-0.54-0.55-0.82l-0.02-2.84v-0.94L293.04,272.5z"/>
						<g>
							<path style="fill:#263238;" d="M325.33,268.83c-0.54,0.34-1.07,0.68-1.59,1.01c-3.1,1.95-5.85,3.61-8.59,5.1
								c-4.24,2.31-8.47,4.24-14.02,6.27c-4.84-1.43-9.73-2.34-14.34-4.28c-0.26-0.11-0.53-0.22-0.79-0.34
								c-2.15-0.97-4.32-1.96-6.24-3.35c-1.07-0.78-2.06-1.71-2.84-2.77c-0.21-0.26-0.39-0.54-0.55-0.82
								c-0.38-0.59-0.69-1.23-0.91-1.9c-0.57-1.7-0.54-3.64,0.18-5.27c0.18-0.43,0.43-0.85,0.73-1.22c0.05-0.07,0.1-0.15,0.16-0.21
								c0.09-0.04,0.17-0.07,0.25-0.11c5.69-2.55,9.22-0.66,12.23,3.52c3.95,1.19,7.79,4.03,13.7,4.01c3.3-0.01,6.03-0.37,9.82-1.59
								c2.08-0.68,4.48-1.61,7.47-2.91c0.7-0.3,1.43-0.6,2.19-0.95c0.15,0.16,0.33,0.38,0.52,0.63c0.9,1.19,2.09,3.24,2.5,4.58
								C325.26,268.45,325.3,268.66,325.33,268.83z"/>
							<path style="opacity:0.1;fill:#FFFFFF;" d="M325.33,268.83c-0.54,0.34-1.07,0.68-1.59,1.01c-3.1,1.95-5.85,3.61-8.59,5.1
								c-4.24,2.31-8.47,4.24-14.02,6.27c-4.84-1.43-9.73-2.34-14.34-4.28c-0.26-0.11-0.53-0.22-0.79-0.34
								c-2.15-0.97-4.32-1.96-6.24-3.35c-1.07-0.78-2.06-1.71-2.84-2.77c-0.21-0.26-0.39-0.54-0.55-0.82
								c-0.38-0.59-0.69-1.23-0.91-1.9c-0.57-1.7-0.54-3.64,0.18-5.27c0.18-0.43,0.43-0.85,0.73-1.22c0.05-0.07,0.1-0.15,0.16-0.21
								c0.09-0.04,0.17-0.07,0.25-0.11c5.69-2.55,9.22-0.66,12.23,3.52c3.95,1.19,7.79,4.03,13.7,4.01c3.3-0.01,6.03-0.37,9.82-1.59
								c2.08-0.68,4.48-1.61,7.47-2.91c0.7-0.3,1.43-0.6,2.19-0.95c0.15,0.16,0.33,0.38,0.52,0.63c0.9,1.19,2.09,3.24,2.5,4.58
								C325.26,268.45,325.3,268.66,325.33,268.83z"/>
							<g>
								<polygon style="fill:#407BFF;" points="326.72,269.07 324.77,271.47 319.78,263.64 322.27,261.79 								"/>
								<polygon style="opacity:0.5;fill:#FFFFFF;" points="326.72,269.07 324.77,271.47 319.78,263.64 322.27,261.79 								"/>
							</g>
						</g>
					</g>
				</g>
				<path style="fill:#263238;" d="M302.59,226.2c-4.64-3.6-12.28,0.1-15.61,4.93c-3.34,4.84-2.93,11.92,0.93,16.35
					c2.2,2.52,5.51,3.51,8.54,4.91c-0.7-4.16-0.17-8.5,1.78-12.24c1.96-3.74,5.16-6.82,8.98-8.61
					C307.21,231.54,304.68,227.82,302.59,226.2z"/>
				<path style="fill:#263238;" d="M302.59,226.2c3,3.16,4.76,4.31,5.54,5.74c2.54,1.83,4.66,7.91,5.63,10.88
					C314.65,237.13,309.68,226.75,302.59,226.2z"/>
				<g>
					<path style="fill:#263238;" d="M308.68,241.66c-0.13,0.55,0.06,1.08,0.42,1.16c0.36,0.08,0.76-0.29,0.9-0.85
						c0.13-0.55-0.06-1.07-0.42-1.16C309.22,240.72,308.81,241.1,308.68,241.66z"/>
					<path style="fill:#263238;" d="M310.66,241.03c-0.42-0.08-0.83-0.15-1.25-0.23c0.05,0.02-0.01,0.02,0.04,0.03
						c0.01,0.2,0.02,0.4,0.02,0.59C309.91,241.56,310.34,241.36,310.66,241.03z"/>
				</g>
				<path style="fill:#263238;" d="M302.42,240.18c-0.13,0.55,0.06,1.07,0.42,1.16c0.36,0.09,0.76-0.29,0.89-0.85
					c0.13-0.55-0.05-1.07-0.42-1.16C302.95,239.24,302.55,239.63,302.42,240.18z"/>
				<path style="fill:#263238;" d="M304.47,239.55c-0.42-0.08-0.83-0.15-1.25-0.23c0.05,0.02-0.01,0.02,0.04,0.03
					c0.01,0.2,0.02,0.4,0.02,0.59C303.73,240.09,304.16,239.89,304.47,239.55z"/>
			</g>
		</g>
	</g>
</g>
<g id="Character_3">
	<g>
		<g>
			<path style="fill:#7F3E3B;" d="M375.44,390.57c-14.21,17.29-47.93,48.59-47.93,48.59l-6.42-4.25c0,0,24.63-41.64,36.56-49.52
				c-10.05-15.96-42.77-72.71-42.77-72.71l23.3-8.43c0,0,26.33,50.52,38.53,74.29C378.74,382.45,378.23,387.17,375.44,390.57z"/>
		</g>
		<path style="fill:#7F3E3B;" d="M302.78,317.1c0,0,20.76,57.01,28.6,80.88c6.91,21.14,27.82,72.93,27.82,72.93l7.45-2.61
			c0,0-13.19-58.35-19.17-80.17c-5.47-19.93-19.06-80.31-19.06-80.31L302.78,317.1z"/>
		<g>
			<path style="fill:#263238;" d="M328.86,441.3c1.12,6.03,1.96,6.89,5.03,12.24c0.66,1.15-2.3,2.64-4.43,0.3
				c-3.52-3.89-3.57-4.04-6.56-7.32c-2.56-2.84-5.64-5.98-7.72-8.2c-0.06-0.07-0.12-0.14-0.16-0.22c-0.3-0.54-0.11-1.22,0.42-1.53
				l6.12-3.49c0.28-0.15,0.62-0.1,0.84,0.13l5.66,6.25C328.49,440,328.76,440.63,328.86,441.3z"/>
			<path style="fill:#407BFF;" d="M327.74,440.76L327.74,440.76c0.65,1.09,1.93,2.93,3.02,3.06c0.35,0.06,0.71-0.08,0.94-0.36
				c0.15-0.14,0.21-0.35,0.16-0.55c-0.25-1.03-3.49-2.29-3.87-2.42c-0.07-0.02-0.15,0-0.2,0.06
				C327.72,440.61,327.7,440.69,327.74,440.76z M331.47,442.98l0.01,0.02c0.02,0.08-0.01,0.16-0.07,0.21
				c-0.14,0.17-0.36,0.26-0.58,0.24c-0.64-0.07-1.55-0.96-2.47-2.39c1.27,0.53,2.9,1.36,3.12,1.94L331.47,442.98z"/>
			<path style="fill:#407BFF;" d="M327.74,440.76c0.02,0.04,0.05,0.08,0.09,0.1c0.94,0.41,3.42,0.66,3.97-0.03
				c0.13-0.16,0.21-0.44-0.08-0.84c-0.22-0.3-0.55-0.5-0.92-0.55c-1.26-0.18-2.94,1.06-3.01,1.11c-0.05,0.04-0.08,0.1-0.07,0.17
				L327.74,440.76z M331.54,440.39c0.04,0.07,0.03,0.15-0.02,0.21c-0.33,0.42-2.15,0.37-3.21,0.04c0.71-0.53,1.56-0.82,2.44-0.84
				c0.27,0.03,0.52,0.17,0.67,0.39C331.47,440.25,331.51,440.32,331.54,440.39z"/>
		</g>
		<g>
			<g>
				<g>
					<g>
						<path style="fill:#7F3E3B;" d="M347.6,266.18c-2.5-4.03-17.13-11.25-18.26-11.88l-4.05,9.39c5.82,3.39,14.43,8.07,13.92,11.37
							L347.6,266.18z"/>
					</g>
					<g>
						<g>
							<g>
								<path style="fill:#407BFF;" d="M336.21,255.21c-5.11-2.86-17.25-11.58-22.94-5.9c0,0-3.43,7.68,5.18,12.8
									c3.52,2.09,9.32,5.82,11.69,7.2L336.21,255.21z"/>
							</g>
						</g>
					</g>
					<g style="opacity:0.2;enable-background:new    ;">
						<g>
							<g>
								<path d="M336.21,255.21c-5.11-2.86-17.25-11.58-22.94-5.9c0,0-3.43,7.68,5.18,12.8c3.52,2.09,9.32,5.82,11.69,7.2
									L336.21,255.21z"/>
							</g>
						</g>
					</g>
					<g id="freepik--Character--inject-452_00000126318760115701470080000017431501941793906319_">
						<path style="fill:#263238;" d="M367.29,467.71c2.13,0.98,6.48,1.37,12.06,0.89c1.23-0.1,1.72,2.81-1.11,3.67
							c-2.83,0.87-9.08,2.56-11.12,3.18c-3.33,1.02-5.22,1.82-7.84,2.63c-0.08,0.03-0.16,0.04-0.24,0.05
							c-0.57,0.05-1.07-0.37-1.11-0.94l-0.51-6.4c-0.02-0.29,0.16-0.55,0.43-0.64l8.22-2.52
							C366.47,467.5,366.9,467.53,367.29,467.71z"/>
						<path style="fill:#407BFF;" d="M288.36,255.7c0.91-0.42,1.85-0.85,2.78-1.24c4.92-2.11,9.95-3.93,15.08-5.45
							c0.66-0.18,1.29-0.34,1.89-0.47c2.17-0.48,4.36-0.85,6.57-1.13c1.62-0.2,3.2,0.54,4.04,1.93c2.68,4.42,8.79,17.43,19.49,54.96
							l-35.47,12.8c-1.1-2.66-3.19-10.85-6.78-21.35c-1.54-4.49-3.35-9.38-5.49-14.45c-3.03-7.28-6.6-14.33-10.67-21.08
							C279.81,260.22,283.73,257.84,288.36,255.7z"/>
						<path style="opacity:0.2;enable-background:new    ;" d="M288.36,255.7c0.91-0.42,1.85-0.85,2.78-1.24
							c4.92-2.11,9.95-3.93,15.08-5.45c0.66-0.18,1.29-0.34,1.89-0.47c2.17-0.48,4.36-0.85,6.57-1.13c1.62-0.2,3.2,0.54,4.04,1.93
							c2.68,4.42,8.79,17.43,19.49,54.96l-35.47,12.8c-1.1-2.66-3.19-10.85-6.78-21.35c-1.54-4.49-3.35-9.38-5.49-14.45
							c-3.03-7.28-6.6-14.33-10.67-21.08C279.81,260.22,283.73,257.84,288.36,255.7z"/>
						<path style="opacity:0.2;enable-background:new    ;" d="M285.08,269.72c2,3.9,3.79,7.81,5.4,11.61
							c0.43,1.02,0.84,2.03,1.24,3.03c1.65-5.54,1.66-11.44,0.01-16.98L285.08,269.72z"/>
						<g>
							<path style="fill:#407BFF;" d="M325.36,308.81c0,0,0.49,0.25,11.04,40.4l15.05,30.84l24.06-9.56l-37.31-66.97L325.36,308.81z
								"/>
						</g>
						<g style="opacity:0.1;">
							<path style="fill:#FFFFFF;" d="M325.36,308.81c0,0,0.49,0.25,11.04,40.4l15.05,30.84l24.06-9.56l-37.31-66.97L325.36,308.81z
								"/>
						</g>
						<path style="opacity:0.2;enable-background:new    ;" d="M347.76,372.48c-6.2-12.04-13.26-26.19-19.33-35.79l2.4-4.04
							C337.96,337.48,344.86,360.15,347.76,372.48z"/>
						<g>
							<g>
								<path style="fill:#407BFF;" d="M302.78,317.1c0,0,0,0,10.94,41.67c5.03,22.95,8.38,29.99,8.38,29.99l24.97-7.29
									l-10.13-40.23c-5.47-19.93-8.52-33.43-8.52-33.43L302.78,317.1z"/>
							</g>
						</g>
						<g style="opacity:0.1;">
							<path style="fill:#FFFFFF;" d="M302.78,317.1c0,0,0,0,10.94,41.67c5.03,22.95,8.38,29.99,8.38,29.99l24.97-7.29l-10.13-40.23
								c-5.47-19.93-8.52-33.43-8.52-33.43L302.78,317.1z"/>
						</g>
						<path style="fill:#407BFF;" d="M368.66,468.13c0.47-0.11,0.89-0.37,1.19-0.75c0.19-0.29,0.21-0.66,0.06-0.98
							c-0.06-0.19-0.22-0.34-0.42-0.37c-0.86-0.16-2.62,1.85-2.82,2.08c-0.04,0.05-0.05,0.12-0.02,0.18c0.03,0.06,0.09,0.1,0.15,0.1
							C367.43,468.37,368.05,468.28,368.66,468.13z M369.23,466.42c0.06-0.04,0.14-0.06,0.21-0.06c0.08,0.02,0.14,0.08,0.15,0.16
							c0.1,0.21,0.08,0.45-0.04,0.64c-0.64,0.58-1.49,0.89-2.36,0.86C367.77,467.36,368.46,466.82,369.23,466.42L369.23,466.42z"/>
						<path style="fill:#407BFF;" d="M366.86,468.41c0.03,0,0.05-0.01,0.07-0.02c0.58-0.59,1.48-2.48,1.1-3.2
							c-0.12-0.23-0.39-0.34-0.64-0.26c-0.26,0.04-0.48,0.19-0.62,0.41c-0.58,0.88-0.14,2.91-0.13,2.96
							c0.02,0.06,0.06,0.1,0.12,0.12C366.8,468.42,366.83,468.42,366.86,468.41z M367.38,465.27l0.08-0.02
							c0.2-0.06,0.26,0.05,0.28,0.1c0.22,0.41-0.29,1.79-0.83,2.53c-0.19-0.78-0.13-1.6,0.15-2.35
							C367.13,465.4,367.24,465.31,367.38,465.27z"/>
						<path style="fill:#7F3E3B;" d="M279.97,264.19c-0.53,1.31-0.95,2.48-1.37,3.7c-0.42,1.22-0.82,2.44-1.19,3.67
							c-0.75,2.46-1.42,4.94-1.98,7.48c-1.21,5.16-1.83,10.44-1.86,15.73c-0.01,0.13,0,0.27,0.01,0.4l0.03,0.49
							c0.01,0.31,0.05,0.62,0.11,0.92c0.1,0.56,0.25,1.1,0.45,1.63l0.28,0.73c0.1,0.23,0.24,0.41,0.31,0.64l0.32,0.62l0.35,0.54
							c0.85,1.29,1.83,2.5,2.93,3.59c1.93,1.9,4.02,3.62,6.25,5.15c4.26,2.95,8.78,5.5,13.5,7.61l2.66-4.58
							c-1.84-1.48-3.79-2.99-5.64-4.53c-1.86-1.53-3.68-3.08-5.38-4.68c-1.66-1.51-3.21-3.14-4.64-4.87
							c-0.59-0.72-1.1-1.5-1.52-2.32l-0.12-0.25l-0.07-0.22c-0.02-0.07-0.05-0.16-0.06-0.21c-0.01-0.05-0.02-0.09-0.04-0.14
							c-0.05-0.16-0.03-0.09-0.05-0.16c-0.02-0.07,0,0,0,0l0,0l0,0c0,0.01-0.02-0.08-0.02-0.08c0.2-2.25,0.52-4.48,0.94-6.7
							c0.46-2.26,0.96-4.55,1.58-6.81c0.62-2.26,1.27-4.54,1.98-6.8c0.35-1.13,0.71-2.26,1.09-3.38l1.13-3.27L279.97,264.19z"/>
						<path style="fill:#407BFF;" d="M292.39,269.73c-1.3,8.62-3.4,17.75-3.4,17.75l-16.34-7.02c0,0,1.17-17.14,7.16-20.24
							C287.06,256.48,293.84,260.34,292.39,269.73z"/>
						<path style="opacity:0.2;enable-background:new    ;" d="M292.39,269.73c-1.3,8.62-3.4,17.75-3.4,17.75l-16.34-7.02
							c0,0,1.17-17.14,7.16-20.24C287.06,256.48,293.84,260.34,292.39,269.73z"/>
						<path style="fill:#7F3E3B;" d="M297.06,316.53c1.03,3.17,7.14,1.91,7.14,1.91l0.1-9.01l-6.52,2.96L297.06,316.53z"/>
						<polygon style="fill:#7F3E3B;" points="304.32,309.46 304.24,318.45 309.63,318.27 310.04,310.83 						"/>
					</g>
				</g>
				<g>
					<g>
						<path style="fill:#7F3E3B;" d="M291.86,254.64c0.25,0.16,0.49,0.32,0.74,0.48c0.95,0.62,1.92,1.25,2.91,1.83
							c0,0.01,0.01,0.02,0.02,0.02c2.56,0.77,5.99,1.55,9.7,1.7c1.37-1.08,2.21-2.01,2.74-2.81c0.14-0.73,0.11-1.49-0.14-2.19
							c-0.11-0.32-0.28-0.62-0.49-0.89c-1.62-0.31-2.71-0.98-3.43-1.89c-0.16-0.18-0.29-0.38-0.4-0.58
							c-0.97-1.62-1.04-3.77-0.85-5.9l-10.78-6.52C293.55,242.37,295.77,251.11,291.86,254.64z"/>
						<path style="opacity:0.2;enable-background:new    ;" d="M296.6,243.23c0.59,2.17,4.51,5.98,6.03,3.97
							c-0.07-0.93-0.06-1.86,0.03-2.78l-6.38-3.86C296.22,241.46,296.33,242.37,296.6,243.23z"/>
					</g>
					<path style="fill:#263238;" d="M304.92,231.2l1.11,2.89c0,0,4.25-0.06,5.01-0.52c-0.36-0.57-1.26-1.7-1.19-2.74
						c0.09-1.21,1.88-1.56,2.17-2.81c0.29-1.24-0.34-5.23-1.44-5.29c-1.11-0.06-7.68,0.08-7.68,0.08
						C298.24,225.23,304.92,231.2,304.92,231.2z"/>
					<path style="fill:#7F3E3B;" d="M293.46,224.41c2.5-4.49,8.17-6.09,12.65-3.59c6.29,3.47,6.03,13.6,3.86,19.51
						c-2.41,6.55-11.12,8.65-15.63,2.83c-3-3.87-2.43-7.83-2.04-14.64C292.36,227.08,292.76,225.67,293.46,224.41z"/>
					<path style="fill:#263238;" d="M292.7,240.82l-0.66-4.05l4.54,1.79c0,0-2.23-5.18-1.81-7.56c0.1-1.2,1.39-1.58,1.7-2.83
						c0.3-1.24-0.34-5.25-1.44-5.29c-1.1-0.05-6.65-0.01-6.65-0.01C283.72,225.27,292.7,240.82,292.7,240.82z"/>
					<path style="fill:#263238;" d="M303.16,231.19c0.35,0.04,0.59,0.52,0.53,1.07c-0.07,0.55-0.4,0.96-0.76,0.92
						c-0.36-0.04-0.6-0.52-0.53-1.08C302.46,231.56,302.81,231.15,303.16,231.19z"/>
					<path style="fill:#263238;" d="M308.94,231.59c0.36-0.02,0.69,0.4,0.72,0.96c0.04,0.56-0.23,1.02-0.59,1.05
						c-0.36,0.02-0.69-0.4-0.72-0.96C308.31,232.08,308.58,231.62,308.94,231.59z"/>
					<path style="fill:#BA4D3C;" d="M305.91,237.59c0.88,0.34,1.86,0.27,2.69-0.18c-0.92-1.57-1.61-3.26-2.07-5.02L305.91,237.59z"
						/>
					<path style="fill:#263238;" d="M300.91,228.98C300.91,228.97,300.9,228.97,300.91,228.98c-0.12-0.14-0.11-0.34,0.02-0.46
						c0.76-0.72,1.83-1.03,2.85-0.82c0,0,0.01,0,0.01,0c0.17,0.05,0.27,0.23,0.22,0.39c-0.05,0.17-0.22,0.27-0.4,0.23
						c-0.81-0.15-1.65,0.1-2.25,0.67c-0.08,0.07-0.18,0.1-0.28,0.08C301.02,229.07,300.95,229.03,300.91,228.98z"/>
					<path style="fill:#263238;" d="M310.64,229.65c-0.44-0.71-1.18-1.16-2.01-1.22l0,0c-0.14-0.02-0.25-0.13-0.27-0.28
						c-0.03-0.18,0.1-0.35,0.28-0.37c1.05,0.07,2,0.63,2.55,1.52c0,0.01,0.01,0.01,0.01,0.02c0.09,0.15,0.04,0.34-0.11,0.42
						c-0.04,0.02-0.09,0.02-0.14,0.01C310.83,229.78,310.71,229.74,310.64,229.65z"/>
					<path style="fill:#7F3E3B;" d="M291.1,230.54c2,0.34,3.04,3.27,3.13,5.2c0.1,2.15-1.28,3.71-3.08,2.51
						c-1.39-0.96-2.37-2.39-2.76-4.03C287.89,232.18,289.1,230.2,291.1,230.54z"/>
					<g>
						<path style="fill:#2E353A;" d="M306.28,239.99c-0.38,0.86-0.74,2.47-0.74,2.47c-0.15-0.01-0.3-0.01-0.45-0.03
							c-2.05-0.14-2.96-0.88-3.34-1.66c-0.21-0.43-0.25-0.87-0.24-1.23c0.01-0.42,0.11-0.71,0.11-0.71c1.04,0.72,2.95,1,3.97,1.11
							C306.01,239.98,306.28,239.99,306.28,239.99z"/>
						<path style="fill:#FFFFFF;" d="M305.58,239.93l-0.24,0.72c-1.93-0.14-3.27-0.49-3.84-1.12c0.01-0.42,0.11-0.71,0.11-0.71
							C302.66,239.55,304.56,239.82,305.58,239.93z"/>
						<path style="fill:#DE5753;" d="M305.09,242.43c-2.05-0.14-2.96-0.88-3.34-1.66c0.7,0.07,1.53,0.24,2.25,0.61
							C304.55,241.65,304.88,242.04,305.09,242.43z"/>
					</g>
					<path style="fill:#263238;" d="M311.58,225.72c-7.54-1.71-15.87-1.31-23.51,1.05c-2.84-0.78-4.47-3.22-4.18-5.61
						c0.29-2.38,2.24-4.62,4.79-6.12c2.54-1.5,5.62-2.32,8.69-2.76c3.23-0.47,6.42,0.48,9.34,1.41c2.92,0.93,5.56,2.52,6.77,4.78
						C314.68,220.73,314.01,223.92,311.58,225.72z"/>
				</g>
			</g>
			<g>
				<g>
					<g>
						<g>
							<g>
								<g>
									<path style="fill:#7F3E3B;" d="M344.93,264.02l-23.97,12.32l0.07,5.06c0,0,24.97-4.92,27.8-8.79h0
										c0.96-2.67,0.05-5.65-2.22-7.34L344.93,264.02z"/>
								</g>
							</g>
							<path style="fill:#7F3E3B;" d="M320.97,276.34l-3.7,1.8c-1.14,0.56-2.03,1.54-2.47,2.73l-1.68,4.59
								c-0.2,0.55,0.03,1.17,0.55,1.45l2.88,1.56c0.53,0.29,1.18,0.13,1.53-0.35l2.95-4.15l2.97-4.77
								C324,279.2,322.39,275.65,320.97,276.34z"/>
						</g>
					</g>
				</g>
				<g>
					<polygon style="fill:#263238;" points="325.31,280.86 323.23,281.28 320.67,275.72 322.54,274.86 					"/>
					<path style="fill:#263238;" d="M323.91,274.99l-4.19,1.93l-0.18-0.39c-0.21-0.45-0.01-0.99,0.44-1.2l2.55-1.17
						c0.45-0.21,0.99-0.01,1.2,0.44L323.91,274.99z"/>
				</g>
			</g>
		</g>
	</g>
</g>
<g id="Character_2">
	<g>
		<g>
			<g id="_x3C_Group_x3E__2_">
				<g>
					<g>
						<polygon style="fill:#CB7A63;" points="375.11,181.16 370.09,184.9 361.44,175.34 355.15,168.39 355.13,168.39 355.13,168.38 
							361.63,164.14 367.41,171.44 						"/>
						<path style="fill:#263238;" d="M374.2,179.62l-5.06,5.15c-0.22,0.21-0.25,0.55-0.07,0.79l4,5.46c0.42,0.53,1.18,0.62,1.71,0.2
							c0.03-0.03,0.07-0.06,0.1-0.09c9.85-7.73,12.33-11.67,13.28-12.71c2.71-2.95,0.04-4.67-1.1-3.96
							c-5.12,3.23-7.61,4.06-10.23,4.25C375.47,178.96,374.53,179.29,374.2,179.62z"/>
						<g>
							<polygon style="fill:#407BFF;" points="360.51,177.59 370.28,170.65 368.79,167.02 357.57,174.41 							"/>
							<polygon style="opacity:0.5;fill:#FFFFFF;" points="360.51,177.59 370.28,170.65 368.79,167.02 357.57,174.41 							"/>
						</g>
					</g>
					<g>
						<path style="fill:#407BFF;" d="M378.98,175.8c-0.43,0.06-0.95,0.62-1.42,1.28c-0.22,0.32-0.43,0.65-0.62,0.97
							c-0.15,0.24-0.28,0.48-0.38,0.68c-0.15,0.3-0.27,0.52-0.3,0.59c-0.04,0.06-0.04,0.14,0.01,0.2c0.01,0.02,0.04,0.04,0.07,0.05
							c0.04,0.01,0.09,0.01,0.14-0.01c0.73-0.33,1.44-0.73,2.1-1.19c0.34-0.21,0.63-0.49,0.86-0.81c0.01-0.02,0.02-0.03,0.03-0.04
							c0.12-0.19,0.23-0.39,0.31-0.61c0.07-0.32-0.03-0.66-0.26-0.89C379.38,175.85,379.18,175.78,378.98,175.8z M379.24,176.24
							c0.17,0.15,0.23,0.38,0.18,0.6c-0.03,0.18-0.15,0.38-0.32,0.59c-0.17,0.2-0.4,0.42-0.7,0.63c-0.34,0.26-0.76,0.52-1.25,0.78
							c-0.1,0.06-0.22,0.12-0.33,0.17c0.31-0.66,0.69-1.28,1.14-1.85c0.24-0.3,0.49-0.59,0.76-0.87c0.09-0.07,0.19-0.12,0.3-0.14
							C379.11,176.15,379.19,176.18,379.24,176.24z"/>
						<path style="fill:#407BFF;" d="M375,175.84c-0.24,0.27-0.35,0.63-0.32,0.99c0.01,0.11,0.03,0.22,0.06,0.33
							c0.27,1.06,1.4,2.07,1.62,2.25c0.02,0.01,0.03,0.02,0.03,0.02c0.05,0.04,0.11,0.05,0.17,0.03c0.04-0.01,0.07-0.03,0.09-0.06
							c0.02-0.01,0.03-0.04,0.03-0.07c0.04-0.16,0.05-0.37,0.06-0.6c0.01-0.34-0.02-0.73-0.08-1.13c-0.12-0.9-0.41-1.8-0.86-2.02
							C375.62,175.49,375.33,175.46,375,175.84z M375.64,175.9c0.29,0.15,0.53,0.85,0.65,1.61c0.08,0.49,0.11,1,0.08,1.42
							c-0.35-0.34-0.99-1.01-1.23-1.69c-0.06-0.15-0.1-0.3-0.11-0.45c-0.02-0.23,0.04-0.46,0.16-0.64l0.07-0.08
							C375.48,175.82,375.61,175.88,375.64,175.9z"/>
					</g>
					<g>
						<g>
							<g>
								<g>
									<g>
										<path style="fill:#263238;" d="M366.31,170.09l-1.94,1.28l-1.16,0.76l-3.38,2.23l-0.65,0.42c0,0-14.36-9.95-20.52-16.82
											c-4.22-4.71-4.45-6.29-5-5.98c-7.35,4.24-26.07,18.87-46.16,21.09c-0.37-0.01-0.74-0.02-1.11-0.04
											c-6.06-0.33-10.69-1.59-14.17-3.45c0.58-4.87,6.21-15.71,6.69-16.77c0,0,23.02-8.41,51.65-18.9
											c0.28-0.1,0.57-0.18,0.86-0.26c0.37-0.11,0.74-0.21,1.11-0.29c1.47-0.35,2.89-0.51,4.24-0.4c1.21,0.09,2.56,0.15,3.42,1
											C344.39,138.12,366.31,170.09,366.31,170.09z"/>
									</g>
								</g>
							</g>
						</g>
					</g>
					<g style="opacity:0.2;">
						<g>
							<g>
								<g>
									<g>
										<path d="M366.31,170.09l-1.94,1.28l-1.16,0.76l-3.38,2.23l-0.65,0.42c0,0-14.36-9.95-20.52-16.82
											c-4.22-4.71-4.45-6.29-5-5.98c-7.35,4.24-26.07,18.87-46.16,21.09c-0.37-0.01-0.74-0.02-1.11-0.04
											c-6.06-0.33-10.69-1.59-14.17-3.45c0.58-4.87,6.21-15.71,6.69-16.77c0,0,23.02-8.41,51.65-18.9
											c0.28-0.1,0.57-0.18,0.86-0.26c0.37-0.11,0.74-0.21,1.11-0.29c1.47-0.35,2.89-0.51,4.24-0.4c1.21,0.09,2.56,0.15,3.42,1
											C344.39,138.12,366.31,170.09,366.31,170.09z"/>
									</g>
								</g>
							</g>
						</g>
					</g>
				</g>
				<path style="fill:#CB7A63;" d="M268.19,81.62c1.02,4.8,2.09,11.8-1.22,15.07c4.04,7.21,8.89,13.93,14.48,20.03
					c7.29-12.49,0.51-20.28,0.51-20.28c-5.4-1.19-5.29-3.37-4.42-7.11L268.19,81.62z"/>
				<path style="fill:#407BFF;" d="M263.63,97.28c0.41-1.3,1.24-2.42,2.36-3.18c1.09-0.82,12.29-0.87,15.19,0.1
					c1.7,0.55,3.14,1.7,4.05,3.24L263.63,97.28z"/>
				<polygon style="fill:#CB7A63;" points="376.23,181.65 381.22,177.54 366.68,159.02 359.47,163.21 				"/>
				<g>
					<path style="fill:#407BFF;" d="M384.08,169.25c-0.67,0.2-1.33,1.6-1.77,2.73c-0.11,0.29-0.21,0.55-0.29,0.78l-0.01,0.02
						c-0.01,0.04-0.03,0.09-0.04,0.12c-0.09,0.27-0.15,0.47-0.18,0.54c-0.04,0.08-0.02,0.16,0.04,0.21
						c0.06,0.05,0.15,0.06,0.22,0.01c0.59-0.39,1.15-0.83,1.68-1.31c0.12-0.11,0.23-0.21,0.35-0.32c0.39-0.33,0.69-0.76,0.86-1.24
						c0.06-0.17,0.12-0.34,0.15-0.52c0.02-0.35-0.14-0.69-0.42-0.91C384.52,169.24,384.29,169.19,384.08,169.25z M384.44,169.67
						c0.2,0.14,0.31,0.37,0.29,0.61c-0.01,0.32-0.22,0.72-0.6,1.16c-0.29,0.35-0.68,0.72-1.16,1.11c-0.19,0.15-0.4,0.32-0.62,0.48
						c0.03-0.11,0.06-0.21,0.1-0.31c0.02-0.08,0.04-0.14,0.07-0.21c0.33-0.95,0.79-1.86,1.39-2.68c0.07-0.09,0.18-0.17,0.3-0.21
						C384.28,169.59,384.37,169.61,384.44,169.67z"/>
					<path style="fill:#407BFF;" d="M379.97,169.21c-0.21,0.33-0.27,0.73-0.17,1.1c0.31,1.24,1.96,2.29,2.23,2.45
						c0,0.01,0,0.01,0.01,0.01c0.01,0.01,0.01,0.01,0.02,0.02c0.06,0.04,0.13,0.03,0.19,0c0.04-0.02,0.07-0.05,0.09-0.08
						c0.02-0.02,0.02-0.05,0.02-0.08c0-0.01,0-0.02,0-0.03c0-0.18-0.01-0.39-0.04-0.62c-0.17-1.2-0.8-2.95-1.53-3.18
						C380.56,168.73,380.25,168.75,379.97,169.21z M381.96,172.26c-0.53-0.37-1.58-1.19-1.79-2.04c-0.06-0.23-0.04-0.49,0.07-0.71
						l0.05-0.1c0.19-0.3,0.33-0.26,0.37-0.25C381.2,169.33,381.86,171.11,381.96,172.26z"/>
				</g>
				<path style="fill:#263238;" d="M375.28,169.6l-6.17,6.68c0,0-26.23-22.42-28.73-29.2c-1.65,1.94-25.24,26.42-54.6,30.16
					c-0.37,0.05-0.73,0.08-1.11,0.11c-6.05,0.48-10.81-0.15-14.5-1.54c-9.36-3.5-11.92-11.76-11.23-18.76l0-0.03
					c0.08-3.28,0.76-9.13,0.76-9.13l34.22,0.26c9.47-6.32,37.25-16.3,40.3-17.02c0.68-0.16,1.35-0.29,2.01-0.38
					c0.69-0.1,1.38-0.16,2.05-0.19v0.01c4.69-0.18,8.75,1.59,11.48,6.28L375.28,169.6z"/>
				<g>
					<polygon style="fill:#407BFF;" points="367.98,177.29 377.11,168.22 374.89,164.64 364.3,174.44 					"/>
					<polygon style="opacity:0.5;fill:#FFFFFF;" points="367.98,177.29 377.11,168.22 374.89,164.64 364.3,174.44 					"/>
				</g>
				<path style="fill:#263238;" d="M379.49,174.03l-5,6.62c-0.2,0.25-0.19,0.62,0.03,0.85l5.02,5.26c0.52,0.5,1.34,0.49,1.85-0.02
					c0.03-0.03,0.06-0.07,0.09-0.11c9.42-9.6,11.52-14.15,12.39-15.38c2.48-3.52-0.61-4.98-1.72-4.06
					c-5.01,4.15-7.09,4.74-9.86,5.31C380.88,172.94,379.79,173.63,379.49,174.03z"/>
				<g>
					<g>
						<g>
							<polygon style="fill:#407BFF;" points="353.3,130.97 332.48,136.9 294.62,135.94 314.16,130.82 							"/>
							<g id="Monitor_Screen_1_">
								<g id="PC_1_">
									<g>
										<polygon style="fill:#407BFF;" points="353.06,129.11 315.21,129.3 317.19,105.29 355.04,105.11 										"/>
										<path style="fill:#263238;" d="M352.55,130.99l-37.3,0.19c-1.06,0.01-1.85-0.85-1.76-1.91l1.97-23.86
											c0.09-1.06,1.02-1.92,2.07-1.93l37.3-0.19c1.06-0.01,1.85,0.85,1.76,1.91l-1.97,23.86
											C354.53,130.12,353.61,130.99,352.55,130.99z"/>
										<g>
											<polygon style="fill:#407BFF;" points="353.06,129.11 315.21,129.3 317.19,105.29 355.04,105.11 											"/>
											<polygon style="opacity:0.9;fill:#FFFFFF;" points="353.06,129.11 315.21,129.3 317.19,105.29 355.04,105.11 											
												"/>
										</g>
										<g>
											<polygon style="opacity:0.1;fill:#FFFFFF;enable-background:new    ;" points="322.71,103.44 315.46,131.13 
												317.94,131.11 325.12,103.42 											"/>
											<polygon style="opacity:0.1;fill:#FFFFFF;enable-background:new    ;" points="326.55,103.42 319.3,131.11 
												324.23,131.08 331.4,103.39 											"/>
										</g>
									</g>
								</g>
							</g>
							<g>
								<polygon style="opacity:0.2;fill:#FFFFFF;" points="353.3,130.97 332.48,136.9 294.62,135.94 314.16,130.82 								"/>
								<polygon style="fill:#407BFF;" points="294.62,135.94 296.72,137.8 331.23,138.76 332.48,136.9 								"/>
								<polygon style="fill:#407BFF;" points="331.23,138.76 352.95,132.5 353.3,130.97 332.48,136.9 								"/>
							</g>
						</g>
					</g>
				</g>
				<g>
					<g>
						<path style="fill:#CB7A63;" d="M310.05,124.24l4.01-0.01l-2.29,5.5c0,0-2.19,0.69-4.13,0.44c-1.86-0.24-2.74-2.44-1.58-3.92
							l0,0C307.03,125.02,308.49,124.28,310.05,124.24z"/>
						<path style="fill:#CB7A63;" d="M317.63,127.69l-1.07,1.91c-0.33,0.59-1,0.91-1.67,0.77l-3.14-0.65l2.29-5.5l2.87,1.35
							c0.77,0.34,1.12,1.23,0.78,2C317.67,127.61,317.65,127.65,317.63,127.69z"/>
						<path style="fill:#CB7A63;" d="M272.72,121.77c3.09,3.75,7.44,7.08,12.58,8.43c6.05,1.6,17.81,1.05,23.53-0.27l0.03-4.46
							c-2.33-0.51-23.58,1.47-31.19-11.58c-1.42-2.43-6.85-12.27-9.81-13.45c-4.8-1.91-6.62,3.2-5.53,6.16
							C263.61,110.08,270.19,118.7,272.72,121.77z"/>
					</g>
					<g style="opacity:0.2;enable-background:new    ;">
						<polygon points="314.96,124.67 314.93,124.67 314.94,124.66 						"/>
					</g>
				</g>
				<g>
					<path style="fill:#407BFF;" d="M294.61,105.22c6.44,14.44-8.74,18.45-1.95,42.11l-32.94,0.58c0.3-12.65,4.78-9.9-0.99-33.73
						c-0.49-2.02-1.29-7.8,0.9-13.05c0.85-2.04,2.35-3.77,4.3-4.81c2.44-1.3,13.15-0.2,18.03,0.16
						C287.25,95.75,293.65,103.41,294.61,105.22z"/>
					<path style="fill:#407BFF;" d="M294.61,105.22c6.44,14.44-8.74,18.45-1.95,42.11l-32.94,0.58c0.3-12.65,4.78-9.9-0.99-33.73
						c-0.49-2.02-1.29-7.8,0.9-13.05c0.85-2.04,2.35-3.77,4.3-4.81c2.44-1.3,13.15-0.2,18.03,0.16
						C287.25,95.75,293.65,103.41,294.61,105.22z"/>
				</g>
				<path style="fill:#263238;" d="M288.5,76.61c-0.1,0.63,0.16,1.14,0.55,1.2c0.39,0.06,0.79-0.38,0.89-0.98
					c0.09-0.61-0.16-1.14-0.55-1.2C288.99,75.57,288.59,76.01,288.5,76.61z"/>
				<path style="fill:#263238;" d="M289.21,75.63l1.51-0.2C290.72,75.43,289.8,76.45,289.21,75.63z"/>
				<path style="fill:#A02724;" d="M288.6,77.44c0,0,0.63,2.76,1.57,4.17c-0.91,0.62-2.22,0.08-2.22,0.08L288.6,77.44z"/>
				<path style="fill:#263238;" d="M290.71,72.39c0.12-0.05,0.2-0.15,0.22-0.28c0.03-0.2-0.1-0.38-0.3-0.41
					c-1.14-0.21-2.31,0.15-3.13,0.96c-0.15,0.13-0.16,0.36-0.02,0.51c0.13,0.15,0.36,0.16,0.51,0.02c0.02-0.02,0.03-0.03,0.05-0.05
					c0.66-0.63,1.59-0.9,2.49-0.73C290.58,72.42,290.65,72.41,290.71,72.39z"/>
				<path style="fill:#CB7A63;" d="M268.6,71.49c-0.67,7.5-1.12,10.65,2.05,15.04c4.77,6.59,14.14,5.79,17.03-1.36
					c2.61-6.43,3.27-17.61-3.54-21.67c-4.86-2.93-11.17-1.36-14.1,3.5C269.22,68.37,268.72,69.9,268.6,71.49z"/>
				<path style="fill:#263238;" d="M287.86,84.72c-0.56-0.48-0.99-1.12-1.23-1.84c-0.02-0.08,0.03-0.16,0.11-0.19
					c0.08-0.02,0.16,0.03,0.18,0.11c0.22,0.62,0.59,1.17,1.06,1.61L287.86,84.72z"/>
				<g>
					<g>
						<path style="fill:#263238;" d="M272.37,86.24c0,0-2.19,0.97-1.89,3.13l1.61-2.26L272.37,86.24z"/>
					</g>
					<g>
						<path style="fill:#263238;" d="M272.46,86.28c0,0-1.67,1.72-0.59,3.61l0.66-2.69L272.46,86.28z"/>
					</g>
				</g>
				<path style="fill:#263238;" d="M289.08,63.93c-0.32-1.41-2.69-1.06-4.1-1.38c-0.69-0.16-1.47-0.31-2.08,0.05
					c-0.59,0.35-0.85,1.09-0.82,1.78c0.03,0.69,0.3,1.34,0.54,1.98c0.96,2.51,1.37,5.12,2.01,7.72c0.61,2.46,0.19,5.61,0.19,5.61
					C285.71,79.34,290.93,72.11,289.08,63.93z"/>
				<path style="fill:#263238;" d="M285.16,62.88c-4.39-2.64-9.9-3.55-14.77-1.94c-4.86,1.61-8.88,5.87-9.73,10.92
					c-0.54,3.22,0.17,6.55,1.46,9.54c1.29,3,3.14,5.72,4.97,8.41c-0.26,3.13-2.95,5.66-4.78,8.21c-1.92,2.68-3.26,5.9-3.1,9.19
					c0.15,3.29,2.01,6.61,5.04,7.91c1.18,0.51,0.96,2.69,0.25,3.77c0.95,0.05,1.68-0.81,1.7-1.75c-0.28,0.67-0.6,1.71-0.89,2.38
					c0.15-0.32,0.54-0.45,0.89-0.48c0.35-0.03,0.71,0.02,1.05-0.06c0.7-0.17,1.14-0.83,1.52-1.44c1.1-1.77,2.25-3.66,2.28-5.74
					c0.01-0.99-0.24-2.01-0.85-2.8c0.47-0.47,1.16-0.26,1.7,0.13c0.54,0.39,0.84,1.03,1.04,1.66c0.25,0.81,0.35,1.67,0.3,2.52
					c2.54-3.68,2.69-9.5,0.8-13.56c-0.63-1.36-1.52-2.83-1.03-4.24c0.59-1.68,0.03-3.7,1.21-5.03c2.98-0.22,4.88-3,6.31-5.62
					C284.18,78.23,285.63,70.46,285.16,62.88z"/>
				<path style="fill:#CB7A63;" d="M278.3,76.67c-0.09,1.74,0.51,3.44,1.67,4.73c1.55,1.71,3.55,0.61,4.13-1.5
					c0.53-1.89,0.36-5.05-1.69-5.98C280.37,73,278.42,74.56,278.3,76.67z"/>
				<path style="fill:#FFFFFF;" d="M259.44,145.38l-0.78,2.98c-0.11,0.24,0.17,0.46,0.54,0.45l33.92-0.58
					c0.3-0.01,0.54-0.16,0.56-0.35l-0.83-3.14c0.02-0.2-0.24-0.37-0.57-0.36l-32.3,0.74C259.77,145.11,259.56,145.21,259.44,145.38z
					"/>
				<path style="fill:#407BFF;" d="M289.59,148.57l-0.89,0.09c-0.18-0.01-0.32-0.06-0.32-0.17l0.01-3.86c0-0.11,0.14-0.22,0.32-0.24
					l0.89-0.09c0.18,0.01,0.32,0.06,0.32,0.17l-0.01,3.85C289.91,148.44,289.77,148.55,289.59,148.57z"/>
				<g>
					<path style="fill:#407BFF;" d="M277.45,148.65l-0.89,0.09c-0.18-0.01-0.32-0.06-0.32-0.17l0.02-3.86
						c0-0.11,0.14-0.22,0.32-0.24l0.88-0.1c0.18,0.01,0.32,0.06,0.32,0.17l-0.01,3.85C277.77,148.54,277.63,148.63,277.45,148.65z"
						/>
					<path style="fill:#407BFF;" d="M277.45,148.65l-0.89,0.09c-0.18-0.01-0.32-0.06-0.32-0.17l0.02-3.86
						c0-0.11,0.14-0.22,0.32-0.24l0.88-0.1c0.18,0.01,0.32,0.06,0.32,0.17l-0.01,3.85C277.77,148.54,277.63,148.63,277.45,148.65z"
						/>
				</g>
				<path style="opacity:0.2;" d="M280.41,105.83c0,0-1.8,3.61,3.27,13.22l2.12,3.92l0,0c0.7,1.29,5.42-1.3,6.84-3.71l0,0
					C292.64,119.26,283.68,113.8,280.41,105.83z"/>
				<g>
					<path style="fill:#CB7A63;" d="M328.02,124.44l3.73,0.19l-2.37,5.03c0,0-5.81,1.5-6.39-2.08l1.25-1.45
						C325.17,125.02,326.56,124.4,328.02,124.44z"/>
					<path style="fill:#CB7A63;" d="M334.9,128.04l-1.08,1.73c-0.33,0.54-0.97,0.8-1.58,0.64l-2.89-0.76l2.37-5.03l2.61,1.41
						c0.7,0.35,0.98,1.21,0.63,1.91C334.94,127.97,334.92,128,334.9,128.04z"/>
					<path style="fill:#CB7A63;" d="M294.01,126.5c2.47,3.4,5.91,6.58,10.09,7.09c3.23,0.39,18.57-1.99,20.81-4.11v-3.6
						c0,0-16.03,0.07-18.06-0.13c-3-0.31-4.89-2.35-7.43-6.75c-1.27-2.19-5.35-11.17-6.89-13.18c-2.48-3.22-9.63-0.97-6.85,6.75
						C286.86,115.81,291.99,123.72,294.01,126.5z"/>
				</g>
				<g>
					<path style="fill:#407BFF;" d="M291.51,100.49c5.03,4.68,7.44,12.91,7.44,12.91l-11.86,7.13c0,0-8.56-12.18-6.99-16.4
						c1.24-3.27,3.51-5.41,6.47-5.57C288.4,98.46,290.17,99.24,291.51,100.49z"/>
				</g>
				<path style="fill:#407BFF;" d="M264.1,149.03l-0.9,0.02c-0.17-0.02-0.32-0.09-0.3-0.2l0.35-3.84c0.01-0.12,0.16-0.21,0.34-0.21
					l0.9-0.02c0.17,0.02,0.32,0.09,0.3,0.2l-0.35,3.84C264.42,148.94,264.27,149.05,264.1,149.03z"/>
			</g>
		</g>
	</g>
</g>
<g id="Character_1">
	<g>
		<g>
			<g>
				<g>
					<g>
						<path style="fill:#FF8B7B;" d="M349.29,427.75l6.44,4.44l5.25-6.29l-4.97-0.51c-1.21-0.12-2.4-0.37-3.56-0.73l0,0
							L349.29,427.75z"/>
						<path style="fill:#FF8B7B;" d="M360.97,425.91l-6.46,5.46l3.8,3.04c0.44,0.31,1.04,0.24,1.4-0.15l4.6-4.27
							c0.2-0.22,0.19-0.56-0.02-0.76L360.97,425.91z"/>
					</g>
					<path style="fill:#FF8B7B;" d="M337.32,392.99l-3.61,15.41l20.04,16.82l-2.16,3.72c0,0-22.16-9.98-25.32-15.55
						c-3.16-5.56,3.52-25.94,3.52-25.94L337.32,392.99z"/>
					<path style="fill:#263238;" d="M332.12,384.7c2.76,1.37,9.25,6.13,3.7,22.38l-11.53-1.59
						C325.69,395.35,327.75,383.39,332.12,384.7z"/>
					<path style="opacity:0.1;" d="M332.12,384.7c2.76,1.37,9.25,6.13,3.7,22.38l-11.53-1.59
						C325.69,395.35,327.75,383.39,332.12,384.7z"/>
				</g>
				<g>
					<g>
						<g>
							<g>
								<path style="fill:#407BFF;" d="M295.88,432.17l-1.3,5.27c0,0-12.79-3.84-17.09,6.9c-4.3,10.74,6.89,33.67,40.92,25.74
									c0,0,9.17,2.49,17.02,0.51c11.63-2.93,26.43-9.75,28.03-20.55c2.67-18.09-33.3-11.67-33.3-11.67l-1.34-3.39L295.88,432.17z"
									/>
								<path style="opacity:0.1;" d="M300.41,439.76c0,0,8.06,4.07,10.98,10.9l3.48,1.29
									C314.87,451.95,312.82,442.62,300.41,439.76z"/>
								<path style="fill:#407BFF;" d="M326.52,457.02c0,0,0.25-11.56,11.75-20.43l8.94-0.01l-17.26,22.61L326.52,457.02z"/>
								<path style="fill:#407BFF;" d="M277.19,445.22c0,0-3.21,9.31,9.14,19.69c12.35,10.38,19.01-3.44,19.01-3.44l0.96-5.27
									l-8.45-7.55l-10.75-7.26l-5.86,0.69L277.19,445.22z"/>
								<path style="fill:#FF8B7B;" d="M277.11,446.51c0,0,1.03,12.76,13.83,18.87c10.6,5.06,13.33-9.24,13.33-9.24l-19.57-12.74
									l-7.23,0.94L277.11,446.51z"/>
								<path style="opacity:0.1;enable-background:new    ;" d="M277.11,446.51c0,0,1.03,12.76,13.83,18.87
									c10.6,5.06,13.33-9.24,13.33-9.24l-19.57-12.74l-7.23,0.94L277.11,446.51z"/>
								<path style="fill:#263238;" d="M361.77,480.46c-3.34-5.61-6.9-7.31-10.03-8.67c-0.45-0.23-0.83-0.58-1.1-1
									c-0.12-0.16-0.2-0.33-0.28-0.51l-2.19-7.13c-0.06-0.13-0.07-0.27-0.04-0.4c0.02-0.18,0.12-0.35,0.28-0.47l6.11-3.54
									c0.53-0.4,1.27-0.28,1.66,0.25c0.05,0.07,0.09,0.15,0.13,0.22c1.23,2.97,2.21,5.65,3.82,9.31c1.89,4.31,1.93,2.99,4.22,8.04
									C365.75,479.6,362.52,481.69,361.77,480.46z"/>
								<path style="fill:#FF8B7B;" d="M339.98,437.82c0,0,30.76-6.68,35.67,3.08c4.91,9.77-12.53,16.29-18.74,18.48
									c-10.82,3.82-48.34,15.6-48.34,15.6l2.44-7.65l17.9-10.18C328.92,457.15,329.73,446.89,339.98,437.82z"/>
								<path style="fill:#263238;" d="M311.08,474.03l2.67-8.08c0.1-0.3-0.02-0.64-0.3-0.8l-6.09-3.63
									c-0.54-0.33-1.24-0.15-1.56,0.38c-0.04,0.07-0.08,0.14-0.1,0.22c-0.91,2.93-1.61,5.57-2.81,9.19
									c-1.42,4.28-1.57,3.02-3.3,8.03c-1.04,3.02,2.22,4.71,2.81,3.48c2.68-5.64,4.66-5.66,7.52-7.23
									C310.48,475.24,310.89,474.68,311.08,474.03z"/>
								<path style="opacity:0.1;enable-background:new    ;" d="M353.75,440.66c-0.29-1.14-17.34,9.72-22.66,9.08
									c-0.85,1.9-1.37,3.56-1.69,4.83l0,0c-0.08,0.31-0.14,0.6-0.2,0.86c-0.01,0.04-0.02,0.09-0.03,0.13
									c-0.02,0.1-0.04,0.19-0.06,0.28c-0.01,0.05-0.02,0.11-0.03,0.16c-0.01,0.08-0.03,0.15-0.04,0.22
									c-0.01,0.05-0.02,0.1-0.02,0.15c-0.01,0.06-0.02,0.12-0.03,0.17c-0.01,0.05-0.01,0.09-0.02,0.13
									c-0.01,0.04-0.01,0.09-0.02,0.13c-0.01,0.04-0.01,0.08-0.01,0.11c0,0.03-0.01,0.06-0.01,0.08c0,0.03-0.01,0.06-0.01,0.08
									c0,0.01,0,0.03,0,0.04c0,0.01,0,0.01,0,0.01c0,0.01,0,0.03,0,0.03l-16.79,9.55l13.15,3c7.85-2.5,16.95-5.41,23.85-7.69
									l-17.42-6.57C338.25,451.43,354,441.63,353.75,440.66z"/>
								<path style="fill:#FF8B7B;" d="M350.64,470.8c-9.52-1.2-27.59-3.56-33.81-4.91c-11.23-2.43-48.27-11.94-38.85-24.57
									c9.83-13.19,29.51,6.84,29.51,6.84l40.64,14.58c-0.03,0.13-0.02,0.27,0.04,0.4l2.19,7.13
									C350.44,470.46,350.53,470.64,350.64,470.8z"/>
								<path style="opacity:0.1;enable-background:new    ;" d="M291.82,440.77c-2.93,1.27,15.68,7.4,15.68,7.4
									s-3.33-3.39-7.93-6.46C296.7,440.57,293.78,439.92,291.82,440.77z"/>
							</g>
						</g>
					</g>
				</g>
				<g>
					<g>
						<g>
							<g>
								<g id="Character--inject-2_00000061462186379996489600000012999341205503813023_">
									<path style="fill:#263238;" d="M323.23,381.05l-7.73-1.84l-9.84-0.06c-3.07-0.02-5.78,2.01-6.61,4.97
										c-1.64,5.8-3.01,14.12-3.99,21.31c-1.11,8.07,0.26,17.31,0.55,28.24l35.09,1.34c-1.86-15.97,1.3-29.94,3.4-38.36
										c0.46-5.17,0.05-11.3-2.76-12.49L323.23,381.05z"/>
									<path style="opacity:0.3;enable-background:new    ;" d="M295.04,405.41c0.76-5.66,1.78-12.04,2.98-17.33
										c6.49-1.37,10.24,12.84,8.59,20.03c-1.65,7.19-12.17,3.3-12.17,3.3C294.6,409.25,294.8,407.22,295.04,405.41z"/>
									<path style="fill:#407BFF;" d="M305.87,374.37c1.7,1.32,3.41,1.84,5.41,1.06c-0.72,0.91-1.97,1.64-3.1,1.9
										c2.04,1.29,4.87,1.22,6.84-0.18c-0.75,0.7-1.75,1.59-2.5,2.29c3.9,1.02,8.27,0.07,11.4-2.48
										c3.13-2.55,4.94-6.63,4.74-10.66c-0.09-1.74-2.67-2.56-4.29-3.21c-1.6-0.64-3.39-0.71-5.09-0.48
										c-1.71,0.24-2.33,0.77-3.97,1.29C315.38,363.66,314.87,373.04,305.87,374.37z"/>
									<path style="fill:#FF8B7B;" d="M318.01,366.63l3.16,4.42l4.29,6.02c-0.5,0.55-0.9,1.19-1.17,1.88
										c-0.66,1.52-1.25,2.65,1.97,4.66c0.7,0.41,1.1,1.2,1.02,2.01c-0.15,0.97-1.07,1.95-4.47,1.49
										c-3.28-0.49-6.31-2.02-8.65-4.35c-1.17-1.08-0.95-1.93,0.09-3.14C317.2,376.19,317.9,370.89,318.01,366.63z"/>
									<path style="opacity:0.2;enable-background:new    ;" d="M324.42,375.58l-2.66-4.3c-0.05,0.12-0.1,0.24-0.16,0.37
										c-0.2,0.55-0.35,1.12-0.46,1.7c-0.37,1.97,1.26,4.7,2.98,5.97l0.18-0.39c0.27-0.65,0.64-1.25,1.07-1.8
										c0.03-0.03,0.06-0.06,0.1-0.08L324.42,375.58z"/>
									<path style="fill:#263238;" d="M329.97,366.92c3.64-5.31,3.42-8.6,6.61-11.27c1.59-0.48,3.87,2.63,1.52,7.14
										C335.75,367.29,329.97,366.92,329.97,366.92z"/>
									<path style="fill:#FF8B7B;" d="M319.04,359.14c-1.17,6.55-2.13,10.32,0.34,14.33c3.75,6.07,12.45,4.87,15.53-1.24
										c2.78-5.49,4.16-15.27-1.57-19.24c-4.21-2.87-9.95-1.79-12.82,2.42C319.77,356.53,319.26,357.8,319.04,359.14z"/>
									<path style="fill:#407BFF;" d="M317.53,364.89l3.3,2.57l1.18-5.71l3.14-1.3l4.24-4.89c0,0-7.44-3.24-9.71-3.84
										c-0.79-0.21-3.9,1.63-4.43,2.5c-1.51,2.46-1.28,5.58,0.25,8.03C316.08,363.19,316.76,364.08,317.53,364.89z"/>
									<path style="fill:#FF8B7B;" d="M315.22,363.47c0,1.49,0.54,2.92,1.53,4.03c1.29,1.42,3.14,0.17,3.52-1.68
										c0.33-1.66-0.28-4.18-1.93-4.9C316.68,360.2,315.23,361.62,315.22,363.47z"/>
									<path style="fill:#263238;" d="M328.57,364.02c-0.15,0.53,0,1.05,0.35,1.16c0.35,0.11,0.71-0.23,0.89-0.75
										c0.19-0.52,0-1.05-0.35-1.17C329.11,363.15,328.72,363.49,328.57,364.02z"/>
									<path style="fill:#263238;" d="M334.53,365.94c-0.16,0.54,0,1.06,0.35,1.17c0.35,0.11,0.74-0.23,0.89-0.75
										c0.15-0.52-0.01-1.05-0.35-1.16C335.08,365.08,334.68,365.41,334.53,365.94z"/>
									<path style="fill:#FF5652;" d="M332.5,365.72c0.04,1.57,0.29,3.12,0.73,4.62c-1.04,0.43-2.23-0.43-2.23-0.43L332.5,365.72z
										"/>
									<path style="fill:#263238;" d="M329.64,372.88c-1.25-0.35-2.3-1.21-2.9-2.36c-0.04-0.08,0-0.18,0.08-0.22
										c0.08-0.03,0.18,0,0.22,0.08c0.67,1.24,1.89,2.1,3.29,2.32c0.09,0.01,0.16,0.09,0.15,0.18c-0.01,0.09-0.09,0.16-0.18,0.15
										c-0.01,0-0.01,0-0.02,0C330.06,373,329.85,372.95,329.64,372.88z"/>
									<path style="fill:#263238;" d="M327.94,361.77c-0.05-0.02-0.09-0.06-0.13-0.1c-0.1-0.15-0.07-0.35,0.08-0.46
										c0.84-0.62,1.93-0.77,2.9-0.42c0.17,0.07,0.25,0.25,0.18,0.42c0,0,0,0.01,0,0.01c-0.07,0.16-0.27,0.24-0.43,0.17
										c-0.77-0.26-1.62-0.13-2.27,0.35C328.17,361.81,328.04,361.82,327.94,361.77z"/>
									<path style="fill:#263238;" d="M335.55,362.49c-0.02-0.05-0.02-0.11-0.01-0.16c0.07-0.17,0.25-0.25,0.42-0.19
										c0.98,0.34,1.73,1.14,2,2.15c0.04,0.17-0.08,0.35-0.25,0.38c-0.17,0.04-0.35-0.07-0.38-0.25
										c-0.22-0.78-0.82-1.41-1.59-1.67C335.63,362.7,335.56,362.61,335.55,362.49z"/>
								</g>
								<g>
									<path style="fill:#407BFF;" d="M333.18,438.06l-21.46-2.08c0,0-0.08-0.41,1.77-0.51c0.09-0.01,0.25-0.02,0.48-0.03
										c0.37-0.04,1.82-0.11,3.78-0.2c0.12-0.01,0.32-0.03,0.63-0.03c5.61-0.26,14.48-0.63,14.48-0.63l0.27,2.9L333.18,438.06z"/>
									<path style="opacity:0.2;fill:#FFFFFF;" d="M333.13,437.47L317,435.84c0,0-0.65-0.47,0.75-0.61
										c0.12-0.01,0.32-0.03,0.63-0.03c5.61-0.26,14.48-0.63,14.48-0.63L333.13,437.47z"/>
								</g>
								<g>
									<path style="fill:#FF8B7B;" d="M323.02,429.02l3.23,0.83l-4.27,6.63c0,0-6.81-2.13-5.56-5.11l1.65-1.03
										C319.48,429.45,321.28,428.51,323.02,429.02z"/>
									<polygon style="fill:#FF8B7B;" points="329.26,434.18 326.19,437.5 321.98,436.47 326.25,429.85 									"/>
									<g>
										<path style="fill:#FF8B7B;" d="M304.36,402.06c-2.01,6.1-4.18,6.91-1.73,10.11c2.45,3.2,16.39,14.12,19,17.36
											c-1.46,1.11-2.92,2.22-4.38,3.33c-5.15-2.85-10.33-5.64-15.54-8.38c-3.8-2-7.85-4.18-9.83-7.99
											c-2.85-5.46-1.24-10.68,1.93-17.73C296.93,398.22,304.36,402.06,304.36,402.06z"/>
									</g>
								</g>
							</g>
							<path style="fill:#263238;" d="M303.46,379.31c6.87-1.33,10.52,4.47,7.62,13.46c-1.49,4.86-2.33,7.42-4.68,11.94l-16.26-3.77
								C292.5,392.05,296.43,380.68,303.46,379.31z"/>
							<g>
								<g>
									<g>
										<path style="fill:#263238;" d="M328.52,439.14l38.89-1.57c0.4-0.02,0.75-0.36,0.76-0.76l0,0c0.02-0.4-0.29-0.71-0.7-0.7
											l-38.89,1.57c-0.4,0.02-0.75,0.36-0.76,0.76l0,0C327.81,438.84,328.12,439.15,328.52,439.14z"/>
										<path style="fill:#407BFF;" d="M309.83,437.23l18.4,1.9c0.4,0.04,0.78-0.25,0.86-0.65l0,0c0.08-0.4-0.19-0.76-0.58-0.8
											l-18.4-1.9c-0.4-0.04-0.78,0.25-0.86,0.65l0,0C309.18,436.82,309.44,437.18,309.83,437.23z"/>
										<path style="opacity:0.4;" d="M309.83,437.23l18.4,1.9c0.4,0.04,0.78-0.25,0.86-0.65l0,0c0.08-0.4-0.19-0.76-0.58-0.8
											l-18.4-1.9c-0.4-0.04-0.78,0.25-0.86,0.65l0,0C309.18,436.82,309.44,437.18,309.83,437.23z"/>
									</g>
									<g>
										<path style="fill:#407BFF;" d="M329.65,437.64l36.27-1.47c1.28-0.05,2.47-1.14,2.64-2.42l2.47-18.36
											c0.17-1.28-0.73-2.28-2.01-2.23l-36.27,1.46c-1.28,0.05-2.47,1.14-2.64,2.42l-2.47,18.36
											C327.47,436.68,328.37,437.69,329.65,437.64z"/>
										<path style="opacity:0.4;" d="M329.65,437.64l36.27-1.47c1.28-0.05,2.47-1.14,2.64-2.42l2.47-18.36
											c0.17-1.28-0.73-2.28-2.01-2.23l-36.27,1.46c-1.28,0.05-2.47,1.14-2.64,2.42l-2.47,18.36
											C327.47,436.68,328.37,437.69,329.65,437.64z"/>
									</g>
									<g>
										<path style="fill:#407BFF;" d="M330.72,437.52l36.27-1.46c1.28-0.05,2.47-1.14,2.64-2.42l2.47-18.36
											c0.17-1.28-0.73-2.28-2.01-2.23l-36.27,1.47c-1.28,0.05-2.47,1.14-2.64,2.42l-2.47,18.36
											C328.54,436.56,329.44,437.57,330.72,437.52z"/>
										<path style="opacity:0.5;fill:#FFFFFF;" d="M330.72,437.52l36.27-1.46c1.28-0.05,2.47-1.14,2.64-2.42l2.47-18.36
											c0.17-1.28-0.73-2.28-2.01-2.23l-36.27,1.47c-1.28,0.05-2.47,1.14-2.64,2.42l-2.47,18.36
											C328.54,436.56,329.44,437.57,330.72,437.52z"/>
									</g>
								</g>
							</g>
						</g>
					</g>
				</g>
			</g>
			<path style="fill:#263238;" d="M313.53,345.54c-0.93,1.16-1.52,2.68-1.24,4.14c0.16,0.83,1.34-1.13,1.52-0.3
				c0.38,1.71-0.34,3.45-0.69,5.17c-0.7,3.41,0.09,7.1,2.12,9.93c-0.08-0.08-0.15-0.16-0.23-0.24c3.81-2.77,8.29-4.35,12.84-5.56
				c1.91-0.51,3.98-1.16,5.86-0.53c4.28,1.44,4.38,4.64,4.38,4.64c2.88-5.2-0.41-12.83-4.35-17.17S314.46,344.38,313.53,345.54z"/>
		</g>
		<path style="fill:#407BFF;" d="M336.26,354.07c0.15,1.17,0.12,2.03,0.28,3.2c-1.64-1.49-4.12-2.2-6.31-1.88
			c0.15-0.89,0-1.84-0.43-2.64C332.13,352.18,334.3,352.68,336.26,354.07z"/>
	</g>
</g>
<g id="Speech_Bubble">
	<g>
		<g>
			<g id="freepik--speech-bubbles--inject-120_1_">
				<g>
					<path style="fill:#FFFFFF;" d="M282.89,121.93l92.91-0.55c2.7-0.11,4.97,2,5.08,4.7c0.01,0.27,0,0.54-0.03,0.8l-4.55,42.72
						c-0.42,3.13-3.06,5.5-6.22,5.57l-38.65,0.42c-9.98,12.31-24.49,14.3-24.49,14.3s8.9-8.16,10.99-14.22l-40.75,0.05
						c-2.7,0.11-4.97-2-5.08-4.7c-0.01-0.27,0-0.54,0.03-0.8l4.54-42.72C277.09,124.37,279.73,122.01,282.89,121.93z"/>
					<path style="fill:#407BFF;" d="M304.97,190.81l1.53-1.4c0.08-0.08,7.98-7.36,10.48-13.09l-39.81,0.05
						c-1.45,0.07-2.87-0.46-3.95-1.47c-1.09-1-1.72-2.37-1.77-3.85c-0.01-0.3,0-0.61,0.04-0.91l4.54-42.7
						c0.47-3.49,3.35-6.07,6.84-6.16h0.01l92.91-0.55c1.47-0.05,2.87,0.46,3.95,1.47c1.09,1,1.72,2.37,1.77,3.85
						c0.01,0.3,0,0.61-0.04,0.91l-4.55,42.71c-0.47,3.49-3.35,6.06-6.85,6.15l-38.35,0.42c-10.02,12.15-24.56,14.28-24.71,14.3
						L304.97,190.81z M318.83,175.02l-0.3,0.86c-1.59,4.6-6.84,10.23-9.54,12.92c4.37-1.08,14.49-4.45,21.93-13.62l0.19-0.24
						l38.95-0.42c2.85-0.07,5.21-2.17,5.59-5.01l4.55-42.71c0.03-0.24,0.04-0.48,0.03-0.71c-0.04-1.13-0.53-2.18-1.36-2.95
						c-0.83-0.77-1.92-1.17-3.05-1.13l-92.93,0.55c-2.86,0.08-5.21,2.19-5.59,5.02l-4.54,42.7c-0.03,0.24-0.04,0.48-0.03,0.71
						c0.04,1.13,0.53,2.18,1.36,2.95c0.83,0.77,1.92,1.16,3.05,1.13L318.83,175.02z"/>
				</g>
			</g>
			<g>
				<g>
					<line style="fill:#FFFFFF;" x1="337.95" y1="131.27" x2="296.05" y2="131.27"/>
					<rect x="296.05" y="130.62" style="fill:#407BFF;" width="41.9" height="1.29"/>
				</g>
				<g>
					<line style="fill:#FFFFFF;" x1="306.71" y1="142.45" x2="283.76" y2="142.45"/>
					<rect x="283.76" y="141.8" style="fill:#407BFF;" width="22.95" height="1.29"/>
				</g>
				<g>
					<line style="fill:#FFFFFF;" x1="338.27" y1="142.45" x2="314.89" y2="142.45"/>
					<rect x="314.89" y="141.8" style="fill:#407BFF;" width="23.38" height="1.29"/>
				</g>
				<g>
					<line style="fill:#FFFFFF;" x1="340.79" y1="153.62" x2="282.47" y2="153.62"/>
					<rect x="282.46" y="152.98" style="fill:#407BFF;" width="58.32" height="1.29"/>
				</g>
				<g>
					<line style="fill:#FFFFFF;" x1="296.67" y1="164.8" x2="281.53" y2="164.8"/>
					<rect x="281.53" y="164.16" style="fill:#407BFF;" width="15.14" height="1.29"/>
				</g>
			</g>
		</g>
		
			<text transform="matrix(0.985 0 -0.1724 0.985 336.6206 169.1019)" style="fill:#407BFF; font-family:'Montserrat-ExtraBold'; font-size:60.4395px;">?</text>
	</g>
</g>
</svg>
