<?xml version="1.0" encoding="UTF-8"?>
<svg id="Layer_1" data-name="Layer 1" xmlns="http://www.w3.org/2000/svg" viewBox="0 0 610.3 598.88">
  <defs>
    <style>
      .cls-1, .cls-2, .cls-3, .cls-4, .cls-5, .cls-6, .cls-7 {
        stroke-width: 0px;
      }

      .cls-2 {
        fill: #ff0;
      }

      .cls-3 {
        fill: red;
      }

      .cls-4 {
        fill: #fff;
      }

      .cls-5 {
        fill: #ff7800;
      }

      .cls-6 {
        fill: navy;
      }

      .cls-7 {
        fill: lime;
      }
    </style>
  </defs>
  <g id="Color_Item" data-name="Color Item">
    <path class="cls-2" d="m604.3,222.15c-.06,8.11-1.68,70.66-34.6,174.48-34.5,108.82-76.53,166.69-81.69,173.55-43.43,14.74-126.41,22.7-182.86,22.7s-139.43-7.96-182.86-22.7c-5.16-6.86-47.19-64.73-81.69-173.55C7.68,292.81,6.06,230.26,6,222.15c4.63-6.5,41.18-55.59,133.5-124.19C220.72,37.59,293.28,10.55,305.15,6.35c11.87,4.2,84.43,31.24,165.65,91.61,92.32,68.6,128.87,117.69,133.5,124.19Z"/>
    <path class="cls-4" d="m353.7,430.43c-4.3.04-25.75.83-47.03,12.7v-54.08c15.63-7.92,36.65-7.36,41.91-7.07l5.12,48.45Z"/>
    <path class="cls-4" d="m303.65,389.05v54.08c-21.28-11.87-42.73-12.66-47.03-12.7l5.12-48.45c5.26-.29,26.28-.85,41.91,7.07Z"/>
    <g>
      <path class="cls-5" d="m287.54,372.49c-.58.46-1.4.43-1.95-.06-4.77-4.36-11.18-6.29-17.59-5.31-7.47,1.14-14.12,6.13-18.74,14.04-11.21,19.2-21.11,22.02-22.55,22.33-2.44.89-5.69,1.33-9.26,1.33-10.4,0-23.53-3.73-27.26-10.87-1.71-3.27-1.44-6.58.75-9.33,2.44-3.07,7.19-4.97,10.35-4.15,1.63.43,2.7,1.54,2.95,3.07.37,2.29,1,3.71,1.82,4.1.81.38,2.2.02,4.05-1.04,2.95-1.69,4.72-3.58,5.25-5.61.44-1.63.08-3.43-1.06-5.35-1.41-2.4-5.25-1.37-11.91.65-3.91,1.18-8.34,2.52-13.13,3.13-9.36,1.18-20.57-2.17-22.9-10.73-1.94-7.12-5.46-11.43-5.5-11.47-.39-.48-.45-1.14-.16-1.68.3-.54.9-.84,1.5-.77,5.8.73,8.54,3.14,10.95,5.27,2.59,2.27,4.64,4.07,10.33,3.44,1.47-.16,1.95-1.84,2.09-2.56.45-2.32-.43-5.51-2.94-6.85-7.19-3.86-12.56-4.81-17.29-5.65-4.59-.82-8.55-1.52-12.58-4.66-8.85-6.9-9.3-12.44-10.4-25.83-.29-3.59-.63-7.66-1.17-12.56-.8-7.22-9.65-10.61-9.74-10.65-.57-.21-.96-.76-.97-1.38-.01-.62.36-1.18.93-1.41,4.4-1.79,16.1-6.54,24.49,10.11,5.24,10.38,11.03,14.01,21.39,13.36.39-.02.79-.05,1.21-.09-1.72-4.82-4.62-10.09-13.91-17.31-15.19-11.82-14.32-20.37-12.58-37.4l.26-2.51c.63-6.24-.41-10.91-3.07-13.9-2.93-3.28-6.93-3.37-6.97-3.37-.77-.01-1.41-.6-1.48-1.36-.07-.77.44-1.46,1.19-1.61,14.24-2.9,17.46,1.3,22.33,7.65,1.23,1.6,2.62,3.42,4.35,5.3,6.28,6.79,12.25,9.98,17.48,11.72-.83-3.19-1.34-6.63-1.43-10.25-.34-13.71,1.69-21.69,3.84-30.13,1.34-5.22,2.71-10.62,3.59-17.71.74-6.07-.4-10.8-3.39-14.06-4.95-5.39-13.48-5.14-13.56-5.12-.8.02-1.42-.51-1.54-1.25-.13-.75.32-1.47,1.04-1.69.52-.15,12.85-3.78,24.84-.11,12.46,3.82,21.24,17.64,21.35,33.6.19,27.68,3.25,36.04,15.56,42.6,3.16,1.68,6.6,3.25,9.93,4.76,14.65,6.65,29.8,13.54,24.28,32.08-2.86,9.61-13.26,14.19-21.25,12.93-4.92-.77-7.92-3.71-7.82-7.67.17-7.29,5.54-10.52,9.62-11.56-1.25-1.97-2.96-3.26-5.09-3.83-3.76-.99-8.34.46-10.92,2.41-3.18,2.4-5.04,7.6-4.64,12.93.37,4.96,2.52,8.86,5.9,10.7,10.79,5.85,17.92,3.71,24.81,1.64,4.4-1.32,8.55-2.56,13.26-1.63,3.73.74,6.93,3.07,9.25,6.74,4.31,6.83,5.1,17.31,2.19,28.76-3.54,13.86,1.93,23.82,1.99,23.92.36.64.2,1.45-.37,1.91Z"/>
      <path class="cls-5" d="m479.84,293.34c-.01.62-.4,1.17-.97,1.38-.09.04-8.94,3.43-9.74,10.65-.54,4.9-.88,8.97-1.17,12.56-1.1,13.39-1.55,18.93-10.4,25.83-4.03,3.14-7.99,3.84-12.58,4.66-4.73.84-10.1,1.79-17.29,5.65-2.51,1.34-3.39,4.53-2.94,6.85.14.72.62,2.4,2.09,2.56,5.69.63,7.74-1.17,10.33-3.44,2.41-2.13,5.15-4.54,10.95-5.27.6-.07,1.2.23,1.5.77.29.54.23,1.2-.16,1.68-.04.04-3.56,4.35-5.5,11.47-2.33,8.56-13.54,11.91-22.9,10.73-4.79-.61-9.22-1.95-13.13-3.13-6.66-2.02-10.5-3.05-11.91-.65-1.14,1.92-1.5,3.72-1.06,5.35.53,2.03,2.3,3.92,5.25,5.61,1.85,1.06,3.24,1.42,4.05,1.04.82-.39,1.45-1.81,1.82-4.1.25-1.53,1.32-2.64,2.95-3.07,3.16-.82,7.91,1.08,10.35,4.15,2.19,2.75,2.46,6.06.75,9.33-3.73,7.14-16.86,10.87-27.26,10.87-3.57,0-6.82-.44-9.26-1.33-1.44-.31-11.34-3.13-22.55-22.33-4.62-7.91-11.27-12.9-18.74-14.04-6.41-.98-12.82.95-17.59,5.31-.55.49-1.37.52-1.95.06-.57-.46-.73-1.27-.37-1.91.06-.1,5.53-10.06,1.99-23.92-2.91-11.45-2.12-21.93,2.19-28.76,2.32-3.67,5.52-6,9.25-6.74,4.71-.93,8.86.31,13.26,1.63,6.89,2.07,14.02,4.21,24.81-1.64,3.38-1.84,5.53-5.74,5.9-10.7.4-5.33-1.46-10.53-4.64-12.93-2.58-1.95-7.16-3.4-10.92-2.41-2.13.57-3.84,1.86-5.09,3.83,4.08,1.04,9.45,4.27,9.62,11.56.1,3.96-2.9,6.9-7.82,7.67-7.99,1.26-18.39-3.32-21.25-12.93-5.52-18.54,9.63-25.43,24.28-32.08,3.33-1.51,6.77-3.08,9.93-4.76,12.31-6.56,15.37-14.92,15.56-42.6.11-15.96,8.89-29.78,21.35-33.6,11.99-3.67,24.32-.04,24.84.11.72.22,1.17.94,1.04,1.69-.12.74-.74,1.27-1.54,1.25-.08-.02-8.61-.27-13.56,5.12-2.99,3.26-4.13,7.99-3.39,14.06.88,7.09,2.25,12.49,3.59,17.71,2.15,8.44,4.18,16.42,3.84,30.13-.09,3.62-.6,7.06-1.43,10.25,5.23-1.74,11.2-4.93,17.48-11.72,1.73-1.88,3.12-3.7,4.35-5.3,4.87-6.35,8.09-10.55,22.33-7.65.75.15,1.26.84,1.19,1.61-.07.76-.71,1.35-1.48,1.36-.04,0-4.04.09-6.97,3.37-2.66,2.99-3.7,7.66-3.07,13.9l.26,2.51c1.74,17.03,2.61,25.58-12.58,37.4-9.29,7.22-12.19,12.49-13.91,17.31.42.04.82.07,1.21.09,10.36.65,16.15-2.98,21.39-13.36,8.39-16.65,20.09-11.9,24.49-10.11.57.23.94.79.93,1.41Z"/>
    </g>
    <polygon class="cls-6" points="454.5 512.92 451.62 504.28 451.62 504.28 448.75 512.92 439.76 513.03 446.92 518.23 444.23 527.12 451.62 521.92 451.62 521.92 459.02 527.12 456.33 518.23 463.49 513.03 454.5 512.92"/>
    <polygon class="cls-6" points="161.57 512.92 158.69 504.28 158.69 504.28 155.82 512.92 146.83 513.03 153.99 518.23 151.3 527.12 158.69 521.92 158.69 521.92 166.09 527.12 163.4 518.23 170.56 513.03 161.57 512.92"/>
    <path class="cls-5" d="m316.29,154.03l5.8,19.17-16.91-11.89-.02-.06-.02.06-16.91,11.89,5.8-19.17c.21-.69-.04-1.45-.63-1.87l-15.4-11.2,19.34-.23c.73,0,1.37-.47,1.6-1.16l6.2-18.62v-.03s.02.04.02.04v-.04s.02.03.02.03l6.2,18.62c.23.69.87,1.16,1.6,1.16l19.34.23-15.4,11.2c-.59.42-.84,1.18-.63,1.87Z"/>
    <path class="cls-5" d="m251.75,180.87l3.6,11.88-10.44-7.34h0s-10.43,7.34-10.43,7.34l3.6-11.88c.12-.4-.03-.84-.37-1.08l-9.54-6.93,11.99-.14c.42,0,.79-.28.92-.68l3.83-11.55,3.84,11.55c.13.4.5.67.92.68l11.99.14-9.54,6.93c-.34.24-.49.68-.37,1.08Z"/>
    <path class="cls-5" d="m372.24,180.87l3.6,11.88-10.43-7.33h0s-10.44,7.33-10.44,7.33l3.6-11.88c.12-.4-.03-.84-.37-1.08l-9.54-6.93,11.99-.14c.42,0,.79-.28.92-.68l3.84-11.55,3.83,11.55c.13.4.5.67.92.68l11.99.14-9.54,6.93c-.34.24-.49.68-.37,1.08Z"/>
    <path class="cls-7" d="m319.29,256.93c-.1,4.56-.55,22-2.29,50.51l-.02.37c-.76,12.38-2.32,38.15-3.82,50.71-2.2,18.39-6.26,25.29-8,27.49-1.74-2.2-5.8-9.1-8-27.49-1.5-12.56-3.06-38.33-3.82-50.71l-.02-.37c-1.74-28.51-2.19-45.95-2.29-50.51,5.42-1.23,10.56-1.53,14.13-1.54,3.57.01,8.71.31,14.13,1.54Z"/>
    <path class="cls-3" d="m334.26,216.65c-.75,4.22-2.61,12.27-6.54,17.67-2.52-.65-9.47-2.25-17.65-2.74-.3-.02-.61-.04-.91-.06-.31-.02-.62-.04-.94-.05-.33-.02-.66-.03-.98-.04-.31-.01-.62-.01-.93-.02-.38,0-.76,0-1.14,0h-.02c-.38,0-.76,0-1.14,0-.31.01-.62.01-.93.02-.32.01-.65.02-.98.04-.32.01-.63.03-.94.05-.3.02-.61.04-.91.06-8.18.49-15.13,2.09-17.65,2.74-3.93-5.4-5.79-13.45-6.54-17.67,5,2.78,8.71,6.49,8.75,6.53.52.51,1.32.59,1.92.17.59-.41.81-1.19.51-1.85-2.33-5.17-3.54-12.57-4.03-16.28,6.66,2.72,10.92,9.16,10.96,9.23.35.53.99.79,1.61.64.62-.14,1.07-.66,1.14-1.29,1.1-10.04,5.16-19.47,7.61-24.41l.63-1.22.63,1.22c2.45,4.94,6.51,14.37,7.61,24.41.07.63.52,1.15,1.14,1.29.62.15,1.26-.11,1.61-.64.04-.07,4.3-6.51,10.96-9.23-.49,3.71-1.7,11.11-4.03,16.28-.3.66-.08,1.44.51,1.85.6.42,1.4.34,1.92-.17.04-.04,3.75-3.75,8.75-6.53Z"/>
    <path class="cls-4" d="m329.65,246.75c-3.43,4.8-7.67,6.88-8.95,7.43h-.01c-6-1.45-11.64-1.79-15.53-1.8-3.89.01-9.53.35-15.53,1.8h-.01c-1.28-.55-5.52-2.63-8.95-7.43,9.64-3.69,23.22-3.78,24.38-3.75h.11s.11,0,.11,0c1.16-.03,14.74.06,24.38,3.75Z"/>
    <path class="cls-4" d="m331.69,238.96c-.05,2.39-.35,4.04-.65,5.11-10.54-4.15-25.11-4.08-25.88-4.07-.77-.01-15.34-.08-25.88,4.07-.3-1.07-.6-2.72-.65-5.11,0,0,.07-.03.19-.07l.23-.09c.13-.05.29-.11.47-.18,1.27-.46,3.67-1.3,5.67-1.78.26-.06.51-.11.75-.16,3.6-.75,9.48-1.82,15.42-2.18.29-.01.59-.03.88-.04.33-.01.66-.02.99-.03.65-.02,1.29-.03,1.92-.03h.02c.63,0,1.27,0,1.92.03.33.01.66.02.99.03.29.01.59.03.88.04,5.94.36,11.83,1.43,15.43,2.18.18.04.38.08.57.12.19.05.39.09.59.14,2.21.57,4.74,1.49,5.73,1.86.18.07.31.12.37.14.02.01.03.01.04.02Z"/>
  </g>
  <g id="Outline">
    <path class="cls-1" d="m610.3,221.15v-.88s-.51-.74-.51-.74c-.34-.52-35.74-52.31-135.41-126.39C385.14,26.81,306.13.32,305.34.06l-.19-.06-.19.06c-.79.26-79.8,26.75-169.04,93.08C36.25,167.22.85,219.01.51,219.53l-.5.74v.88c-.02.65-.64,65.31,34.87,177.29,37,116.71,82.76,175.56,83.22,176.14l.55.69.83.28c43.81,15.15,128.36,23.33,185.67,23.33s141.86-8.18,185.67-23.33l.84-.28.54-.69c.46-.58,46.22-59.43,83.22-176.14,35.51-111.98,34.89-176.64,34.88-177.29Zm-40.6,175.48c-34.5,108.82-76.53,166.69-81.69,173.55-43.43,14.74-126.41,22.7-182.86,22.7s-139.43-7.96-182.86-22.7c-5.16-6.86-47.19-64.73-81.69-173.55C7.68,292.81,6.06,230.26,6,222.15c4.63-6.5,41.18-55.59,133.5-124.19C220.72,37.59,293.28,10.55,305.15,6.35c11.87,4.2,84.43,31.24,165.65,91.61,92.32,68.6,128.87,117.69,133.5,124.19-.06,8.11-1.68,70.66-34.6,174.48Z"/>
    <path class="cls-1" d="m305.15,105.34c-117.45,0-213,95.55-213,213s95.55,213,213,213,213-95.55,213-213-95.55-213-213-213Zm0,420c-114.14,0-207-92.86-207-207s92.86-207,207-207,207,92.86,207,207-92.86,207-207,207Z"/>
    <path class="cls-1" d="m336.26,138.01l-3.9-.05-17.21-.21c-.73,0-1.37-.47-1.6-1.16l-5.53-16.62-1.24-3.72c-.52-1.56-2.72-1.56-3.24,0l-1.24,3.72-5.53,16.62c-.23.69-.87,1.16-1.6,1.16l-17.21.21-3.9.05c-1.64.02-2.31,2.12-.99,3.08l3.16,2.3,13.68,9.94c.59.42.84,1.18.63,1.87l-5.18,17.13-1.09,3.59c-.47,1.56,1.29,2.83,2.62,1.89l3.06-2.15,15.19-10.68.02-.02.02.02,15.19,10.68,3.06,2.15c1.33.94,3.09-.33,2.62-1.89l-1.09-3.59-5.18-17.13c-.21-.69.04-1.45.63-1.87l13.68-9.94,3.16-2.3c1.32-.96.65-3.06-.99-3.08Zm-19.34,14.15c-.59.42-.84,1.18-.63,1.87l5.8,19.17-16.91-11.89-.02-.06-.02.06-16.91,11.89,5.8-19.17c.21-.69-.04-1.45-.63-1.87l-15.4-11.2,19.34-.23c.73,0,1.37-.47,1.6-1.16l6.2-18.62v-.03s.02.04.02.04v-.04s.02.03.02.03l6.2,18.62c.23.69.87,1.16,1.6,1.16l19.34.23-15.4,11.2Z"/>
    <path class="cls-1" d="m264.38,385.97l-.29,3.03c4.75-.22,20.81-.21,36.7,8.41l.02-3.39c-15.74-8.1-31.04-8.29-36.43-8.05Z"/>
    <path class="cls-1" d="m263.9,390.9l-.3,3.01c3.85-.14,20.71-.14,37.16,9.37l.02-3.43c-16.22-8.88-32.18-9.11-36.88-8.95Z"/>
    <path class="cls-1" d="m263.38,396.21l-.3,3.02c2.02-.07,20.24-.37,37.64,10.3l.02-3.48c-16.93-9.82-33.81-9.94-37.36-9.84Z"/>
    <path class="cls-1" d="m262.6,404.12c1.13,0,20.4.08,38.07,12.21l.03-3.6c-17.17-11.06-34.85-11.61-37.8-11.61l-.3,3Z"/>
    <path class="cls-1" d="m262.04,409.87c1.57-.01,21.05.41,38.59,13.06l.03-3.65c-17.23-11.64-35.28-12.37-38.33-12.41l-.29,3Z"/>
    <path class="cls-1" d="m261.74,412.9l-.29,2.99c1.45.02,21.48.59,39.14,13.94l.02-3.71c-8.75-6.18-17.8-9.48-25.01-11.23-7.09-1.73-12.4-1.96-13.86-1.99Z"/>
    <path class="cls-1" d="m260.77,422.83c4.03.12,23.06,1.55,39.66,14.49l.11.09.03-3.74c-16.77-12.24-34.9-13.66-39.51-13.83l-.29,2.99Z"/>
    <path class="cls-1" d="m182.63,354.07c2.51,1.34,3.39,4.53,2.94,6.85-.14.72-.62,2.4-2.09,2.56-5.69.63-7.74-1.17-10.33-3.44-2.41-2.13-5.15-4.54-10.95-5.27-.6-.07-1.2.23-1.5.77-.29.54-.23,1.2.16,1.68.04.04,3.56,4.35,5.5,11.47,2.33,8.56,13.54,11.91,22.9,10.73,4.79-.61,9.22-1.95,13.13-3.13,6.66-2.02,10.5-3.05,11.91-.65,1.14,1.92,1.5,3.72,1.06,5.35-.53,2.03-2.3,3.92-5.25,5.61-1.85,1.06-3.24,1.42-4.05,1.04-.82-.39-1.45-1.81-1.82-4.1-.25-1.53-1.32-2.64-2.95-3.07-3.16-.82-7.91,1.08-10.35,4.15-2.19,2.75-2.46,6.06-.75,9.33,3.73,7.14,16.86,10.87,27.26,10.87,3.57,0,6.82-.44,9.26-1.33,1.44-.31,11.34-3.13,22.55-22.33,4.62-7.91,11.27-12.9,18.74-14.04,6.41-.98,12.82.95,17.59,5.31.55.49,1.37.52,1.95.06.57-.46.73-1.27.37-1.91-.06-.1-5.53-10.06-1.99-23.92,2.91-11.45,2.12-21.93-2.19-28.76-2.32-3.67-5.52-6-9.25-6.74-4.71-.93-8.86.31-13.26,1.63-6.89,2.07-14.02,4.21-24.81-1.64-3.38-1.84-5.53-5.74-5.9-10.7-.4-5.33,1.46-10.53,4.64-12.93,2.58-1.95,7.16-3.4,10.92-2.41,2.13.57,3.84,1.86,5.09,3.83-4.08,1.04-9.45,4.27-9.62,11.56-.1,3.96,2.9,6.9,7.82,7.67,7.99,1.26,18.39-3.32,21.25-12.93,5.52-18.54-9.63-25.43-24.28-32.08-3.33-1.51-6.77-3.08-9.93-4.76-12.31-6.56-15.37-14.92-15.56-42.6-.11-15.96-8.89-29.78-21.35-33.6-11.99-3.67-24.32-.04-24.84.11-.72.22-1.17.94-1.04,1.69.12.74.74,1.27,1.54,1.25.08-.02,8.61-.27,13.56,5.12,2.99,3.26,4.13,7.99,3.39,14.06-.88,7.09-2.25,12.49-3.59,17.71-2.15,8.44-4.18,16.42-3.84,30.13.09,3.62.6,7.06,1.43,10.25-5.23-1.74-11.2-4.93-17.48-11.72-1.73-1.88-3.12-3.7-4.35-5.3-4.87-6.35-8.09-10.55-22.33-7.65-.75.15-1.26.84-1.19,1.61.07.76.71,1.35,1.48,1.36.04,0,4.04.09,6.97,3.37,2.66,2.99,3.7,7.66,3.07,13.9l-.26,2.51c-1.74,17.03-2.61,25.58,12.58,37.4,9.29,7.22,12.19,12.49,13.91,17.31-.42.04-.82.07-1.21.09-10.36.65-16.15-2.98-21.39-13.36-8.39-16.65-20.09-11.9-24.49-10.11-.57.23-.94.79-.93,1.41.01.62.4,1.17.97,1.38.09.04,8.94,3.43,9.74,10.65.54,4.9.88,8.97,1.17,12.56,1.1,13.39,1.55,18.93,10.4,25.83,4.03,3.14,7.99,3.84,12.58,4.66,4.73.84,10.1,1.79,17.29,5.65Zm-37.28-36.39c-.29-3.61-.63-7.7-1.18-12.64-.65-5.85-5.13-9.54-8.35-11.48,6-1.68,12.09-.7,17.41,9.83,5.8,11.52,12.6,15.72,24.24,15,.63-.03,1.3-.09,1.99-.15.02.05.04.11.06.16,1.71,5.49,3.47,11.17,12.9,18.7,7.13,5.7,16.74,6.46,20.9,3.58,1.8-1.25,3.63-4.07,3.66-7.54.03-2.95-1.24-7.4-7.43-11.88-10.22-7.38-20.67-6.87-27.96-6.23-1.84-5.42-4.72-11.28-15.16-19.4-13.88-10.79-13.16-17.8-11.43-34.73l.25-2.52c.72-7.13-.58-12.6-3.86-16.24-.83-.92-1.72-1.64-2.61-2.22,7.17-.34,9.39,2.56,13.11,7.41,1.26,1.65,2.7,3.53,4.53,5.5,7.5,8.12,14.75,11.45,20.74,13.14,2.95,8.43,8.09,14.66,12.92,17.08,2.79,1.4,5.38,1.42,7.29.06,2.14-1.52,3.01-4.02,2.38-6.86-1.03-4.64-6.13-10.08-15.21-11.73-1.55-.29-3.24-.59-5.04-1.03-1.05-3.39-1.73-7.17-1.83-11.29-.33-13.3,1.65-21.08,3.75-29.32,1.35-5.32,2.75-10.81,3.65-18.08.87-6.99-.54-12.54-4.17-16.48-2.08-2.25-4.61-3.67-7.03-4.57,4.24-.36,9.57-.26,14.74,1.32,11.22,3.44,19.13,16.09,19.23,30.76.2,28.77,3.73,38.07,17.15,45.22,3.24,1.73,6.73,3.31,10.1,4.84,14.71,6.68,27.42,12.46,22.65,28.49-2.65,8.9-12.25,11.73-17.92,10.83-1.61-.26-5.37-1.22-5.28-4.63.19-8.15,8.66-8.98,9.01-9.02.48-.03.92-.3,1.17-.72.25-.41.28-.92.09-1.36-1.63-3.8-4.39-6.31-7.97-7.26-4.9-1.3-10.43.59-13.5,2.91-4.02,3.03-6.3,9.14-5.82,15.54.45,6.01,3.17,10.78,7.46,13.11,11.89,6.45,19.97,4.02,27.1,1.88,4.21-1.26,7.83-2.34,11.81-1.56,2.91.58,5.43,2.44,7.3,5.4,3.81,6.04,4.49,15.92,1.82,26.42-2.32,9.08-1.1,16.54.28,21.14-4.72-2.7-10.23-3.75-15.74-2.91-8.38,1.28-15.8,6.79-20.89,15.5-11.04,18.92-20.53,20.9-20.61,20.91-.1.02-.19.05-.28.08-8.34,3.12-28.73-.06-32.92-8.08-1.16-2.21-1.01-4.26.43-6.07,1.6-2.01,4.45-3.21,6.38-3.21.32,0,.62.03.88.1.66.17.71.47.73.64.36,2.17,1.11,5.19,3.5,6.33,1.78.84,4.01.47,6.83-1.14,3.67-2.11,5.91-4.61,6.67-7.45.64-2.44.18-5.01-1.38-7.65-2.68-4.54-8.56-2.76-15.37-.69-3.8,1.14-8.1,2.45-12.63,3.02-8.22,1.04-17.82-1.87-19.64-8.54-1.09-4.02-2.64-7.2-3.9-9.36,2.59.9,4.17,2.3,5.82,3.75,2.76,2.43,5.63,4.94,12.64,4.18,2.36-.26,4.16-2.17,4.71-4.98.67-3.45-.65-8.02-4.47-10.07-7.62-4.08-13.48-5.12-18.19-5.96-4.36-.77-7.81-1.38-11.25-4.06-7.81-6.1-8.18-10.54-9.26-23.72Zm37.17.28c7.07-.6,16.21-.82,25.27,5.73,4.08,2.95,6.23,6.21,6.19,9.42-.02,2.55-1.43,4.45-2.37,5.1-2.84,1.97-10.99,1.6-17.32-3.45-8.46-6.76-10.17-11.67-11.77-16.8Zm8.18-51.13c1.17.25,2.28.45,3.3.64,7.69,1.4,12.03,5.87,12.82,9.43.26,1.15.26,2.74-1.19,3.77-1.3.92-3.19.21-4.2-.3-3.45-1.73-7.84-6.53-10.73-13.54Z"/>
    <path class="cls-1" d="m267.76,169.93l-6.07-.07-9.84-.12c-.42-.01-.79-.28-.92-.68l-3.18-9.52-1.9-5.73c-.3-.9-1.58-.9-1.87,0l-1.9,5.73-3.18,9.52c-.13.4-.5.67-.92.68l-9.85.12-6.06.07c-.95.01-1.34,1.22-.57,1.78l4.91,3.57,7.81,5.69c.34.24.49.68.37,1.08l-2.98,9.83-1.69,5.58c-.27.9.74,1.64,1.51,1.1l4.78-3.36,8.7-6.12h0s8.71,6.12,8.71,6.12l4.78,3.36c.77.54,1.78-.2,1.51-1.1l-1.69-5.58-2.98-9.83c-.12-.4.03-.84.37-1.08l7.81-5.69,4.91-3.57c.77-.56.38-1.77-.57-1.78Zm-15.64,9.86c-.34.24-.49.68-.37,1.08l3.6,11.88-10.44-7.34h0s-10.43,7.34-10.43,7.34l3.6-11.88c.12-.4-.03-.84-.37-1.08l-9.54-6.93,11.99-.14c.42,0,.79-.28.92-.68l3.83-11.55,3.84,11.55c.13.4.5.67.92.68l11.99.14-9.54,6.93Z"/>
    <path class="cls-1" d="m346.23,389l-.29-3.03c-5.39-.24-20.69-.05-36.43,8.05l.02,3.39c15.89-8.62,31.95-8.63,36.7-8.41Z"/>
    <path class="cls-1" d="m346.72,393.91l-.3-3.01c-4.7-.16-20.66.07-36.88,8.95l.02,3.43c16.45-9.51,33.31-9.51,37.16-9.37Z"/>
    <path class="cls-1" d="m347.24,399.23l-.3-3.02c-3.55-.1-20.43.02-37.36,9.84l.02,3.48c17.4-10.67,35.62-10.37,37.64-10.3Z"/>
    <path class="cls-1" d="m347.42,401.12c-2.95,0-20.63.55-37.8,11.61l.03,3.6c17.67-12.13,36.94-12.21,38.07-12.21l-.3-3Z"/>
    <path class="cls-1" d="m347.99,406.87c-3.05.04-21.1.77-38.33,12.41l.03,3.65c17.54-12.65,37.02-13.07,38.59-13.06l-.29-3Z"/>
    <path class="cls-1" d="m334.72,414.89c-7.21,1.75-16.26,5.05-25.01,11.23l.02,3.71c17.66-13.35,37.69-13.92,39.14-13.94l-.29-2.99c-1.46.03-6.77.26-13.86,1.99Z"/>
    <path class="cls-1" d="m309.78,437.41l.11-.09c16.6-12.94,35.63-14.37,39.66-14.49l-.29-2.99c-4.61.17-22.74,1.59-39.51,13.83l.03,3.74Z"/>
    <path class="cls-1" d="m446.05,245.5c-1.23,1.6-2.62,3.42-4.35,5.3-6.28,6.79-12.25,9.98-17.48,11.72.83-3.19,1.34-6.63,1.43-10.25.34-13.71-1.69-21.69-3.84-30.13-1.34-5.22-2.71-10.62-3.59-17.71-.74-6.07.4-10.8,3.39-14.06,4.95-5.39,13.48-5.14,13.56-5.12.8.02,1.42-.51,1.54-1.25.13-.75-.32-1.47-1.04-1.69-.52-.15-12.85-3.78-24.84-.11-12.46,3.82-21.24,17.64-21.35,33.6-.19,27.68-3.25,36.04-15.56,42.6-3.16,1.68-6.6,3.25-9.93,4.76-14.65,6.65-29.8,13.54-24.28,32.08,2.86,9.61,13.26,14.19,21.25,12.93,4.92-.77,7.92-3.71,7.82-7.67-.17-7.29-5.54-10.52-9.62-11.56,1.25-1.97,2.96-3.26,5.09-3.83,3.76-.99,8.34.46,10.92,2.41,3.18,2.4,5.04,7.6,4.64,12.93-.37,4.96-2.52,8.86-5.9,10.7-10.79,5.85-17.92,3.71-24.81,1.64-4.4-1.32-8.55-2.56-13.26-1.63-3.73.74-6.93,3.07-9.25,6.74-4.31,6.83-5.1,17.31-2.19,28.76,3.54,13.86-1.93,23.82-1.99,23.92-.36.64-.2,1.45.37,1.91.58.46,1.4.43,1.95-.06,4.77-4.36,11.18-6.29,17.59-5.31,7.47,1.14,14.12,6.13,18.74,14.04,11.21,19.2,21.11,22.02,22.55,22.33,2.44.89,5.69,1.33,9.26,1.33,10.4,0,23.53-3.73,27.26-10.87,1.71-3.27,1.44-6.58-.75-9.33-2.44-3.07-7.19-4.97-10.35-4.15-1.63.43-2.7,1.54-2.95,3.07-.37,2.29-1,3.71-1.82,4.1-.81.38-2.2.02-4.05-1.04-2.95-1.69-4.72-3.58-5.25-5.61-.44-1.63-.08-3.43,1.06-5.35,1.41-2.4,5.25-1.37,11.91.65,3.91,1.18,8.34,2.52,13.13,3.13,9.36,1.18,20.57-2.17,22.9-10.73,1.94-7.12,5.46-11.43,5.5-11.47.39-.48.45-1.14.16-1.68-.3-.54-.9-.84-1.5-.77-5.8.73-8.54,3.14-10.95,5.27-2.59,2.27-4.64,4.07-10.33,3.44-1.47-.16-1.95-1.84-2.09-2.56-.45-2.32.43-5.51,2.94-6.85,7.19-3.86,12.56-4.81,17.29-5.65,4.59-.82,8.55-1.52,12.58-4.66,8.85-6.9,9.3-12.44,10.4-25.83.29-3.59.63-7.66,1.17-12.56.8-7.22,9.65-10.61,9.74-10.65.57-.21.96-.76.97-1.38.01-.62-.36-1.18-.93-1.41-4.4-1.79-16.1-6.54-24.49,10.11-5.24,10.38-11.03,14.01-21.39,13.36-.39-.02-.79-.05-1.21-.09,1.72-4.82,4.62-10.09,13.91-17.31,15.19-11.82,14.32-20.37,12.58-37.4l-.26-2.51c-.63-6.24.41-10.91,3.07-13.9,2.93-3.28,6.93-3.37,6.97-3.37.77-.01,1.41-.6,1.48-1.36.07-.77-.44-1.46-1.19-1.61-14.24-2.9-17.46,1.3-22.33,7.65Zm15.49-5.58c-.89.58-1.78,1.3-2.61,2.22-3.28,3.64-4.58,9.11-3.86,16.24l.25,2.52c1.73,16.93,2.45,23.94-11.43,34.73-10.44,8.12-13.32,13.98-15.16,19.4-7.29-.64-17.74-1.15-27.96,6.23-6.19,4.48-7.46,8.93-7.43,11.88.03,3.47,1.86,6.29,3.66,7.54,4.16,2.88,13.77,2.12,20.9-3.58,9.43-7.53,11.19-13.21,12.9-18.7.02-.05.04-.11.06-.16.69.06,1.36.12,1.99.15,11.64.72,18.44-3.48,24.24-15,5.32-10.53,11.41-11.51,17.41-9.83-3.22,1.94-7.7,5.63-8.35,11.48-.55,4.94-.89,9.03-1.18,12.64-1.08,13.18-1.45,17.62-9.26,23.72-3.44,2.68-6.89,3.29-11.25,4.06-4.71.84-10.57,1.88-18.19,5.96-3.82,2.05-5.14,6.62-4.47,10.07.55,2.81,2.35,4.72,4.71,4.98,7.01.76,9.88-1.75,12.64-4.18,1.65-1.45,3.23-2.85,5.82-3.75-1.26,2.16-2.81,5.34-3.9,9.36-1.82,6.67-11.42,9.58-19.64,8.54-4.53-.57-8.83-1.88-12.63-3.02-6.81-2.07-12.69-3.85-15.37.69-1.56,2.64-2.02,5.21-1.38,7.65.76,2.84,3,5.34,6.67,7.45,2.82,1.61,5.05,1.98,6.83,1.14,2.39-1.14,3.14-4.16,3.5-6.33.02-.17.07-.47.73-.64.26-.07.56-.1.88-.1,1.93,0,4.78,1.2,6.38,3.21,1.44,1.81,1.59,3.86.43,6.07-4.19,8.02-24.58,11.2-32.92,8.08-.09-.03-.18-.06-.28-.08-.08-.01-9.57-1.99-20.61-20.91-5.09-8.71-12.51-14.22-20.89-15.5-5.51-.84-11.02.21-15.74,2.91,1.38-4.6,2.6-12.06.28-21.14-2.67-10.5-1.99-20.38,1.82-26.42,1.87-2.96,4.39-4.82,7.3-5.4,3.98-.78,7.6.3,11.81,1.56,7.13,2.14,15.21,4.57,27.1-1.88,4.29-2.33,7.01-7.1,7.46-13.11.48-6.4-1.8-12.51-5.82-15.54-3.07-2.32-8.6-4.21-13.5-2.91-3.58.95-6.34,3.46-7.97,7.26-.19.44-.16.95.09,1.36.25.42.69.69,1.17.72.35.04,8.82.87,9.01,9.02.09,3.41-3.67,4.37-5.28,4.63-5.67.9-15.27-1.93-17.92-10.83-4.77-16.03,7.94-21.81,22.65-28.49,3.37-1.53,6.86-3.11,10.1-4.84,13.42-7.15,16.95-16.45,17.15-45.22.1-14.67,8.01-27.32,19.23-30.76,5.17-1.58,10.5-1.68,14.74-1.32-2.42.9-4.95,2.32-7.03,4.57-3.63,3.94-5.04,9.49-4.17,16.48.9,7.27,2.3,12.76,3.65,18.08,2.1,8.24,4.08,16.02,3.75,29.32-.1,4.12-.78,7.9-1.83,11.29-1.8.44-3.49.74-5.04,1.03-9.08,1.65-14.18,7.09-15.21,11.73-.63,2.84.24,5.34,2.38,6.86,1.91,1.36,4.5,1.34,7.29-.06,4.83-2.42,9.97-8.65,12.92-17.08,5.99-1.69,13.24-5.02,20.74-13.14,1.83-1.97,3.27-3.85,4.53-5.5,3.72-4.85,5.94-7.75,13.11-7.41Zm-33.74,78.04c-1.6,5.13-3.31,10.04-11.77,16.8-6.33,5.05-14.48,5.42-17.32,3.45-.94-.65-2.35-2.55-2.37-5.1-.04-3.21,2.11-6.47,6.19-9.42,9.06-6.55,18.2-6.33,25.27-5.73Zm-8.18-51.13c-2.89,7.01-7.28,11.81-10.73,13.54-1.01.51-2.9,1.22-4.2.3-1.45-1.03-1.45-2.62-1.19-3.77.79-3.56,5.13-8.03,12.82-9.43,1.02-.19,2.13-.39,3.3-.64Z"/>
    <path class="cls-1" d="m452.89,441.21l-17.6,1.35,2.35-24.94c.07-.69-.35-1.34-1.02-1.56-.66-.22-1.39.05-1.75.64-6.34,10.42-18.7,20.87-22.32,23.81l-12.26-12.08c-.55-.55-1.44-.58-2.03-.08-33.76,28.63-73.74,32.87-93.1,33.04-19.36-.17-59.34-4.41-93.1-33.04-.59-.5-1.48-.47-2.03.08l-12.26,12.08c-3.62-2.94-15.98-13.39-22.32-23.81-.36-.59-1.09-.86-1.75-.64-.67.22-1.09.87-1.02,1.56l2.35,24.94-17.6-1.35c-.59-.06-1.14.26-1.43.77-.28.51-.24,1.15.11,1.62.18.24,18.44,24.65,50.23,42.49.23.13.48.19.73.19.47,0,.93-.22,1.22-.62l7.13-9.96c2.08,1.15,4.25,2.3,6.51,3.44,18.94,9.55,47.92,20.24,82.77,20.24h.92c34.85,0,63.83-10.69,82.77-20.24,2.26-1.14,4.43-2.29,6.51-3.44l7.13,9.96c.29.4.75.62,1.22.62.25,0,.5-.06.73-.19,31.79-17.84,50.05-42.25,50.23-42.49.35-.47.39-1.11.11-1.62-.29-.51-.84-.83-1.43-.77Zm-292.25,3.26l15.94,1.22c.45.05.87-.13,1.18-.44.31-.32.47-.75.43-1.19l-1.98-20.96c6.71,8.86,15.97,16.73,19.41,19.53l-10.51,10.35c-.56.55-.67,1.42-.24,2.09,1.94,3.07,7.24,11.46,9.03,14.15,1.52,2.27,4.79,6.75,7.53,10.47-21.49-13.39-35.67-29.08-40.79-35.22Zm47.05,36.88c-.32.44-.97.45-1.3.01-2.82-3.8-8.02-10.84-10-13.8-.99-1.48-2.72-4.31-4.39-7.07,4.7,3.59,11.75,8.56,20.78,13.73l-5.1,7.13Zm97.47,15.03c-61.73.19-106.25-33.88-115.88-41.91-.41-.34-.43-.96-.05-1.34l21.26-20.94c.39-.38,1-.41,1.42-.06,34.04,27.85,73.76,32.06,93.25,32.24,19.49-.18,59.21-4.39,93.25-32.24.42-.34,1.03-.32,1.42.06l21.26,20.94c.38.38.36,1-.05,1.34-9.63,8.03-54.15,42.1-115.88,41.91Zm98.76-15.02c-.32.44-.98.43-1.3-.01l-5.1-7.13c9.03-5.17,16.08-10.14,20.78-13.73-1.67,2.76-3.4,5.59-4.39,7.07-1.97,2.96-7.18,10-10,13.8Zm4.97-1.67c2.74-3.72,6.01-8.2,7.53-10.47,1.79-2.68,7.09-11.07,9.03-14.15.42-.67.32-1.54-.24-2.09l-10.51-10.35c3.44-2.8,12.7-10.67,19.41-19.53l-1.98,20.96c-.04.44.12.87.43,1.19.31.31.73.49,1.18.44l15.94-1.22c-5.12,6.14-19.3,21.83-40.79,35.22Z"/>
    <path class="cls-1" d="m388.25,169.93l-6.06-.07-9.85-.12c-.42-.01-.79-.28-.92-.68l-3.18-9.52-1.9-5.73c-.29-.9-1.57-.9-1.87,0l-1.9,5.73-3.18,9.52c-.13.4-.5.67-.92.68l-9.84.12-6.07.07c-.95.01-1.34,1.22-.57,1.78l4.91,3.57,7.81,5.69c.34.24.49.68.37,1.08l-2.98,9.83-1.69,5.58c-.27.9.74,1.64,1.51,1.1l4.78-3.36,8.71-6.13h0s8.7,6.13,8.7,6.13l4.78,3.36c.77.54,1.78-.2,1.51-1.1l-1.69-5.58-2.98-9.83c-.12-.4.03-.84.37-1.08l7.81-5.69,4.91-3.57c.77-.56.38-1.77-.57-1.78Zm-15.64,9.86c-.34.24-.49.68-.37,1.08l3.6,11.88-10.43-7.33h0s-10.44,7.33-10.44,7.33l3.6-11.88c.12-.4-.03-.84-.37-1.08l-9.54-6.93,11.99-.14c.42,0,.79-.28.92-.68l3.84-11.55,3.83,11.55c.13.4.5.67.92.68l11.99.14-9.54,6.93Z"/>
    <path class="cls-1" d="m357.39,436.74l-5.97-56.33c-.07-.71-.64-1.27-1.36-1.34-.99-.08-22.39-1.85-40.34,5.31,2.18-4.26,4.8-11.93,6.42-25.5,1.51-12.65,3.08-38.48,3.83-50.89l.02-.37c1.77-29.05,2.22-46.64,2.3-50.86,2.02-.92,6.68-3.51,10.35-9.05.15-.18.37-.5.62-1.01,0-.01.01-.01.01-.02.65-1.34,1.46-3.97,1.42-8.75,0-.61-.38-1.16-.95-1.39l-3.07-1.2c5.55-8.24,6.93-20.6,7-21.16.05-.53-.18-1.06-.61-1.37-.43-.32-1-.38-1.49-.16-3.02,1.33-5.73,3.11-7.83,4.69,1.92-6.7,2.6-13.77,2.63-14.15.04-.49-.15-.97-.52-1.28-.38-.32-.88-.44-1.35-.31-5.78,1.49-10.15,5.53-12.62,8.33-2.36-13.73-9.11-25.15-9.42-25.67-.28-.46-.78-.73-1.3-.73s-1.02.27-1.3.73c-.31.52-7.06,11.94-9.42,25.67-2.47-2.8-6.84-6.84-12.62-8.33-.47-.13-.97,0-1.35.31-.37.31-.56.79-.52,1.28.03.38.71,7.45,2.63,14.15-2.1-1.58-4.81-3.36-7.83-4.69-.49-.22-1.06-.16-1.49.16-.43.31-.66.84-.61,1.37.07.56,1.45,12.92,7,21.16l-3.07,1.2c-.57.23-.95.78-.95,1.39-.04,4.78.77,7.41,1.42,8.75,0,.01,0,.01,0,.02.25.51.47.83.62,1.01,3.67,5.54,8.33,8.13,10.35,9.05.08,4.22.53,21.81,2.3,50.86l.02.37c.75,12.41,2.32,38.24,3.83,50.89,1.62,13.57,4.24,21.24,6.42,25.5-17.95-7.16-39.35-5.39-40.34-5.31-.72.07-1.29.63-1.36,1.34l-5.97,56.33c-.08.81.49,1.53,1.29,1.64,22.98,3.13,50.67,22.83,50.94,23.01.27-.18,27.96-19.88,50.94-23.01.8-.11,1.37-.83,1.29-1.64Zm-81.33-220.09c5,2.78,8.71,6.49,8.75,6.53.52.51,1.32.59,1.92.17.59-.41.81-1.19.51-1.85-2.33-5.17-3.54-12.57-4.03-16.28,6.66,2.72,10.92,9.16,10.96,9.23.35.53.99.79,1.61.64.62-.14,1.07-.66,1.14-1.29,1.1-10.04,5.16-19.47,7.61-24.41l.63-1.22.63,1.22c2.45,4.94,6.51,14.37,7.61,24.41.07.63.52,1.15,1.14,1.29.62.15,1.26-.11,1.61-.64.04-.07,4.3-6.51,10.96-9.23-.49,3.71-1.7,11.11-4.03,16.28-.3.66-.08,1.44.51,1.85.6.42,1.4.34,1.92-.17.04-.04,3.75-3.75,8.75-6.53-.75,4.22-2.61,12.27-6.54,17.67-2.52-.65-9.47-2.25-17.65-2.74-.3-.02-.61-.04-.91-.06-.31-.02-.62-.04-.94-.05-.33-.02-.66-.03-.98-.04-.31-.01-.62-.01-.93-.02-.38,0-.76,0-1.14,0h-.02c-.38,0-.76,0-1.14,0-.31.01-.62.01-.93.02-.32.01-.65.02-.98.04-.32,0-.63.03-.94.05-.3.02-.61.04-.91.06-8.18.49-15.13,2.09-17.65,2.74-3.93-5.4-5.79-13.45-6.54-17.67Zm2.57,22.31s.07-.03.19-.07l.23-.09c.13-.05.29-.11.47-.18,1.27-.46,3.67-1.3,5.67-1.78.26-.06.51-.11.75-.16,3.6-.75,9.48-1.82,15.42-2.18.29-.01.59-.03.88-.04.33-.01.66-.02.99-.03.65-.02,1.29-.03,1.92-.03h.02c.63,0,1.27,0,1.92.03.33.01.66.02.99.03.29.01.59.03.88.04,5.94.36,11.83,1.43,15.43,2.18.18.04.38.08.57.12.19.05.39.09.59.14,2.21.57,4.74,1.49,5.73,1.86.18.07.31.12.37.14.02.01.03.01.04.02-.05,2.39-.35,4.04-.65,5.11-10.54-4.15-25.11-4.08-25.88-4.07-.77-.01-15.34-.08-25.88,4.07-.3-1.07-.6-2.72-.65-5.11Zm11,15.22h-.01c-1.28-.55-5.52-2.63-8.95-7.43,9.64-3.69,23.22-3.78,24.38-3.75h.11s.11,0,.11,0c1.16-.03,14.74.06,24.38,3.75-3.43,4.8-7.67,6.88-8.95,7.43h-.01c-6-1.45-11.64-1.79-15.53-1.8-3.89.01-9.53.35-15.53,1.8Zm14.02,188.95c-21.28-11.87-42.73-12.66-47.03-12.7l5.12-48.45c5.26-.29,26.28-.85,41.91,7.07v54.08Zm-6.49-84.61c-1.5-12.56-3.06-38.33-3.82-50.71l-.02-.37c-1.74-28.51-2.19-45.95-2.29-50.51,5.42-1.23,10.56-1.53,14.13-1.54,3.57.01,8.71.31,14.13,1.54-.1,4.56-.55,22-2.29,50.51l-.02.37c-.76,12.38-2.32,38.15-3.82,50.71-2.2,18.39-6.26,25.29-8,27.49-1.74-2.2-5.8-9.1-8-27.49Zm9.51,84.61v-54.08c15.63-7.92,36.65-7.36,41.91-7.07l5.12,48.45c-4.3.04-25.75.83-47.03,12.7Z"/>
  </g>
  <g id="Text">
    <g>
      <path class="cls-6" d="m135.2,485.69l-3.32-2.7c1.34-1.59,2.1-3,2.28-4.23.18-1.23-.18-2.33-1.08-3.3-.95-1.03-1.99-1.51-3.1-1.45-1.11.06-2.1.49-2.94,1.27-.54.5-.9,1.04-1.08,1.61-.18.57-.16,1.26.07,2.07.16.55.61,1.71,1.36,3.49.97,2.28,1.32,4.19,1.06,5.71-.37,2.14-1.46,4.05-3.28,5.74-1.17,1.08-2.48,1.87-3.92,2.35s-2.83.55-4.16.18c-1.33-.37-2.56-1.16-3.68-2.37-1.84-1.99-2.59-4.07-2.25-6.24.33-2.17,1.54-4.26,3.6-6.27l3.16,3.01c-1.05,1.23-1.63,2.31-1.73,3.24-.1.93.26,1.84,1.1,2.74.86.93,1.81,1.4,2.85,1.41.67,0,1.3-.26,1.9-.81.54-.5.86-1.09.96-1.77.12-.86-.28-2.31-1.18-4.36-.91-2.05-1.42-3.71-1.54-4.98-.12-1.27.12-2.58.72-3.91s1.62-2.67,3.08-4.02c1.32-1.22,2.78-2.11,4.4-2.67,1.62-.56,3.13-.64,4.54-.24s2.75,1.29,4.03,2.67c1.85,2,2.6,4.16,2.25,6.47-.35,2.31-1.71,4.77-4.09,7.35Z"/>
      <path class="cls-6" d="m128.05,462.63l-24.8,19.11-9.76-12.66,4.2-3.23,7.1,9.21,5.5-4.24-6.61-8.57,4.18-3.22,6.61,8.57,6.75-5.2-7.35-9.54,4.18-3.22,10.01,12.99Z"/>
      <path class="cls-6" d="m115.54,446.07l-26.49,16.69-2.32-3.68,11.76-7.41-16.45-.03-3.12-4.95,14.65.37,11.61-17.43,3,4.77-9.27,12.85,6.31.2,8-5.04,2.32,3.68Z"/>
      <path class="cls-6" d="m90.4,434.81c-2.86,1.42-5.4,2.31-7.63,2.68-1.65.27-3.23.3-4.74.11-1.51-.2-2.77-.61-3.76-1.25-1.34-.84-2.39-2.04-3.17-3.61-1.41-2.85-1.26-5.76.46-8.74,1.72-2.98,4.86-5.6,9.43-7.87,4.53-2.25,8.49-3.15,11.89-2.73,3.4.43,5.8,2.06,7.21,4.9,1.42,2.87,1.28,5.79-.42,8.74-1.7,2.96-4.79,5.54-9.25,7.76Zm-2.18-3.92c3.18-1.58,5.33-3.27,6.47-5.1,1.14-1.82,1.32-3.51.55-5.07-.77-1.56-2.22-2.43-4.34-2.62-2.12-.19-4.81.52-8.06,2.13-3.21,1.59-5.37,3.27-6.47,5.02-1.1,1.75-1.25,3.44-.46,5.04s2.24,2.51,4.33,2.7c2.09.19,4.75-.52,7.97-2.12Z"/>
      <path class="cls-6" d="m93.48,405.39l-29.01,11.09-1.55-4.07,24.08-9.2-3.86-10.11,4.93-1.88,5.42,14.18Z"/>
      <path class="cls-6" d="m81.64,368.99l1.28,4.56-6.34,3.73,2.32,8.3,7.33-.2,1.25,4.45-32.42.36-1.24-4.43,27.82-16.76Zm-9.77,11.06l-10.39,5.99,11.97-.33-1.59-5.67Z"/>
      <path class="cls-6" d="m81.1,366.13l-30.84,5.42-.75-4.29,12.14-2.13-1.48-8.4-12.14,2.13-.75-4.29,30.84-5.42.75,4.29-13.48,2.37,1.48,8.4,13.48-2.37.75,4.29Z"/>
      <path class="cls-6" d="m76.47,329.92l-25.99,1.08.27,6.39-5.29.22-.71-17.12,5.29-.22.26,6.38,25.99-1.08.18,4.35Z"/>
      <path class="cls-6" d="m76.18,315.73l-31.3-.62.09-4.35,31.3.62-.09,4.35Z"/>
      <path class="cls-6" d="m76.32,306.36l-31.19-2.79.38-4.22,21.61-6.92-20.83-1.87.36-4.03,31.19,2.79-.39,4.35-21.11,6.84,20.34,1.82-.36,4.03Z"/>
      <path class="cls-6" d="m69.11,272.21l-5.18-1,1.79-9.21,12.25,2.37c1.08,1.14,1.94,2.65,2.57,4.54.63,1.88.77,3.7.44,5.44-.43,2.21-1.48,4.01-3.15,5.4-1.67,1.38-3.84,2.25-6.51,2.59-2.67.34-5.48.23-8.43-.34-3.2-.62-5.96-1.63-8.26-3.04-2.31-1.41-3.96-3.13-4.94-5.17-.76-1.55-.94-3.34-.55-5.36.51-2.63,1.71-4.53,3.59-5.69,1.89-1.17,4.28-1.69,7.19-1.57l.33,4.47c-1.57,0-2.87.34-3.9.99-1.03.65-1.67,1.6-1.91,2.83-.36,1.87.21,3.52,1.72,4.95s3.95,2.48,7.33,3.14c3.65.71,6.49.68,8.53-.08,2.04-.76,3.24-2.05,3.59-3.86.17-.89.09-1.84-.24-2.84s-.8-1.89-1.41-2.68l-3.9-.76-.95,4.89Z"/>
      <path class="cls-6" d="m75.26,247.84l-5.04-1.55,2.75-8.97,11.92,3.66c.96,1.25,1.65,2.84,2.07,4.78.42,1.94.38,3.76-.15,5.46-.66,2.16-1.89,3.83-3.7,5.03-1.8,1.2-4.05,1.83-6.74,1.88-2.69.06-5.47-.36-8.34-1.24-3.12-.96-5.75-2.26-7.9-3.9s-3.6-3.53-4.36-5.66c-.59-1.63-.58-3.42.03-5.39.79-2.56,2.18-4.32,4.18-5.28,2-.96,4.44-1.22,7.31-.79l-.15,4.48c-1.56-.16-2.89.03-3.98.57s-1.83,1.41-2.2,2.61c-.56,1.82-.17,3.52,1.18,5.11,1.34,1.59,3.66,2.89,6.96,3.9,3.55,1.09,6.38,1.37,8.49.82s3.44-1.69,3.98-3.46c.27-.87.29-1.82.06-2.85-.23-1.03-.6-1.97-1.11-2.81l-3.8-1.17-1.46,4.77Z"/>
      <path class="cls-6" d="m90.8,237.99l-29.17-11.38,1.58-4.06,29.17,11.38-1.58,4.06Z"/>
      <path class="cls-6" d="m98.15,220.8l-28.13-13.75,1.91-3.91,28.13,13.75-1.91,3.91Z"/>
      <path class="cls-6" d="m102.31,212.32l-26.99-15.36,2.15-3.78,22.4,12.75,5.35-9.41,4.58,2.61-7.51,13.19Z"/>
      <path class="cls-6" d="m111.67,196.02l-25.56-18.08,3.76-5.32,19.7,9.14-15.2-15.49,3.77-5.33,25.56,18.08-2.33,3.3-20.12-14.23,17.65,17.73-2.42,3.42-22.59-10.75,20.12,14.23-2.33,3.3Z"/>
      <path class="cls-6" d="m103.2,154.66l2.87-3.27,12.75,11.18c2.02,1.77,3.37,2.88,4.04,3.33,1.09.71,2.15,1.05,3.2,1.03,1.04-.01,1.97-.48,2.77-1.39.81-.93,1.15-1.87,1.02-2.83-.14-.96-.57-1.83-1.28-2.63s-2.01-2.02-3.87-3.65l-13.02-11.42,2.87-3.27,12.36,10.84c2.83,2.48,4.75,4.32,5.76,5.52,1.01,1.2,1.71,2.39,2.1,3.57s.47,2.38.25,3.59-.9,2.46-2.02,3.75c-1.36,1.55-2.65,2.49-3.87,2.84-1.22.34-2.45.38-3.69.12-1.24-.26-2.38-.72-3.41-1.37-1.54-.97-3.62-2.61-6.25-4.92l-12.56-11.01Z"/>
      <path class="cls-6" d="m140.88,145.19l2.8-3.23c1.55,1.39,2.93,2.19,4.16,2.41,1.22.22,2.33-.11,3.33-.98,1.06-.92,1.57-1.94,1.54-3.06-.03-1.12-.42-2.11-1.18-2.98-.49-.56-1.01-.94-1.58-1.13-.57-.2-1.26-.19-2.07,0-.55.14-1.73.56-3.53,1.26-2.31.9-4.22,1.2-5.74.89-2.13-.43-4.01-1.58-5.63-3.45-1.05-1.2-1.79-2.53-2.23-3.99-.44-1.46-.46-2.84-.05-4.16.41-1.32,1.24-2.52,2.48-3.61,2.04-1.78,4.14-2.46,6.31-2.06,2.16.4,4.21,1.66,6.16,3.79l-3.1,3.07c-1.2-1.09-2.26-1.7-3.18-1.83-.92-.13-1.85.21-2.77,1.01-.95.83-1.45,1.77-1.5,2.8-.03.67.22,1.31.75,1.92.49.56,1.07.89,1.74,1.01.85.14,2.32-.21,4.39-1.05,2.07-.84,3.75-1.3,5.02-1.39,1.27-.08,2.57.2,3.89.83,1.32.64,2.62,1.7,3.92,3.2,1.18,1.35,2.02,2.85,2.53,4.48.51,1.63.54,3.15.1,4.55s-1.38,2.71-2.79,3.94c-2.06,1.79-4.23,2.47-6.54,2.05-2.3-.42-4.71-1.86-7.23-4.31Z"/>
      <path class="cls-6" d="m154.39,126.63c-1.85-2.6-3.14-4.97-3.86-7.11-.53-1.58-.81-3.14-.86-4.66s.17-2.83.63-3.91c.61-1.45,1.64-2.69,3.07-3.71,2.59-1.84,5.49-2.15,8.7-.93,3.21,1.22,6.3,3.91,9.26,8.06,2.93,4.12,4.46,7.89,4.58,11.31.12,3.42-1.12,6.05-3.69,7.89-2.61,1.86-5.51,2.18-8.7.97s-6.23-3.85-9.12-7.91Zm3.53-2.78c2.06,2.89,4.08,4.75,6.06,5.58,1.98.83,3.68.75,5.09-.26,1.41-1.01,2.05-2.57,1.9-4.7s-1.28-4.67-3.38-7.62c-2.08-2.92-4.08-4.79-5.98-5.6-1.91-.81-3.59-.69-5.05.35-1.46,1.04-2.12,2.61-1.98,4.7.14,2.09,1.26,4.61,3.35,7.54Z"/>
      <path class="cls-6" d="m177.78,116.76l3.37-2.63c1.25,1.66,2.46,2.72,3.61,3.17,1.16.45,2.31.35,3.46-.31,1.21-.7,1.92-1.6,2.1-2.7.19-1.1,0-2.15-.58-3.15-.37-.64-.81-1.11-1.33-1.42s-1.2-.43-2.03-.39c-.57.03-1.8.22-3.7.55-2.44.44-4.38.36-5.8-.24-2.01-.83-3.63-2.32-4.86-4.47-.79-1.38-1.27-2.83-1.42-4.34-.15-1.51.1-2.88.75-4.09.65-1.21,1.7-2.23,3.14-3.06,2.35-1.35,4.54-1.62,6.58-.81,2.04.81,3.81,2.45,5.31,4.91l-3.64,2.41c-.96-1.3-1.89-2.11-2.77-2.41-.88-.31-1.85-.15-2.92.46-1.1.63-1.77,1.45-2.01,2.46-.16.65-.04,1.33.37,2.03.37.64.87,1.08,1.51,1.33.81.31,2.31.25,4.51-.18,2.2-.43,3.93-.56,5.2-.39,1.27.17,2.48.69,3.65,1.57,1.17.88,2.25,2.18,3.23,3.89.89,1.56,1.43,3.18,1.62,4.88.19,1.7-.08,3.19-.78,4.48-.71,1.29-1.87,2.4-3.5,3.33-2.36,1.36-4.63,1.61-6.81.75s-4.26-2.73-6.26-5.63Z"/>
      <path class="cls-6" d="m201.95,115.01l-13.8-28.11,3.91-1.92,13.8,28.11-3.91,1.92Z"/>
      <path class="cls-6" d="m228.27,103.53l-4.39,1.79-4.43-5.88-7.98,3.25,1.04,7.26-4.28,1.74-4.04-32.16,4.26-1.74,19.81,25.73Zm-12.1-8.45l-7.14-9.64,1.69,11.86,5.45-2.22Z"/>
      <path class="cls-6" d="m231.2,102.68l-9.07-29.7,4.16-1.27,7.53,24.65,10.35-3.16,1.54,5.05-14.52,4.43Z"/>
      <path class="cls-6" d="m252.68,64.47l7.84-1.33c1.77-.3,3.15-.33,4.15-.09,1.34.32,2.57,1.09,3.69,2.3,1.12,1.21,2.08,2.76,2.88,4.66.8,1.89,1.44,4.29,1.93,7.18.43,2.54.58,4.77.46,6.68-.15,2.34-.6,4.28-1.35,5.84-.57,1.18-1.43,2.17-2.6,2.97-.87.6-2.1,1.03-3.69,1.29l-8.08,1.37-5.22-30.87Zm5.18,4.5l3.46,20.45,3.21-.54c1.2-.2,2.05-.45,2.55-.73.65-.37,1.16-.9,1.52-1.58.36-.68.56-1.74.62-3.17.06-1.43-.12-3.34-.52-5.73s-.86-4.19-1.36-5.42-1.08-2.16-1.72-2.78c-.64-.63-1.39-1-2.23-1.12-.63-.09-1.82,0-3.57.3l-1.93.33Z"/>
      <path class="cls-6" d="m299.37,90.48l-4.72.33-2.38-6.96-8.6.61-1.27,7.22-4.61.33,6.16-31.83,4.59-.33,10.82,30.62Zm-8.87-11.79l-3.79-11.38-2.08,11.8,5.87-.42Z"/>
      <path class="cls-6" d="m302.3,90.51l.77-31.3,4.23.1,8.31,21.12.51-20.9,4.04.1-.77,31.3-4.37-.11-8.19-20.63-.5,20.41-4.04-.1Z"/>
      <path class="cls-6" d="m333.94,92.43l4.16-31.03,4.31.58-4.16,31.03-4.31-.58Z"/>
      <path class="cls-6" d="m343.28,93.69l6.02-30.47,4.27.84-4.99,25.29,10.62,2.1-1.02,5.18-14.89-2.94Z"/>
      <path class="cls-6" d="m361.73,97.41l9.03-29.98,6.24,1.88-2.42,21.58,9.86-19.33,6.25,1.88-9.03,29.98-3.87-1.17,7.11-23.6-11.21,22.36-4.01-1.21,3.03-24.83-7.11,23.6-3.87-1.17Z"/>
      <path class="cls-6" d="m398.28,76.25l4.01,1.69-6.56,15.64c-1.04,2.48-1.67,4.11-1.88,4.89-.33,1.25-.31,2.37.03,3.36.35.99,1.08,1.71,2.2,2.19,1.14.48,2.14.5,3,.07s1.56-1.12,2.09-2.05c.53-.94,1.28-2.54,2.23-4.83l6.7-15.97,4.01,1.68-6.37,15.16c-1.45,3.47-2.59,5.87-3.41,7.21s-1.72,2.38-2.72,3.12c-1,.74-2.11,1.2-3.33,1.37-1.22.17-2.62-.07-4.19-.73-1.9-.8-3.2-1.72-3.92-2.77-.71-1.05-1.14-2.2-1.28-3.46s-.07-2.48.22-3.67c.43-1.76,1.33-4.26,2.68-7.49l6.46-15.4Z"/>
      <path class="cls-6" d="m414.98,118.33l15.89-26.98,6.02,3.54c2.28,1.34,3.69,2.35,4.22,3.03.83,1.03,1.2,2.44,1.12,4.22-.08,1.78-.75,3.74-2.02,5.89-.98,1.66-2,2.93-3.08,3.81s-2.13,1.46-3.14,1.73c-1.02.27-1.92.31-2.7.13-1.05-.27-2.42-.91-4.12-1.91l-2.45-1.44-5.99,10.18-3.75-2.21Zm16.95-20.21l-4.51,7.66,2.05,1.21c1.48.87,2.55,1.31,3.21,1.32.66.01,1.32-.2,1.95-.63.64-.43,1.19-1.05,1.66-1.85.58-.98.86-1.91.84-2.78-.02-.87-.29-1.57-.8-2.08-.38-.39-1.24-.98-2.59-1.77l-1.81-1.07Z"/>
      <path class="cls-6" d="m441.1,115.94c1.88-2.58,3.72-4.55,5.53-5.91,1.33-1,2.72-1.76,4.15-2.29,1.43-.52,2.74-.74,3.91-.64,1.57.12,3.07.7,4.49,1.74,2.57,1.87,3.78,4.52,3.64,7.96-.14,3.44-1.72,7.21-4.72,11.33-2.98,4.08-6.07,6.72-9.28,7.92-3.21,1.19-6.09.86-8.65-1.01-2.59-1.89-3.82-4.54-3.67-7.95.14-3.41,1.68-7.13,4.62-11.16Zm3.75,2.47c-2.09,2.87-3.21,5.37-3.38,7.51s.45,3.73,1.86,4.75c1.4,1.02,3.09,1.13,5.06.31,1.97-.81,4.02-2.69,6.16-5.62,2.11-2.9,3.25-5.38,3.42-7.45.16-2.06-.48-3.63-1.93-4.68-1.45-1.06-3.15-1.19-5.08-.39-1.94.8-3.97,2.65-6.09,5.56Z"/>
      <path class="cls-6" d="m451.98,143.44l20.55-23.29,3.26,2.88-17.06,19.33,8.12,7.16-3.49,3.96-11.38-10.04Z"/>
      <path class="cls-6" d="m466,156.22l22.13-22.15,3.08,3.08-22.13,22.15-3.08-3.08Z"/>
      <path class="cls-6" d="m475.81,166.45l19.49-17.23-4.24-4.79,3.97-3.51,11.35,12.83-3.97,3.51-4.23-4.78-19.49,17.23-2.88-3.26Z"/>
      <path class="cls-6" d="m485,177.32l24.7-19.25,2.68,3.43-24.7,19.25-2.68-3.43Z"/>
      <path class="cls-6" d="m490.8,184.67l25.97-17.49,2.43,3.61-11.53,7.77,16.45-.47,3.27,4.86-14.65.08-11.08,17.78-3.15-4.67,8.88-13.12h-6.31s-7.85,5.28-7.85,5.28l-2.43-3.61Z"/>
      <path class="cls-6" d="m522.34,215.39l4.75-2.29,4.08,8.45-11.23,5.42c-1.55-.26-3.14-.96-4.77-2.1-1.63-1.13-2.83-2.5-3.6-4.1-.98-2.03-1.22-4.1-.71-6.21.51-2.11,1.73-4.1,3.67-5.97s4.26-3.46,6.96-4.76c2.94-1.42,5.75-2.25,8.44-2.51,2.69-.25,5.04.14,7.05,1.19,1.54.79,2.75,2.12,3.65,3.97,1.16,2.41,1.34,4.65.52,6.71-.81,2.06-2.42,3.92-4.83,5.55l-2.94-3.38c1.25-.94,2.1-1.98,2.54-3.13s.38-2.28-.16-3.41c-.83-1.71-2.27-2.69-4.34-2.94s-4.65.37-7.75,1.87c-3.35,1.61-5.61,3.34-6.79,5.17-1.18,1.83-1.37,3.58-.57,5.24.4.82,1.03,1.53,1.89,2.13.87.6,1.78,1.03,2.73,1.3l3.58-1.73-2.17-4.49Z"/>
      <path class="cls-6" d="m547.19,222.38l1.48,4.09-15.95,5.77c-2.53.92-4.15,1.56-4.87,1.93-1.14.61-1.96,1.38-2.45,2.3s-.53,1.96-.12,3.1c.42,1.16,1.08,1.91,1.99,2.25.9.34,1.88.39,2.93.15s2.74-.79,5.07-1.63l16.29-5.89,1.48,4.09-15.46,5.59c-3.54,1.28-6.07,2.07-7.61,2.38-1.54.31-2.92.34-4.14.11s-2.31-.74-3.26-1.52-1.72-1.97-2.3-3.58c-.7-1.94-.91-3.52-.62-4.76.29-1.24.85-2.33,1.67-3.29.83-.96,1.78-1.73,2.85-2.33,1.59-.88,4.03-1.91,7.33-3.1l15.71-5.68Z"/>
      <path class="cls-6" d="m525.12,254.15l30.35-7.68,1.04,4.11-18.11,13.68,20.27-5.13.99,3.92-30.35,7.68-1.07-4.23,17.66-13.44-19.79,5.01-.99-3.92Z"/>
      <path class="cls-6" d="m533.23,295.02l-.7-4.68,6.75-2.92-1.28-8.52-7.3-.71-.68-4.57,32.21,3.66.68,4.55-29.68,13.18Zm11.06-9.76l11.05-4.66-11.92-1.16.87,5.82Z"/>
      <path class="cls-6" d="m533.98,306.18l31.31-.51.07,4.23-20.76,9.16,20.91-.34.07,4.04-31.31.51-.07-4.37,20.27-9.02-20.42.33-.07-4.04Z"/>
      <path class="cls-6" d="m565.29,331l-.36,4.34-16.9-1.4c-2.68-.22-4.42-.31-5.23-.27-1.29.08-2.35.44-3.19,1.07-.83.63-1.3,1.56-1.4,2.77-.1,1.23.19,2.19.87,2.88.68.69,1.54,1.14,2.6,1.35s2.82.42,5.28.63l17.26,1.43-.36,4.34-16.39-1.36c-3.75-.31-6.38-.65-7.91-1.01-1.53-.36-2.8-.9-3.81-1.62-1.01-.72-1.79-1.63-2.33-2.74s-.75-2.51-.6-4.21c.17-2.05.64-3.58,1.42-4.58.78-1,1.74-1.77,2.89-2.29,1.15-.52,2.34-.83,3.56-.93,1.81-.13,4.46-.06,7.95.23l16.64,1.38Z"/>
      <path class="cls-6" d="m542.19,351.41l-.16,4.27c-2.08-.11-3.66.13-4.75.72-1.09.6-1.75,1.55-1.99,2.85-.25,1.38-.01,2.5.71,3.35.72.85,1.65,1.38,2.79,1.58.73.13,1.38.09,1.94-.11.56-.2,1.1-.64,1.61-1.3.34-.46,1-1.52,1.96-3.19,1.24-2.15,2.54-3.58,3.92-4.29,1.93-1,4.11-1.28,6.55-.84,1.57.28,2.98.85,4.24,1.71,1.26.86,2.14,1.93,2.65,3.21.51,1.28.61,2.74.32,4.37-.48,2.66-1.69,4.52-3.62,5.56-1.94,1.04-4.33,1.34-7.17.9l.5-4.33c1.62.1,2.83-.09,3.63-.57s1.31-1.32,1.53-2.53c.22-1.25.03-2.29-.59-3.12-.39-.54-.99-.88-1.79-1.02-.73-.13-1.39-.03-1.99.3-.76.42-1.68,1.61-2.77,3.57s-2.11,3.37-3.05,4.23c-.94.86-2.13,1.46-3.55,1.78-1.43.33-3.11.32-5.06-.03-1.77-.32-3.36-.95-4.78-1.9-1.42-.95-2.39-2.11-2.92-3.48-.53-1.37-.63-2.98-.3-4.82.48-2.68,1.75-4.58,3.81-5.7,2.06-1.11,4.84-1.5,8.33-1.16Z"/>
      <path class="cls-6" d="m522.88,389.7l1.28-4.56,7.36.11,2.32-8.3-6.37-3.63,1.25-4.45,27.88,16.53-1.24,4.43-32.48-.13Zm14.09-4.38l11.99.27-10.4-5.94-1.59,5.67Z"/>
      <path class="cls-6" d="m521.85,392.45l29.17,11.39-1.54,3.95-22.69.61,19.48,7.61-1.47,3.77-29.17-11.39,1.59-4.07,22.18-.67-19.02-7.43,1.47-3.77Z"/>
      <path class="cls-6" d="m511.28,417.45l23.26,11.64,2.86-5.72,4.74,2.37-7.67,15.32-4.74-2.37,2.86-5.71-23.26-11.64,1.95-3.89Z"/>
      <path class="cls-6" d="m495.78,444.77l2.46-4.05,7.06,2.08,4.47-7.37-5.16-5.21,2.4-3.95,22.41,23.43-2.39,3.93-31.24-8.87Zm14.75-.42l11.47,3.49-8.42-8.52-3.05,5.03Z"/>
      <path class="cls-6" d="m494.08,447.11l25.05,18.79-5.5,7.33c-1.38,1.84-2.61,3.01-3.69,3.51-1.08.5-2.38.57-3.91.21-1.53-.36-3.03-1.1-4.51-2.21-1.88-1.41-3.15-2.96-3.8-4.63-.65-1.68-.57-3.4.24-5.15-1.2.27-2.37.37-3.5.29-1.13-.08-2.98-.44-5.55-1.07l-6.47-1.56,3.12-4.17,7.34,1.57c2.62.57,4.3.88,5.06.93.75.05,1.36-.04,1.83-.27.46-.23,1-.74,1.6-1.54l.53-.71-10.46-7.84,2.61-3.48Zm11.84,14.33l-1.93,2.58c-1.25,1.67-1.93,2.79-2.04,3.36-.11.57,0,1.16.33,1.77.33.61.86,1.2,1.62,1.76.84.63,1.64.99,2.39,1.07.75.08,1.41-.11,1.97-.58.27-.24.93-1.07,1.99-2.48l2.04-2.72-6.36-4.77Z"/>
      <path class="cls-6" d="m467.37,479.16l3.2-3.49,6.52,3.41,5.82-6.36-4.05-6.11,3.12-3.41,17.43,27.33-3.11,3.4-28.93-14.77Zm14.55,2.45l10.58,5.65-6.61-9.99-3.97,4.34Z"/>
    </g>
    <g>
      <path class="cls-6" d="m215.79,548.19l4.55,3.83c-2.01,2.58-4.25,4.2-6.7,4.84-2.45.64-5.12.37-7.98-.82-3.55-1.47-5.96-3.89-7.25-7.27s-1.05-7.16.7-11.37c1.85-4.45,4.43-7.43,7.75-8.94,3.32-1.51,6.85-1.49,10.59.07,3.27,1.36,5.53,3.42,6.77,6.2.74,1.65.97,3.67.69,6.06l-5.87-.94c.26-1.52.05-2.88-.62-4.1-.67-1.22-1.72-2.12-3.16-2.72-1.98-.82-3.88-.78-5.71.13-1.82.91-3.4,2.96-4.72,6.14-1.4,3.38-1.79,6.04-1.17,7.98s1.9,3.31,3.85,4.12c1.43.59,2.86.65,4.27.17,1.41-.48,2.75-1.61,4.01-3.38Z"/>
      <path class="cls-6" d="m229.55,564.43l7.99-27.82,5.62,1.61-7.99,27.82-5.62-1.61Z"/>
      <path class="cls-6" d="m274.95,574.61l-6.24-1.2-1.23-6.93-11.36-2.19-3.59,6-6.09-1.17,16.56-26.28,6.07,1.17,5.89,30.61Zm-8.39-13.28l-1.88-11.3-5.87,9.8,7.75,1.5Z"/>
      <path class="cls-6" d="m287.53,574.96l.94-28.93,5.68.18,11.21,19.7.63-19.32,5.43.18-.94,28.93-5.86-.19-11.05-19.24-.61,18.86-5.43-.18Z"/>
      <path class="cls-6" d="m332.98,545.11l5.79-.61,1.91,18.22c.25,2.38.23,4.24-.05,5.56-.39,1.73-1.27,3.19-2.64,4.36-1.37,1.17-3.27,1.88-5.69,2.13-2.84.3-5.11-.27-6.81-1.7-1.7-1.43-2.71-3.68-3.05-6.76l5.41-1.2c.24,1.64.6,2.78,1.09,3.42.74.97,1.75,1.39,3.03,1.25,1.3-.14,2.17-.6,2.63-1.4.46-.8.57-2.36.32-4.69l-1.95-18.59Z"/>
      <path class="cls-6" d="m351.01,541.93l5.71-1.25,3.35,15.31c.53,2.43.95,3.99,1.24,4.68.5,1.1,1.28,1.91,2.35,2.41s2.41.57,4,.23c1.62-.35,2.77-.95,3.45-1.79.68-.84,1-1.76.95-2.76-.04-1-.31-2.62-.8-4.86l-3.42-15.64,5.71-1.25,3.25,14.85c.74,3.39,1.11,5.83,1.11,7.3,0,1.47-.31,2.78-.93,3.92s-1.56,2.16-2.82,3.03c-1.26.88-3.01,1.56-5.25,2.05-2.7.59-4.82.73-6.35.41-1.53-.32-2.81-.89-3.84-1.71-1.03-.82-1.79-1.75-2.29-2.78-.73-1.54-1.44-3.89-2.13-7.05l-3.3-15.08Z"/>
      <path class="cls-6" d="m394.11,559.68l-11.11-26.72,11.36-4.72c2.86-1.19,5.03-1.81,6.52-1.87,1.49-.06,2.88.37,4.17,1.27,1.29.9,2.26,2.15,2.92,3.73.83,2,.93,3.91.3,5.7-.64,1.8-2.06,3.35-4.26,4.67,1.45.2,2.72.54,3.82,1.04,1.1.5,2.72,1.52,4.87,3.06l5.43,3.86-6.45,2.68-6.32-4.19c-2.25-1.5-3.74-2.42-4.48-2.75-.74-.33-1.43-.48-2.08-.44-.65.04-1.6.31-2.84.83l-1.09.45,4.64,11.16-5.4,2.24Zm-1.01-17.67l3.99-1.66c2.59-1.08,4.16-1.86,4.71-2.34.55-.49.9-1.07,1.04-1.76s.05-1.43-.29-2.23c-.37-.9-.92-1.53-1.63-1.88s-1.53-.42-2.47-.2c-.46.12-1.79.64-3.98,1.55l-4.21,1.75,2.82,6.78Z"/>
    </g>
    <g>
      <path class="cls-6" d="m211.95,456.43l3.72,1.72c-.48,1.31-.56,2.42-.24,3.36s1.04,1.72,2.13,2.37c1.17.68,2.19.95,3.07.8s1.51-.55,1.9-1.21c.25-.42.33-.86.26-1.3-.07-.44-.36-.96-.85-1.54-.34-.39-1.15-1.22-2.44-2.48-1.66-1.62-2.67-3-3.04-4.16-.52-1.63-.37-3.15.46-4.57.54-.91,1.29-1.62,2.28-2.11s2.08-.66,3.3-.5,2.51.63,3.89,1.44c2.25,1.32,3.65,2.8,4.21,4.45.56,1.65.38,3.32-.52,5l-3.71-1.96c.38-1.01.44-1.87.17-2.57-.27-.7-.92-1.35-1.94-1.95-1.05-.62-2-.88-2.85-.8-.55.05-.95.31-1.23.78-.25.42-.28.89-.1,1.4.23.65,1.11,1.7,2.62,3.14,1.52,1.45,2.57,2.64,3.15,3.58.58.94.89,1.93.91,2.98.03,1.05-.29,2.14-.96,3.27-.6,1.03-1.45,1.82-2.54,2.38-1.09.56-2.29.76-3.59.58-1.3-.18-2.72-.72-4.28-1.63-2.26-1.33-3.7-2.87-4.3-4.63-.6-1.76-.43-3.71.5-5.85Z"/>
      <path class="cls-6" d="m253.05,483.49l4.82-16.56-5.92-1.72.98-3.37,15.84,4.61-.98,3.37-5.9-1.72-4.82,16.56-4.02-1.17Z"/>
      <path class="cls-6" d="m289.19,490.73l1.35-20.72,4.18.27-1.35,20.72-4.18-.27Z"/>
      <path class="cls-6" d="m319,484.59l3.98-.96c.43,1.32,1.07,2.25,1.9,2.78.83.53,1.88.71,3.14.53,1.34-.19,2.3-.61,2.9-1.27.6-.66.84-1.37.74-2.13-.07-.49-.27-.88-.6-1.18-.33-.3-.87-.53-1.62-.68-.51-.1-1.66-.24-3.45-.43-2.3-.24-3.96-.7-4.97-1.37-1.42-.95-2.25-2.24-2.48-3.87-.15-1.05.01-2.07.48-3.06.47-1,1.22-1.81,2.27-2.44,1.05-.63,2.37-1.06,3.95-1.28,2.58-.36,4.6-.07,6.07.88,1.46.95,2.36,2.36,2.69,4.24l-4.13.77c-.33-1.03-.81-1.74-1.46-2.12-.65-.38-1.56-.49-2.73-.32-1.21.17-2.12.55-2.73,1.14-.39.38-.55.84-.48,1.37.07.49.33.87.79,1.16.58.37,1.92.65,4.01.84,2.09.19,3.65.48,4.69.85,1.04.37,1.9.96,2.57,1.77.67.81,1.1,1.86,1.28,3.16.17,1.18,0,2.33-.52,3.45-.51,1.12-1.33,2.01-2.45,2.68-1.13.67-2.58,1.13-4.37,1.38-2.6.37-4.68.05-6.24-.96-1.56-1.01-2.64-2.64-3.24-4.9Z"/>
      <path class="cls-6" d="m362.32,482.04l-6.27-19.79,4-1.27,6.27,19.79-4,1.27Z"/>
      <path class="cls-6" d="m391.78,469.81l-11-17.61,5.71-3.56c2.16-1.35,3.63-2.14,4.39-2.38,1.17-.37,2.38-.32,3.61.14s2.29,1.39,3.16,2.79c.68,1.08,1.05,2.11,1.11,3.09.07.98-.07,1.87-.41,2.67s-.78,1.46-1.32,1.99c-.74.7-1.92,1.55-3.53,2.56l-2.32,1.45,4.15,6.64-3.55,2.22Zm-5.58-16.85l3.12,5,1.95-1.22c1.4-.88,2.28-1.55,2.64-2.03.36-.48.55-1,.57-1.56s-.13-1.1-.45-1.62c-.4-.64-.92-1.05-1.55-1.23-.64-.18-1.28-.14-1.92.11-.47.19-1.35.68-2.63,1.48l-1.72,1.07Z"/>
    </g>
  </g>
</svg>