<?xml version="1.0" encoding="utf-8"?>
<!-- Generator: Adobe Illustrator 28.0.0, SVG Export Plug-In . SVG Version: 6.00 Build 0)  -->
<svg version="1.1" id="Layer_1" xmlns="http://www.w3.org/2000/svg" xmlns:xlink="http://www.w3.org/1999/xlink" x="0px" y="0px"
	 viewBox="0 0 111.98 33.27" style="enable-background:new 0 0 111.98 33.27;" xml:space="preserve">
<style type="text/css">
	.st0{fill:#FFFFFF;}
</style>
<g>
	<path class="st0" d="M43.88,12.22c-0.27,0.23-0.67,0.34-1.21,0.34c-0.51,0-0.91-0.13-1.2-0.38c-0.29-0.26-0.49-0.65-0.59-1.19
		l-1.62,0.16c0.11,0.92,0.44,1.62,1,2.1s1.35,0.72,2.4,0.72c0.71,0,1.31-0.1,1.79-0.3c0.48-0.2,0.85-0.51,1.11-0.91
		c0.26-0.41,0.39-0.85,0.39-1.32c0-0.52-0.11-0.95-0.33-1.31S45.1,9.5,44.71,9.29c-0.39-0.2-0.98-0.4-1.79-0.59
		c-0.81-0.19-1.32-0.37-1.53-0.55c-0.17-0.14-0.25-0.3-0.25-0.5c0-0.21,0.09-0.39,0.26-0.51c0.27-0.2,0.65-0.29,1.13-0.29
		c0.47,0,0.82,0.09,1.05,0.28c0.23,0.18,0.39,0.49,0.45,0.91l1.66-0.08c-0.02-0.76-0.3-1.36-0.82-1.81s-1.3-0.68-2.33-0.68
		c-0.63,0-1.17,0.1-1.62,0.29s-0.79,0.47-1.03,0.83c-0.23,0.36-0.36,0.76-0.36,1.17c0,0.65,0.25,1.2,0.76,1.66
		c0.36,0.33,0.98,0.59,1.87,0.82c0.69,0.17,1.13,0.29,1.33,0.36c0.29,0.1,0.48,0.22,0.6,0.36c0.11,0.14,0.17,0.3,0.17,0.5
		C44.29,11.72,44.15,11.99,43.88,12.22z"/>
	<polygon class="st0" points="49.19,13.81 50.86,13.81 50.86,6.98 53.28,6.98 53.28,5.59 46.75,5.59 46.75,6.98 49.19,6.98 	"/>
	<rect x="54.3" y="5.59" class="st0" width="1.66" height="8.22"/>
	<path class="st0" d="M63.81,11.41c0-0.52-0.11-0.95-0.33-1.31s-0.52-0.63-0.91-0.84c-0.39-0.2-0.98-0.4-1.79-0.59
		c-0.81-0.19-1.32-0.37-1.53-0.55C59.08,7.98,59,7.82,59,7.62c0-0.21,0.09-0.39,0.26-0.51c0.27-0.2,0.65-0.29,1.13-0.29
		c0.47,0,0.82,0.09,1.05,0.28c0.23,0.18,0.39,0.49,0.45,0.91l1.66-0.08c-0.02-0.76-0.3-1.36-0.82-1.81
		c-0.52-0.45-1.3-0.68-2.33-0.68c-0.63,0-1.17,0.1-1.62,0.29c-0.45,0.19-0.79,0.47-1.03,0.83c-0.23,0.36-0.36,0.76-0.36,1.17
		c0,0.65,0.25,1.2,0.76,1.66c0.36,0.33,0.98,0.59,1.87,0.82c0.69,0.17,1.13,0.29,1.33,0.36c0.29,0.1,0.48,0.22,0.6,0.36
		c0.11,0.14,0.17,0.3,0.17,0.5c0,0.3-0.14,0.57-0.41,0.79s-0.67,0.34-1.21,0.34c-0.51,0-0.91-0.13-1.2-0.38
		c-0.29-0.26-0.49-0.65-0.59-1.19l-1.62,0.16c0.11,0.92,0.44,1.62,1,2.1s1.35,0.72,2.4,0.72c0.71,0,1.31-0.1,1.79-0.3
		c0.48-0.2,0.85-0.51,1.11-0.91S63.81,11.88,63.81,11.41z"/>
	<rect x="65.16" y="5.59" class="st0" width="1.66" height="8.22"/>
	<path class="st0" d="M70.06,10.71h1.08c0.75,0,1.32-0.04,1.72-0.12c0.29-0.06,0.58-0.2,0.86-0.39c0.28-0.2,0.51-0.47,0.7-0.81
		c0.18-0.34,0.27-0.77,0.27-1.27c0-0.66-0.16-1.19-0.48-1.6c-0.32-0.42-0.71-0.68-1.19-0.8c-0.3-0.08-0.96-0.12-1.97-0.12h-2.66
		v8.22h1.66L70.06,10.71L70.06,10.71z M70.06,6.98h0.8c0.6,0,1,0.02,1.19,0.05c0.27,0.05,0.49,0.17,0.67,0.36
		c0.17,0.2,0.26,0.44,0.26,0.74c0,0.24-0.06,0.45-0.19,0.64c-0.13,0.18-0.29,0.32-0.52,0.4c-0.22,0.08-0.66,0.13-1.32,0.13h-0.91
		L70.06,6.98L70.06,6.98z"/>
	<path class="st0" d="M82.92,13.95c0.67,0,1.35-0.13,2-0.39c0.66-0.26,1.16-0.55,1.51-0.89V9.4h-3.58v1.38h1.9v1.04
		c-0.25,0.2-0.55,0.36-0.9,0.5s-0.7,0.2-1.04,0.2c-0.7,0-1.27-0.24-1.7-0.73s-0.65-1.22-0.65-2.19c0-0.91,0.21-1.59,0.64-2.05
		s1.01-0.69,1.73-0.69c0.48,0,0.88,0.11,1.19,0.35c0.32,0.23,0.54,0.55,0.65,0.95l1.65-0.31c-0.17-0.76-0.54-1.35-1.1-1.78
		c-0.57-0.43-1.37-0.64-2.39-0.64c-0.79,0-1.44,0.14-1.97,0.41c-0.69,0.36-1.22,0.86-1.57,1.53c-0.36,0.67-0.54,1.43-0.54,2.28
		c0,0.79,0.16,1.52,0.48,2.19c0.33,0.67,0.8,1.19,1.44,1.55C81.31,13.77,82.06,13.95,82.92,13.95z"/>
	<path class="st0" d="M92.86,10.14c0,0.65-0.02,1.12-0.08,1.4c-0.05,0.28-0.19,0.51-0.43,0.71c-0.24,0.19-0.6,0.29-1.07,0.29
		c-0.46,0-0.83-0.1-1.1-0.3c-0.26-0.2-0.44-0.48-0.51-0.81c-0.04-0.21-0.06-0.67-0.06-1.38V5.6h-1.66v4.38
		c0,0.92,0.05,1.62,0.17,2.09c0.08,0.32,0.23,0.62,0.47,0.91c0.23,0.29,0.56,0.52,0.96,0.7c0.41,0.18,1,0.27,1.78,0.27
		c0.65,0,1.18-0.08,1.58-0.25s0.73-0.39,0.97-0.67s0.41-0.63,0.5-1.03c0.09-0.41,0.14-1.1,0.14-2.09V5.59h-1.66
		C92.86,5.59,92.86,10.14,92.86,10.14z"/>
	<polygon class="st0" points="97.82,8.45 101.13,13.81 102.81,13.81 102.81,5.59 101.26,5.59 101.26,11.08 97.9,5.59 96.28,5.59 
		96.28,13.81 97.82,13.81 	"/>
	<path class="st0" d="M106.16,11.94h3.29l0.72,1.87h1.81l-3.3-8.22h-1.75l-3.21,8.22h1.76L106.16,11.94z M107.78,7.51l1.13,3.05
		h-2.25L107.78,7.51z"/>
	<polygon class="st0" points="44.68,24.86 41.32,19.37 39.7,19.37 39.7,27.59 41.24,27.59 41.24,22.23 44.56,27.59 46.22,27.59 
		46.22,19.37 44.68,19.37 	"/>
	<path class="st0" d="M52.86,23.92c0,0.65-0.02,1.12-0.08,1.4c-0.05,0.28-0.19,0.51-0.43,0.71c-0.24,0.19-0.6,0.29-1.07,0.29
		c-0.46,0-0.83-0.1-1.1-0.3c-0.26-0.2-0.44-0.48-0.51-0.81c-0.04-0.21-0.06-0.67-0.06-1.38v-4.45h-1.66v4.38
		c0,0.92,0.05,1.62,0.17,2.09c0.08,0.32,0.23,0.62,0.47,0.91c0.23,0.29,0.56,0.52,0.96,0.7c0.41,0.18,1,0.27,1.78,0.27
		c0.65,0,1.18-0.08,1.58-0.25s0.73-0.39,0.97-0.67c0.24-0.28,0.41-0.63,0.5-1.03c0.09-0.41,0.14-1.1,0.14-2.09v-4.32h-1.66
		C52.86,19.37,52.86,23.92,52.86,23.92z"/>
	<path class="st0" d="M61.3,23.05c-0.39-0.2-0.98-0.4-1.79-0.59s-1.32-0.37-1.53-0.55c-0.17-0.14-0.25-0.3-0.25-0.5
		c0-0.21,0.09-0.39,0.26-0.51c0.27-0.2,0.65-0.29,1.13-0.29c0.47,0,0.82,0.09,1.05,0.28c0.23,0.18,0.39,0.49,0.45,0.91l1.66-0.08
		c-0.02-0.76-0.3-1.36-0.82-1.81c-0.52-0.45-1.3-0.68-2.33-0.68c-0.63,0-1.17,0.1-1.62,0.29c-0.45,0.19-0.79,0.47-1.03,0.83
		c-0.23,0.36-0.36,0.76-0.36,1.17c0,0.65,0.25,1.2,0.76,1.66c0.36,0.33,0.98,0.59,1.87,0.82c0.69,0.17,1.13,0.29,1.33,0.36
		c0.29,0.1,0.48,0.22,0.6,0.36c0.11,0.14,0.17,0.3,0.17,0.5c0,0.3-0.14,0.57-0.41,0.79s-0.67,0.34-1.21,0.34
		c-0.51,0-0.91-0.13-1.2-0.38c-0.29-0.26-0.49-0.65-0.59-1.19l-1.62,0.16c0.11,0.92,0.44,1.62,1,2.1s1.35,0.72,2.4,0.72
		c0.71,0,1.31-0.1,1.79-0.3s0.85-0.51,1.11-0.91c0.26-0.41,0.39-0.85,0.39-1.32c0-0.52-0.11-0.95-0.33-1.31
		C61.98,23.53,61.68,23.25,61.3,23.05z"/>
	<path class="st0" d="M66.29,19.37l-3.2,8.22h1.76l0.68-1.87h3.29l0.72,1.87h1.81l-3.29-8.22L66.29,19.37L66.29,19.37z M66.04,24.34
		l1.11-3.05l1.13,3.05H66.04z"/>
	<polygon class="st0" points="77.22,24.86 73.85,19.37 72.24,19.37 72.24,27.59 73.78,27.59 73.78,22.23 77.1,27.59 78.76,27.59 
		78.76,19.37 77.22,19.37 	"/>
	<polygon class="st0" points="86.45,19.37 79.92,19.37 79.92,20.76 82.36,20.76 82.36,27.59 84.03,27.59 84.03,20.76 86.45,20.76 	
		"/>
	<path class="st0" d="M89.04,19.37l-3.21,8.22h1.76l0.68-1.87h3.29l0.72,1.87h1.81l-3.29-8.22C90.8,19.37,89.04,19.37,89.04,19.37z
		 M88.79,24.34l1.11-3.05l1.13,3.05H88.79z"/>
	<path class="st0" d="M100.42,24.65c-0.23-0.25-0.53-0.48-0.89-0.69c0.72-0.11,1.26-0.36,1.63-0.76c0.36-0.4,0.54-0.91,0.54-1.53
		c0-0.48-0.12-0.91-0.36-1.29s-0.56-0.64-0.95-0.79c-0.4-0.15-1.04-0.22-1.91-0.22h-3.49v8.22h1.66v-3.43h0.34
		c0.38,0,0.66,0.03,0.84,0.09c0.17,0.06,0.34,0.17,0.5,0.34s0.45,0.57,0.88,1.21l1.2,1.79h1.99l-1.01-1.6
		C100.97,25.35,100.65,24.9,100.42,24.65z M97.86,22.84h-1.22v-2.09h1.29c0.67,0,1.07,0.01,1.21,0.03c0.27,0.05,0.48,0.15,0.63,0.33
		s0.22,0.39,0.22,0.67c0,0.25-0.05,0.45-0.17,0.62c-0.11,0.17-0.26,0.28-0.47,0.35S98.66,22.84,97.86,22.84z"/>
	<path class="st0" d="M105.63,19.37l-3.21,8.22h1.76l0.68-1.87h3.29l0.72,1.87h1.81l-3.29-8.22
		C107.39,19.37,105.63,19.37,105.63,19.37z M105.38,24.34l1.11-3.05l1.13,3.05H105.38z"/>
	<path class="st0" d="M10.15,19.66c0.14,0.08,0.19,0.25,0.17,0.38c-0.01,0.04-0.04,0.14-0.11,0.14c-0.32,0.04-0.43-0.07-0.57-0.19
		s-0.29-0.25-0.6-0.29c-0.03-0.01-0.07,0.02-0.08,0.05c-0.03,0.02-0.03,0.06-0.01,0.09c0,0,0.2,0.24,0.3,0.63
		c0.13,0.48,0.75,0.67,1.27,0.6c0.26-0.03,0.51-0.11,0.73-0.17c0.37-0.11,0.58-0.17,0.67-0.04c0.06,0.11,0.08,0.2,0.06,0.29
		c-0.03,0.11-0.13,0.22-0.29,0.31c-0.11,0.06-0.18,0.08-0.23,0.06s-0.08-0.1-0.1-0.23c-0.02-0.08-0.08-0.14-0.17-0.17
		c-0.17-0.05-0.44,0.06-0.57,0.23c-0.12,0.15-0.14,0.34-0.05,0.52c0.2,0.39,0.94,0.6,1.51,0.6c0.2,0,0.38-0.02,0.51-0.08
		c0.08-0.02,0.63-0.17,1.25-1.24c0.26-0.44,0.63-0.72,1.04-0.78c0.36-0.05,0.71,0.05,0.98,0.29c0.03,0.03,0.08,0.03,0.11,0
		c0.03-0.02,0.04-0.07,0.02-0.11c0-0.01-0.31-0.56-0.11-1.33c0.16-0.63,0.12-1.22-0.12-1.6c-0.13-0.2-0.31-0.33-0.51-0.38
		c-0.26-0.05-0.49,0.02-0.73,0.09c-0.39,0.11-0.78,0.23-1.38-0.09c-0.19-0.11-0.31-0.32-0.33-0.6c-0.02-0.29,0.08-0.58,0.26-0.72
		c0.14-0.11,0.4-0.19,0.6-0.14c0.12,0.03,0.21,0.11,0.28,0.21c-0.23,0.06-0.52,0.23-0.54,0.64c-0.01,0.22,0.16,0.39,0.43,0.42
		c0.45,0.07,1.02-0.18,1.18-0.72c0.31-1.03-0.54-1.41-1.35-1.78c-0.18-0.08-0.38-0.17-0.55-0.26c-0.68-0.36-0.85-0.83-0.86-2.37
		c-0.01-0.88-0.49-1.66-1.19-1.87c-0.67-0.2-1.35,0-1.38,0.01c-0.04,0.02-0.07,0.05-0.06,0.09s0.04,0.07,0.08,0.07
		c0.01,0,0.48-0.02,0.76,0.29c0.17,0.18,0.23,0.45,0.19,0.78c-0.05,0.39-0.13,0.7-0.2,0.98c-0.12,0.47-0.23,0.91-0.21,1.67
		c0.01,0.2,0.03,0.39,0.08,0.57c-0.29-0.1-0.62-0.27-0.97-0.65c-0.1-0.11-0.17-0.2-0.24-0.29c-0.27-0.36-0.45-0.59-1.24-0.42
		c-0.05,0.01-0.07,0.05-0.07,0.09c0.01,0.05,0.04,0.08,0.08,0.08c0,0,0.23,0.01,0.39,0.19c0.15,0.17,0.2,0.42,0.17,0.77l-0.02,0.14
		c-0.1,0.94-0.14,1.42,0.7,2.08c0.51,0.4,0.68,0.7,0.77,0.96c-0.02,0-0.05,0.01-0.07,0.01c-0.57,0.04-0.9-0.17-1.19-0.74
		c-0.47-0.92-1.12-0.66-1.36-0.56c-0.03,0.02-0.05,0.05-0.05,0.08c0,0.04,0.02,0.07,0.05,0.08c0.01,0,0.5,0.19,0.54,0.59
		c0.03,0.27,0.05,0.5,0.07,0.7c0.06,0.74,0.08,1.05,0.57,1.44c0.23,0.17,0.45,0.21,0.7,0.26C9.45,19.4,9.75,19.45,10.15,19.66z"/>
	<path class="st0" d="M24.78,13.64c-0.07,0.09-0.14,0.19-0.24,0.29c-0.35,0.38-0.68,0.55-0.97,0.65c0.05-0.17,0.08-0.37,0.08-0.57
		c0.02-0.76-0.09-1.2-0.21-1.67c-0.08-0.29-0.15-0.59-0.2-0.98c-0.04-0.34,0.02-0.6,0.19-0.78c0.27-0.3,0.75-0.29,0.76-0.29
		c0.05,0,0.08-0.03,0.08-0.07c0.01-0.05-0.02-0.08-0.06-0.09c-0.03-0.01-0.71-0.21-1.38-0.01c-0.7,0.21-1.18,0.98-1.19,1.87
		c-0.01,1.53-0.18,2-0.86,2.37c-0.17,0.09-0.36,0.18-0.55,0.26c-0.82,0.37-1.66,0.75-1.35,1.78c0.16,0.54,0.73,0.79,1.18,0.72
		c0.27-0.05,0.44-0.2,0.43-0.42c-0.01-0.41-0.31-0.58-0.54-0.64c0.07-0.11,0.17-0.18,0.28-0.21c0.21-0.05,0.46,0.02,0.6,0.14
		c0.17,0.14,0.28,0.42,0.26,0.72c-0.02,0.27-0.14,0.49-0.33,0.6c-0.6,0.33-1,0.2-1.38,0.09c-0.24-0.08-0.48-0.14-0.73-0.09
		c-0.2,0.04-0.39,0.17-0.51,0.38c-0.24,0.38-0.28,0.96-0.12,1.6c0.2,0.77-0.11,1.32-0.11,1.33c-0.02,0.04-0.01,0.08,0.02,0.11
		c0.03,0.02,0.08,0.02,0.11,0c0.26-0.24,0.62-0.35,0.98-0.29c0.42,0.06,0.79,0.34,1.04,0.78c0.62,1.07,1.17,1.22,1.25,1.24
		c0.14,0.05,0.32,0.08,0.51,0.08c0.57,0,1.31-0.2,1.51-0.6c0.1-0.18,0.08-0.36-0.05-0.52c-0.14-0.17-0.4-0.28-0.57-0.23
		c-0.09,0.02-0.15,0.08-0.17,0.17c-0.02,0.13-0.05,0.2-0.1,0.23c-0.05,0.02-0.12,0-0.23-0.06c-0.17-0.09-0.26-0.2-0.29-0.31
		c-0.02-0.09-0.01-0.19,0.06-0.29c0.08-0.14,0.29-0.08,0.67,0.04c0.22,0.07,0.46,0.14,0.73,0.17c0.52,0.07,1.14-0.12,1.27-0.6
		c0.11-0.39,0.3-0.63,0.3-0.63c0.02-0.03,0.02-0.06,0.01-0.09c-0.02-0.03-0.05-0.05-0.08-0.05c-0.33,0.04-0.48,0.17-0.6,0.29
		c-0.14,0.13-0.26,0.23-0.57,0.19c-0.08-0.01-0.11-0.11-0.11-0.14c-0.02-0.13,0.02-0.3,0.17-0.38c0.4-0.21,0.7-0.26,0.96-0.32
		c0.26-0.05,0.48-0.08,0.7-0.26c0.49-0.39,0.51-0.69,0.57-1.44c0.02-0.2,0.04-0.42,0.07-0.7c0.05-0.4,0.54-0.59,0.54-0.59
		c0.03-0.02,0.05-0.05,0.05-0.08c0-0.04-0.02-0.07-0.05-0.08c-0.24-0.1-0.89-0.36-1.36,0.56c-0.29,0.57-0.61,0.78-1.19,0.74
		c-0.02,0-0.05,0-0.07-0.01c0.1-0.26,0.26-0.56,0.77-0.96c0.85-0.66,0.79-1.13,0.7-2.08l-0.02-0.14c-0.04-0.35,0.02-0.6,0.17-0.77
		c0.17-0.18,0.39-0.19,0.39-0.19c0.05,0,0.08-0.03,0.08-0.08s-0.02-0.08-0.07-0.09C25.23,13.05,25.05,13.28,24.78,13.64z"/>
	<polygon class="st0" points="25.25,28.48 25.09,28.01 25.09,28.01 24.93,28.48 24.43,28.49 24.83,28.79 24.68,29.28 25.09,28.99 
		25.5,29.28 25.35,28.79 25.74,28.49 	"/>
	<polygon class="st0" points="8.98,28.48 8.82,28.01 8.82,28.01 8.66,28.48 8.16,28.49 8.55,28.79 8.41,29.28 8.82,28.99 
		9.23,29.28 9.08,28.79 9.48,28.49 	"/>
	<path class="st0" d="M33.87,12.19c-0.02-0.03-1.99-2.9-7.52-7.02C21.4,1.49,17.01,0.01,16.96,0h-0.01h-0.01
		c-0.05,0.02-4.43,1.49-9.39,5.17c-5.53,4.11-7.5,6.99-7.52,7.02L0,12.23v0.05c0,0.04-0.04,3.63,1.94,9.85
		c2.06,6.48,4.6,9.75,4.62,9.78l0.03,0.04l0.05,0.02c2.44,0.85,7.14,1.3,10.32,1.3s7.88-0.45,10.31-1.29l0.05-0.02l0.03-0.04
		c0.02-0.03,2.57-3.3,4.62-9.78c1.97-6.22,1.94-9.81,1.94-9.85v-0.05L33.87,12.19z M31.65,22.03c-1.91,6.05-4.25,9.26-4.54,9.64
		c-2.41,0.82-7.02,1.26-10.15,1.26c-3.14,0-7.74-0.44-10.15-1.26c-0.29-0.38-2.62-3.6-4.54-9.64c-1.83-5.77-1.92-9.24-1.92-9.69
		c0.26-0.36,2.29-3.08,7.42-6.89c4.51-3.36,8.54-4.85,9.2-5.09c0.66,0.23,4.69,1.74,9.2,5.09c5.13,3.81,7.16,6.54,7.42,6.89
		C33.56,12.79,33.48,16.26,31.65,22.03z"/>
	<path class="st0" d="M16.95,5.85c-6.52,0-11.83,5.31-11.83,11.83s5.31,11.83,11.83,11.83s11.83-5.31,11.83-11.83
		S23.48,5.85,16.95,5.85z M16.95,29.18c-6.34,0-11.5-5.16-11.5-11.5s5.16-11.5,11.5-11.5s11.5,5.16,11.5,11.5
		S23.3,29.18,16.95,29.18z"/>
	<path class="st0" d="M15.34,7.97l0.76,0.55c0.03,0.02,0.05,0.07,0.04,0.11l-0.29,0.95l-0.06,0.2c-0.02,0.08,0.07,0.16,0.14,0.11
		l0.17-0.12l0.85-0.59l0,0l0,0l0.85,0.59l0.17,0.12c0.08,0.05,0.17-0.02,0.14-0.11l-0.06-0.2l-0.29-0.95
		c-0.02-0.04,0-0.08,0.04-0.11l0.76-0.55l0.17-0.13c0.08-0.05,0.04-0.17-0.05-0.17h-0.22l-0.95-0.02c-0.04,0-0.08-0.02-0.09-0.07
		l-0.31-0.92l-0.07-0.2c-0.03-0.08-0.15-0.08-0.18,0l-0.07,0.2l-0.31,0.92c-0.02,0.04-0.05,0.07-0.09,0.07l-0.95,0.02h-0.22
		c-0.09,0-0.13,0.12-0.05,0.17L15.34,7.97z"/>
	<path class="st0" d="M14.69,21.44l-0.02,0.17c0.26-0.02,1.16-0.02,2.04,0.47v-0.19C15.83,21.43,14.99,21.42,14.69,21.44z"/>
	<path class="st0" d="M14.66,21.71l-0.02,0.17c0.21-0.01,1.15-0.01,2.06,0.52v-0.19C15.81,21.72,14.92,21.7,14.66,21.71z"/>
	<path class="st0" d="M14.63,22l-0.02,0.17c0.11-0.01,1.13-0.02,2.09,0.57v-0.2C15.77,22,14.83,22,14.63,22z"/>
	<path class="st0" d="M14.59,22.44c0.06,0,1.13,0.01,2.12,0.68v-0.2c-0.95-0.61-1.94-0.64-2.1-0.64L14.59,22.44z"/>
	<path class="st0" d="M14.56,22.76c0.09,0,1.17,0.02,2.15,0.73v-0.2c-0.96-0.65-1.96-0.69-2.13-0.69L14.56,22.76z"/>
	<path class="st0" d="M14.54,22.93l-0.02,0.17c0.08,0,1.19,0.03,2.18,0.77v-0.2c-0.48-0.34-0.99-0.53-1.39-0.63
		C14.92,22.95,14.62,22.93,14.54,22.93z"/>
	<path class="st0" d="M14.49,23.49c0.23,0.01,1.28,0.08,2.2,0.8l0.01,0.01v-0.2c-0.93-0.68-1.94-0.76-2.19-0.77L14.49,23.49z"/>
	<path class="st0" d="M12.58,9.74l0.43,0.32c0.02,0.02,0.03,0.04,0.02,0.06l-0.17,0.54l-0.09,0.31c-0.02,0.05,0.04,0.09,0.08,0.06
		l0.26-0.19l0.48-0.34l0,0l0.48,0.34l0.26,0.19c0.05,0.03,0.1-0.01,0.08-0.06l-0.09-0.31l-0.17-0.54c-0.01-0.02,0-0.05,0.02-0.06
		l0.43-0.32l0.27-0.2c0.05-0.03,0.02-0.1-0.03-0.1l-0.31-0.01l-0.54-0.01c-0.02,0-0.05-0.02-0.05-0.04l-0.17-0.53l-0.11-0.32
		c-0.02-0.05-0.09-0.05-0.11,0l-0.11,0.32l-0.17,0.53c-0.01,0.02-0.03,0.04-0.05,0.04l-0.54,0.01l-0.34,0.01
		c-0.05,0-0.08,0.07-0.03,0.1L12.58,9.74z"/>
	<path class="st0" d="M19.24,21.6l-0.02-0.17c-0.3-0.02-1.15,0-2.03,0.45v0.19C18.08,21.6,18.97,21.59,19.24,21.6z"/>
	<path class="st0" d="M17.2,22.21v0.19c0.91-0.53,1.85-0.53,2.06-0.52l-0.02-0.17C18.99,21.7,18.09,21.72,17.2,22.21z"/>
	<path class="st0" d="M17.2,22.55v0.2c0.97-0.59,1.98-0.57,2.09-0.57l-0.02-0.17C19.08,22,18.14,22,17.2,22.55z"/>
	<path class="st0" d="M17.2,23.12c0.98-0.67,2.05-0.68,2.12-0.68l-0.02-0.17c-0.17,0-1.15,0.03-2.1,0.64V23.12z"/>
	<path class="st0" d="M17.2,23.49c0.98-0.7,2.06-0.73,2.15-0.73l-0.02-0.17c-0.17,0-1.17,0.05-2.13,0.69V23.49z"/>
	<path class="st0" d="M17.2,23.67v0.2c0.98-0.74,2.09-0.77,2.18-0.77l-0.02-0.17c-0.08,0-0.38,0.02-0.77,0.11
		C18.19,23.14,17.69,23.32,17.2,23.67z"/>
	<path class="st0" d="M17.21,24.3L17.21,24.3c0.93-0.73,1.99-0.8,2.21-0.81l-0.02-0.17c-0.26,0.01-1.26,0.09-2.19,0.77V24.3z"/>
	<path class="st0" d="M24.18,24.58l0.13-1.38c0.01-0.04-0.02-0.08-0.05-0.08c-0.04-0.02-0.08,0-0.1,0.04
		c-0.36,0.58-1.04,1.16-1.24,1.32l-0.68-0.67c-0.03-0.03-0.08-0.03-0.11-0.01c-1.88,1.58-4.1,1.83-5.18,1.83
		c-1.07-0.01-3.3-0.24-5.17-1.84c-0.03-0.03-0.08-0.02-0.11,0.01l-0.68,0.67c-0.2-0.17-0.88-0.74-1.24-1.32
		c-0.02-0.03-0.06-0.05-0.1-0.04c-0.04,0.02-0.06,0.05-0.05,0.08l0.13,1.38l-0.98-0.08c-0.03,0-0.06,0.02-0.08,0.05
		c-0.02,0.03-0.02,0.06,0.01,0.09c0.01,0.02,1.02,1.37,2.79,2.36C11.49,27,11.5,27,11.51,27c0.02,0,0.05-0.02,0.07-0.04l0.39-0.55
		c0.11,0.06,0.23,0.13,0.36,0.19c1.05,0.53,2.66,1.13,4.6,1.13h0.02h0.02c1.94,0,3.55-0.6,4.6-1.13c0.13-0.06,0.25-0.13,0.36-0.19
		l0.39,0.55c0.02,0.02,0.05,0.04,0.07,0.04s0.03,0,0.04-0.01c1.77-0.99,2.78-2.34,2.79-2.36c0.02-0.02,0.02-0.06,0.01-0.09
		c-0.02-0.03-0.05-0.05-0.08-0.05L24.18,24.58z M8.93,24.69l0.88,0.07c0.02,0,0.05-0.01,0.07-0.02c0.02-0.02,0.02-0.05,0.02-0.07
		l-0.11-1.16c0.37,0.49,0.88,0.93,1.08,1.08l-0.58,0.57c-0.03,0.03-0.04,0.08-0.02,0.11c0.11,0.17,0.4,0.63,0.5,0.79
		c0.08,0.13,0.26,0.38,0.42,0.58C10,25.9,9.21,25.03,8.93,24.69z M11.54,26.74c-0.02,0.02-0.05,0.02-0.08,0
		c-0.16-0.21-0.45-0.6-0.55-0.76c-0.05-0.08-0.15-0.24-0.24-0.39c0.26,0.2,0.65,0.48,1.16,0.76L11.54,26.74z M16.95,27.57
		c-3.43,0.01-5.9-1.88-6.43-2.33c-0.02-0.02-0.02-0.05,0-0.08L11.7,24c0.02-0.02,0.05-0.02,0.08,0c1.89,1.55,4.1,1.78,5.18,1.79
		c1.08-0.01,3.29-0.24,5.18-1.79c0.02-0.02,0.06-0.02,0.08,0l1.18,1.16c0.02,0.02,0.02,0.05,0,0.08
		C22.86,25.69,20.39,27.58,16.95,27.57z M22.44,26.74c-0.02,0.02-0.05,0.02-0.08,0l-0.28-0.39c0.5-0.29,0.89-0.56,1.16-0.76
		c-0.09,0.15-0.19,0.31-0.24,0.39C22.89,26.13,22.59,26.53,22.44,26.74z M22.71,26.64c0.15-0.2,0.33-0.45,0.42-0.58
		c0.1-0.15,0.39-0.61,0.5-0.79c0.02-0.04,0.02-0.08-0.02-0.11l-0.58-0.57c0.19-0.16,0.7-0.59,1.08-1.08L24,24.67
		c0,0.02,0.01,0.05,0.02,0.07c0.02,0.02,0.04,0.03,0.07,0.02l0.88-0.07C24.69,25.03,23.91,25.9,22.71,26.64z"/>
	<path class="st0" d="M19.27,9.74l0.43,0.32c0.02,0.02,0.03,0.04,0.02,0.06l-0.17,0.54l-0.09,0.31c-0.02,0.05,0.04,0.09,0.08,0.06
		l0.26-0.19l0.48-0.34l0,0l0.48,0.34l0.26,0.19c0.05,0.03,0.1-0.01,0.08-0.06l-0.09-0.31l-0.17-0.54c-0.01-0.02,0-0.05,0.02-0.06
		l0.43-0.32l0.27-0.2c0.05-0.03,0.02-0.1-0.03-0.1l-0.3-0.01l-0.54-0.01c-0.02,0-0.05-0.02-0.05-0.04l-0.17-0.53l-0.11-0.32
		c-0.02-0.05-0.09-0.05-0.11,0l-0.11,0.32l-0.17,0.53c-0.01,0.02-0.03,0.04-0.05,0.04l-0.54,0.01l-0.34,0.01
		c-0.05,0-0.08,0.07-0.03,0.1L19.27,9.74z"/>
	<path class="st0" d="M18.72,11.82c-0.02-0.02-0.05-0.02-0.08-0.01c-0.17,0.08-0.32,0.17-0.44,0.26c0.11-0.37,0.14-0.76,0.14-0.79
		s-0.01-0.05-0.03-0.07s-0.05-0.02-0.08-0.02c-0.32,0.08-0.57,0.31-0.7,0.46c-0.13-0.76-0.51-1.4-0.52-1.43
		c-0.02-0.02-0.05-0.04-0.08-0.04c-0.03,0-0.05,0.02-0.08,0.04c-0.02,0.03-0.39,0.67-0.52,1.43c-0.14-0.16-0.38-0.38-0.7-0.46
		c-0.02-0.01-0.05,0-0.08,0.02s-0.03,0.05-0.03,0.07s0.04,0.42,0.14,0.79c-0.11-0.09-0.26-0.19-0.44-0.26
		c-0.03-0.02-0.06-0.01-0.08,0.01s-0.04,0.05-0.03,0.08c0.01,0.03,0.08,0.72,0.39,1.17l-0.17,0.07c-0.03,0.02-0.05,0.05-0.05,0.08
		c0,0.26,0.05,0.41,0.08,0.48l0,0c0.02,0.03,0.02,0.05,0.04,0.05c0.2,0.31,0.46,0.45,0.57,0.5c0.01,0.23,0.03,1.21,0.13,2.83v0.02
		c0.05,0.69,0.13,2.12,0.21,2.83c0.09,0.76,0.23,1.18,0.36,1.41c-1-0.4-2.18-0.3-2.24-0.29c-0.04,0.01-0.07,0.04-0.08,0.08
		l-0.33,3.13c-0.01,0.05,0.03,0.08,0.07,0.09c1.28,0.17,2.81,1.27,2.83,1.28c0.02-0.01,1.55-1.1,2.83-1.28
		c0.05-0.01,0.08-0.05,0.07-0.09l-0.33-3.13c-0.01-0.04-0.04-0.07-0.08-0.08c-0.05-0.01-1.25-0.11-2.24,0.29
		c0.12-0.23,0.26-0.67,0.36-1.41c0.08-0.7,0.17-2.14,0.21-2.83v-0.02c0.1-1.61,0.12-2.59,0.13-2.83c0.11-0.05,0.37-0.2,0.57-0.5
		c0.01-0.01,0.02-0.03,0.04-0.05l0,0c0.04-0.08,0.08-0.22,0.08-0.48c0-0.03-0.02-0.07-0.05-0.08l-0.17-0.07
		c0.31-0.46,0.39-1.14,0.39-1.17C18.76,11.87,18.75,11.84,18.72,11.82z M16.87,24.61c-1.18-0.66-2.37-0.7-2.62-0.7l0.29-2.69
		c0.29-0.02,1.46-0.05,2.33,0.39C16.87,21.61,16.87,24.61,16.87,24.61z M19.36,21.21l0.29,2.69c-0.24,0-1.43,0.05-2.62,0.7v-3
		C17.91,21.17,19.07,21.2,19.36,21.21z M17.81,14.11L17.81,14.11c-0.33-0.08-0.65-0.1-0.86-0.1c-0.22,0-0.53,0.02-0.86,0.1l0,0
		c-0.07-0.03-0.31-0.14-0.5-0.42c0.54-0.2,1.29-0.21,1.35-0.21h0.01h0.01c0.07,0,0.82,0,1.35,0.21
		C18.12,13.97,17.89,14.08,17.81,14.11z M18.4,13.26c0.01,0.01,0.02,0.01,0.02,0.01l0,0c0,0.14-0.02,0.23-0.04,0.29
		c-0.58-0.23-1.39-0.23-1.44-0.23s-0.85-0.01-1.44,0.23c-0.02-0.06-0.03-0.15-0.04-0.29c0,0,0.01,0,0.01-0.01l0.02-0.01
		c0.01,0,0.02-0.01,0.02-0.01c0.07-0.02,0.2-0.08,0.32-0.1c0.02,0,0.03-0.01,0.05-0.01c0.2-0.05,0.53-0.1,0.85-0.12
		c0.02,0,0.03,0,0.05,0s0.04,0,0.05,0c0.04,0,0.07,0,0.11,0l0,0c0.04,0,0.07,0,0.11,0c0.02,0,0.04,0,0.05,0c0.02,0,0.03,0,0.05,0
		c0.33,0.02,0.66,0.08,0.85,0.12c0.01,0,0.02,0.01,0.03,0.01s0.02,0.01,0.03,0.01C18.21,13.19,18.35,13.24,18.4,13.26z"/>
	<path class="st0" d="M7.39,26.06c-0.08-0.02-0.16-0.02-0.25,0.02c-0.09,0.03-0.17,0.08-0.24,0.15c-0.08,0.08-0.14,0.15-0.17,0.23
		s-0.05,0.14-0.04,0.22c0.01,0.07,0.04,0.17,0.08,0.28c0.05,0.11,0.08,0.2,0.07,0.24c-0.01,0.02-0.02,0.06-0.05,0.08
		c-0.03,0.03-0.07,0.05-0.11,0.05c-0.06,0-0.11-0.03-0.16-0.08c-0.05-0.05-0.07-0.1-0.06-0.15c0.01-0.05,0.04-0.11,0.1-0.18
		l-0.17-0.17c-0.11,0.11-0.18,0.23-0.2,0.35c-0.03,0.12,0.02,0.23,0.11,0.35c0.06,0.07,0.13,0.11,0.2,0.13
		c0.08,0.02,0.15,0.02,0.23-0.01s0.15-0.07,0.22-0.13c0.1-0.09,0.16-0.2,0.18-0.32c0.02-0.08-0.01-0.19-0.06-0.32
		C7.02,26.7,7,26.63,6.99,26.6c-0.02-0.05-0.02-0.08-0.01-0.11s0.03-0.06,0.06-0.09c0.05-0.05,0.1-0.07,0.17-0.07
		c0.06,0,0.12,0.02,0.17,0.08c0.05,0.05,0.07,0.11,0.06,0.18c-0.01,0.07-0.05,0.14-0.13,0.23l0.18,0.15
		c0.13-0.14,0.2-0.28,0.23-0.41c0.02-0.13-0.02-0.25-0.13-0.36C7.54,26.13,7.47,26.08,7.39,26.06z"/>
	<polygon class="st0" points="6.56,24.98 6.33,25.15 6.74,25.68 6.36,25.97 5.99,25.5 5.77,25.67 6.13,26.15 5.83,26.38 5.43,25.88 
		5.2,26.05 5.74,26.75 7.12,25.69 	"/>
	<polygon class="st0" points="6.29,24.57 5.85,24.85 5.5,24.84 6.01,24.13 5.85,23.86 5.2,24.83 4.39,24.81 4.56,25.08 5.48,25.08 
		4.82,25.5 4.95,25.7 6.42,24.77 	"/>
	<path class="st0" d="M5.02,24.15c0.25-0.12,0.42-0.26,0.51-0.43c0.1-0.17,0.11-0.33,0.02-0.48c-0.08-0.16-0.21-0.25-0.4-0.27
		S4.74,23,4.49,23.12c-0.26,0.13-0.43,0.27-0.52,0.44c-0.1,0.17-0.11,0.33-0.02,0.48c0.05,0.09,0.11,0.15,0.17,0.2
		c0.05,0.04,0.13,0.06,0.21,0.07s0.17,0.01,0.26-0.01C4.72,24.28,4.87,24.23,5.02,24.15z M4.22,23.9c-0.05-0.09-0.04-0.18,0.02-0.28
		c0.06-0.1,0.18-0.19,0.36-0.28s0.33-0.13,0.45-0.12c0.11,0.01,0.2,0.06,0.24,0.14c0.05,0.08,0.03,0.18-0.03,0.28
		c-0.06,0.1-0.18,0.2-0.36,0.28c-0.18,0.09-0.33,0.13-0.45,0.12C4.34,24.04,4.27,23.99,4.22,23.9z"/>
	<polygon class="st0" points="4.9,21.73 4.62,21.83 4.84,22.39 3.5,22.9 3.59,23.13 5.2,22.51 	"/>
	<path class="st0" d="M4.8,21.4l-0.41,0.02l-0.13-0.46l0.36-0.2L4.54,20.5L3,21.43l0.07,0.25l1.8-0.02L4.8,21.4z M3.42,21.44
		l0.57-0.33l0.09,0.32L3.42,21.44z"/>
	<polygon class="st0" points="4.47,20.1 3.72,20.23 3.63,19.76 4.38,19.63 4.34,19.39 2.63,19.69 2.67,19.93 3.35,19.81 3.43,20.28 
		2.76,20.39 2.79,20.64 4.51,20.33 	"/>
	<polygon class="st0" points="2.81,18.38 4.25,18.32 4.24,18.08 2.8,18.14 2.79,17.79 2.49,17.8 2.53,18.75 2.82,18.74 	"/>
	
		<rect x="3.25" y="16.53" transform="matrix(0.0199 -0.9998 0.9998 0.0199 -14.0976 20.4246)" class="st0" width="0.24" height="1.74"/>
	<polygon class="st0" points="4.26,16.79 3.13,16.69 4.31,16.31 4.33,16.07 2.6,15.91 2.58,16.14 3.73,16.24 2.53,16.62 2.51,16.86 
		4.25,17.02 	"/>
	<path class="st0" d="M3.04,15.49c0.13,0.08,0.28,0.14,0.46,0.17c0.17,0.03,0.32,0.04,0.47,0.02c0.15-0.02,0.27-0.07,0.36-0.14
		c0.09-0.08,0.15-0.17,0.17-0.3c0.02-0.1,0.01-0.2-0.02-0.3c-0.04-0.11-0.08-0.19-0.14-0.25l-0.68-0.13l-0.1,0.51l0.29,0.05
		l0.05-0.27l0.22,0.05c0.03,0.05,0.06,0.09,0.08,0.15c0.02,0.05,0.02,0.11,0.02,0.16c-0.02,0.1-0.08,0.17-0.2,0.21
		c-0.11,0.05-0.27,0.05-0.48,0.01c-0.19-0.04-0.33-0.09-0.41-0.17s-0.12-0.18-0.1-0.28c0.02-0.07,0.05-0.12,0.11-0.16
		c0.06-0.04,0.13-0.05,0.22-0.05l-0.02-0.25c-0.16-0.01-0.29,0.02-0.4,0.08c-0.11,0.07-0.17,0.17-0.2,0.32
		c-0.02,0.11-0.02,0.21,0.03,0.3S2.91,15.41,3.04,15.49z"/>
	<path class="st0" d="M3.35,14.05c0.12,0.09,0.26,0.16,0.44,0.21c0.16,0.05,0.32,0.08,0.46,0.07c0.15,0,0.27-0.04,0.38-0.11
		c0.1-0.07,0.17-0.16,0.2-0.28c0.03-0.09,0.03-0.2,0.01-0.3s-0.06-0.2-0.11-0.26l-0.67-0.2l-0.15,0.5l0.28,0.08l0.08-0.26l0.21,0.07
		c0.03,0.05,0.05,0.1,0.06,0.16c0.02,0.06,0.02,0.11,0,0.16c-0.03,0.1-0.11,0.16-0.22,0.19c-0.12,0.03-0.27,0.02-0.47-0.05
		c-0.18-0.05-0.31-0.13-0.39-0.22s-0.1-0.18-0.07-0.29c0.02-0.07,0.06-0.11,0.12-0.14c0.06-0.03,0.14-0.04,0.22-0.03l0.01-0.25
		c-0.16-0.02-0.29-0.01-0.41,0.05S3.14,13.3,3.1,13.44c-0.03,0.11-0.03,0.21,0,0.3C3.14,13.86,3.23,13.96,3.35,14.05z"/>
	
		<rect x="4.16" y="11.92" transform="matrix(0.3633 -0.9317 0.9317 0.3633 -9.1889 12.1365)" class="st0" width="0.24" height="1.74"/>
	
		<rect x="4.61" y="10.9" transform="matrix(0.4392 -0.8984 0.8984 0.4392 -7.9184 10.847)" class="st0" width="0.24" height="1.74"/>
	<polygon class="st0" points="6.11,11.06 5.85,10.92 5.55,11.44 4.31,10.73 4.19,10.94 5.69,11.79 	"/>
	<polygon class="st0" points="6.34,10.7 5.22,9.91 6.48,10.51 6.6,10.32 5.63,9.34 6.75,10.13 6.88,9.94 5.46,8.93 5.24,9.24 
		6.09,10.09 4.99,9.58 4.79,9.88 6.2,10.88 	"/>
	<path class="st0" d="M6.78,9.47C6.84,9.51,6.9,9.53,6.97,9.55c0.07,0.02,0.14,0.02,0.2-0.01c0.07-0.02,0.14-0.07,0.21-0.16
		c0.06-0.07,0.1-0.14,0.11-0.21C7.51,9.1,7.5,9.03,7.47,8.97C7.45,8.9,7.41,8.84,7.36,8.77C7.31,8.7,7.19,8.6,7.04,8.46l-0.69-0.6
		L6.19,8.05l0.74,0.64c0.11,0.09,0.17,0.16,0.21,0.2S7.2,8.98,7.21,9.03S7.2,9.14,7.16,9.19c-0.05,0.05-0.1,0.08-0.15,0.08
		c-0.06,0-0.12-0.02-0.17-0.06C6.8,9.19,6.73,9.13,6.61,9.03L5.9,8.41L5.74,8.59l0.7,0.61C6.58,9.33,6.7,9.42,6.78,9.47z"/>
	<path class="st0" d="M7.39,7.49C7.48,7.6,7.59,7.66,7.7,7.68c0.08,0.02,0.19,0,0.32-0.05c0.1-0.04,0.17-0.06,0.2-0.07
		c0.05-0.01,0.08-0.01,0.11,0s0.06,0.03,0.09,0.06c0.05,0.05,0.06,0.11,0.07,0.17c0,0.06-0.03,0.12-0.08,0.17S8.3,8.03,8.23,8.01
		C8.16,7.99,8.09,7.95,8,7.87L7.84,8.05c0.14,0.14,0.27,0.22,0.4,0.24C8.37,8.31,8.49,8.27,8.6,8.18c0.08-0.07,0.13-0.14,0.15-0.22
		S8.77,7.8,8.74,7.71S8.66,7.54,8.6,7.46C8.52,7.38,8.46,7.32,8.38,7.29C8.3,7.25,8.24,7.24,8.16,7.24
		C8.09,7.25,7.99,7.27,7.88,7.32s-0.2,0.07-0.24,0.06C7.6,7.37,7.57,7.36,7.54,7.33C7.52,7.29,7.51,7.26,7.51,7.22
		c0-0.06,0.03-0.11,0.08-0.16S7.7,7,7.74,7.01c0.05,0.01,0.11,0.04,0.17,0.1l0.17-0.17C7.97,6.82,7.86,6.75,7.74,6.73
		S7.51,6.75,7.39,6.84C7.32,6.91,7.28,6.98,7.25,7.05s-0.02,0.15,0,0.23C7.29,7.35,7.33,7.43,7.39,7.49z"/>
	<path class="st0" d="M8.58,7.03C8.74,7.26,8.91,7.4,9.09,7.47c0.17,0.07,0.34,0.05,0.48-0.05c0.14-0.11,0.21-0.25,0.2-0.44
		c-0.01-0.19-0.09-0.4-0.26-0.63C9.34,6.12,9.18,5.97,9,5.9S8.66,5.85,8.52,5.95C8.44,6,8.38,6.08,8.35,6.15
		C8.33,6.21,8.32,6.29,8.33,6.37s0.02,0.17,0.05,0.26C8.4,6.76,8.48,6.89,8.58,7.03z M8.7,6.2c0.08-0.06,0.17-0.07,0.28-0.02
		C9.09,6.23,9.2,6.33,9.31,6.49c0.11,0.17,0.18,0.3,0.19,0.42s-0.03,0.2-0.11,0.26C9.31,7.22,9.22,7.23,9.11,7.19
		C9,7.14,8.89,7.04,8.77,6.88c-0.11-0.17-0.18-0.3-0.19-0.42C8.58,6.34,8.62,6.26,8.7,6.2z"/>
	<path class="st0" d="M9.83,6.09c0.08,0.03,0.19,0.04,0.33,0.02c0.11-0.02,0.17-0.03,0.2-0.03c0.05,0,0.08,0.01,0.11,0.02
		c0.03,0.02,0.05,0.05,0.08,0.08c0.02,0.05,0.04,0.11,0.02,0.17s-0.05,0.11-0.11,0.15c-0.06,0.04-0.13,0.05-0.19,0.02
		c-0.07-0.02-0.13-0.08-0.2-0.17L9.88,6.49c0.11,0.16,0.23,0.26,0.35,0.31s0.25,0.03,0.38-0.05c0.09-0.05,0.15-0.11,0.2-0.18
		c0.04-0.07,0.05-0.15,0.05-0.25c-0.02-0.09-0.05-0.18-0.09-0.27c-0.05-0.1-0.11-0.17-0.18-0.22s-0.14-0.08-0.2-0.09
		c-0.07-0.01-0.17,0-0.29,0.02C9.98,5.79,9.9,5.8,9.85,5.78C9.81,5.76,9.79,5.74,9.77,5.7S9.74,5.62,9.75,5.59
		c0.02-0.05,0.05-0.1,0.11-0.14c0.06-0.03,0.11-0.05,0.16-0.02c0.05,0.02,0.1,0.06,0.15,0.14l0.2-0.14
		c-0.08-0.14-0.18-0.23-0.29-0.27C9.97,5.11,9.85,5.13,9.72,5.21C9.64,5.26,9.58,5.32,9.55,5.38C9.51,5.45,9.5,5.52,9.5,5.61
		c0.01,0.08,0.04,0.17,0.08,0.24C9.63,5.96,9.72,6.04,9.83,6.09z"/>
	
		<rect x="10.82" y="4.69" transform="matrix(0.8976 -0.4407 0.4407 0.8976 -1.3313 5.3909)" class="st0" width="0.24" height="1.74"/>
	<path class="st0" d="M11.81,6.11l-0.06-0.4l0.45-0.18l0.25,0.33l0.24-0.1l-1.1-1.43l-0.23,0.09l0.23,1.78L11.81,6.11z M12.01,5.28
		l-0.3,0.12l-0.09-0.66L12.01,5.28z"/>
	<polygon class="st0" points="13.65,5.46 13.57,5.18 12.99,5.35 12.58,3.98 12.34,4.05 12.85,5.7 	"/>
	<path class="st0" d="M14.78,5.22c0.09-0.02,0.16-0.04,0.2-0.08c0.07-0.04,0.11-0.09,0.14-0.16c0.05-0.08,0.07-0.2,0.08-0.33
		c0.01-0.11,0-0.23-0.02-0.37c-0.03-0.16-0.06-0.29-0.11-0.4c-0.04-0.1-0.1-0.18-0.16-0.25s-0.13-0.11-0.2-0.13
		c-0.05-0.02-0.13-0.02-0.23,0.01l-0.44,0.08l0.29,1.71L14.78,5.22z M14.44,3.81c0.1-0.02,0.17-0.02,0.2-0.02
		c0.05,0.01,0.09,0.03,0.12,0.06c0.03,0.03,0.07,0.08,0.1,0.15s0.05,0.17,0.08,0.3s0.03,0.24,0.03,0.32s-0.02,0.14-0.04,0.17
		c-0.02,0.04-0.05,0.07-0.08,0.09c-0.03,0.02-0.08,0.03-0.14,0.04l-0.17,0.04l-0.21-1.13L14.44,3.81z"/>
	<path class="st0" d="M15.76,4.69l0.48-0.03l0.13,0.39l0.26-0.02l-0.6-1.7l-0.26,0.02l-0.34,1.77l0.26-0.02L15.76,4.69z M15.93,3.74
		l0.21,0.63l-0.33,0.02L15.93,3.74z"/>
	<polygon class="st0" points="17.04,3.9 17.51,5.04 17.75,5.05 17.78,3.31 17.57,3.3 17.54,4.47 17.07,3.3 16.84,3.29 16.79,5.03 
		17.02,5.03 	"/>
	
		<rect x="17.91" y="4.16" transform="matrix(0.1328 -0.9911 0.9911 0.1328 12.0434 22.3271)" class="st0" width="1.74" height="0.24"/>
	<polygon class="st0" points="19.95,5.08 19.36,4.97 19.64,3.56 19.4,3.51 19.07,5.2 19.9,5.37 	"/>
	<polygon class="st0" points="20.7,4.16 20.54,5.54 20.76,5.61 21.38,4.37 20.99,5.68 21.2,5.74 21.7,4.08 21.36,3.98 20.81,5.05 
		20.94,3.85 20.6,3.74 20.1,5.41 20.31,5.47 	"/>
	<path class="st0" d="M21.6,5.71c0.01,0.07,0.03,0.14,0.07,0.19c0.04,0.06,0.11,0.11,0.22,0.15c0.09,0.04,0.17,0.05,0.23,0.04
		c0.07-0.01,0.13-0.04,0.18-0.08s0.11-0.1,0.15-0.17s0.11-0.21,0.19-0.4L23,4.6l-0.22-0.09l-0.37,0.88
		c-0.05,0.13-0.1,0.22-0.12,0.26c-0.03,0.05-0.07,0.09-0.11,0.11c-0.05,0.02-0.11,0.02-0.17,0s-0.11-0.07-0.12-0.12
		c-0.02-0.05-0.02-0.11,0-0.19C21.91,5.4,21.94,5.31,22,5.18l0.36-0.87l-0.24-0.08l-0.36,0.85c-0.08,0.18-0.13,0.32-0.15,0.42
		C21.6,5.57,21.59,5.64,21.6,5.71z"/>
	<path class="st0" d="M23.6,6.13l0.14,0.08c0.09,0.05,0.17,0.09,0.23,0.11c0.05,0.01,0.09,0.01,0.15-0.01
		c0.05-0.02,0.11-0.05,0.17-0.1C24.35,6.16,24.4,6.09,24.46,6c0.07-0.12,0.11-0.23,0.11-0.33c0.01-0.1-0.02-0.17-0.06-0.23
		c-0.03-0.04-0.11-0.09-0.23-0.17l-0.33-0.2l-0.88,1.5l0.21,0.12L23.6,6.13z M23.99,5.45l0.1,0.06c0.08,0.05,0.12,0.08,0.14,0.1
		c0.03,0.03,0.05,0.07,0.05,0.11s-0.02,0.1-0.05,0.15c-0.02,0.05-0.06,0.08-0.09,0.11C24.1,6,24.07,6.02,24.03,6.02
		S23.93,6,23.85,5.94l-0.11-0.07L23.99,5.45z"/>
	<path class="st0" d="M24.25,7.06c-0.01,0.19,0.06,0.34,0.2,0.44c0.14,0.11,0.3,0.12,0.48,0.05s0.35-0.21,0.51-0.44
		c0.17-0.23,0.26-0.44,0.26-0.63c0.01-0.19-0.06-0.34-0.2-0.44c-0.08-0.06-0.16-0.09-0.25-0.1c-0.07-0.01-0.14,0.01-0.22,0.04
		s-0.16,0.07-0.23,0.13c-0.1,0.08-0.2,0.18-0.31,0.33C24.34,6.66,24.26,6.87,24.25,7.06z M24.71,6.58c0.12-0.16,0.23-0.26,0.34-0.31
		s0.2-0.04,0.28,0.02c0.08,0.06,0.11,0.14,0.11,0.26c-0.01,0.12-0.07,0.26-0.18,0.42c-0.12,0.17-0.23,0.26-0.34,0.31
		s-0.2,0.04-0.28-0.02C24.56,7.2,24.53,7.12,24.53,7C24.54,6.87,24.6,6.73,24.71,6.58z"/>
	<polygon class="st0" points="25.74,8.53 25.93,8.31 25.48,7.91 26.43,6.83 26.25,6.67 25.11,7.97 	"/>
	
		<rect x="25.72" y="8.03" transform="matrix(0.7067 -0.7075 0.7075 0.7067 2.0345 21.2013)" class="st0" width="1.74" height="0.24"/>
	<polygon class="st0" points="27.51,8.28 26.43,9.24 26.59,9.43 27.67,8.47 27.91,8.73 28.13,8.54 27.5,7.82 27.28,8.02 	"/>
	
		<rect x="26.84" y="9.29" transform="matrix(0.7888 -0.6147 0.6147 0.7888 0.071 19.0197)" class="st0" width="1.74" height="0.24"/>
	<polygon class="st0" points="27.4,10.45 27.83,10.17 28.19,10.17 27.7,10.89 27.87,11.15 28.48,10.17 29.3,10.16 29.12,9.89 
		28.2,9.92 28.84,9.49 28.71,9.28 27.26,10.26 	"/>
	<path class="st0" d="M28.58,11.59c-0.11,0.11-0.17,0.21-0.2,0.33s-0.02,0.23,0.04,0.35c0.05,0.09,0.11,0.17,0.2,0.23
		s0.18,0.1,0.26,0.11l0.63-0.3l-0.23-0.47l-0.26,0.13l0.12,0.25l-0.2,0.1c-0.05-0.02-0.11-0.04-0.15-0.08
		c-0.05-0.03-0.08-0.08-0.11-0.12c-0.05-0.09-0.03-0.19,0.03-0.29c0.07-0.1,0.19-0.2,0.38-0.29c0.17-0.08,0.32-0.12,0.43-0.11
		s0.2,0.07,0.24,0.17c0.03,0.06,0.03,0.13,0.01,0.19c-0.02,0.06-0.07,0.12-0.14,0.17l0.17,0.19c0.14-0.09,0.22-0.2,0.26-0.31
		c0.05-0.11,0.04-0.24-0.03-0.37c-0.05-0.11-0.12-0.17-0.2-0.22c-0.11-0.06-0.24-0.08-0.39-0.07s-0.3,0.06-0.47,0.14
		C28.81,11.39,28.69,11.48,28.58,11.59z"/>
	<path class="st0" d="M29.12,12.84c-0.06,0.03-0.11,0.08-0.16,0.13s-0.08,0.11-0.09,0.18c-0.02,0.07-0.01,0.16,0.04,0.26
		c0.03,0.09,0.08,0.16,0.13,0.2c0.05,0.05,0.11,0.07,0.18,0.08s0.14,0.01,0.23-0.01c0.08-0.02,0.23-0.06,0.42-0.13l0.86-0.31
		l-0.08-0.23l-0.91,0.33c-0.13,0.05-0.23,0.08-0.28,0.09c-0.06,0.02-0.11,0.01-0.16-0.01s-0.08-0.06-0.11-0.13
		c-0.02-0.06-0.02-0.12,0.01-0.17s0.08-0.09,0.14-0.13c0.04-0.02,0.13-0.05,0.27-0.11l0.88-0.32l-0.08-0.23l-0.87,0.32
		C29.34,12.73,29.21,12.79,29.12,12.84z"/>
	<polygon class="st0" points="29.22,14.33 30.33,14.05 29.34,14.8 29.4,15.03 31.09,14.61 31.04,14.39 29.91,14.68 30.92,13.92 
		30.85,13.69 29.17,14.11 	"/>
	<path class="st0" d="M29.48,15.45l0.41,0.04l0.07,0.48l-0.38,0.16l0.04,0.26l1.65-0.73l-0.04-0.25l-1.79-0.2L29.48,15.45z
		 M30.85,15.59l-0.61,0.26l-0.05-0.33L30.85,15.59z"/>
	<polygon class="st0" points="30.25,17.72 31.41,17.21 31.4,16.98 29.66,17.01 29.67,17.23 30.8,17.21 29.68,17.71 29.68,17.95 
		31.41,17.92 31.41,17.7 	"/>
	<path class="st0" d="M30.03,18.29c-0.07,0.01-0.14,0.02-0.2,0.05c-0.06,0.03-0.12,0.07-0.16,0.13s-0.07,0.14-0.08,0.26
		c-0.01,0.09,0,0.17,0.03,0.23s0.08,0.11,0.13,0.15c0.05,0.04,0.13,0.07,0.21,0.09s0.23,0.04,0.44,0.05l0.91,0.08l0.02-0.24
		l-0.96-0.08c-0.14-0.01-0.23-0.02-0.29-0.04s-0.11-0.04-0.14-0.08c-0.04-0.04-0.05-0.09-0.05-0.16c0.01-0.07,0.03-0.12,0.08-0.15
		c0.05-0.04,0.11-0.05,0.17-0.06c0.05,0,0.14,0,0.29,0.02l0.94,0.09l0.02-0.24l-0.92-0.08C30.28,18.29,30.14,18.29,30.03,18.29z"/>
	<path class="st0" d="M31.05,19.78c-0.07-0.05-0.15-0.08-0.23-0.1c-0.14-0.02-0.26-0.01-0.36,0.05c-0.08,0.04-0.15,0.12-0.22,0.24
		c-0.05,0.09-0.09,0.15-0.11,0.17c-0.03,0.04-0.06,0.06-0.09,0.08c-0.03,0.01-0.07,0.02-0.11,0.01c-0.06-0.02-0.11-0.04-0.15-0.09
		s-0.05-0.11-0.04-0.19c0.02-0.08,0.05-0.13,0.11-0.16s0.15-0.05,0.26-0.04l0.01-0.23c-0.2-0.02-0.35,0-0.46,0.07
		c-0.11,0.06-0.18,0.17-0.21,0.32c-0.02,0.11-0.02,0.19,0.02,0.26c0.03,0.08,0.08,0.14,0.16,0.2c0.08,0.05,0.17,0.09,0.26,0.11
		c0.11,0.02,0.2,0.02,0.28,0c0.08-0.02,0.14-0.05,0.2-0.1c0.05-0.05,0.11-0.13,0.17-0.23c0.06-0.11,0.11-0.17,0.15-0.2
		c0.03-0.02,0.07-0.02,0.11-0.02c0.05,0.01,0.08,0.03,0.1,0.06c0.04,0.05,0.05,0.11,0.03,0.17c-0.02,0.07-0.04,0.11-0.08,0.14
		c-0.05,0.03-0.11,0.04-0.2,0.03l-0.02,0.23c0.16,0.02,0.29,0.01,0.4-0.05s0.17-0.16,0.2-0.31c0.02-0.09,0.01-0.17-0.02-0.24
		C31.17,19.89,31.12,19.83,31.05,19.78z"/>
	<path class="st0" d="M29.3,20.73l0.36,0.2l-0.13,0.46l-0.41-0.01l-0.07,0.26l1.81,0.01l0.07-0.25l-1.55-0.91L29.3,20.73z
		 M29.92,21.08l0.57,0.33l-0.67-0.02L29.92,21.08z"/>
	<polygon class="st0" points="28.9,22 29.96,22.42 28.73,22.46 28.64,22.68 30.27,23.31 30.34,23.1 29.26,22.69 30.52,22.65 
		30.61,22.43 28.99,21.79 	"/>
	<polygon class="st0" points="29.69,23.83 28.4,23.18 28.29,23.4 29.58,24.05 29.43,24.36 29.69,24.5 30.11,23.65 29.85,23.52 	"/>
	<path class="st0" d="M28.03,23.89l0.29,0.29l-0.25,0.41l-0.39-0.11l-0.14,0.23l1.74,0.49l0.14-0.22l-1.25-1.3L28.03,23.89z
		 M28.53,24.4L29,24.88l-0.63-0.2L28.53,24.4z"/>
	<path class="st0" d="M27.3,25.03l0.58,0.44l-0.03,0.04c-0.03,0.05-0.06,0.08-0.09,0.08c-0.02,0.02-0.06,0.02-0.1,0.02
		c-0.05,0-0.14-0.02-0.28-0.05l-0.41-0.09L26.8,25.7l0.36,0.08c0.14,0.04,0.24,0.05,0.31,0.06c0.06,0.01,0.13,0,0.2-0.02
		c-0.05,0.1-0.05,0.19-0.02,0.29c0.04,0.09,0.11,0.18,0.21,0.26c0.08,0.06,0.17,0.11,0.25,0.12c0.08,0.02,0.16,0.02,0.22-0.02
		c0.06-0.03,0.13-0.09,0.2-0.2l0.3-0.41l-1.39-1.04L27.3,25.03z M28,25.77l0.1-0.14l0.36,0.26l-0.11,0.15
		c-0.06,0.08-0.1,0.12-0.11,0.14c-0.03,0.02-0.07,0.04-0.11,0.03c-0.05-0.01-0.08-0.02-0.14-0.06c-0.05-0.03-0.07-0.06-0.09-0.1
		c-0.02-0.03-0.02-0.07-0.02-0.1C27.89,25.93,27.93,25.86,28,25.77z"/>
	<path class="st0" d="M26.6,25.91l0.23,0.34l-0.33,0.36l-0.36-0.19l-0.17,0.2l1.61,0.82l0.17-0.19l-0.97-1.52L26.6,25.91z
		 M27.35,27.06l-0.59-0.32l0.22-0.24L27.35,27.06z"/>
	<path class="st0" d="M11.65,29.61c0.1-0.05,0.2-0.05,0.32-0.01c0.08,0.03,0.14,0.08,0.17,0.15c0.04,0.07,0.05,0.14,0.04,0.23
		l0.33,0.05c0.02-0.14,0-0.24-0.04-0.34c-0.07-0.15-0.2-0.27-0.38-0.35c-0.21-0.08-0.4-0.09-0.59,0c-0.18,0.08-0.33,0.25-0.43,0.5
		c-0.1,0.23-0.11,0.45-0.04,0.63c0.07,0.19,0.2,0.33,0.4,0.4c0.16,0.07,0.31,0.08,0.45,0.05c0.14-0.04,0.26-0.13,0.37-0.27L12,30.44
		c-0.07,0.1-0.14,0.16-0.22,0.19s-0.16,0.02-0.23-0.01c-0.11-0.05-0.18-0.12-0.21-0.23c-0.04-0.11-0.02-0.26,0.07-0.45
		C11.46,29.78,11.54,29.66,11.65,29.61z"/>
	
		<rect x="12.33" y="30.45" transform="matrix(0.2762 -0.9611 0.9611 0.2762 -19.9154 34.7871)" class="st0" width="1.61" height="0.33"/>
	<path class="st0" d="M14.61,30.15l-0.92,1.46l0.34,0.07l0.2-0.33l0.63,0.12l0.07,0.39l0.35,0.07l-0.33-1.7L14.61,30.15z
		 M14.38,31.09l0.33-0.54l0.11,0.63L14.38,31.09z"/>
	<polygon class="st0" points="16.97,31.43 16.34,30.34 16.02,30.33 15.97,31.93 16.27,31.95 16.31,30.89 16.92,31.96 17.25,31.98 
		17.3,30.37 17,30.36 	"/>
	<path class="st0" d="M18.82,30.24l-0.33,0.03l0.11,1.04c0.02,0.13,0.01,0.22-0.02,0.26c-0.02,0.05-0.08,0.07-0.14,0.08
		c-0.07,0.01-0.13-0.02-0.17-0.07c-0.03-0.04-0.05-0.1-0.06-0.19l-0.3,0.07c0.02,0.17,0.08,0.29,0.17,0.37s0.22,0.11,0.38,0.09
		c0.14-0.02,0.24-0.05,0.32-0.12c0.08-0.07,0.13-0.14,0.14-0.24c0.02-0.08,0.02-0.17,0-0.31L18.82,30.24z"/>
	<path class="st0" d="M20.76,29.82l-0.32,0.07l0.19,0.87c0.03,0.12,0.05,0.21,0.05,0.27c0,0.05-0.02,0.11-0.05,0.15
		s-0.1,0.08-0.19,0.1c-0.09,0.02-0.17,0.02-0.22-0.02s-0.11-0.08-0.13-0.14c-0.02-0.04-0.04-0.13-0.07-0.26l-0.19-0.85l-0.32,0.07
		l0.18,0.84c0.04,0.17,0.08,0.31,0.12,0.39c0.03,0.06,0.07,0.11,0.13,0.15c0.06,0.05,0.13,0.08,0.21,0.1
		c0.08,0.02,0.2,0.01,0.36-0.02c0.12-0.03,0.22-0.07,0.29-0.11c0.07-0.05,0.12-0.11,0.16-0.17c0.04-0.06,0.05-0.14,0.05-0.22
		s-0.02-0.22-0.06-0.41L20.76,29.82z"/>
	<path class="st0" d="M22.65,30.15c-0.06-0.03-0.13-0.05-0.21-0.06c0.12-0.08,0.2-0.16,0.23-0.26c0.04-0.1,0.03-0.2-0.02-0.32
		c-0.04-0.09-0.09-0.16-0.16-0.2c-0.07-0.05-0.15-0.08-0.23-0.07c-0.08,0-0.2,0.04-0.36,0.11l-0.63,0.26l0.62,1.48l0.3-0.12
		l-0.26-0.62l0.06-0.02c0.07-0.03,0.12-0.05,0.16-0.05s0.08,0.01,0.11,0.02c0.04,0.02,0.12,0.07,0.25,0.15l0.35,0.23l0.36-0.15
		l-0.29-0.2C22.8,30.23,22.71,30.18,22.65,30.15z M22.32,29.88c-0.03,0.03-0.12,0.07-0.26,0.13l-0.22,0.09l-0.16-0.38l0.23-0.1
		c0.12-0.05,0.2-0.08,0.22-0.08c0.05-0.02,0.1-0.01,0.14,0.01c0.04,0.02,0.07,0.05,0.09,0.11c0.02,0.05,0.02,0.08,0.02,0.12
		C22.37,29.82,22.35,29.85,22.32,29.88z"/>
	<path class="st0" d="M12.58,24.89c-0.08-0.05-0.15-0.07-0.22-0.08c-0.07-0.02-0.13,0-0.18,0.03s-0.1,0.07-0.13,0.11
		C12,25.03,12,25.12,12.03,25.21c0.02,0.07,0.08,0.14,0.17,0.23c0.07,0.07,0.11,0.11,0.14,0.14c0.03,0.03,0.05,0.06,0.05,0.08
		c0.01,0.02,0,0.05-0.02,0.08c-0.02,0.04-0.05,0.06-0.11,0.07c-0.05,0.01-0.11-0.01-0.17-0.05c-0.06-0.04-0.1-0.08-0.12-0.13
		s-0.02-0.11,0.02-0.19l-0.2-0.1c-0.05,0.12-0.06,0.23-0.03,0.33c0.03,0.1,0.11,0.18,0.24,0.26c0.08,0.05,0.17,0.08,0.23,0.09
		c0.08,0.01,0.14,0,0.2-0.03c0.06-0.03,0.11-0.08,0.14-0.14c0.04-0.06,0.05-0.12,0.05-0.18s-0.02-0.11-0.05-0.17
		c-0.03-0.05-0.09-0.12-0.17-0.2s-0.14-0.14-0.14-0.17c-0.01-0.03-0.01-0.05,0.01-0.08c0.02-0.02,0.04-0.04,0.07-0.05
		c0.05-0.01,0.1,0.01,0.16,0.05c0.05,0.03,0.09,0.07,0.11,0.11s0.02,0.08-0.01,0.14l0.2,0.11c0.05-0.09,0.06-0.19,0.03-0.28
		C12.77,25.04,12.7,24.97,12.58,24.89z"/>
	<polygon class="st0" points="14,25.84 14.33,25.94 14.06,26.85 14.28,26.92 14.55,26 14.87,26.09 14.93,25.91 14.05,25.65 	"/>
	
		<rect x="15.64" y="26.57" transform="matrix(0.0652 -0.9979 0.9979 0.0652 -11.4603 41.1347)" class="st0" width="1.16" height="0.23"/>
	<path class="st0" d="M18.44,26.55c-0.06-0.02-0.14-0.04-0.26-0.05c-0.11-0.01-0.19-0.02-0.22-0.05c-0.02-0.02-0.04-0.04-0.05-0.07
		c-0.01-0.03,0.01-0.05,0.03-0.08c0.04-0.03,0.08-0.05,0.15-0.06s0.11,0,0.15,0.02s0.06,0.06,0.08,0.12l0.23-0.05
		c-0.02-0.11-0.07-0.18-0.15-0.23s-0.2-0.07-0.34-0.05c-0.09,0.02-0.16,0.04-0.22,0.07c-0.06,0.04-0.1,0.08-0.13,0.14
		c-0.03,0.05-0.04,0.11-0.03,0.17c0.02,0.09,0.06,0.16,0.14,0.21c0.05,0.04,0.15,0.06,0.28,0.08c0.1,0.01,0.17,0.02,0.19,0.02
		c0.04,0.01,0.07,0.02,0.09,0.04s0.03,0.04,0.03,0.07c0.01,0.05-0.01,0.08-0.04,0.12c-0.03,0.04-0.08,0.06-0.16,0.07
		c-0.07,0.01-0.13,0-0.17-0.03c-0.05-0.03-0.08-0.08-0.11-0.15l-0.22,0.05c0.03,0.13,0.09,0.22,0.18,0.27
		c0.08,0.05,0.2,0.08,0.35,0.05c0.1-0.02,0.18-0.04,0.24-0.08s0.11-0.08,0.14-0.15c0.03-0.06,0.04-0.13,0.03-0.19
		c-0.01-0.08-0.03-0.13-0.07-0.17C18.55,26.6,18.5,26.57,18.44,26.55z"/>
	
		<rect x="19.95" y="25.61" transform="matrix(0.9533 -0.3019 0.3019 0.9533 -6.9704 7.2794)" class="st0" width="0.23" height="1.16"/>
	<path class="st0" d="M21.91,24.79c-0.07-0.02-0.14-0.03-0.2-0.01c-0.05,0.02-0.12,0.06-0.24,0.13l-0.32,0.2l0.61,0.98l0.2-0.12
		l-0.23-0.37l0.13-0.08c0.09-0.05,0.15-0.11,0.2-0.14c0.03-0.03,0.05-0.07,0.08-0.11c0.02-0.05,0.03-0.09,0.02-0.15
		c0-0.05-0.02-0.11-0.06-0.17C22.04,24.87,21.98,24.82,21.91,24.79z M21.88,25.26c-0.02,0.03-0.07,0.07-0.14,0.11l-0.11,0.07
		l-0.17-0.28l0.1-0.06c0.07-0.05,0.12-0.07,0.14-0.08c0.04-0.02,0.07-0.02,0.11-0.01s0.06,0.03,0.08,0.07
		c0.02,0.03,0.03,0.06,0.02,0.09S21.9,25.23,21.88,25.26z"/>
</g>
</svg>
