<?xml version="1.0" encoding="utf-8"?>
<!-- Generator: Adobe Illustrator 28.0.0, SVG Export Plug-In . SVG Version: 6.00 Build 0)  -->
<svg version="1.1" id="Layer_1" xmlns="http://www.w3.org/2000/svg" xmlns:xlink="http://www.w3.org/1999/xlink" x="0px" y="0px"
	 viewBox="0 0 148.1 44" style="enable-background:new 0 0 148.1 44;" xml:space="preserve">
<style type="text/css">
	.st0{fill:#FFFF00;}
	.st1{fill:#FFFFFF;}
	.st2{fill:#FF7800;}
	.st3{fill:#000080;}
	.st4{fill:#00FF00;}
	.st5{fill:#FF0000;}
</style>
<g>
	<g>
		<g id="Color_Item_00000027585813893788299720000001065929331789707707_">
			<path class="st0" d="M44.4,16.3c0,0.6-0.1,5.2-2.5,12.8c-2.5,8-5.6,12.2-6,12.8c-3.2,1.1-9.3,1.7-13.4,1.7S12.2,43,9,41.9
				c-0.4-0.5-3.5-4.8-6-12.8c-2.4-7.6-2.5-12.2-2.5-12.8c0.3-0.5,3-4.1,9.8-9.1c6-4.4,11.3-6.4,12.2-6.7c0.9,0.3,6.2,2.3,12.2,6.7
				C41.4,12.2,44.1,15.8,44.4,16.3z"/>
			<path class="st1" d="M26,31.6c-0.3,0-1.9,0.1-3.5,0.9v-4c1.1-0.6,2.7-0.5,3.1-0.5L26,31.6z"/>
			<path class="st1" d="M22.3,28.6v4c-1.6-0.9-3.1-0.9-3.5-0.9l0.4-3.6C19.6,28,21.2,28,22.3,28.6z"/>
			<g>
				<path class="st2" d="M21.1,27.4c0,0-0.1,0-0.1,0c-0.4-0.3-0.8-0.5-1.3-0.4c-0.5,0.1-1,0.5-1.4,1c-0.8,1.4-1.6,1.6-1.7,1.6
					c-0.2,0.1-0.4,0.1-0.7,0.1c-0.8,0-1.7-0.3-2-0.8c-0.1-0.2-0.1-0.5,0.1-0.7c0.2-0.2,0.5-0.4,0.8-0.3c0.1,0,0.2,0.1,0.2,0.2
					c0,0.2,0.1,0.3,0.1,0.3c0.1,0,0.2,0,0.3-0.1c0.2-0.1,0.3-0.3,0.4-0.4c0-0.1,0-0.3-0.1-0.4c-0.1-0.2-0.4-0.1-0.9,0
					c-0.3,0.1-0.6,0.2-1,0.2c-0.7,0.1-1.5-0.2-1.7-0.8c-0.1-0.5-0.4-0.8-0.4-0.8c0,0,0-0.1,0-0.1c0,0,0.1-0.1,0.1-0.1
					c0.4,0.1,0.6,0.2,0.8,0.4c0.2,0.2,0.3,0.3,0.8,0.3c0.1,0,0.1-0.1,0.2-0.2c0-0.2,0-0.4-0.2-0.5c-0.5-0.3-0.9-0.4-1.3-0.4
					c-0.3-0.1-0.6-0.1-0.9-0.3c-0.7-0.5-0.7-0.9-0.8-1.9c0-0.3,0-0.6-0.1-0.9c-0.1-0.5-0.7-0.8-0.7-0.8c0,0-0.1-0.1-0.1-0.1
					c0,0,0-0.1,0.1-0.1c0.3-0.1,1.2-0.5,1.8,0.7c0.4,0.8,0.8,1,1.6,1c0,0,0.1,0,0.1,0c-0.1-0.4-0.3-0.7-1-1.3
					C11,21,11,20.4,11.2,19.1l0-0.2c0-0.5,0-0.8-0.2-1c-0.2-0.2-0.5-0.2-0.5-0.2c-0.1,0-0.1,0-0.1-0.1c0-0.1,0-0.1,0.1-0.1
					c1-0.2,1.3,0.1,1.6,0.6c0.1,0.1,0.2,0.3,0.3,0.4c0.5,0.5,0.9,0.7,1.3,0.9c-0.1-0.2-0.1-0.5-0.1-0.8c0-1,0.1-1.6,0.3-2.2
					c0.1-0.4,0.2-0.8,0.3-1.3c0.1-0.4,0-0.8-0.2-1c-0.4-0.4-1-0.4-1-0.4c-0.1,0-0.1,0-0.1-0.1c0-0.1,0-0.1,0.1-0.1
					c0,0,0.9-0.3,1.8,0c0.9,0.3,1.6,1.3,1.6,2.5c0,2,0.2,2.6,1.1,3.1c0.2,0.1,0.5,0.2,0.7,0.3c1.1,0.5,2.2,1,1.8,2.4
					c-0.2,0.7-1,1-1.6,0.9c-0.4-0.1-0.6-0.3-0.6-0.6c0-0.5,0.4-0.8,0.7-0.8c-0.1-0.1-0.2-0.2-0.4-0.3c-0.3-0.1-0.6,0-0.8,0.2
					c-0.2,0.2-0.4,0.6-0.3,0.9c0,0.4,0.2,0.7,0.4,0.8c0.8,0.4,1.3,0.3,1.8,0.1c0.3-0.1,0.6-0.2,1-0.1c0.3,0.1,0.5,0.2,0.7,0.5
					c0.3,0.5,0.4,1.3,0.2,2.1c-0.3,1,0.1,1.8,0.1,1.8C21.2,27.3,21.2,27.3,21.1,27.4z"/>
				<path class="st2" d="M35.3,21.6c0,0,0,0.1-0.1,0.1c0,0-0.7,0.3-0.7,0.8c0,0.4-0.1,0.7-0.1,0.9c-0.1,1-0.1,1.4-0.8,1.9
					c-0.3,0.2-0.6,0.3-0.9,0.3c-0.3,0.1-0.7,0.1-1.3,0.4c-0.2,0.1-0.2,0.3-0.2,0.5c0,0.1,0,0.2,0.2,0.2c0.4,0,0.6-0.1,0.8-0.3
					c0.2-0.2,0.4-0.3,0.8-0.4c0,0,0.1,0,0.1,0.1c0,0,0,0.1,0,0.1c0,0-0.3,0.3-0.4,0.8c-0.2,0.6-1,0.9-1.7,0.8c-0.4,0-0.7-0.1-1-0.2
					c-0.5-0.1-0.8-0.2-0.9,0C29,27.7,29,27.9,29,28c0,0.1,0.2,0.3,0.4,0.4c0.1,0.1,0.2,0.1,0.3,0.1c0.1,0,0.1-0.1,0.1-0.3
					c0-0.1,0.1-0.2,0.2-0.2c0.2-0.1,0.6,0.1,0.8,0.3c0.2,0.2,0.2,0.4,0.1,0.7c-0.3,0.5-1.2,0.8-2,0.8c-0.3,0-0.5,0-0.7-0.1
					c-0.1,0-0.8-0.2-1.7-1.6c-0.3-0.6-0.8-0.9-1.4-1c-0.5-0.1-0.9,0.1-1.3,0.4c0,0-0.1,0-0.1,0c0,0-0.1-0.1,0-0.1
					c0,0,0.4-0.7,0.1-1.8c-0.2-0.8-0.2-1.6,0.2-2.1c0.2-0.3,0.4-0.4,0.7-0.5c0.3-0.1,0.7,0,1,0.1c0.5,0.2,1,0.3,1.8-0.1
					c0.2-0.1,0.4-0.4,0.4-0.8c0-0.4-0.1-0.8-0.3-0.9c-0.2-0.1-0.5-0.2-0.8-0.2c-0.2,0-0.3,0.1-0.4,0.3c0.3,0.1,0.7,0.3,0.7,0.8
					c0,0.3-0.2,0.5-0.6,0.6c-0.6,0.1-1.4-0.2-1.6-0.9c-0.4-1.4,0.7-1.9,1.8-2.4c0.2-0.1,0.5-0.2,0.7-0.3c0.9-0.5,1.1-1.1,1.1-3.1
					c0-1.2,0.7-2.2,1.6-2.5c0.9-0.3,1.8,0,1.8,0c0.1,0,0.1,0.1,0.1,0.1c0,0.1-0.1,0.1-0.1,0.1c0,0-0.6,0-1,0.4
					c-0.2,0.2-0.3,0.6-0.2,1c0.1,0.5,0.2,0.9,0.3,1.3c0.2,0.6,0.3,1.2,0.3,2.2c0,0.3,0,0.5-0.1,0.8c0.4-0.1,0.8-0.4,1.3-0.9
					c0.1-0.1,0.2-0.3,0.3-0.4c0.4-0.5,0.6-0.8,1.6-0.6c0.1,0,0.1,0.1,0.1,0.1c0,0.1-0.1,0.1-0.1,0.1c0,0-0.3,0-0.5,0.2
					c-0.2,0.2-0.3,0.6-0.2,1l0,0.2c0.1,1.3,0.2,1.9-0.9,2.7c-0.7,0.5-0.9,0.9-1,1.3c0,0,0.1,0,0.1,0c0.8,0,1.2-0.2,1.6-1
					c0.6-1.2,1.5-0.9,1.8-0.7C35.2,21.5,35.3,21.5,35.3,21.6z"/>
			</g>
			<polygon class="st3" points="33.4,37.7 33.2,37 33.2,37 33,37.7 32.3,37.7 32.8,38.1 32.6,38.7 33.2,38.3 33.2,38.3 33.7,38.7 
				33.5,38.1 34.1,37.7 			"/>
			<polygon class="st3" points="11.9,37.7 11.7,37 11.7,37 11.4,37.7 10.8,37.7 11.3,38.1 11.1,38.7 11.7,38.3 11.7,38.3 12.2,38.7 
				12,38.1 12.5,37.7 			"/>
			<path class="st2" d="M23.2,11.3l0.4,1.4l-1.2-0.9l0,0l0,0l-1.2,0.9l0.4-1.4c0-0.1,0-0.1,0-0.1l-1.1-0.8l1.4,0
				c0.1,0,0.1,0,0.1-0.1l0.5-1.4l0,0l0,0l0,0l0,0l0.5,1.4c0,0.1,0.1,0.1,0.1,0.1l1.4,0l-1.1,0.8C23.2,11.2,23.2,11.3,23.2,11.3z"/>
			<path class="st2" d="M18.5,13.3l0.3,0.9L18,13.6v0l-0.8,0.5l0.3-0.9c0,0,0-0.1,0-0.1l-0.7-0.5l0.9,0c0,0,0.1,0,0.1,0l0.3-0.8
				l0.3,0.8c0,0,0,0,0.1,0l0.9,0L18.5,13.3C18.5,13.2,18.5,13.3,18.5,13.3z"/>
			<path class="st2" d="M27.3,13.3l0.3,0.9l-0.8-0.5v0l-0.8,0.5l0.3-0.9c0,0,0-0.1,0-0.1l-0.7-0.5l0.9,0c0,0,0.1,0,0.1,0l0.3-0.8
				l0.3,0.8c0,0,0,0,0.1,0l0.9,0L27.3,13.3C27.4,13.2,27.3,13.3,27.3,13.3z"/>
			<path class="st4" d="M23.5,18.9c0,0.3,0,1.6-0.2,3.7l0,0c-0.1,0.9-0.2,2.8-0.3,3.7c-0.2,1.4-0.5,1.9-0.6,2
				c-0.1-0.2-0.4-0.7-0.6-2c-0.1-0.9-0.2-2.8-0.3-3.7l0,0c-0.1-2.1-0.2-3.4-0.2-3.7c0.4-0.1,0.8-0.1,1-0.1
				C22.7,18.8,23.1,18.8,23.5,18.9z"/>
			<path class="st5" d="M24.6,15.9c-0.1,0.3-0.2,0.9-0.5,1.3c-0.2,0-0.7-0.2-1.3-0.2c0,0,0,0-0.1,0c0,0,0,0-0.1,0c0,0,0,0-0.1,0
				c0,0,0,0-0.1,0c0,0-0.1,0-0.1,0h0c0,0-0.1,0-0.1,0c0,0,0,0-0.1,0c0,0,0,0-0.1,0c0,0,0,0-0.1,0c0,0,0,0-0.1,0
				c-0.6,0-1.1,0.2-1.3,0.2c-0.3-0.4-0.4-1-0.5-1.3c0.4,0.2,0.6,0.5,0.6,0.5c0,0,0.1,0,0.1,0c0,0,0.1-0.1,0-0.1
				c-0.2-0.4-0.3-0.9-0.3-1.2c0.5,0.2,0.8,0.7,0.8,0.7c0,0,0.1,0.1,0.1,0c0,0,0.1,0,0.1-0.1c0.1-0.7,0.4-1.4,0.6-1.8l0-0.1l0,0.1
				c0.2,0.4,0.5,1.1,0.6,1.8c0,0,0,0.1,0.1,0.1c0,0,0.1,0,0.1,0c0,0,0.3-0.5,0.8-0.7c0,0.3-0.1,0.8-0.3,1.2c0,0,0,0.1,0,0.1
				c0,0,0.1,0,0.1,0C23.9,16.4,24.2,16.1,24.6,15.9z"/>
			<path class="st1" d="M24.2,18.1c-0.3,0.4-0.6,0.5-0.7,0.5h0c-0.4-0.1-0.9-0.1-1.1-0.1c-0.3,0-0.7,0-1.1,0.1h0
				c-0.1,0-0.4-0.2-0.7-0.5c0.7-0.3,1.7-0.3,1.8-0.3l0,0l0,0C22.5,17.9,23.5,17.9,24.2,18.1z"/>
			<path class="st1" d="M24.4,17.6c0,0.2,0,0.3,0,0.4c-0.8-0.3-1.8-0.3-1.9-0.3c-0.1,0-1.1,0-1.9,0.3c0-0.1,0-0.2,0-0.4c0,0,0,0,0,0
				l0,0c0,0,0,0,0,0c0.1,0,0.3-0.1,0.4-0.1c0,0,0,0,0.1,0c0.3-0.1,0.7-0.1,1.1-0.2c0,0,0,0,0.1,0c0,0,0,0,0.1,0c0,0,0.1,0,0.1,0h0
				c0,0,0.1,0,0.1,0c0,0,0,0,0.1,0c0,0,0,0,0.1,0c0.4,0,0.9,0.1,1.1,0.2c0,0,0,0,0,0c0,0,0,0,0,0C24.1,17.5,24.3,17.5,24.4,17.6
				C24.4,17.5,24.4,17.6,24.4,17.6C24.4,17.6,24.4,17.6,24.4,17.6z"/>
		</g>
		<g id="Outline_00000123431753207730888890000005928488240895497143_">
			<path d="M44.8,16.2L44.8,16.2l0-0.1c0,0-2.6-3.8-9.9-9.3C28.3,2,22.5,0,22.4,0l0,0l0,0C22.3,0,16.5,2,10,6.8
				c-7.3,5.4-9.9,9.2-9.9,9.3l0,0.1l0,0.1c0,0,0,4.8,2.6,13c2.7,8.6,6.1,12.9,6.1,12.9l0,0.1l0.1,0C12,43.4,18.2,44,22.4,44
				s10.4-0.6,13.6-1.7l0.1,0l0-0.1c0,0,3.4-4.4,6.1-12.9C44.9,21,44.8,16.3,44.8,16.2z M41.9,29.1c-2.5,8-5.6,12.2-6,12.8
				c-3.2,1.1-9.3,1.7-13.4,1.7S12.2,43,9,41.9c-0.4-0.5-3.5-4.8-6-12.8c-2.4-7.6-2.5-12.2-2.5-12.8c0.3-0.5,3-4.1,9.8-9.1
				c6-4.4,11.3-6.4,12.2-6.7c0.9,0.3,6.2,2.3,12.2,6.7c6.8,5,9.5,8.6,9.8,9.1C44.4,16.9,44.3,21.5,41.9,29.1z"/>
			<path d="M22.4,7.7c-8.6,0-15.6,7-15.6,15.6S13.8,39,22.4,39s15.6-7,15.6-15.6S31,7.7,22.4,7.7z M22.4,38.6
				c-8.4,0-15.2-6.8-15.2-15.2S14,8.2,22.4,8.2S37.6,15,37.6,23.4S30.8,38.6,22.4,38.6z"/>
			<path d="M24.7,10.1l-0.3,0l-1.3,0c-0.1,0-0.1,0-0.1-0.1l-0.4-1.2l-0.1-0.3c0-0.1-0.2-0.1-0.2,0l-0.1,0.3L21.8,10
				c0,0.1-0.1,0.1-0.1,0.1l-1.3,0l-0.3,0c-0.1,0-0.2,0.2-0.1,0.2l0.2,0.2l1,0.7c0,0,0.1,0.1,0,0.1L21,12.7l-0.1,0.3
				c0,0.1,0.1,0.2,0.2,0.1l0.2-0.2l1.1-0.8l0,0l0,0l1.1,0.8l0.2,0.2c0.1,0.1,0.2,0,0.2-0.1l-0.1-0.3l-0.4-1.3c0-0.1,0-0.1,0-0.1
				l1-0.7l0.2-0.2C24.9,10.3,24.8,10.1,24.7,10.1z M23.3,11.2c0,0-0.1,0.1,0,0.1l0.4,1.4l-1.2-0.9l0,0l0,0l-1.2,0.9l0.4-1.4
				c0-0.1,0-0.1,0-0.1l-1.1-0.8l1.4,0c0.1,0,0.1,0,0.1-0.1l0.5-1.4l0,0l0,0l0,0l0,0l0.5,1.4c0,0.1,0.1,0.1,0.1,0.1l1.4,0L23.3,11.2z
				"/>
			<path d="M19.4,28.4l0,0.2c0.3,0,1.5,0,2.7,0.6l0-0.2C20.9,28.4,19.8,28.3,19.4,28.4z"/>
			<path d="M19.4,28.7l0,0.2c0.3,0,1.5,0,2.7,0.7l0-0.3C20.9,28.7,19.7,28.7,19.4,28.7z"/>
			<path d="M19.4,29.1l0,0.2c0.1,0,1.5,0,2.8,0.8l0-0.3C20.9,29.1,19.6,29.1,19.4,29.1z"/>
			<path d="M19.3,29.7c0.1,0,1.5,0,2.8,0.9l0-0.3c-1.3-0.8-2.6-0.9-2.8-0.9L19.3,29.7z"/>
			<path d="M19.3,30.1c0.1,0,1.5,0,2.8,1l0-0.3c-1.3-0.9-2.6-0.9-2.8-0.9L19.3,30.1z"/>
			<path d="M19.2,30.3l0,0.2c0.1,0,1.6,0,2.9,1l0-0.3c-0.6-0.5-1.3-0.7-1.8-0.8C19.7,30.4,19.3,30.3,19.2,30.3z"/>
			<path d="M19.2,31.1c0.3,0,1.7,0.1,2.9,1.1l0,0l0-0.3c-1.2-0.9-2.6-1-2.9-1L19.2,31.1z"/>
			<path d="M13.4,26c0.2,0.1,0.2,0.3,0.2,0.5c0,0.1,0,0.2-0.2,0.2c-0.4,0-0.6-0.1-0.8-0.3c-0.2-0.2-0.4-0.3-0.8-0.4
				c0,0-0.1,0-0.1,0.1c0,0,0,0.1,0,0.1c0,0,0.3,0.3,0.4,0.8c0.2,0.6,1,0.9,1.7,0.8c0.4,0,0.7-0.1,1-0.2c0.5-0.1,0.8-0.2,0.9,0
				c0.1,0.1,0.1,0.3,0.1,0.4c0,0.1-0.2,0.3-0.4,0.4c-0.1,0.1-0.2,0.1-0.3,0.1c-0.1,0-0.1-0.1-0.1-0.3c0-0.1-0.1-0.2-0.2-0.2
				c-0.2-0.1-0.6,0.1-0.8,0.3c-0.2,0.2-0.2,0.4-0.1,0.7c0.3,0.5,1.2,0.8,2,0.8c0.3,0,0.5,0,0.7-0.1c0.1,0,0.8-0.2,1.7-1.6
				c0.3-0.6,0.8-0.9,1.4-1c0.5-0.1,0.9,0.1,1.3,0.4c0,0,0.1,0,0.1,0c0,0,0.1-0.1,0-0.1c0,0-0.4-0.7-0.1-1.8c0.2-0.8,0.2-1.6-0.2-2.1
				c-0.2-0.3-0.4-0.4-0.7-0.5c-0.3-0.1-0.7,0-1,0.1c-0.5,0.2-1,0.3-1.8-0.1c-0.2-0.1-0.4-0.4-0.4-0.8c0-0.4,0.1-0.8,0.3-0.9
				c0.2-0.1,0.5-0.2,0.8-0.2c0.2,0,0.3,0.1,0.4,0.3c-0.3,0.1-0.7,0.3-0.7,0.8c0,0.3,0.2,0.5,0.6,0.6c0.6,0.1,1.4-0.2,1.6-0.9
				c0.4-1.4-0.7-1.9-1.8-2.4c-0.2-0.1-0.5-0.2-0.7-0.3c-0.9-0.5-1.1-1.1-1.1-3.1c0-1.2-0.7-2.2-1.6-2.5c-0.9-0.3-1.8,0-1.8,0
				c-0.1,0-0.1,0.1-0.1,0.1c0,0.1,0.1,0.1,0.1,0.1c0,0,0.6,0,1,0.4c0.2,0.2,0.3,0.6,0.2,1c-0.1,0.5-0.2,0.9-0.3,1.3
				c-0.2,0.6-0.3,1.2-0.3,2.2c0,0.3,0,0.5,0.1,0.8c-0.4-0.1-0.8-0.4-1.3-0.9c-0.1-0.1-0.2-0.3-0.3-0.4c-0.4-0.5-0.6-0.8-1.6-0.6
				c-0.1,0-0.1,0.1-0.1,0.1c0,0.1,0.1,0.1,0.1,0.1c0,0,0.3,0,0.5,0.2c0.2,0.2,0.3,0.6,0.2,1l0,0.2C11,20.4,11,21,12.1,21.9
				c0.7,0.5,0.9,0.9,1,1.3c0,0-0.1,0-0.1,0c-0.8,0-1.2-0.2-1.6-1c-0.6-1.2-1.5-0.9-1.8-0.7c0,0-0.1,0.1-0.1,0.1c0,0,0,0.1,0.1,0.1
				c0,0,0.7,0.3,0.7,0.8c0,0.4,0.1,0.7,0.1,0.9c0.1,1,0.1,1.4,0.8,1.9c0.3,0.2,0.6,0.3,0.9,0.3C12.5,25.7,12.9,25.7,13.4,26z
				 M10.7,23.3c0-0.3,0-0.6-0.1-0.9c0-0.4-0.4-0.7-0.6-0.8c0.4-0.1,0.9-0.1,1.3,0.7c0.4,0.8,0.9,1.2,1.8,1.1c0,0,0.1,0,0.1,0
				c0,0,0,0,0,0c0.1,0.4,0.3,0.8,0.9,1.4c0.5,0.4,1.2,0.5,1.5,0.3c0.1-0.1,0.3-0.3,0.3-0.6c0-0.2-0.1-0.5-0.5-0.9
				c-0.8-0.5-1.5-0.5-2.1-0.5c-0.1-0.4-0.3-0.8-1.1-1.4c-1-0.8-1-1.3-0.8-2.6l0-0.2c0.1-0.5,0-0.9-0.3-1.2c-0.1-0.1-0.1-0.1-0.2-0.2
				c0.5,0,0.7,0.2,1,0.5c0.1,0.1,0.2,0.3,0.3,0.4c0.6,0.6,1.1,0.8,1.5,1c0.2,0.6,0.6,1.1,0.9,1.3c0.2,0.1,0.4,0.1,0.5,0
				c0.2-0.1,0.2-0.3,0.2-0.5c-0.1-0.3-0.5-0.7-1.1-0.9c-0.1,0-0.2,0-0.4-0.1c-0.1-0.2-0.1-0.5-0.1-0.8c0-1,0.1-1.5,0.3-2.2
				c0.1-0.4,0.2-0.8,0.3-1.3c0.1-0.5,0-0.9-0.3-1.2c-0.2-0.2-0.3-0.3-0.5-0.3c0.3,0,0.7,0,1.1,0.1c0.8,0.3,1.4,1.2,1.4,2.3
				c0,2.1,0.3,2.8,1.3,3.3c0.2,0.1,0.5,0.2,0.7,0.4c1.1,0.5,2,0.9,1.7,2.1c-0.2,0.7-0.9,0.9-1.3,0.8c-0.1,0-0.4-0.1-0.4-0.3
				c0-0.6,0.6-0.7,0.7-0.7c0,0,0.1,0,0.1-0.1c0,0,0-0.1,0-0.1c-0.1-0.3-0.3-0.5-0.6-0.5c-0.4-0.1-0.8,0-1,0.2
				c-0.3,0.2-0.5,0.7-0.4,1.1c0,0.4,0.2,0.8,0.5,1c0.9,0.5,1.5,0.3,2,0.1c0.3-0.1,0.6-0.2,0.9-0.1c0.2,0,0.4,0.2,0.5,0.4
				c0.3,0.4,0.3,1.2,0.1,1.9c-0.2,0.7-0.1,1.2,0,1.6c-0.3-0.2-0.8-0.3-1.2-0.2c-0.6,0.1-1.2,0.5-1.5,1.1c-0.8,1.4-1.5,1.5-1.5,1.5
				c0,0,0,0,0,0c-0.6,0.2-2.1,0-2.4-0.6c-0.1-0.2-0.1-0.3,0-0.4c0.1-0.1,0.3-0.2,0.5-0.2c0,0,0,0,0.1,0c0,0,0.1,0,0.1,0
				c0,0.2,0.1,0.4,0.3,0.5c0.1,0.1,0.3,0,0.5-0.1c0.3-0.2,0.4-0.3,0.5-0.5c0-0.2,0-0.4-0.1-0.6c-0.2-0.3-0.6-0.2-1.1-0.1
				c-0.3,0.1-0.6,0.2-0.9,0.2c-0.6,0.1-1.3-0.1-1.4-0.6c-0.1-0.3-0.2-0.5-0.3-0.7c0.2,0.1,0.3,0.2,0.4,0.3c0.2,0.2,0.4,0.4,0.9,0.3
				c0.2,0,0.3-0.2,0.3-0.4c0-0.3,0-0.6-0.3-0.7c-0.6-0.3-1-0.4-1.3-0.4c-0.3-0.1-0.6-0.1-0.8-0.3C10.8,24.6,10.8,24.3,10.7,23.3z
				 M13.4,23.4c0.5,0,1.2-0.1,1.9,0.4c0.3,0.2,0.5,0.5,0.5,0.7c0,0.2-0.1,0.3-0.2,0.4c-0.2,0.1-0.8,0.1-1.3-0.3
				C13.7,24.1,13.5,23.7,13.4,23.4z M14,19.6c0.1,0,0.2,0,0.2,0c0.6,0.1,0.9,0.4,0.9,0.7c0,0.1,0,0.2-0.1,0.3c-0.1,0.1-0.2,0-0.3,0
				C14.5,20.5,14.2,20.1,14,19.6z"/>
			<path d="M19.7,12.5l-0.4,0l-0.7,0c0,0-0.1,0-0.1,0l-0.2-0.7l-0.1-0.4c0-0.1-0.1-0.1-0.1,0l-0.1,0.4l-0.2,0.7c0,0,0,0-0.1,0
				l-0.7,0l-0.4,0c-0.1,0-0.1,0.1,0,0.1l0.4,0.3l0.6,0.4c0,0,0,0,0,0.1L17,14.1l-0.1,0.4c0,0.1,0.1,0.1,0.1,0.1l0.4-0.2l0.6-0.4v0
				l0.6,0.5l0.4,0.2c0.1,0,0.1,0,0.1-0.1L19,14.1l-0.2-0.7c0,0,0-0.1,0-0.1l0.6-0.4l0.4-0.3C19.8,12.6,19.7,12.5,19.7,12.5z
				 M18.5,13.2C18.5,13.2,18.5,13.3,18.5,13.2l0.2,1L18,13.6v0l-0.8,0.5l0.3-0.9c0,0,0-0.1,0-0.1l-0.7-0.5l0.9,0c0,0,0.1,0,0.1,0
				l0.3-0.8l0.3,0.8c0,0,0,0,0.1,0l0.9,0L18.5,13.2z"/>
			<path d="M25.4,28.6l0-0.2c-0.4,0-1.5,0-2.7,0.6l0,0.2C23.9,28.6,25.1,28.6,25.4,28.6z"/>
			<path d="M25.5,28.9l0-0.2c-0.3,0-1.5,0-2.7,0.7l0,0.3C24,28.9,25.2,28.9,25.5,28.9z"/>
			<path d="M25.5,29.3l0-0.2c-0.3,0-1.5,0-2.7,0.7l0,0.3C24,29.3,25.4,29.3,25.5,29.3z"/>
			<path d="M25.5,29.5c-0.2,0-1.5,0-2.8,0.9l0,0.3c1.3-0.9,2.7-0.9,2.8-0.9L25.5,29.5z"/>
			<path d="M25.6,29.9c-0.2,0-1.6,0.1-2.8,0.9l0,0.3c1.3-0.9,2.7-1,2.8-1L25.6,29.9z"/>
			<path d="M24.6,30.5c-0.5,0.1-1.2,0.4-1.8,0.8l0,0.3c1.3-1,2.8-1,2.9-1l0-0.2C25.5,30.3,25.1,30.4,24.6,30.5z"/>
			<path d="M22.8,32.1L22.8,32.1c1.2-1,2.6-1.1,2.9-1.1l0-0.2c-0.3,0-1.7,0.1-2.9,1L22.8,32.1z"/>
			<path d="M32.8,18c-0.1,0.1-0.2,0.3-0.3,0.4c-0.5,0.5-0.9,0.7-1.3,0.9c0.1-0.2,0.1-0.5,0.1-0.8c0-1-0.1-1.6-0.3-2.2
				c-0.1-0.4-0.2-0.8-0.3-1.3c-0.1-0.4,0-0.8,0.2-1c0.4-0.4,1-0.4,1-0.4c0.1,0,0.1,0,0.1-0.1c0-0.1,0-0.1-0.1-0.1c0,0-0.9-0.3-1.8,0
				c-0.9,0.3-1.6,1.3-1.6,2.5c0,2-0.2,2.6-1.1,3.1c-0.2,0.1-0.5,0.2-0.7,0.3c-1.1,0.5-2.2,1-1.8,2.4c0.2,0.7,1,1,1.6,0.9
				c0.4-0.1,0.6-0.3,0.6-0.6c0-0.5-0.4-0.8-0.7-0.8c0.1-0.1,0.2-0.2,0.4-0.3c0.3-0.1,0.6,0,0.8,0.2c0.2,0.2,0.4,0.6,0.3,0.9
				c0,0.4-0.2,0.7-0.4,0.8c-0.8,0.4-1.3,0.3-1.8,0.1c-0.3-0.1-0.6-0.2-1-0.1c-0.3,0.1-0.5,0.2-0.7,0.5c-0.3,0.5-0.4,1.3-0.2,2.1
				c0.3,1-0.1,1.8-0.1,1.8c0,0,0,0.1,0,0.1c0,0,0.1,0,0.1,0c0.4-0.3,0.8-0.5,1.3-0.4c0.5,0.1,1,0.5,1.4,1c0.8,1.4,1.6,1.6,1.7,1.6
				c0.2,0.1,0.4,0.1,0.7,0.1c0.8,0,1.7-0.3,2-0.8c0.1-0.2,0.1-0.5-0.1-0.7c-0.2-0.2-0.5-0.4-0.8-0.3c-0.1,0-0.2,0.1-0.2,0.2
				c0,0.2-0.1,0.3-0.1,0.3c-0.1,0-0.2,0-0.3-0.1c-0.2-0.1-0.3-0.3-0.4-0.4c0-0.1,0-0.3,0.1-0.4c0.1-0.2,0.4-0.1,0.9,0
				c0.3,0.1,0.6,0.2,1,0.2c0.7,0.1,1.5-0.2,1.7-0.8c0.1-0.5,0.4-0.8,0.4-0.8c0,0,0-0.1,0-0.1c0,0-0.1-0.1-0.1-0.1
				c-0.4,0.1-0.6,0.2-0.8,0.4c-0.2,0.2-0.3,0.3-0.8,0.3c-0.1,0-0.1-0.1-0.2-0.2c0-0.2,0-0.4,0.2-0.5c0.5-0.3,0.9-0.4,1.3-0.4
				c0.3-0.1,0.6-0.1,0.9-0.3c0.7-0.5,0.7-0.9,0.8-1.9c0-0.3,0-0.6,0.1-0.9c0.1-0.5,0.7-0.8,0.7-0.8c0,0,0.1-0.1,0.1-0.1
				c0,0,0-0.1-0.1-0.1c-0.3-0.1-1.2-0.5-1.8,0.7c-0.4,0.8-0.8,1-1.6,1c0,0-0.1,0-0.1,0c0.1-0.4,0.3-0.7,1-1.3
				c1.1-0.9,1.1-1.5,0.9-2.7l0-0.2c0-0.5,0-0.8,0.2-1c0.2-0.2,0.5-0.2,0.5-0.2c0.1,0,0.1,0,0.1-0.1c0-0.1,0-0.1-0.1-0.1
				C33.4,17.3,33.1,17.6,32.8,18z M33.9,17.6c-0.1,0-0.1,0.1-0.2,0.2c-0.2,0.3-0.3,0.7-0.3,1.2l0,0.2c0.1,1.2,0.2,1.8-0.8,2.6
				c-0.8,0.6-1,1-1.1,1.4c-0.5,0-1.3-0.1-2.1,0.5c-0.5,0.3-0.5,0.7-0.5,0.9c0,0.3,0.1,0.5,0.3,0.6c0.3,0.2,1,0.2,1.5-0.3
				c0.7-0.6,0.8-1,0.9-1.4c0,0,0,0,0,0c0.1,0,0.1,0,0.1,0c0.9,0.1,1.4-0.3,1.8-1.1c0.4-0.8,0.8-0.8,1.3-0.7
				c-0.2,0.1-0.6,0.4-0.6,0.8c0,0.4-0.1,0.7-0.1,0.9c-0.1,1-0.1,1.3-0.7,1.7c-0.3,0.2-0.5,0.2-0.8,0.3c-0.3,0.1-0.8,0.1-1.3,0.4
				C31,26,30.9,26.3,31,26.6c0,0.2,0.2,0.3,0.3,0.4c0.5,0.1,0.7-0.1,0.9-0.3c0.1-0.1,0.2-0.2,0.4-0.3c-0.1,0.2-0.2,0.4-0.3,0.7
				c-0.1,0.5-0.8,0.7-1.4,0.6c-0.3,0-0.6-0.1-0.9-0.2c-0.5-0.2-0.9-0.3-1.1,0.1c-0.1,0.2-0.1,0.4-0.1,0.6c0.1,0.2,0.2,0.4,0.5,0.5
				c0.2,0.1,0.4,0.1,0.5,0.1c0.2-0.1,0.2-0.3,0.3-0.5c0,0,0,0,0.1,0c0,0,0,0,0.1,0c0.1,0,0.4,0.1,0.5,0.2c0.1,0.1,0.1,0.3,0,0.4
				c-0.3,0.6-1.8,0.8-2.4,0.6c0,0,0,0,0,0c0,0-0.7-0.1-1.5-1.5c-0.4-0.6-0.9-1-1.5-1.1c-0.4-0.1-0.8,0-1.2,0.2
				c0.1-0.3,0.2-0.9,0-1.6c-0.2-0.8-0.1-1.5,0.1-1.9c0.1-0.2,0.3-0.4,0.5-0.4c0.3-0.1,0.6,0,0.9,0.1c0.5,0.2,1.1,0.3,2-0.1
				c0.3-0.2,0.5-0.5,0.5-1c0-0.5-0.1-0.9-0.4-1.1c-0.2-0.2-0.6-0.3-1-0.2c-0.3,0.1-0.5,0.3-0.6,0.5c0,0,0,0.1,0,0.1
				c0,0,0.1,0.1,0.1,0.1c0,0,0.6,0.1,0.7,0.7c0,0.3-0.3,0.3-0.4,0.3c-0.4,0.1-1.1-0.1-1.3-0.8c-0.4-1.2,0.6-1.6,1.7-2.1
				c0.2-0.1,0.5-0.2,0.7-0.4c1-0.5,1.2-1.2,1.3-3.3c0-1.1,0.6-2,1.4-2.3c0.4-0.1,0.8-0.1,1.1-0.1c-0.2,0.1-0.4,0.2-0.5,0.3
				c-0.3,0.3-0.4,0.7-0.3,1.2c0.1,0.5,0.2,0.9,0.3,1.3c0.2,0.6,0.3,1.2,0.3,2.2c0,0.3-0.1,0.6-0.1,0.8c-0.1,0-0.3,0.1-0.4,0.1
				c-0.7,0.1-1,0.5-1.1,0.9c0,0.2,0,0.4,0.2,0.5c0.1,0.1,0.3,0.1,0.5,0c0.4-0.2,0.7-0.6,0.9-1.3c0.4-0.1,1-0.4,1.5-1
				c0.1-0.1,0.2-0.3,0.3-0.4C33.2,17.8,33.4,17.6,33.9,17.6z M31.4,23.4c-0.1,0.4-0.2,0.7-0.9,1.2c-0.5,0.4-1.1,0.4-1.3,0.3
				c-0.1,0-0.2-0.2-0.2-0.4c0-0.2,0.2-0.5,0.5-0.7C30.2,23.3,30.9,23.3,31.4,23.4z M30.8,19.6c-0.2,0.5-0.5,0.9-0.8,1
				c-0.1,0-0.2,0.1-0.3,0c-0.1-0.1-0.1-0.2-0.1-0.3c0.1-0.3,0.4-0.6,0.9-0.7C30.7,19.6,30.7,19.6,30.8,19.6z"/>
			<path d="M33.3,32.4L32,32.5l0.2-1.8c0-0.1,0-0.1-0.1-0.1c0,0-0.1,0-0.1,0c-0.5,0.8-1.4,1.5-1.6,1.7l-0.9-0.9c0,0-0.1,0-0.1,0
				c-2.5,2.1-5.4,2.4-6.8,2.4c-1.4,0-4.4-0.3-6.8-2.4c0,0-0.1,0-0.1,0l-0.9,0.9c-0.3-0.2-1.2-1-1.6-1.7c0,0-0.1-0.1-0.1,0
				c0,0-0.1,0.1-0.1,0.1l0.2,1.8l-1.3-0.1c0,0-0.1,0-0.1,0.1c0,0,0,0.1,0,0.1c0,0,1.4,1.8,3.7,3.1c0,0,0,0,0.1,0c0,0,0.1,0,0.1,0
				l0.5-0.7c0.2,0.1,0.3,0.2,0.5,0.3c1.4,0.7,3.5,1.5,6.1,1.5h0h0c2.6,0,4.7-0.8,6.1-1.5c0.2-0.1,0.3-0.2,0.5-0.3l0.5,0.7
				c0,0,0.1,0,0.1,0c0,0,0,0,0.1,0c2.3-1.3,3.7-3.1,3.7-3.1c0,0,0-0.1,0-0.1C33.4,32.4,33.3,32.4,33.3,32.4z M11.8,32.7l1.2,0.1
				c0,0,0.1,0,0.1,0c0,0,0-0.1,0-0.1l-0.1-1.5c0.5,0.7,1.2,1.2,1.4,1.4l-0.8,0.8c0,0,0,0.1,0,0.2c0.1,0.2,0.5,0.8,0.7,1
				c0.1,0.2,0.4,0.5,0.6,0.8C13.2,34.3,12.2,33.1,11.8,32.7z M15.3,35.4C15.2,35.4,15.2,35.4,15.3,35.4c-0.3-0.3-0.7-0.8-0.8-1
				c-0.1-0.1-0.2-0.3-0.3-0.5c0.3,0.3,0.9,0.6,1.5,1L15.3,35.4z M22.4,36.5c-4.5,0-7.8-2.5-8.5-3.1c0,0,0-0.1,0-0.1l1.6-1.5
				c0,0,0.1,0,0.1,0c2.5,2,5.4,2.4,6.9,2.4c1.4,0,4.4-0.3,6.9-2.4c0,0,0.1,0,0.1,0l1.6,1.5c0,0,0,0.1,0,0.1
				C30.2,34,27,36.5,22.4,36.5z M29.7,35.4C29.7,35.4,29.6,35.4,29.7,35.4l-0.5-0.5c0.7-0.4,1.2-0.7,1.5-1c-0.1,0.2-0.2,0.4-0.3,0.5
				C30.3,34.6,29.9,35.1,29.7,35.4z M30,35.2c0.2-0.3,0.4-0.6,0.6-0.8c0.1-0.2,0.5-0.8,0.7-1c0,0,0-0.1,0-0.2l-0.8-0.8
				c0.3-0.2,0.9-0.8,1.4-1.4l-0.1,1.5c0,0,0,0.1,0,0.1c0,0,0.1,0,0.1,0l1.2-0.1C32.7,33.1,31.6,34.3,30,35.2z"/>
			<path d="M28.5,12.5l-0.4,0l-0.7,0c0,0-0.1,0-0.1,0l-0.2-0.7l-0.1-0.4c0-0.1-0.1-0.1-0.1,0l-0.1,0.4l-0.2,0.7c0,0,0,0-0.1,0
				l-0.7,0l-0.4,0c-0.1,0-0.1,0.1,0,0.1l0.4,0.3l0.6,0.4c0,0,0,0,0,0.1l-0.2,0.7l-0.1,0.4c0,0.1,0.1,0.1,0.1,0.1l0.4-0.2l0.6-0.5v0
				l0.6,0.4l0.4,0.2c0.1,0,0.1,0,0.1-0.1l-0.1-0.4l-0.2-0.7c0,0,0-0.1,0-0.1l0.6-0.4l0.4-0.3C28.6,12.6,28.6,12.5,28.5,12.5z
				 M27.4,13.2C27.4,13.2,27.3,13.3,27.4,13.2l0.2,1l-0.8-0.5v0l-0.8,0.5l0.3-0.9c0,0,0-0.1,0-0.1l-0.7-0.5l0.9,0c0,0,0.1,0,0.1,0
				l0.3-0.8l0.3,0.8c0,0,0,0,0.1,0l0.9,0L27.4,13.2z"/>
			<path d="M26.3,32.1l-0.4-4.1c0-0.1,0-0.1-0.1-0.1c-0.1,0-1.6-0.1-3,0.4c0.2-0.3,0.4-0.9,0.5-1.9c0.1-0.9,0.2-2.8,0.3-3.7l0,0
				c0.1-2.1,0.2-3.4,0.2-3.7c0.1-0.1,0.5-0.3,0.8-0.7c0,0,0,0,0-0.1c0,0,0,0,0,0c0-0.1,0.1-0.3,0.1-0.6c0,0,0-0.1-0.1-0.1l-0.2-0.1
				c0.4-0.6,0.5-1.5,0.5-1.6c0,0,0-0.1,0-0.1c0,0-0.1,0-0.1,0c-0.2,0.1-0.4,0.2-0.6,0.3c0.1-0.5,0.2-1,0.2-1c0,0,0-0.1,0-0.1
				c0,0-0.1,0-0.1,0c-0.4,0.1-0.7,0.4-0.9,0.6c-0.2-1-0.7-1.8-0.7-1.9c0,0-0.1-0.1-0.1-0.1c0,0-0.1,0-0.1,0.1c0,0-0.5,0.9-0.7,1.9
				c-0.2-0.2-0.5-0.5-0.9-0.6c0,0-0.1,0-0.1,0c0,0,0,0.1,0,0.1c0,0,0.1,0.5,0.2,1c-0.2-0.1-0.4-0.2-0.6-0.3c0,0-0.1,0-0.1,0
				c0,0,0,0.1,0,0.1c0,0,0.1,0.9,0.5,1.6l-0.2,0.1c0,0-0.1,0.1-0.1,0.1c0,0.4,0.1,0.5,0.1,0.6c0,0,0,0,0,0c0,0,0,0.1,0,0.1
				c0.3,0.4,0.6,0.6,0.8,0.7c0,0.3,0,1.6,0.2,3.7l0,0c0.1,0.9,0.2,2.8,0.3,3.7c0.1,1,0.3,1.6,0.5,1.9c-1.3-0.5-2.9-0.4-3-0.4
				c-0.1,0-0.1,0-0.1,0.1l-0.4,4.1c0,0.1,0,0.1,0.1,0.1c1.7,0.2,3.7,1.7,3.7,1.7c0,0,2.1-1.5,3.7-1.7C26.2,32.2,26.3,32.1,26.3,32.1
				z M20.3,15.9c0.4,0.2,0.6,0.5,0.6,0.5c0,0,0.1,0,0.1,0c0,0,0.1-0.1,0-0.1c-0.2-0.4-0.3-0.9-0.3-1.2c0.5,0.2,0.8,0.7,0.8,0.7
				c0,0,0.1,0.1,0.1,0c0,0,0.1,0,0.1-0.1c0.1-0.7,0.4-1.4,0.6-1.8l0-0.1l0,0.1c0.2,0.4,0.5,1.1,0.6,1.8c0,0,0,0.1,0.1,0.1
				c0,0,0.1,0,0.1,0c0,0,0.3-0.5,0.8-0.7c0,0.3-0.1,0.8-0.3,1.2c0,0,0,0.1,0,0.1c0,0,0.1,0,0.1,0c0,0,0.3-0.3,0.6-0.5
				c-0.1,0.3-0.2,0.9-0.5,1.3c-0.2,0-0.7-0.2-1.3-0.2c0,0,0,0-0.1,0c0,0,0,0-0.1,0c0,0,0,0-0.1,0c0,0,0,0-0.1,0c0,0-0.1,0-0.1,0h0
				c0,0-0.1,0-0.1,0c0,0,0,0-0.1,0c0,0,0,0-0.1,0c0,0,0,0-0.1,0c0,0,0,0-0.1,0c-0.6,0-1.1,0.2-1.3,0.2
				C20.5,16.8,20.3,16.2,20.3,15.9z M20.5,17.6C20.5,17.6,20.5,17.6,20.5,17.6L20.5,17.6C20.5,17.5,20.5,17.5,20.5,17.6
				c0.2-0.1,0.3-0.1,0.5-0.2c0,0,0,0,0.1,0c0.3-0.1,0.7-0.1,1.1-0.2c0,0,0,0,0.1,0c0,0,0,0,0.1,0c0,0,0.1,0,0.1,0h0c0,0,0.1,0,0.1,0
				c0,0,0,0,0.1,0c0,0,0,0,0.1,0c0.4,0,0.9,0.1,1.1,0.2c0,0,0,0,0,0c0,0,0,0,0,0c0.2,0,0.3,0.1,0.4,0.1c0,0,0,0,0,0c0,0,0,0,0,0
				c0,0.2,0,0.3,0,0.4c-0.8-0.3-1.8-0.3-1.9-0.3c-0.1,0-1.1,0-1.9,0.3C20.5,17.9,20.5,17.7,20.5,17.6z M21.3,18.7L21.3,18.7
				c-0.1,0-0.4-0.2-0.7-0.5c0.7-0.3,1.7-0.3,1.8-0.3l0,0l0,0c0.1,0,1.1,0,1.8,0.3c-0.3,0.4-0.6,0.5-0.7,0.5h0
				c-0.4-0.1-0.9-0.1-1.1-0.1C22.1,18.5,21.7,18.6,21.3,18.7z M22.3,32.6c-1.6-0.9-3.1-0.9-3.5-0.9l0.4-3.6c0.4,0,1.9-0.1,3.1,0.5
				V32.6z M21.8,26.3c-0.1-0.9-0.2-2.8-0.3-3.7l0,0c-0.1-2.1-0.2-3.4-0.2-3.7c0.4-0.1,0.8-0.1,1-0.1c0.3,0,0.6,0,1,0.1
				c0,0.3,0,1.6-0.2,3.7l0,0c-0.1,0.9-0.2,2.8-0.3,3.7c-0.2,1.4-0.5,1.9-0.6,2C22.3,28.2,22,27.7,21.8,26.3z M22.5,32.6v-4
				c1.1-0.6,2.7-0.5,3.1-0.5l0.4,3.6C25.7,31.6,24.1,31.7,22.5,32.6z"/>
		</g>
		<g id="Text_00000169556516562794673200000017509664034048689800_">
			<g>
				<path class="st3" d="M9.9,35.7l-0.2-0.2c0.1-0.1,0.2-0.2,0.2-0.3c0-0.1,0-0.2-0.1-0.2c-0.1-0.1-0.1-0.1-0.2-0.1
					c-0.1,0-0.2,0-0.2,0.1c0,0-0.1,0.1-0.1,0.1c0,0,0,0.1,0,0.2c0,0,0,0.1,0.1,0.3c0.1,0.2,0.1,0.3,0.1,0.4c0,0.2-0.1,0.3-0.2,0.4
					c-0.1,0.1-0.2,0.1-0.3,0.2c-0.1,0-0.2,0-0.3,0c-0.1,0-0.2-0.1-0.3-0.2c-0.1-0.1-0.2-0.3-0.2-0.5c0-0.2,0.1-0.3,0.3-0.5l0.2,0.2
					c-0.1,0.1-0.1,0.2-0.1,0.2c0,0.1,0,0.1,0.1,0.2c0.1,0.1,0.1,0.1,0.2,0.1c0,0,0.1,0,0.1-0.1C9,36,9,36,9,36c0-0.1,0-0.2-0.1-0.3
					c-0.1-0.2-0.1-0.3-0.1-0.4c0-0.1,0-0.2,0.1-0.3c0-0.1,0.1-0.2,0.2-0.3c0.1-0.1,0.2-0.2,0.3-0.2c0.1,0,0.2,0,0.3,0
					c0.1,0,0.2,0.1,0.3,0.2c0.1,0.1,0.2,0.3,0.2,0.5C10.2,35.3,10.1,35.5,9.9,35.7z"/>
				<path class="st3" d="M9.4,34l-1.8,1.4l-0.7-0.9l0.3-0.2l0.5,0.7l0.4-0.3L7.6,34l0.3-0.2l0.5,0.6L8.9,34l-0.5-0.7L8.7,33L9.4,34z
					"/>
				<path class="st3" d="M8.5,32.8L6.5,34l-0.2-0.3l0.9-0.5l-1.2,0l-0.2-0.4l1.1,0l0.9-1.3l0.2,0.4l-0.7,0.9l0.5,0l0.6-0.4L8.5,32.8
					z"/>
				<path class="st3" d="M6.6,31.9c-0.2,0.1-0.4,0.2-0.6,0.2c-0.1,0-0.2,0-0.3,0c-0.1,0-0.2,0-0.3-0.1c-0.1-0.1-0.2-0.1-0.2-0.3
					c-0.1-0.2-0.1-0.4,0-0.6c0.1-0.2,0.4-0.4,0.7-0.6c0.3-0.2,0.6-0.2,0.9-0.2c0.2,0,0.4,0.2,0.5,0.4c0.1,0.2,0.1,0.4,0,0.6
					C7.2,31.6,7,31.8,6.6,31.9z M6.5,31.7c0.2-0.1,0.4-0.2,0.5-0.4C7,31.1,7.1,31,7,30.9c-0.1-0.1-0.2-0.2-0.3-0.2
					c-0.2,0-0.4,0-0.6,0.2c-0.2,0.1-0.4,0.2-0.5,0.4c-0.1,0.1-0.1,0.3,0,0.4s0.2,0.2,0.3,0.2C6,31.8,6.2,31.8,6.5,31.7z"/>
				<path class="st3" d="M6.9,29.8l-2.1,0.8l-0.1-0.3l1.8-0.7l-0.3-0.7l0.4-0.1L6.9,29.8z"/>
				<path class="st3" d="M6,27.1l0.1,0.3l-0.5,0.3l0.2,0.6l0.5,0l0.1,0.3l-2.4,0L4,28.3L6,27.1z M5.3,27.9l-0.8,0.4l0.9,0L5.3,27.9z
					"/>
				<path class="st3" d="M6,26.9l-2.3,0.4L3.6,27l0.9-0.2l-0.1-0.6l-0.9,0.2l-0.1-0.3l2.3-0.4L5.8,26l-1,0.2l0.1,0.6l1-0.2L6,26.9z"
					/>
				<path class="st3" d="M5.6,24.2l-1.9,0.1l0,0.5l-0.4,0l-0.1-1.3l0.4,0l0,0.5l1.9-0.1L5.6,24.2z"/>
				<path class="st3" d="M5.6,23.2l-2.3,0l0-0.3l2.3,0L5.6,23.2z"/>
				<path class="st3" d="M5.6,22.5l-2.3-0.2l0-0.3l1.6-0.5l-1.5-0.1l0-0.3l2.3,0.2l0,0.3l-1.6,0.5l1.5,0.1L5.6,22.5z"/>
				<path class="st3" d="M5.1,20l-0.4-0.1l0.1-0.7l0.9,0.2c0.1,0.1,0.1,0.2,0.2,0.3c0,0.1,0.1,0.3,0,0.4c0,0.2-0.1,0.3-0.2,0.4
					c-0.1,0.1-0.3,0.2-0.5,0.2c-0.2,0-0.4,0-0.6,0c-0.2,0-0.4-0.1-0.6-0.2c-0.2-0.1-0.3-0.2-0.4-0.4c-0.1-0.1-0.1-0.2,0-0.4
					c0-0.2,0.1-0.3,0.3-0.4c0.1-0.1,0.3-0.1,0.5-0.1l0,0.3c-0.1,0-0.2,0-0.3,0.1c-0.1,0-0.1,0.1-0.1,0.2c0,0.1,0,0.3,0.1,0.4
					s0.3,0.2,0.5,0.2c0.3,0.1,0.5,0,0.6,0c0.1-0.1,0.2-0.2,0.3-0.3c0-0.1,0-0.1,0-0.2s-0.1-0.1-0.1-0.2l-0.3-0.1L5.1,20z"/>
				<path class="st3" d="M5.5,18.2l-0.4-0.1l0.2-0.7l0.9,0.3c0.1,0.1,0.1,0.2,0.2,0.4c0,0.1,0,0.3,0,0.4c0,0.2-0.1,0.3-0.3,0.4
					C6,18.9,5.8,19,5.6,19c-0.2,0-0.4,0-0.6-0.1c-0.2-0.1-0.4-0.2-0.6-0.3c-0.2-0.1-0.3-0.3-0.3-0.4c0-0.1,0-0.3,0-0.4
					c0.1-0.2,0.2-0.3,0.3-0.4c0.1-0.1,0.3-0.1,0.5-0.1l0,0.3c-0.1,0-0.2,0-0.3,0c-0.1,0-0.1,0.1-0.2,0.2c0,0.1,0,0.3,0.1,0.4
					c0.1,0.1,0.3,0.2,0.5,0.3c0.3,0.1,0.5,0.1,0.6,0.1c0.2,0,0.3-0.1,0.3-0.3c0-0.1,0-0.1,0-0.2c0-0.1,0-0.1-0.1-0.2l-0.3-0.1
					L5.5,18.2z"/>
				<path class="st3" d="M6.7,17.5l-2.1-0.8l0.1-0.3l2.1,0.8L6.7,17.5z"/>
				<path class="st3" d="M7.2,16.2l-2.1-1l0.1-0.3l2.1,1L7.2,16.2z"/>
				<path class="st3" d="M7.5,15.6l-2-1.1l0.2-0.3l1.6,0.9l0.4-0.7l0.3,0.2L7.5,15.6z"/>
				<path class="st3" d="M8.2,14.4l-1.9-1.3l0.3-0.4L8,13.4l-1.1-1.1l0.3-0.4l1.9,1.3l-0.2,0.2l-1.5-1l1.3,1.3l-0.2,0.3l-1.7-0.8
					l1.5,1L8.2,14.4z"/>
				<path class="st3" d="M7.6,11.4l0.2-0.2l0.9,0.8C8.9,12.1,9,12.2,9,12.2c0.1,0.1,0.2,0.1,0.2,0.1c0.1,0,0.1,0,0.2-0.1
					C9.5,12.1,9.5,12,9.5,12c0-0.1,0-0.1-0.1-0.2c-0.1-0.1-0.1-0.1-0.3-0.3l-1-0.8l0.2-0.2l0.9,0.8c0.2,0.2,0.3,0.3,0.4,0.4
					c0.1,0.1,0.1,0.2,0.2,0.3c0,0.1,0,0.2,0,0.3s-0.1,0.2-0.1,0.3c-0.1,0.1-0.2,0.2-0.3,0.2c-0.1,0-0.2,0-0.3,0
					c-0.1,0-0.2-0.1-0.3-0.1c-0.1-0.1-0.3-0.2-0.5-0.4L7.6,11.4z"/>
				<path class="st3" d="M10.4,10.7l0.2-0.2c0.1,0.1,0.2,0.2,0.3,0.2c0.1,0,0.2,0,0.2-0.1c0.1-0.1,0.1-0.1,0.1-0.2
					c0-0.1,0-0.2-0.1-0.2c0,0-0.1-0.1-0.1-0.1c0,0-0.1,0-0.2,0c0,0-0.1,0-0.3,0.1c-0.2,0.1-0.3,0.1-0.4,0.1c-0.2,0-0.3-0.1-0.4-0.3
					C9.7,9.8,9.6,9.7,9.6,9.6c0-0.1,0-0.2,0-0.3c0-0.1,0.1-0.2,0.2-0.3c0.1-0.1,0.3-0.2,0.5-0.2c0.2,0,0.3,0.1,0.5,0.3l-0.2,0.2
					c-0.1-0.1-0.2-0.1-0.2-0.1c-0.1,0-0.1,0-0.2,0.1C10,9.4,9.9,9.5,9.9,9.5c0,0,0,0.1,0.1,0.1c0,0,0.1,0.1,0.1,0.1
					c0.1,0,0.2,0,0.3-0.1c0.2-0.1,0.3-0.1,0.4-0.1c0.1,0,0.2,0,0.3,0.1c0.1,0,0.2,0.1,0.3,0.2c0.1,0.1,0.1,0.2,0.2,0.3
					c0,0.1,0,0.2,0,0.3s-0.1,0.2-0.2,0.3C11.2,11,11.1,11,10.9,11C10.7,11,10.5,10.8,10.4,10.7z"/>
				<path class="st3" d="M11.3,9.3c-0.1-0.2-0.2-0.4-0.3-0.5C11,8.7,11,8.6,11,8.4c0-0.1,0-0.2,0-0.3c0-0.1,0.1-0.2,0.2-0.3
					c0.2-0.1,0.4-0.2,0.6-0.1c0.2,0.1,0.5,0.3,0.7,0.6c0.2,0.3,0.3,0.6,0.3,0.8c0,0.3-0.1,0.4-0.3,0.6C12.5,10,12.2,10,12,9.9
					S11.6,9.6,11.3,9.3z M11.6,9.1c0.2,0.2,0.3,0.3,0.4,0.4c0.1,0.1,0.3,0.1,0.4,0c0.1-0.1,0.2-0.2,0.1-0.3s-0.1-0.3-0.2-0.6
					c-0.2-0.2-0.3-0.4-0.4-0.4c-0.1-0.1-0.3-0.1-0.4,0c-0.1,0.1-0.2,0.2-0.1,0.3C11.4,8.7,11.4,8.9,11.6,9.1z"/>
				<path class="st3" d="M13.1,8.6l0.2-0.2c0.1,0.1,0.2,0.2,0.3,0.2c0.1,0,0.2,0,0.3,0C13.9,8.5,14,8.5,14,8.4c0-0.1,0-0.2,0-0.2
					c0,0-0.1-0.1-0.1-0.1c0,0-0.1,0-0.1,0c0,0-0.1,0-0.3,0c-0.2,0-0.3,0-0.4,0c-0.1-0.1-0.3-0.2-0.4-0.3c-0.1-0.1-0.1-0.2-0.1-0.3
					c0-0.1,0-0.2,0.1-0.3c0-0.1,0.1-0.2,0.2-0.2c0.2-0.1,0.3-0.1,0.5-0.1c0.2,0.1,0.3,0.2,0.4,0.4l-0.3,0.2
					c-0.1-0.1-0.1-0.2-0.2-0.2c-0.1,0-0.1,0-0.2,0c-0.1,0-0.1,0.1-0.1,0.2c0,0,0,0.1,0,0.1c0,0,0.1,0.1,0.1,0.1c0.1,0,0.2,0,0.3,0
					c0.2,0,0.3,0,0.4,0c0.1,0,0.2,0.1,0.3,0.1c0.1,0.1,0.2,0.2,0.2,0.3c0.1,0.1,0.1,0.2,0.1,0.4c0,0.1,0,0.2-0.1,0.3
					c-0.1,0.1-0.1,0.2-0.3,0.2C13.8,9,13.7,9.1,13.5,9C13.4,8.9,13.2,8.8,13.1,8.6z"/>
				<path class="st3" d="M14.8,8.5l-1-2.1l0.3-0.1l1,2.1L14.8,8.5z"/>
				<path class="st3" d="M16.8,7.6l-0.3,0.1l-0.3-0.4l-0.6,0.2l0.1,0.5l-0.3,0.1L15,5.8l0.3-0.1L16.8,7.6z M15.9,7l-0.5-0.7l0.1,0.9
					L15.9,7z"/>
				<path class="st3" d="M17,7.5l-0.7-2.2l0.3-0.1l0.6,1.8l0.8-0.2l0.1,0.4L17,7.5z"/>
				<path class="st3" d="M18.6,4.7l0.6-0.1c0.1,0,0.2,0,0.3,0c0.1,0,0.2,0.1,0.3,0.2c0.1,0.1,0.2,0.2,0.2,0.3
					C20,5.3,20,5.5,20.1,5.7c0,0.2,0,0.4,0,0.5c0,0.2,0,0.3-0.1,0.4c0,0.1-0.1,0.2-0.2,0.2c-0.1,0-0.2,0.1-0.3,0.1L18.9,7L18.6,4.7z
					 M18.9,5.1l0.3,1.5l0.2,0c0.1,0,0.2,0,0.2-0.1c0,0,0.1-0.1,0.1-0.1c0-0.1,0-0.1,0-0.2c0-0.1,0-0.2,0-0.4c0-0.2-0.1-0.3-0.1-0.4
					c0-0.1-0.1-0.2-0.1-0.2c0,0-0.1-0.1-0.2-0.1c0,0-0.1,0-0.3,0L18.9,5.1z"/>
				<path class="st3" d="M22,6.6l-0.3,0l-0.2-0.5l-0.6,0l-0.1,0.5l-0.3,0l0.5-2.3l0.3,0L22,6.6z M21.3,5.8l-0.3-0.8l-0.2,0.9
					L21.3,5.8z"/>
				<path class="st3" d="M22.2,6.7l0.1-2.3l0.3,0l0.6,1.6l0-1.5l0.3,0l-0.1,2.3l-0.3,0l-0.6-1.5l0,1.5L22.2,6.7z"/>
				<path class="st3" d="M24.5,6.8l0.3-2.3l0.3,0l-0.3,2.3L24.5,6.8z"/>
				<path class="st3" d="M25.2,6.9l0.4-2.2L26,4.7l-0.4,1.9l0.8,0.2l-0.1,0.4L25.2,6.9z"/>
				<path class="st3" d="M26.6,7.2L27.2,5l0.5,0.1l-0.2,1.6l0.7-1.4l0.5,0.1L28,7.6l-0.3-0.1l0.5-1.7l-0.8,1.6l-0.3-0.1l0.2-1.8
					l-0.5,1.7L26.6,7.2z"/>
				<path class="st3" d="M29.3,5.6l0.3,0.1l-0.5,1.1C29,7.1,29,7.2,28.9,7.2c0,0.1,0,0.2,0,0.2c0,0.1,0.1,0.1,0.2,0.2
					c0.1,0,0.2,0,0.2,0s0.1-0.1,0.2-0.2c0-0.1,0.1-0.2,0.2-0.4L30.1,6l0.3,0.1L30,7.2c-0.1,0.3-0.2,0.4-0.3,0.5
					c-0.1,0.1-0.1,0.2-0.2,0.2c-0.1,0.1-0.2,0.1-0.2,0.1c-0.1,0-0.2,0-0.3-0.1c-0.1-0.1-0.2-0.1-0.3-0.2c-0.1-0.1-0.1-0.2-0.1-0.3
					c0-0.1,0-0.2,0-0.3c0-0.1,0.1-0.3,0.2-0.6L29.3,5.6z"/>
				<path class="st3" d="M30.5,8.7l1.2-2L32.1,7c0.2,0.1,0.3,0.2,0.3,0.2c0.1,0.1,0.1,0.2,0.1,0.3c0,0.1-0.1,0.3-0.1,0.4
					c-0.1,0.1-0.1,0.2-0.2,0.3C32,8.3,32,8.3,31.9,8.3c-0.1,0-0.1,0-0.2,0c-0.1,0-0.2-0.1-0.3-0.1l-0.2-0.1l-0.4,0.7L30.5,8.7z
					 M31.7,7.2l-0.3,0.6l0.2,0.1C31.7,7.9,31.7,8,31.8,8c0,0,0.1,0,0.1,0c0,0,0.1-0.1,0.1-0.1c0-0.1,0.1-0.1,0.1-0.2
					c0-0.1,0-0.1-0.1-0.2c0,0-0.1-0.1-0.2-0.1L31.7,7.2z"/>
				<path class="st3" d="M32.4,8.5c0.1-0.2,0.3-0.3,0.4-0.4C32.9,8,33,8,33.1,7.9c0.1,0,0.2-0.1,0.3,0c0.1,0,0.2,0.1,0.3,0.1
					C33.9,8.1,34,8.3,34,8.6c0,0.3-0.1,0.5-0.3,0.8C33.4,9.7,33.2,9.9,33,10c-0.2,0.1-0.4,0.1-0.6-0.1c-0.2-0.1-0.3-0.3-0.3-0.6
					C32.1,9.1,32.2,8.8,32.4,8.5z M32.7,8.7c-0.2,0.2-0.2,0.4-0.2,0.6c0,0.2,0,0.3,0.1,0.3c0.1,0.1,0.2,0.1,0.4,0
					c0.1-0.1,0.3-0.2,0.5-0.4c0.2-0.2,0.2-0.4,0.3-0.5c0-0.2,0-0.3-0.1-0.3c-0.1-0.1-0.2-0.1-0.4,0C33,8.3,32.8,8.5,32.7,8.7z"/>
				<path class="st3" d="M33.2,10.5l1.5-1.7L35,9l-1.3,1.4l0.6,0.5L34,11.3L33.2,10.5z"/>
				<path class="st3" d="M34.2,11.5l1.6-1.6l0.2,0.2l-1.6,1.6L34.2,11.5z"/>
				<path class="st3" d="M35,12.2l1.4-1.3l-0.3-0.4l0.3-0.3l0.8,0.9l-0.3,0.3l-0.3-0.4l-1.4,1.3L35,12.2z"/>
				<path class="st3" d="M35.6,13l1.8-1.4l0.2,0.3l-1.8,1.4L35.6,13z"/>
				<path class="st3" d="M36.1,13.6l1.9-1.3l0.2,0.3l-0.8,0.6l1.2,0l0.2,0.4l-1.1,0l-0.8,1.3l-0.2-0.3l0.7-1l-0.5,0l-0.6,0.4
					L36.1,13.6z"/>
				<path class="st3" d="M38.4,15.8l0.3-0.2l0.3,0.6l-0.8,0.4c-0.1,0-0.2-0.1-0.4-0.2c-0.1-0.1-0.2-0.2-0.3-0.3
					c-0.1-0.1-0.1-0.3-0.1-0.5c0-0.2,0.1-0.3,0.3-0.4c0.1-0.1,0.3-0.3,0.5-0.3c0.2-0.1,0.4-0.2,0.6-0.2c0.2,0,0.4,0,0.5,0.1
					c0.1,0.1,0.2,0.2,0.3,0.3c0.1,0.2,0.1,0.3,0,0.5c-0.1,0.2-0.2,0.3-0.4,0.4l-0.2-0.2c0.1-0.1,0.2-0.1,0.2-0.2c0-0.1,0-0.2,0-0.3
					c-0.1-0.1-0.2-0.2-0.3-0.2s-0.3,0-0.6,0.1c-0.2,0.1-0.4,0.2-0.5,0.4c-0.1,0.1-0.1,0.3,0,0.4c0,0.1,0.1,0.1,0.1,0.2
					c0.1,0,0.1,0.1,0.2,0.1l0.3-0.1L38.4,15.8z"/>
				<path class="st3" d="M40.2,16.3l0.1,0.3l-1.2,0.4c-0.2,0.1-0.3,0.1-0.4,0.1c-0.1,0-0.1,0.1-0.2,0.2c0,0.1,0,0.1,0,0.2
					c0,0.1,0.1,0.1,0.1,0.2c0.1,0,0.1,0,0.2,0c0.1,0,0.2-0.1,0.4-0.1l1.2-0.4l0.1,0.3l-1.1,0.4c-0.3,0.1-0.4,0.2-0.6,0.2
					c-0.1,0-0.2,0-0.3,0c-0.1,0-0.2-0.1-0.2-0.1c-0.1-0.1-0.1-0.1-0.2-0.3c-0.1-0.1-0.1-0.3,0-0.3c0-0.1,0.1-0.2,0.1-0.2
					c0.1-0.1,0.1-0.1,0.2-0.2c0.1-0.1,0.3-0.1,0.5-0.2L40.2,16.3z"/>
				<path class="st3" d="M38.6,18.7l2.2-0.6l0.1,0.3l-1.3,1L41,19l0.1,0.3l-2.2,0.6l-0.1-0.3l1.3-1L38.7,19L38.6,18.7z"/>
				<path class="st3" d="M39.2,21.7l-0.1-0.3l0.5-0.2l-0.1-0.6L39,20.4l-0.1-0.3l2.4,0.3l0.1,0.3L39.2,21.7z M40,21l0.8-0.3
					l-0.9-0.1L40,21z"/>
				<path class="st3" d="M39.2,22.5l2.3,0l0,0.3L40,23.4l1.5,0l0,0.3l-2.3,0l0-0.3l1.5-0.7l-1.5,0L39.2,22.5z"/>
				<path class="st3" d="M41.5,24.3l0,0.3l-1.2-0.1c-0.2,0-0.3,0-0.4,0c-0.1,0-0.2,0-0.2,0.1c-0.1,0-0.1,0.1-0.1,0.2
					c0,0.1,0,0.2,0.1,0.2c0,0.1,0.1,0.1,0.2,0.1s0.2,0,0.4,0l1.3,0.1l0,0.3l-1.2-0.1c-0.3,0-0.5,0-0.6-0.1c-0.1,0-0.2-0.1-0.3-0.1
					c-0.1-0.1-0.1-0.1-0.2-0.2c0-0.1-0.1-0.2,0-0.3c0-0.2,0-0.3,0.1-0.3c0.1-0.1,0.1-0.1,0.2-0.2c0.1,0,0.2-0.1,0.3-0.1
					c0.1,0,0.3,0,0.6,0L41.5,24.3z"/>
				<path class="st3" d="M39.8,25.8l0,0.3c-0.2,0-0.3,0-0.3,0.1c-0.1,0-0.1,0.1-0.1,0.2c0,0.1,0,0.2,0.1,0.2
					c0.1,0.1,0.1,0.1,0.2,0.1c0.1,0,0.1,0,0.1,0c0,0,0.1,0,0.1-0.1c0,0,0.1-0.1,0.1-0.2c0.1-0.2,0.2-0.3,0.3-0.3
					c0.1-0.1,0.3-0.1,0.5-0.1c0.1,0,0.2,0.1,0.3,0.1c0.1,0.1,0.2,0.1,0.2,0.2c0,0.1,0,0.2,0,0.3c0,0.2-0.1,0.3-0.3,0.4
					c-0.1,0.1-0.3,0.1-0.5,0.1l0-0.3c0.1,0,0.2,0,0.3,0c0.1,0,0.1-0.1,0.1-0.2c0-0.1,0-0.2,0-0.2c0,0-0.1-0.1-0.1-0.1
					c-0.1,0-0.1,0-0.1,0c-0.1,0-0.1,0.1-0.2,0.3c-0.1,0.1-0.2,0.2-0.2,0.3c-0.1,0.1-0.2,0.1-0.3,0.1c-0.1,0-0.2,0-0.4,0
					c-0.1,0-0.2-0.1-0.4-0.1c-0.1-0.1-0.2-0.2-0.2-0.3c0-0.1,0-0.2,0-0.4c0-0.2,0.1-0.3,0.3-0.4C39.4,25.8,39.6,25.8,39.8,25.8z"/>
				<path class="st3" d="M38.4,28.6l0.1-0.3l0.5,0l0.2-0.6l-0.5-0.3l0.1-0.3l2,1.2l-0.1,0.3L38.4,28.6z M39.5,28.3l0.9,0l-0.8-0.4
					L39.5,28.3z"/>
				<path class="st3" d="M38.3,28.8l2.1,0.8L40.4,30l-1.7,0l1.4,0.6L40,30.8L37.9,30l0.1-0.3l1.6,0l-1.4-0.5L38.3,28.8z"/>
				<path class="st3" d="M37.6,30.7l1.7,0.9l0.2-0.4l0.3,0.2l-0.6,1.1l-0.3-0.2l0.2-0.4L37.4,31L37.6,30.7z"/>
				<path class="st3" d="M36.4,32.7l0.2-0.3l0.5,0.2l0.3-0.5l-0.4-0.4l0.2-0.3l1.6,1.7l-0.2,0.3L36.4,32.7z M37.5,32.6l0.8,0.3
					l-0.6-0.6L37.5,32.6z"/>
				<path class="st3" d="M36.3,32.8l1.8,1.4l-0.4,0.5c-0.1,0.1-0.2,0.2-0.3,0.3c-0.1,0-0.2,0-0.3,0c-0.1,0-0.2-0.1-0.3-0.2
					c-0.1-0.1-0.2-0.2-0.3-0.3c0-0.1,0-0.2,0-0.4c-0.1,0-0.2,0-0.3,0c-0.1,0-0.2,0-0.4-0.1L35.4,34l0.2-0.3l0.5,0.1
					c0.2,0,0.3,0.1,0.4,0.1c0.1,0,0.1,0,0.1,0c0,0,0.1-0.1,0.1-0.1l0-0.1l-0.8-0.6L36.3,32.8z M37.2,33.9L37,34.1
					c-0.1,0.1-0.1,0.2-0.1,0.2c0,0,0,0.1,0,0.1c0,0,0.1,0.1,0.1,0.1c0.1,0,0.1,0.1,0.2,0.1c0.1,0,0.1,0,0.1,0c0,0,0.1-0.1,0.1-0.2
					l0.1-0.2L37.2,33.9z"/>
				<path class="st3" d="M34.3,35.2l0.2-0.3l0.5,0.3l0.4-0.5l-0.3-0.4l0.2-0.3l1.3,2l-0.2,0.2L34.3,35.2z M35.4,35.4l0.8,0.4
					l-0.5-0.7L35.4,35.4z"/>
			</g>
			<g>
				<path class="st3" d="M15.9,40.3l0.3,0.3c-0.1,0.2-0.3,0.3-0.5,0.4c-0.2,0-0.4,0-0.6-0.1c-0.3-0.1-0.4-0.3-0.5-0.5
					c-0.1-0.2-0.1-0.5,0.1-0.8c0.1-0.3,0.3-0.5,0.6-0.7c0.2-0.1,0.5-0.1,0.8,0c0.2,0.1,0.4,0.3,0.5,0.5c0.1,0.1,0.1,0.3,0.1,0.4
					l-0.4-0.1c0-0.1,0-0.2,0-0.3c0-0.1-0.1-0.2-0.2-0.2c-0.1-0.1-0.3-0.1-0.4,0c-0.1,0.1-0.2,0.2-0.3,0.5c-0.1,0.2-0.1,0.4-0.1,0.6
					s0.1,0.2,0.3,0.3c0.1,0,0.2,0,0.3,0C15.7,40.5,15.8,40.4,15.9,40.3z"/>
				<path class="st3" d="M16.9,41.5l0.6-2l0.4,0.1l-0.6,2L16.9,41.5z"/>
				<path class="st3" d="M20.2,42.2l-0.5-0.1l-0.1-0.5l-0.8-0.2l-0.3,0.4l-0.4-0.1l1.2-1.9l0.4,0.1L20.2,42.2z M19.6,41.2l-0.1-0.8
					L19,41.1L19.6,41.2z"/>
				<path class="st3" d="M21.1,42.2l0.1-2.1l0.4,0l0.8,1.4l0-1.4l0.4,0l-0.1,2.1l-0.4,0l-0.8-1.4l0,1.4L21.1,42.2z"/>
				<path class="st3" d="M24.5,40l0.4,0l0.1,1.3c0,0.2,0,0.3,0,0.4c0,0.1-0.1,0.2-0.2,0.3c-0.1,0.1-0.2,0.1-0.4,0.2
					c-0.2,0-0.4,0-0.5-0.1c-0.1-0.1-0.2-0.3-0.2-0.5l0.4-0.1c0,0.1,0,0.2,0.1,0.3c0.1,0.1,0.1,0.1,0.2,0.1c0.1,0,0.2,0,0.2-0.1
					c0-0.1,0-0.2,0-0.3L24.5,40z"/>
				<path class="st3" d="M25.8,39.8l0.4-0.1l0.2,1.1c0,0.2,0.1,0.3,0.1,0.3c0,0.1,0.1,0.1,0.2,0.2c0.1,0,0.2,0,0.3,0
					c0.1,0,0.2-0.1,0.3-0.1c0-0.1,0.1-0.1,0.1-0.2c0-0.1,0-0.2-0.1-0.4L27,39.5l0.4-0.1l0.2,1.1c0.1,0.2,0.1,0.4,0.1,0.5
					c0,0.1,0,0.2-0.1,0.3c0,0.1-0.1,0.2-0.2,0.2c-0.1,0.1-0.2,0.1-0.4,0.2c-0.2,0-0.4,0.1-0.5,0c-0.1,0-0.2-0.1-0.3-0.1
					c-0.1-0.1-0.1-0.1-0.2-0.2c-0.1-0.1-0.1-0.3-0.2-0.5L25.8,39.8z"/>
				<path class="st3" d="M29,41.1l-0.8-2l0.8-0.3c0.2-0.1,0.4-0.1,0.5-0.1c0.1,0,0.2,0,0.3,0.1c0.1,0.1,0.2,0.2,0.2,0.3
					c0.1,0.1,0.1,0.3,0,0.4c0,0.1-0.2,0.2-0.3,0.3c0.1,0,0.2,0,0.3,0.1c0.1,0,0.2,0.1,0.4,0.2l0.4,0.3l-0.5,0.2l-0.5-0.3
					c-0.2-0.1-0.3-0.2-0.3-0.2c-0.1,0-0.1,0-0.2,0c0,0-0.1,0-0.2,0.1l-0.1,0l0.3,0.8L29,41.1z M28.9,39.8l0.3-0.1
					c0.2-0.1,0.3-0.1,0.3-0.2c0,0,0.1-0.1,0.1-0.1c0-0.1,0-0.1,0-0.2c0-0.1-0.1-0.1-0.1-0.1c-0.1,0-0.1,0-0.2,0c0,0-0.1,0-0.3,0.1
					l-0.3,0.1L28.9,39.8z"/>
			</g>
			<g>
				<path class="st3" d="M15.6,33.5l0.3,0.1c0,0.1,0,0.2,0,0.2c0,0.1,0.1,0.1,0.2,0.2c0.1,0.1,0.2,0.1,0.2,0.1c0.1,0,0.1,0,0.1-0.1
					c0,0,0-0.1,0-0.1c0,0,0-0.1-0.1-0.1c0,0-0.1-0.1-0.2-0.2c-0.1-0.1-0.2-0.2-0.2-0.3c0-0.1,0-0.2,0-0.3c0-0.1,0.1-0.1,0.2-0.2
					c0.1,0,0.2,0,0.2,0s0.2,0,0.3,0.1c0.2,0.1,0.3,0.2,0.3,0.3c0,0.1,0,0.2,0,0.4l-0.3-0.1c0-0.1,0-0.1,0-0.2c0-0.1-0.1-0.1-0.1-0.1
					c-0.1,0-0.1-0.1-0.2-0.1c0,0-0.1,0-0.1,0.1c0,0,0,0.1,0,0.1c0,0,0.1,0.1,0.2,0.2c0.1,0.1,0.2,0.2,0.2,0.3c0,0.1,0.1,0.1,0.1,0.2
					c0,0.1,0,0.2-0.1,0.2c0,0.1-0.1,0.1-0.2,0.2c-0.1,0-0.2,0.1-0.3,0c-0.1,0-0.2-0.1-0.3-0.1c-0.2-0.1-0.3-0.2-0.3-0.3
					C15.5,33.8,15.5,33.7,15.6,33.5z"/>
				<path class="st3" d="M18.6,35.5l0.4-1.2l-0.4-0.1l0.1-0.2l1.2,0.3l-0.1,0.2l-0.4-0.1l-0.4,1.2L18.6,35.5z"/>
				<path class="st3" d="M21.2,36.1l0.1-1.5l0.3,0l-0.1,1.5L21.2,36.1z"/>
				<path class="st3" d="M23.4,35.6l0.3-0.1c0,0.1,0.1,0.2,0.1,0.2c0.1,0,0.1,0.1,0.2,0c0.1,0,0.2,0,0.2-0.1c0,0,0.1-0.1,0.1-0.2
					c0,0,0-0.1,0-0.1c0,0-0.1,0-0.1-0.1c0,0-0.1,0-0.3,0c-0.2,0-0.3-0.1-0.4-0.1c-0.1-0.1-0.2-0.2-0.2-0.3c0-0.1,0-0.2,0-0.2
					c0-0.1,0.1-0.1,0.2-0.2c0.1,0,0.2-0.1,0.3-0.1c0.2,0,0.3,0,0.4,0.1c0.1,0.1,0.2,0.2,0.2,0.3l-0.3,0.1c0-0.1-0.1-0.1-0.1-0.2
					c0,0-0.1,0-0.2,0c-0.1,0-0.2,0-0.2,0.1c0,0,0,0.1,0,0.1c0,0,0,0.1,0.1,0.1c0,0,0.1,0,0.3,0.1c0.2,0,0.3,0,0.3,0.1
					c0.1,0,0.1,0.1,0.2,0.1c0,0.1,0.1,0.1,0.1,0.2c0,0.1,0,0.2,0,0.3c0,0.1-0.1,0.1-0.2,0.2c-0.1,0-0.2,0.1-0.3,0.1
					c-0.2,0-0.3,0-0.5-0.1C23.6,35.9,23.5,35.8,23.4,35.6z"/>
				<path class="st3" d="M26.6,35.4L26.2,34l0.3-0.1l0.5,1.5L26.6,35.4z"/>
				<path class="st3" d="M28.8,34.5L28,33.2l0.4-0.3c0.2-0.1,0.3-0.2,0.3-0.2c0.1,0,0.2,0,0.3,0s0.2,0.1,0.2,0.2
					c0,0.1,0.1,0.2,0.1,0.2c0,0.1,0,0.1,0,0.2c0,0.1-0.1,0.1-0.1,0.1c-0.1,0.1-0.1,0.1-0.3,0.2l-0.2,0.1l0.3,0.5L28.8,34.5z
					 M28.4,33.3l0.2,0.4l0.1-0.1c0.1-0.1,0.2-0.1,0.2-0.1c0,0,0-0.1,0-0.1s0-0.1,0-0.1c0,0-0.1-0.1-0.1-0.1c0,0-0.1,0-0.1,0
					c0,0-0.1,0-0.2,0.1L28.4,33.3z"/>
			</g>
		</g>
	</g>
	<g>
		<path class="st3" d="M51.9,14.7l2.1-0.2c0.1,0.7,0.4,1.2,0.8,1.6c0.4,0.3,0.9,0.5,1.6,0.5c0.7,0,1.2-0.1,1.6-0.4
			c0.4-0.3,0.5-0.6,0.5-1c0-0.3-0.1-0.5-0.2-0.7c-0.2-0.2-0.4-0.3-0.8-0.5c-0.3-0.1-0.8-0.2-1.8-0.5c-1.2-0.3-2-0.7-2.5-1.1
			c-0.7-0.6-1-1.3-1-2.2c0-0.6,0.2-1.1,0.5-1.6c0.3-0.5,0.8-0.8,1.4-1.1c0.6-0.3,1.3-0.4,2.1-0.4c1.4,0,2.4,0.3,3.1,0.9
			c0.7,0.6,1.1,1.4,1.1,2.4l-2.2,0.1c-0.1-0.6-0.3-1-0.6-1.2C57.4,9.1,56.9,9,56.3,9c-0.6,0-1.1,0.1-1.5,0.4
			c-0.2,0.2-0.3,0.4-0.3,0.7c0,0.3,0.1,0.5,0.3,0.7c0.3,0.2,0.9,0.5,2,0.7c1.1,0.3,1.9,0.5,2.4,0.8c0.5,0.3,0.9,0.6,1.2,1.1
			c0.3,0.5,0.4,1,0.4,1.7c0,0.6-0.2,1.2-0.5,1.8c-0.3,0.5-0.8,0.9-1.5,1.2c-0.6,0.3-1.4,0.4-2.4,0.4c-1.4,0-2.4-0.3-3.2-1
			C52.5,16.9,52.1,15.9,51.9,14.7z"/>
		<path class="st3" d="M65.1,18.3v-9h-3.2V7.4h8.6v1.8h-3.2v9H65.1z"/>
		<path class="st3" d="M71.8,18.3V7.4H74v10.9H71.8z"/>
		<path class="st3" d="M75.6,14.7l2.1-0.2c0.1,0.7,0.4,1.2,0.8,1.6c0.4,0.3,0.9,0.5,1.6,0.5c0.7,0,1.2-0.1,1.6-0.4
			c0.4-0.3,0.5-0.6,0.5-1c0-0.3-0.1-0.5-0.2-0.7c-0.2-0.2-0.4-0.3-0.8-0.5c-0.3-0.1-0.8-0.2-1.8-0.5c-1.2-0.3-2-0.7-2.5-1.1
			c-0.7-0.6-1-1.3-1-2.2c0-0.6,0.2-1.1,0.5-1.6c0.3-0.5,0.8-0.8,1.4-1.1c0.6-0.3,1.3-0.4,2.1-0.4c1.4,0,2.4,0.3,3.1,0.9
			c0.7,0.6,1.1,1.4,1.1,2.4l-2.2,0.1c-0.1-0.6-0.3-1-0.6-1.2C81,9.1,80.5,9,79.9,9c-0.6,0-1.1,0.1-1.5,0.4c-0.2,0.2-0.3,0.4-0.3,0.7
			c0,0.3,0.1,0.5,0.3,0.7c0.3,0.2,0.9,0.5,2,0.7c1.1,0.3,1.9,0.5,2.4,0.8c0.5,0.3,0.9,0.6,1.2,1.1c0.3,0.5,0.4,1,0.4,1.7
			c0,0.6-0.2,1.2-0.5,1.8c-0.3,0.5-0.8,0.9-1.5,1.2c-0.6,0.3-1.4,0.4-2.4,0.4c-1.4,0-2.4-0.3-3.2-1C76.1,16.9,75.7,15.9,75.6,14.7z"
			/>
		<path class="st3" d="M86.2,18.3V7.4h2.2v10.9H86.2z"/>
		<path class="st3" d="M90.5,18.3V7.4H94c1.3,0,2.2,0.1,2.6,0.2c0.6,0.2,1.1,0.5,1.6,1.1c0.4,0.5,0.6,1.3,0.6,2.1
			c0,0.7-0.1,1.2-0.4,1.7c-0.2,0.5-0.6,0.8-0.9,1.1c-0.4,0.3-0.8,0.4-1.1,0.5c-0.5,0.1-1.3,0.2-2.3,0.2h-1.4v4.1H90.5z M92.7,9.2
			v3.1h1.2c0.9,0,1.4-0.1,1.7-0.2c0.3-0.1,0.5-0.3,0.7-0.5c0.2-0.2,0.2-0.5,0.2-0.8c0-0.4-0.1-0.7-0.3-1c-0.2-0.3-0.5-0.4-0.9-0.5
			c-0.3,0-0.8-0.1-1.6-0.1H92.7z"/>
		<path class="st3" d="M109.6,14.3v-1.8h4.7v4.3c-0.5,0.4-1.1,0.8-2,1.2c-0.9,0.3-1.8,0.5-2.7,0.5c-1.1,0-2.1-0.2-3-0.7
			c-0.8-0.5-1.5-1.2-1.9-2c-0.4-0.9-0.6-1.9-0.6-2.9c0-1.1,0.2-2.1,0.7-3c0.5-0.9,1.2-1.6,2.1-2c0.7-0.4,1.6-0.5,2.6-0.5
			c1.3,0,2.4,0.3,3.2,0.8c0.8,0.6,1.2,1.3,1.5,2.3l-2.2,0.4c-0.2-0.5-0.4-1-0.9-1.3c-0.4-0.3-1-0.5-1.6-0.5c-1,0-1.7,0.3-2.3,0.9
			c-0.6,0.6-0.8,1.5-0.8,2.7c0,1.3,0.3,2.3,0.9,2.9c0.6,0.6,1.3,1,2.3,1c0.5,0,0.9-0.1,1.4-0.3c0.5-0.2,0.9-0.4,1.2-0.7v-1.4H109.6z
			"/>
		<path class="st3" d="M116.4,7.4h2.2v5.9c0,0.9,0,1.5,0.1,1.8c0.1,0.4,0.3,0.8,0.7,1.1c0.4,0.3,0.8,0.4,1.5,0.4
			c0.6,0,1.1-0.1,1.4-0.4c0.3-0.3,0.5-0.6,0.6-0.9c0.1-0.4,0.1-1,0.1-1.8v-6h2.2v5.7c0,1.3-0.1,2.2-0.2,2.8c-0.1,0.5-0.3,1-0.7,1.4
			c-0.3,0.4-0.7,0.7-1.3,0.9c-0.5,0.2-1.2,0.3-2.1,0.3c-1,0-1.8-0.1-2.4-0.4c-0.5-0.2-1-0.6-1.3-0.9c-0.3-0.4-0.5-0.8-0.6-1.2
			c-0.1-0.6-0.2-1.5-0.2-2.8V7.4z"/>
		<path class="st3" d="M127.4,18.3V7.4h2.1l4.5,7.3V7.4h2v10.9h-2.2l-4.4-7.1v7.1H127.4z"/>
		<path class="st3" d="M148.1,18.3h-2.4l-0.9-2.5h-4.3l-0.9,2.5h-2.3l4.2-10.9h2.3L148.1,18.3z M144.1,14l-1.5-4l-1.5,4H144.1z"/>
		<path class="st3" d="M52.5,36.5V25.6h2.1l4.5,7.3v-7.3h2v10.9h-2.2l-4.4-7.1v7.1H52.5z"/>
		<path class="st3" d="M63.4,25.6h2.2v5.9c0,0.9,0,1.5,0.1,1.8c0.1,0.4,0.3,0.8,0.7,1.1c0.4,0.3,0.8,0.4,1.5,0.4
			c0.6,0,1.1-0.1,1.4-0.4c0.3-0.3,0.5-0.6,0.6-0.9c0.1-0.4,0.1-1,0.1-1.8v-6h2.2v5.7c0,1.3-0.1,2.2-0.2,2.8c-0.1,0.5-0.3,1-0.7,1.4
			c-0.3,0.4-0.7,0.7-1.3,0.9c-0.5,0.2-1.2,0.3-2.1,0.3c-1,0-1.8-0.1-2.4-0.4c-0.5-0.2-1-0.6-1.3-0.9c-0.3-0.4-0.5-0.8-0.6-1.2
			c-0.1-0.6-0.2-1.5-0.2-2.8V25.6z"/>
		<path class="st3" d="M73.9,33l2.1-0.2c0.1,0.7,0.4,1.2,0.8,1.6c0.4,0.3,0.9,0.5,1.6,0.5c0.7,0,1.2-0.1,1.6-0.4
			c0.4-0.3,0.5-0.6,0.5-1c0-0.3-0.1-0.5-0.2-0.7c-0.2-0.2-0.4-0.3-0.8-0.5c-0.3-0.1-0.8-0.2-1.8-0.5c-1.2-0.3-2-0.7-2.5-1.1
			c-0.7-0.6-1-1.3-1-2.2c0-0.6,0.2-1.1,0.5-1.6c0.3-0.5,0.8-0.8,1.4-1.1c0.6-0.3,1.3-0.4,2.1-0.4c1.4,0,2.4,0.3,3.1,0.9
			c0.7,0.6,1.1,1.4,1.1,2.4l-2.2,0.1c-0.1-0.6-0.3-1-0.6-1.2c-0.3-0.2-0.8-0.4-1.4-0.4c-0.6,0-1.1,0.1-1.5,0.4
			c-0.2,0.2-0.3,0.4-0.3,0.7c0,0.3,0.1,0.5,0.3,0.7c0.3,0.2,0.9,0.5,2,0.7c1.1,0.3,1.9,0.5,2.4,0.8c0.5,0.3,0.9,0.6,1.2,1.1
			c0.3,0.5,0.4,1,0.4,1.7c0,0.6-0.2,1.2-0.5,1.8c-0.3,0.5-0.8,0.9-1.5,1.2c-0.6,0.3-1.4,0.4-2.4,0.4c-1.4,0-2.4-0.3-3.2-1
			C74.5,35.1,74,34.2,73.9,33z"/>
		<path class="st3" d="M94.4,36.5H92L91,34h-4.3l-0.9,2.5h-2.3l4.2-10.9H90L94.4,36.5z M90.3,32.2l-1.5-4l-1.5,4H90.3z"/>
		<path class="st3" d="M95.6,36.5V25.6h2.1l4.5,7.3v-7.3h2v10.9H102l-4.4-7.1v7.1H95.6z"/>
		<path class="st3" d="M109,36.5v-9h-3.2v-1.8h8.6v1.8h-3.2v9H109z"/>
		<path class="st3" d="M124.5,36.5h-2.4l-0.9-2.5h-4.3l-0.9,2.5h-2.3l4.2-10.9h2.3L124.5,36.5z M120.4,32.2l-1.5-4l-1.5,4H120.4z"/>
		<path class="st3" d="M125.6,36.5V25.6h4.6c1.2,0,2,0.1,2.5,0.3c0.5,0.2,0.9,0.5,1.3,1c0.3,0.5,0.5,1.1,0.5,1.7
			c0,0.8-0.2,1.5-0.7,2c-0.5,0.5-1.2,0.9-2.2,1c0.5,0.3,0.9,0.6,1.2,0.9c0.3,0.3,0.7,0.9,1.2,1.8l1.3,2.1h-2.6l-1.6-2.4
			c-0.6-0.8-0.9-1.4-1.2-1.6c-0.2-0.2-0.4-0.4-0.7-0.5c-0.2-0.1-0.6-0.1-1.1-0.1h-0.4v4.5H125.6z M127.8,30.2h1.6c1.1,0,1.7,0,2-0.1
			c0.3-0.1,0.5-0.2,0.6-0.5c0.1-0.2,0.2-0.5,0.2-0.8c0-0.4-0.1-0.7-0.3-0.9c-0.2-0.2-0.5-0.4-0.8-0.4c-0.2,0-0.7,0-1.6,0h-1.7V30.2z
			"/>
		<path class="st3" d="M146.4,36.5H144l-0.9-2.5h-4.3l-0.9,2.5h-2.3l4.2-10.9h2.3L146.4,36.5z M142.4,32.2l-1.5-4l-1.5,4H142.4z"/>
	</g>
</g>
</svg>
